<?xml version="1.0" encoding="utf-8" ?>
<svg xmlns="http://www.w3.org/2000/svg" xmlns:xlink="http://www.w3.org/1999/xlink" width="1024" height="1024">
	<path fill="#FEFEFE" d="M0 0L1024 0L1024 1024L0 1024L0 0Z"/>
	<path d="M561.62 758.042C563.074 758.412 564.488 758.906 565.887 759.448C569.102 760.694 585.319 767.518 586.284 769.696L585.398 770.33Q584.24 770.588 583.065 770.762Q581.891 770.935 580.708 771.024Q579.524 771.112 578.337 771.115Q577.15 771.117 575.966 771.033Q574.782 770.95 573.607 770.781Q572.432 770.613 571.273 770.359Q570.113 770.106 568.975 769.77Q567.837 769.433 566.726 769.015C564.355 768.102 561.802 766.505 560.819 764.04C559.978 761.929 560.873 760.027 561.62 758.042Z"/>
	<path d="M563.098 744.408C572.99 746.484 583.128 750.145 592.839 753.083C596.369 754.15 602.996 755.617 604.829 759.047C604.483 761.94 602.537 763.326 600.531 765.167C599.721 765.724 598.358 766.908 597.388 766.887C592.8 766.788 562.832 753.17 559.342 749.923C559.346 749.696 559.332 749.467 559.355 749.24C559.59 746.889 561.373 745.743 563.098 744.408Z"/>
	<path d="M307.807 486.193C315.69 493.144 321.219 515.153 324.257 525.377C322.521 527.655 320.666 529.85 318.855 532.068L318.514 532.034C314.85 529.839 305.798 515.211 303.333 510.962C304.581 502.662 306.32 494.452 307.807 486.193Z"/>
	<path d="M826.368 265.346C828.455 265.451 829.87 265.525 831.084 267.482C832.95 270.488 833.411 276.233 834.307 279.764C836.896 289.961 840.51 298.389 847.65 306.261C850.101 308.962 852.88 311.46 855.213 314.248C855.985 315.17 856.604 316.086 856.312 317.355C855.955 318.912 854.764 319.784 853.539 320.646C850.18 320.74 848.26 319.158 845.83 317.001C834.352 306.809 824.439 286.674 823.916 271.323C823.822 268.591 824.491 267.301 826.368 265.346Z"/>
	<path d="M152.585 488.868C152.854 488.913 153.125 488.949 153.392 489.003C186.57 495.705 218.254 532.07 236.054 559.197C254.209 586.865 266.785 618.148 274.969 650.139C275.946 653.959 278.586 661.408 277.81 665.157C274.658 660.121 273.929 653.706 272.423 648.029Q270.143 639.719 267.611 631.482C257.373 598.483 240.735 566.331 218.621 539.724C207.359 526.174 194.333 512.69 179.395 503.2C176.346 501.264 173.08 499.259 169.813 497.726C166.145 496.005 154.176 493.052 152.199 490.454L152.585 488.868Z"/>
	<path d="M327.981 515.755C328.111 515.795 328.243 515.826 328.37 515.874C337.726 519.446 354.686 549.501 358.867 559.291L353.354 570.828L351.102 575.516C342.342 556.016 336.029 535.528 327.981 515.755Z"/>
	<path d="M347.286 809.32C349.73 811.912 351.68 830.606 352.125 835.054C341.291 836.279 330.263 836.422 319.375 836.576L317.225 836.525C314.714 834.283 315.028 829.851 314.763 826.68Q315.758 826.646 316.749 826.55C329.704 825.25 339.087 819.16 347.286 809.32Z"/>
	<path d="M223.977 285.622C224.567 285.608 225.127 285.646 225.712 285.72C230.523 286.322 234.678 288.935 237.541 292.853C238.817 294.599 239.889 296.754 239.484 298.979C238.707 303.258 226.454 309.377 222.587 312.177C221.314 312.961 219.991 313.676 218.689 314.413C218.506 314.303 218.321 314.194 218.138 314.082C213.95 311.5 210.615 308.251 209.615 303.234Q209.482 302.534 209.419 301.824Q209.357 301.114 209.367 300.401Q209.376 299.688 209.457 298.98Q209.538 298.272 209.69 297.576Q209.842 296.879 210.064 296.202Q210.285 295.524 210.573 294.872Q210.861 294.22 211.214 293.601Q211.566 292.981 211.979 292.4C214.916 288.199 219.087 286.435 223.977 285.622Z"/>
	<path d="M597.293 695.238C601.382 695.13 605.914 694.668 609.963 695.313C613.017 695.8 615.862 697.103 617.668 699.703C620.473 703.742 619.989 709.092 619.178 713.671Q609.001 712.128 598.864 710.339Q586.522 708.371 574.222 706.153C573.141 704.738 571.675 702.94 571.528 701.091C571.423 699.767 571.623 698.735 572.616 697.782C576.134 694.41 592.062 695.332 597.293 695.238Z"/>
	<path d="M642.285 336.455C643.184 336.441 644.105 336.415 645 336.511C646.445 336.667 647.264 337.199 648.212 338.286C649.274 342.13 643.226 351.24 641.719 355.109C640.011 359.496 638.524 364.452 638.244 369.174C636.745 394.431 650.268 405.906 665.599 422.784C670.753 428.458 678.761 439.541 678.067 447.629C677.889 449.702 676.977 450.824 675.438 452.111C674.225 451.936 672.439 451.663 671.515 450.825C668.523 448.111 665.898 437.52 663.066 433.224C659.586 427.946 654.398 423.43 649.983 418.929C638.414 407.131 630.872 393.07 629.74 376.372C628.864 363.447 633.773 346.317 642.285 336.455Z"/>
	<path d="M390.604 837.184L391.421 837.344C393.681 841.833 397.324 870.426 398.666 877.458C388.662 879.155 378.44 879.225 368.396 880.692L367.531 880.49C365.339 878.007 361.257 847.438 360.357 841.799C370.49 840.555 380.536 838.856 390.604 837.184Z"/>
	<path d="M564.3 712.724C574.212 712.375 605.083 715.925 613.905 719.194C615.25 719.693 616.107 719.993 616.641 721.397C618.707 726.826 613.802 731.703 611.89 736.339C612.187 736.741 612.582 737.218 612.696 737.716C613.414 740.854 609.316 749.892 607.97 752.835C595.327 749.85 582.79 744.73 570.483 740.531C566.937 739.295 560.624 737.739 558.002 734.947C557.16 734.051 556.724 733.136 556.938 731.863C557.081 731.014 557.576 730.37 558.223 729.865C563.082 726.076 589.394 734.134 596.398 735.247C598.538 735.587 600.465 736.047 602.299 734.711C602.423 733.734 602.495 733.091 601.667 732.332C597.296 728.328 560.764 723.043 558.321 718.817C557.641 717.641 557.746 717.3 558.001 716.05C559.932 713.555 561.234 713.167 564.3 712.724Z"/>
	<path d="M612.473 556.172C612.724 556.144 612.974 556.101 613.227 556.089C617.329 555.906 621.04 560.109 623.807 562.662C621.967 569.618 618.515 576.173 615.5 582.675C599.414 584.593 583.258 588.487 567.382 591.712C566.021 592.012 565.239 592.32 563.863 591.901C562.342 587.33 569.72 581.147 569.441 575.965C569.312 573.561 565.594 571.664 564.037 570.02C563.044 568.973 562.989 568.18 562.975 566.807C566.609 563.088 604.906 557.51 612.473 556.172Z"/>
	<path d="M379.193 729.342C380.804 735.001 380.657 741.848 381.042 747.71Q382.294 765.895 383.004 784.11C383.264 790.236 383.025 796.774 384.694 802.702C380.893 812.087 375.348 823.018 370.823 832.236C367.089 833.464 363.069 833.968 359.199 834.642C356.693 824.389 355.666 811.402 353.873 800.687C364.533 777.743 371.688 753.442 379.193 729.342Z"/>
	<path d="M350.865 888.722C354.207 888.457 357.646 888.527 361.003 888.445C364.875 904.738 366.489 921.571 370.787 937.749C362.64 938.103 354.408 937.891 346.25 937.907C341.914 937.924 337.575 937.855 333.239 937.818C330.86 921.705 327.98 905.634 325.488 889.531Q338.181 889.278 350.865 888.722Z"/>
	<path d="M399.541 665.253C401.534 669.618 402.174 675.278 403.285 679.982C407.449 697.614 412.919 712.63 425.631 725.928C418.707 741.551 409.541 757.143 401.491 772.253L396.256 783.302C389.727 764.928 387.491 746.627 386.236 727.31C385.855 721.445 385.107 715.21 386.024 709.375C386.74 704.817 388.742 700.197 390.067 695.769C393.129 685.544 395.678 675.225 399.541 665.253Z"/>
	<path d="M460.624 271.035C467.586 270.644 486.625 269.825 492.636 271.676C494.034 272.797 494.518 273.807 494.863 275.532C495.184 277.132 495.893 301.304 495.641 303.639C495.508 304.88 495.118 306.739 494.226 307.685C493.385 308.575 492.522 309.028 491.266 308.992C490.397 308.967 489.516 308.509 488.924 307.89C485.769 304.59 486.657 291.678 486.375 287.027C476.874 295.745 467.81 305.385 458.98 314.802C461.737 319.848 463.734 324.899 462.444 330.743C461.018 337.206 456.616 341.748 451.276 345.273C449.95 345.907 448.626 346.432 447.205 346.819C441.621 348.341 435.525 347.733 430.517 344.754C425.499 341.769 421.982 336.667 420.696 330.998C419.412 325.341 420.737 319.055 423.888 314.219C427.101 309.288 432.129 306.159 437.895 305.143C443.559 304.145 447.98 305.463 452.604 308.729C461.862 298.418 472.08 288.692 482.355 279.398C476.634 279.54 466.047 281.406 460.958 278.631C459.972 278.094 459.085 277.373 458.861 276.22C458.461 274.158 459.423 272.609 460.624 271.035Z"/>
	<path fill="#FEFEFE" d="M442.735 313.707C444.824 313.97 446.577 314.741 448.338 315.898C451.334 317.865 453.082 320.624 453.689 324.168C454.278 327.609 453.386 331.062 451.306 333.854C448.637 337.438 445.479 338.743 441.171 339.332C438.799 338.858 436.603 338.243 434.582 336.863C431.679 334.882 429.607 331.841 429.034 328.352Q428.93 327.723 428.89 327.087Q428.851 326.451 428.878 325.814Q428.904 325.177 428.996 324.547Q429.088 323.916 429.245 323.298Q429.401 322.68 429.62 322.082Q429.839 321.483 430.119 320.911Q430.399 320.338 430.736 319.797Q431.073 319.256 431.464 318.753C434.506 314.901 438.156 314.183 442.735 313.707Z"/>
	<path d="M295.472 300.028L295.854 300.454C295.691 301.024 295.543 301.518 295.285 302.055C288.767 315.649 270.982 332.128 256.86 337.324C254.408 336.735 251.821 336.345 249.292 336.385C243.619 336.475 237.74 338.498 233.736 342.624C229.696 346.787 227.808 352.856 227.921 358.585C228.121 368.661 234.089 376.493 240.967 383.216C232.675 399.854 216.983 412.347 200.156 419.579C200.056 419.498 199.941 419.434 199.857 419.336C198.771 418.075 199.536 405.065 199.409 402.58C196.057 396.788 189.886 392.237 185.843 386.752C207.304 355.584 261.616 317.099 295.472 300.028Z"/>
	<path d="M209.526 761.249C215.444 766.009 220.88 771.486 226.745 776.355C238.097 785.777 249.887 794.53 261.729 803.311C263.793 814.287 265.09 825.545 266.731 836.598L231.498 836.697C212.241 836.497 192.791 836.168 173.597 834.577C179.354 831.912 184.702 828.578 189.368 824.25C206.474 808.388 208.741 783.163 209.526 761.249Z"/>
	<path d="M193.187 451.723C205.211 456.792 216.734 464.098 228.032 470.612C251.783 484.307 275.587 498.012 297.281 514.844L282.111 543.719L277.005 553.85C270.351 550.065 256.974 533.035 251.239 526.597Q243.077 517.414 234.385 508.73C226.097 500.588 217.438 492.397 208.191 485.341C201.276 480.064 193.886 475.346 186.749 470.369C189.515 464.441 191.24 457.954 193.187 451.723Z"/>
	<path d="M301.531 521.29C306.432 527.163 310.461 533.809 315.472 539.548C316.688 540.941 317.782 542.261 319.693 542.402C322.531 539.881 324.586 535.89 326.66 532.705C333.782 549.691 340.539 566.894 347.507 583.952C340.646 601.082 331.358 618.821 322.546 635.049Q318.856 641.967 314.999 648.793C312.089 639.201 307.965 629.809 304.272 620.493C296.53 600.965 288.506 581.665 279.45 562.703C283.97 557.263 286.971 549.888 290.144 543.573Q295.763 532.393 301.531 521.29Z"/>
	<path d="M177.568 474.375C178.5 474.347 178.913 474.51 179.781 474.91C184.074 476.885 188.306 480.058 192.219 482.708C216.832 499.376 236.554 520.743 256.342 542.661C260.994 547.814 267.291 553.441 270.85 559.355C274.349 565.169 278.112 575.926 280.983 582.479Q297.283 618.79 310.752 656.243C305.102 665.248 299.236 673.748 292.787 682.203L289.347 686.53C285.317 659.16 278.922 632.218 268.48 606.53C248.017 556.19 214.841 505.389 163.042 483.522C167.376 479.761 172.58 477.15 177.568 474.375Z"/>
	<path d="M384.896 246.703C391.39 246.145 398.58 246.11 404.981 247.472C408.573 248.236 413.637 249.885 415.599 253.26C416.434 254.696 416.467 256.348 415.922 257.892C410.834 272.331 373.606 289.003 360.06 295.096C357.267 288.113 353.747 280.518 349.978 274.025C342.547 275.199 335.007 277.776 327.873 280.137C289.318 292.898 259.594 311.568 227.895 336.561C213.446 347.953 199.147 360.301 187.355 374.488C183.323 379.208 173.972 394.89 169.382 396.532C168.077 397 166.792 396.876 165.601 396.168C161.126 393.509 159.201 384.901 157.824 380.2Q160.962 376.059 164.266 372.049C175.246 358.79 187.815 345.899 201.29 335.155C240.745 303.693 334.562 251.484 384.896 246.703Z"/>
	<path d="M116.386 883.452C123.137 883.51 130.065 884.408 136.804 884.944Q154.25 886.404 171.734 887.302C206.57 889.09 241.37 889.515 276.239 890.016C278.287 905.855 281.647 921.744 282.91 937.652C248.099 938.147 213.242 937.835 178.428 937.857C170.84 937.861 129.528 938.881 125.01 937.183C122.668 933.531 117.61 891.299 116.386 883.452Z"/>
	<path d="M773.901 130.714C776.399 133.341 775.017 138.502 777.471 140.892C778.486 141.88 779.664 141.86 780.976 141.933C784.004 140.384 784.978 134.377 786.099 131.238C790.62 132.25 802.166 133.852 804.774 137.578C804.696 140.51 802.813 144.12 801.95 147.001C803.473 147.969 805.118 148.745 806.727 149.561C809.128 146.725 811.442 143.917 814.297 141.521C819.717 146.481 824.76 151.057 828.926 157.158C826.192 159.615 822.391 162.038 821.139 165.606C820.739 166.743 820.953 166.651 821.422 167.663C823.808 168.413 826.07 168.372 828.464 167.644L833.616 166.107C836.562 172.063 837.406 178.531 838.393 185.015L828.189 188.367C828.364 190.261 828.275 192.168 828.237 194.068C831.186 194.707 836.015 195.132 838.352 196.985C838.661 201.849 835.814 212.451 832.849 216.398C830.263 216.263 826.548 213.68 824.122 212.452C822.774 214.486 821.766 216.557 820.755 218.766C823.144 221.277 826.091 223.352 828.818 225.488C824.97 231.743 818.949 237.712 812.287 240.896C810.572 238.128 808.743 235.476 806.845 232.831L802.238 235.043Q803.164 240.662 804.178 246.265C799.165 249.095 793.201 250.277 787.617 251.416C786.829 251.435 786.267 251.268 785.511 251.07C782.862 248.945 782.669 244.866 782.053 241.719C779.965 241.578 777.839 241.667 775.745 241.677C775.316 244.746 775.181 248.346 773.407 250.955C772.646 251.454 772.101 251.546 771.214 251.495C767.037 251.258 758.062 249.252 755.281 246.097C755.22 243.007 756.601 239.481 757.437 236.497C755.596 235.348 753.644 234.351 751.74 233.309C749.658 236.206 747.468 238.961 744.804 241.345C739.294 237.554 733.797 231.9 730.047 226.365C732.145 223.637 734.805 221.443 737.363 219.162C736.363 217.258 735.152 215.449 734.012 213.626L724.671 216.905C722.241 212.307 719.861 205.733 719.432 200.539C718.797 192.843 725.533 195.614 728.805 191.711C729.142 190.326 729.201 190.046 728.814 188.687C727.246 187.108 724.634 187.004 722.646 186.09C721.421 185.527 720.431 184.585 719.975 183.3C718.144 178.146 722.799 168.275 724.939 163.543C727.751 164.921 732.075 167.881 735.285 166.755C736.891 166.192 737.76 163.893 738.504 162.443C736.82 161.218 734.743 159.897 733.407 158.307C732.758 157.535 732.351 156.628 732.511 155.605C733.256 150.841 742.451 143.686 746.336 141.277C748.773 143.61 750.889 146.391 753.06 148.976L758.637 147.078C757.818 144.964 756.516 142.412 756.189 140.183C755.944 138.518 756.062 136.598 757.218 135.267C760.109 131.941 769.597 131.439 773.901 130.714Z"/>
	<path fill="#FEFEFE" d="M775.574 157.66Q776.3 157.616 777.027 157.603Q777.755 157.591 778.482 157.61Q779.209 157.629 779.935 157.68Q780.66 157.73 781.383 157.812Q782.106 157.894 782.824 158.008Q783.543 158.121 784.256 158.266Q784.969 158.41 785.675 158.585Q786.381 158.761 787.078 158.966Q787.776 159.172 788.464 159.408Q789.152 159.644 789.829 159.909Q790.506 160.175 791.172 160.47Q791.837 160.764 792.488 161.088Q793.14 161.411 793.777 161.762Q794.414 162.113 795.035 162.492Q795.656 162.871 796.26 163.276Q796.864 163.681 797.45 164.112Q798.118 164.611 798.76 165.141Q799.402 165.672 800.018 166.233Q800.633 166.795 801.221 167.385Q801.808 167.976 802.366 168.595Q802.924 169.214 803.451 169.859Q803.978 170.504 804.473 171.175Q804.967 171.845 805.429 172.539Q805.89 173.232 806.317 173.948Q806.744 174.663 807.136 175.398Q807.527 176.134 807.882 176.888Q808.237 177.641 808.555 178.411Q808.873 179.181 809.153 179.966Q809.433 180.751 809.674 181.548Q809.915 182.346 810.117 183.154Q810.319 183.962 810.481 184.78Q810.643 185.597 810.765 186.421Q810.889 187.215 810.973 188.014Q811.057 188.813 811.101 189.615Q811.145 190.418 811.15 191.221Q811.154 192.025 811.119 192.827Q811.084 193.63 811.008 194.43Q810.933 195.23 810.819 196.025Q810.704 196.82 810.55 197.609Q810.396 198.398 810.203 199.178Q810.01 199.958 809.779 200.727Q809.548 201.497 809.279 202.254Q809.009 203.011 808.703 203.753Q808.397 204.496 808.054 205.223Q807.711 205.95 807.333 206.658Q806.954 207.367 806.541 208.056Q806.128 208.745 805.681 209.413Q805.234 210.081 804.755 210.726C798.996 218.401 790.421 222.522 781.079 223.827Q780.359 223.897 779.638 223.934Q778.916 223.971 778.193 223.976Q777.47 223.981 776.748 223.953Q776.026 223.926 775.305 223.866Q774.585 223.806 773.868 223.714Q773.151 223.622 772.439 223.499Q771.727 223.375 771.021 223.219Q770.316 223.063 769.617 222.876Q768.919 222.689 768.23 222.471Q767.541 222.253 766.863 222.004Q766.184 221.755 765.517 221.476Q764.85 221.197 764.197 220.888Q763.543 220.58 762.904 220.242Q762.265 219.905 761.641 219.539Q761.018 219.174 760.412 218.78Q759.805 218.387 759.217 217.967C752.115 212.815 746.884 204.179 745.731 195.463C744.547 186.525 747.993 176.736 753.389 169.658C758.98 162.324 766.668 158.91 775.574 157.66Z"/>
	<path d="M735.263 107.708C735.926 107.65 736.581 107.594 737.247 107.573C790.65 105.945 838.134 122.27 877.227 159.089Q878.99 160.754 880.712 162.462Q882.433 164.17 884.113 165.919Q885.792 167.668 887.429 169.458Q889.065 171.248 890.657 173.077Q892.25 174.906 893.797 176.773Q895.344 178.64 896.845 180.545Q898.346 182.449 899.801 184.39Q901.255 186.33 902.662 188.305Q904.068 190.281 905.427 192.29Q906.785 194.299 908.093 196.34Q909.402 198.382 910.661 200.455Q911.919 202.528 913.127 204.63Q914.334 206.733 915.49 208.865Q916.646 210.997 917.75 213.156Q918.854 215.315 919.904 217.501Q920.955 219.686 921.952 221.897Q922.949 224.107 923.892 226.342Q924.835 228.576 925.724 230.832Q926.612 233.089 927.445 235.366Q928.278 237.644 929.055 239.941Q929.832 242.238 930.553 244.553Q931.274 246.869 931.938 249.201Q932.603 251.533 933.21 253.881Q933.817 256.229 934.367 258.59Q934.917 260.952 935.409 263.327Q935.901 265.701 936.335 268.087Q936.769 270.473 937.145 272.869Q937.521 275.264 937.838 277.668Q938.155 280.073 938.414 282.484Q938.672 284.895 938.872 287.312Q939.072 289.729 939.213 292.149Q939.353 294.57 939.435 296.994C940.334 329.234 934.814 358.567 923.202 388.658C921.71 392.525 917.993 402.67 915.44 405.369C914.206 405.86 913.387 406.142 912.056 405.826C910.804 405.529 909.997 404.812 909.312 403.761C909.008 402.491 908.95 401.564 909.333 400.296C910.488 396.462 912.628 392.59 914.11 388.815C917.761 379.516 921.192 370.125 923.715 360.452C935.532 315.151 933.03 267.045 913.558 224.151C909.857 215.997 905.153 208.338 900.631 200.621C885.376 176.468 863.865 155.217 839.028 140.952C794.061 115.125 741.214 110.281 691.53 123.869C694.506 133.124 699.512 142.161 701.411 151.678C707.458 181.983 670.588 180.65 655.747 196.78C646.709 206.603 645.306 220.167 637.976 230.703C635.323 234.517 631.38 238.064 626.613 238.718C622.629 239.266 618.786 237.668 615.647 235.304C612.993 233.305 610.517 230.336 609.69 227.06C607.999 220.362 611.149 211.335 610.218 203.682C608.78 191.852 603.432 180.844 601.664 169.007C602.425 167.494 603.228 166.083 604.321 164.78C608.733 159.521 614.798 155.257 620.156 150.994C653.161 124.735 693.471 110.846 735.263 107.708Z"/>
	<path fill="#FEFEFE" d="M682.65 127.014L683.595 127.407C685.16 130.355 686.069 133.533 687.293 136.625C690.111 143.742 695.019 152.894 693.105 160.762C692.358 163.833 690.552 166.418 688.091 168.371C684.781 170.998 680.703 172.606 676.89 174.354C668.35 178.27 659.34 182.068 652.223 188.353C647.227 192.764 643.528 198.362 640.48 204.244C637.384 210.218 633.398 225.633 627.891 228.538C625.697 229.696 623.75 229.549 621.449 228.849C614.922 222.748 620.391 213.005 619.135 205.001C617.332 193.507 613.491 182.128 610.094 171.024C629.09 151.569 656.783 135.114 682.65 127.014Z"/>
	<path d="M268.833 808.233C272.393 809.984 275.813 812.407 279.245 814.442C288.352 819.843 297.408 823.93 307.746 826.348C308.559 832.172 309.73 837.911 310.888 843.673Q332.09 843.524 353.266 842.454C355.804 855.26 357.862 868.196 360.259 881.036C351.096 881.983 341.609 881.801 332.398 881.977C328.754 882.046 324.848 881.872 321.248 882.38C320.562 882.477 319.524 882.481 319.15 883.135C316.943 886.995 324.713 929.534 325.921 937.804C314.195 938.216 302.34 937.895 290.603 937.806C287.308 919.488 285.805 900.781 282.118 882.563C272.654 881.976 262.752 882.619 253.25 882.594Q184.191 882.525 115.454 875.854C112.901 863.04 111.035 850.059 108.814 837.181C122.867 837.931 136.879 839.579 150.926 840.496C188.287 842.934 226.379 844.647 263.813 843.698C266.385 843.632 272.118 843.966 273.965 842.023C273.887 832.978 270.623 817.489 268.833 808.233Z"/>
	<path d="M253.57 198.705C263.028 197.603 273.958 198.517 283.294 199.953C312.144 204.39 342.694 221.933 360 245.615C329.002 253.508 299.079 268.177 271.037 283.352C262.519 287.962 253.845 292.502 245.687 297.726L245.582 297.124C244.5 291.095 242.127 286.262 236.902 282.757Q236.442 282.455 235.967 282.175Q235.492 281.896 235.004 281.64Q234.516 281.385 234.016 281.154Q233.516 280.923 233.005 280.717Q232.494 280.511 231.973 280.331Q231.453 280.15 230.924 279.996Q230.396 279.841 229.86 279.713Q229.324 279.585 228.783 279.484Q228.241 279.383 227.695 279.308Q227.15 279.234 226.601 279.186Q226.052 279.139 225.501 279.119Q224.951 279.098 224.4 279.106Q223.849 279.113 223.3 279.147Q222.75 279.181 222.202 279.243Q221.655 279.305 221.111 279.393Q220.568 279.482 220.029 279.597Q219.501 279.711 218.979 279.851Q218.458 279.992 217.944 280.159Q217.43 280.326 216.926 280.519Q216.421 280.712 215.927 280.931Q215.433 281.15 214.951 281.395Q214.47 281.639 214.001 281.907Q213.532 282.176 213.078 282.468Q212.623 282.76 212.185 283.076Q211.746 283.391 211.324 283.728Q210.902 284.066 210.498 284.424Q210.094 284.783 209.709 285.162Q209.324 285.541 208.959 285.939Q208.594 286.337 208.25 286.754Q207.906 287.17 207.583 287.604Q207.261 288.037 206.962 288.487Q206.662 288.937 206.386 289.401Q206.108 289.873 205.855 290.358Q205.601 290.843 205.372 291.341Q205.144 291.838 204.94 292.346Q204.737 292.854 204.559 293.372Q204.381 293.89 204.23 294.416Q204.078 294.942 203.953 295.475Q203.829 296.008 203.731 296.547Q203.633 297.086 203.562 297.629Q203.492 298.172 203.448 298.717Q203.405 299.263 203.389 299.81Q203.374 300.358 203.386 300.905Q203.397 301.452 203.437 301.998Q203.476 302.544 203.543 303.088Q203.609 303.631 203.703 304.171Q203.797 304.71 203.918 305.244Q204.039 305.778 204.187 306.305C205.621 311.507 208.837 316.135 213.528 318.86C201.676 325.893 191.599 335.32 181.027 344.074C173.076 318.331 174.112 291.54 186.529 267.311C197.249 246.396 215.862 231.169 238.128 223.927C253.515 219.375 268.965 218.483 284.771 221.325C287.239 221.769 289.593 222.677 292.035 223.165C293.304 223.42 294.021 223.584 295.108 222.802C295.616 221.724 295.984 220.757 295.594 219.55C295.323 218.715 294.924 218.075 294.185 217.63C291.64 216.095 287.776 215.494 284.884 214.977Q282.063 214.466 279.218 214.113Q276.373 213.759 273.513 213.564Q270.653 213.369 267.787 213.334Q264.92 213.298 262.056 213.421Q259.192 213.545 256.339 213.827Q253.486 214.11 250.654 214.55Q247.821 214.991 245.017 215.588Q242.213 216.185 239.447 216.937Q238.309 217.254 237.179 217.598Q236.049 217.943 234.929 218.316Q233.808 218.689 232.696 219.089Q231.585 219.489 230.484 219.917Q229.383 220.344 228.293 220.799Q227.202 221.254 226.124 221.736Q225.045 222.217 223.979 222.725Q222.913 223.234 221.859 223.768Q220.806 224.302 219.766 224.863Q218.726 225.423 217.7 226.009Q216.675 226.595 215.664 227.206Q214.653 227.817 213.658 228.453Q212.662 229.089 211.683 229.749Q210.703 230.41 209.741 231.094Q208.778 231.779 207.832 232.487Q206.887 233.195 205.959 233.926Q205.031 234.657 204.122 235.411Q203.213 236.165 202.322 236.941Q201.432 237.717 200.561 238.516Q199.69 239.314 198.839 240.133Q197.989 240.952 197.158 241.792Q196.328 242.633 195.519 243.493Q194.709 244.353 193.922 245.234Q193.134 246.114 192.368 247.013Q191.603 247.913 190.859 248.831Q190.116 249.749 189.396 250.685Q188.676 251.622 187.979 252.575Q187.282 253.529 186.609 254.5Q185.936 255.471 185.287 256.458Q184.638 257.445 184.014 258.448Q183.39 259.451 182.791 260.469Q182.192 261.487 181.618 262.519C171.329 280.978 167.773 304.496 170.679 325.3C171.813 333.415 173.98 341.154 176.19 349.021C169.281 356.632 162.793 364.782 155.643 372.141C150.199 361.267 147.036 345.705 146.026 333.754Q145.891 332.17 145.795 330.582Q145.698 328.995 145.641 327.406Q145.583 325.817 145.564 324.227Q145.545 322.637 145.566 321.047Q145.586 319.457 145.645 317.868Q145.703 316.279 145.801 314.692Q145.899 313.105 146.035 311.521Q146.172 309.937 146.347 308.356Q146.522 306.776 146.735 305.2Q146.949 303.625 147.201 302.055Q147.453 300.485 147.743 298.921Q148.033 297.358 148.362 295.802Q148.69 294.246 149.056 292.699Q149.423 291.152 149.826 289.614Q150.23 288.076 150.672 286.548Q151.113 285.021 151.592 283.504Q152.07 281.988 152.586 280.484Q153.101 278.979 153.653 277.488Q154.205 275.997 154.793 274.52Q155.381 273.042 156.006 271.58Q156.63 270.118 157.289 268.671Q157.949 267.224 158.644 265.794Q159.339 264.363 160.068 262.951Q160.798 261.538 161.562 260.143Q162.325 258.748 163.123 257.373Q163.921 255.997 164.752 254.642Q165.583 253.286 166.446 251.951Q167.31 250.616 168.206 249.303Q169.103 247.989 170.031 246.698Q170.959 245.407 171.918 244.139Q172.877 242.87 173.867 241.626Q174.857 240.382 175.877 239.162Q176.774 238.08 177.698 237.02Q178.621 235.961 179.571 234.924Q180.521 233.888 181.497 232.876Q182.472 231.864 183.472 230.876Q184.472 229.889 185.497 228.926Q186.521 227.964 187.57 227.027Q188.618 226.091 189.689 225.18Q190.76 224.27 191.854 223.387Q192.947 222.504 194.063 221.648Q195.178 220.792 196.314 219.965Q197.45 219.137 198.607 218.338Q199.763 217.539 200.939 216.769Q202.115 215.999 203.31 215.258Q204.505 214.518 205.718 213.807Q206.931 213.097 208.161 212.417Q209.391 211.737 210.638 211.087Q211.885 210.438 213.147 209.82Q214.41 209.202 215.687 208.616Q216.965 208.029 218.257 207.475Q219.548 206.921 220.853 206.399Q222.159 205.877 223.476 205.388Q224.794 204.898 226.124 204.442Q227.453 203.986 228.794 203.563Q230.134 203.139 231.485 202.75Q232.836 202.36 234.195 202.005Q235.555 201.649 236.924 201.327Q238.292 201.005 239.668 200.718Q241.044 200.43 242.427 200.177Q243.809 199.924 245.198 199.705Q246.586 199.486 247.98 199.302Q249.374 199.118 250.771 198.969Q252.169 198.819 253.57 198.705Z"/>
	<path fill="#FEFEFE" d="M256.736 280.374C258.064 281.13 259.212 282.039 259.749 283.526C260.159 284.657 259.77 285.74 259.134 286.688C257.509 289.113 254.787 289.999 252.085 290.531C251.134 290.085 250.359 289.525 249.508 288.916C249.014 287.831 248.743 287.356 249.25 286.142C250.314 283.595 254.385 281.602 256.736 280.374Z"/>
	<path d="M141.936 500.172C152.593 499.382 161.661 502.683 170.987 507.637C180.742 512.819 189.068 520.072 196.976 527.703C228.373 558.001 250.065 597.844 262.639 639.401C255.437 630.753 250.551 618.653 245.324 608.722C235.121 589.336 224.74 569.575 211.765 551.871C199.131 534.632 180.362 516.737 158.361 513.531C146.688 511.831 135.214 515.19 125.888 522.322C110.776 533.878 104.046 553.852 101.741 572.059C99.2574 591.673 99.2006 630.22 108.12 647.971C113.293 658.267 121.826 667.815 128.9 676.92C150.349 703.745 176.663 731.907 202.52 754.448C202.571 760.096 202.618 765.775 202.231 771.413C200.99 789.498 197.169 808.952 182.723 821.324C162.778 838.407 131.759 831.269 107.919 829.414C105.283 820.696 104.154 811.015 102.466 802.047Q96.9716 772.806 92.2825 743.424C83.0629 681.917 74.6486 610.673 96.6519 551.065C100.655 540.219 105.381 529.689 112.337 520.371C120.292 509.714 128.445 502.166 141.936 500.172Z"/>
	<path d="M345.139 280.533C345.201 280.549 345.268 280.552 345.324 280.583C347.912 282.011 364.029 317.204 365.597 322.302C364.383 326.119 362.914 329.777 362 333.692C366.86 340.566 371.646 347.695 377.281 353.966C380.92 358.016 385.812 361.216 388.924 365.698C389.794 366.951 390.043 368.059 389.737 369.569C388.538 375.488 377.176 380.393 372.499 383.526C373.733 387.119 377.175 391.045 376.439 394.941C375.308 400.93 366.849 400.904 362.754 403.602L362.598 404.488C364.644 406.99 369.45 406.63 371.685 409.319C372.511 410.315 372.625 411.232 372.421 412.476C371.873 415.811 368.086 418.194 365.573 419.977C366.617 421.948 368.014 424.157 368.575 426.311C369.403 429.484 368.791 433.185 367.055 435.947C358.649 449.32 325.531 443.22 310.373 446.901C305.024 466.088 301.156 485.782 297.411 505.333C289.656 499.173 280.958 494.074 272.524 488.915Q254.094 477.552 235.248 466.894Q216.144 456.403 197.64 444.886C200.085 438.263 201.95 431.611 203.702 424.78C221.22 416.812 238.635 405.372 245.671 386.631C252.471 389.29 261.022 392.69 268.494 391.071C269.914 390.763 271.605 389.819 272.323 388.53C272.709 387.837 272.47 387.533 272.316 386.813C269.206 383.643 262.202 384.626 257.888 383.683C249.844 381.926 242.729 377.714 238.249 370.643C235.21 365.847 233.172 359.845 234.653 354.172C235.683 350.225 238.967 346.259 242.539 344.341C257.457 336.333 265.689 356.422 269.929 357.583C271.517 357.307 271.943 357.327 273.192 356.237C273.347 355.545 273.413 355.426 273.39 354.638C273.264 350.329 267.101 344.742 264.145 341.923C284.927 330.067 294.137 316.526 305.17 296.244C317.425 289.397 331.877 284.973 345.139 280.533Z"/>
	<path fill="#FEFEFE" d="M282.433 414.183C288.211 416.247 291.452 425.865 297.038 430C300.989 432.926 306.251 434.255 310.745 436.115C313.021 437.058 315.267 437.78 316.273 440.232C316.25 441.731 315.845 442.358 315.101 443.605C306.532 442.334 298.501 439.44 291.759 433.876C287.442 430.314 280.952 424.124 280.582 418.258C280.462 416.37 281.256 415.489 282.433 414.183Z"/>
	<path d="M423.86 87.112C434.154 86.7241 444.585 87.0564 454.891 87.0468L519.326 87.0421L556.17 86.9411C562.877 86.9204 569.971 86.4605 576.636 87.1659C579.672 87.4872 582.273 88.3586 584.71 90.2433C588.294 93.0154 589.872 96.6068 590.408 101.048C590.976 105.762 590.612 110.834 590.587 115.587Q590.483 128.253 590.576 140.919Q590.826 169.55 590.7 198.181C590.681 207.806 590.987 217.576 590.533 227.186C590.441 229.126 590.522 231.527 589.193 233.074C588.464 233.923 587.538 234.369 586.388 234.298C583.992 234.15 582.431 232.643 580.75 231.105C575.336 226.42 570.388 220.934 565.207 215.96C532.435 215.186 499.487 215.899 466.703 215.973C453.912 216.001 437.877 216.924 425.386 215.864C422.31 215.603 419.08 214.84 416.377 213.312C413.28 211.561 410.909 207.651 410.026 204.277C408.426 198.165 409.408 166.155 409.41 157.82L409.41 122.761C409.415 116.226 409.117 109.508 409.654 103C409.928 99.6845 410.319 97.2299 412.176 94.3978C414.975 90.1275 418.975 88.0803 423.86 87.112Z"/>
	<path fill="#FEFEFE" d="M423.798 95.6322Q424.65 95.611 425.502 95.6042L522.875 95.5435Q540.635 95.4755 558.395 95.6121C564.244 95.6476 570.535 95.2459 576.336 95.8936C578.066 96.0869 579.463 96.5195 580.668 97.82C581.946 99.1975 581.963 101.853 582.09 103.69C582.977 116.56 582.318 129.904 582.332 142.835Q582.443 181.235 582.079 219.634C580.794 218.645 579.589 217.473 578.364 216.404C575.193 213.336 572.1 210.154 568.463 207.632C554.809 206.85 540.876 207.411 527.192 207.424L456.672 207.433C449.63 207.454 427.144 208.455 422.572 207.013C420.813 206.459 419.118 204.39 418.568 202.674C416.646 196.682 417.896 139.787 417.883 129.014C417.874 121.443 417.132 113.666 417.512 106.124C417.631 103.763 417.973 101.138 419.149 99.0443C420.263 97.0611 421.695 96.3005 423.798 95.6322Z"/>
	<path d="M529.862 112.707C534 112.282 538.19 112.35 542.346 112.308C541.113 119.018 538.498 125.518 537.191 132.27C534.021 148.636 534.598 166.163 521.719 178.69C510.255 189.84 494.316 189.719 479.375 189.557C478.507 189.357 478.72 189.491 477.983 188.982C472.045 184.881 467.352 172.616 466.615 165.585C465.488 154.836 469.166 144.34 475.967 136.044C489.227 119.866 509.926 114.595 529.862 112.707Z"/>
	<path fill="#FEFEFE" d="M519.905 137.993C520.09 138.036 520.278 138.069 520.46 138.123C522.074 138.598 523.033 139.204 523.829 140.648C523.454 143.674 517.745 146.613 515.358 148.431C509.001 153.276 504.15 159.299 499.872 165.99C498.27 168.496 496.575 171.918 494.429 173.935C493.417 174.886 492.953 174.855 491.651 174.955C489.373 173.994 484.447 161.387 483.195 158.625C482.408 156.934 481.596 155.031 481.1 153.226C480.631 151.523 480.573 149.211 481.605 147.7C482.073 147.016 482.413 147.182 483.164 147.08C487.488 149.085 487.874 154.83 489.434 158.774C490.306 160.977 491.434 163.122 492.502 165.237C500.329 153.622 507.773 145.285 519.905 137.993Z"/>
	<path d="M671.764 560.171L672.998 559.94L673.426 560.431C671.221 566.027 668.04 571.401 665.276 576.748L650.729 604.93C636.401 632.768 622.464 660.835 607.832 688.514C599.226 688.518 574.623 687.373 568.158 692.533C563.186 696.502 566.64 700.897 565.989 705.767C562.752 706.595 557.777 707.347 555.097 709.422C553.396 710.738 551.051 713.727 550.844 715.963C550.697 717.543 551.443 718.692 552.317 719.903C553.098 720.985 553.747 722.012 554.384 723.184C554.098 725.016 552.266 726.241 551.147 727.717C549.973 729.267 549.45 730.942 549.767 732.881C550.395 736.718 554.752 739.607 557.674 741.665C557.204 741.995 556.752 742.32 556.316 742.695C554.368 744.367 552.477 746.555 552.367 749.246C552.238 752.414 554.25 754.242 556.278 756.328C555.909 756.985 555.576 757.642 555.308 758.347C553.588 762.871 555.221 766.227 557.017 770.372Q552.538 780.135 548.494 790.086C527.562 797.395 504.814 800.747 483.292 806.122C467.508 810.064 451.647 813.783 435.912 817.91C417.158 822.828 398.374 828.175 379.249 831.463C379.877 829.488 380.702 827.61 381.516 825.706C396.15 796.496 412.02 767.698 427.649 739.003Q455.291 687.799 484.296 637.353C490.438 626.826 496.122 616.003 501.963 605.306C504.891 599.943 507.628 594.047 511.215 589.116C518.599 585.964 528.005 585.127 535.935 583.605Q548.713 581.053 561.457 578.333C559.56 582.595 553.005 593.733 552.948 597.646C552.931 598.75 553.374 599.333 554.237 600.008C555.048 600.643 555.939 600.804 556.933 600.751C565.017 600.318 575.232 597.436 583.357 595.904C595.538 593.608 607.911 591.941 620.006 589.258C622.934 581.893 626.217 574.687 629.074 567.286C643.36 565.131 657.527 562.602 671.764 560.171Z"/>
	<path d="M552.132 237.241C553.997 237.667 555.086 238.219 556.447 239.571C556.956 240.6 556.983 241.283 556.844 242.391C556.312 246.643 555.02 250.956 554.114 255.157C551.7 266.349 549.197 277.847 548.715 289.309C555.753 281.774 558.902 271.7 565.643 264.024C572.028 256.753 580.455 252.976 590.072 252.443C606.996 251.504 620.2 260.596 632.227 271.34C633.934 267.885 636.069 264.875 638.729 262.097C646.322 254.165 657.891 248.319 668.981 248.095C679.017 247.892 688.401 252.105 695.54 259.04C703.406 266.682 707.463 275.977 707.694 286.907C711.404 287.272 715.066 287.724 718.621 288.89C724.746 290.899 730.154 294.802 733.014 300.708C734.814 304.423 736.195 311.228 734.478 315.239C733.967 316.432 733.323 317.059 732.096 317.525C731.192 317.869 608.89 318.347 596.95 318.115C595.319 318.083 593.351 318.046 591.883 317.248C590.311 316.394 589.307 314.637 588.884 312.959C587.674 308.162 590.564 300.939 593.123 296.818C596.84 290.83 603.249 285.935 610.222 284.522C614.719 283.61 623.784 285.128 627.527 287.834C628.784 288.743 629.456 289.898 629.535 291.453C629.612 292.951 629.108 293.759 628.234 294.888C624.972 296.423 621.906 294.804 618.616 294.103C613.888 293.096 609.236 293.337 605.108 296.132C600.466 299.275 598.489 304.264 597.578 309.543C621.787 310.236 646.125 309.546 670.353 309.566C688.518 309.581 707.082 310.531 725.204 309.514C726.282 309.453 725.823 309.657 726.58 308.813C726.613 307.949 726.648 307.061 726.545 306.201C726.25 303.738 724.747 301.668 722.848 300.161C714.437 293.49 702.989 296.992 699.164 293.754C698.248 292.978 698.876 286.602 698.834 285.024C698.625 277.284 693.75 269.267 688.244 264.034C682.988 259.039 676.041 256.223 668.747 256.586C657.543 257.144 647.047 264.789 640.687 273.641C638.757 276.328 637.563 279.661 635.356 282.069C633.893 282.591 633.112 282.702 631.701 281.94C628.986 280.474 626.555 277.704 624.258 275.646C617.723 269.792 610.034 264.523 601.474 262.171Q599.755 261.708 597.996 261.434Q596.237 261.16 594.458 261.078Q592.68 260.995 590.903 261.106Q589.126 261.216 587.371 261.518C565.606 265.097 567.099 288.903 547.78 299.992Q547.638 301.842 547.628 303.698C547.131 354.552 565.435 403.471 601.062 439.942C616.814 456.066 634.497 468.748 654.716 478.705C659.568 481.094 664.677 483.833 670.005 484.928C675.87 486.134 683.089 485.275 689.163 485.349L689.136 406.027C689.069 394.967 687.544 351.916 690.091 344.27C690.875 343.82 691.546 343.732 692.434 343.642C695.433 343.339 716.89 343.373 718.052 344.512C719.741 346.169 720.092 348.736 720.249 350.984C720.585 355.791 720.133 360.911 720.034 365.74Q719.717 378.364 719.828 390.992L720.443 485.066L732.08 485.041L732.129 414.116C732.118 403.549 730.995 388.208 732.819 378.193C733.392 377.906 733.9 377.669 734.523 377.509C738.786 376.41 761.918 375.733 764.952 377.589C767.224 381.85 765.722 422.273 765.666 430.154L765.858 485.32C769.738 485.352 773.622 485.286 777.502 485.261Q778.406 429.891 778.09 374.514L777.967 329.705C777.962 321.775 777.545 313.615 778.037 305.716C778.184 303.371 778.451 300.274 780.138 298.511C785.651 297.61 805.127 297.286 809.785 299.348C811.651 303.734 810.444 467.674 810.507 485.48L822.85 485.46C823.562 472.715 823.338 459.859 823.395 447.097L823.466 382.603C823.454 374.938 822.46 352.72 823.917 346.335C825.061 345.23 825.903 344.849 827.433 344.563C830.172 344.052 848.165 344.081 851.316 344.421C852.787 344.579 854.191 344.838 855.364 345.792C856.042 346.343 855.871 346.284 856.057 347.253C856.986 352.117 856.487 357.733 856.47 362.695L856.375 387.378C856.248 419.973 855.603 452.902 856.909 485.465L868.576 485.523C869.003 463.417 868.642 441.266 868.536 419.156L868.473 340.576C868.462 324.298 867.828 307.763 868.421 291.511C868.467 290.251 868.242 288.446 869.33 287.68C872.321 285.576 894.188 286.369 898.326 287.307C899.767 288.721 899.727 291.315 899.833 293.28C900.193 299.959 899.93 306.772 899.936 313.466L899.98 349.992L900.1 441.697C900.117 459.551 899.769 477.45 900.252 495.295C907.359 495.5 932.319 494.233 936.95 495.651C938.113 496.007 938.871 496.445 939.377 497.608C939.975 498.98 939.7 500.231 939.36 501.608C938.82 502.323 938.478 502.599 937.624 502.948C936.259 503.507 934.514 503.605 933.054 503.63C915.227 503.933 897.291 503.471 879.45 503.5L762.501 503.588L703.356 503.667C693.372 503.679 683.229 504.03 673.266 503.555C672.174 503.503 671.386 503.414 670.396 502.911C668.404 500.413 668.905 497.021 668.944 494.002C634.315 480.581 604.317 459.58 581.246 430.27C547.925 387.94 534.482 333.763 540.922 280.569C542.075 271.044 545.077 247.386 549.756 239.606C550.33 238.652 551.266 237.919 552.132 237.241Z"/>
	<path fill="#FEFEFE" d="M834.384 382.214C837.981 381.944 841.563 381.917 845.168 381.896C845.198 384.923 845.365 387.984 844.887 390.981L844.029 391.495L833.212 391.5C833.15 389.188 832.916 386.7 833.176 384.406C833.322 383.109 833.437 383.013 834.384 382.214Z"/>
	<path fill="#FEFEFE" d="M835.834 429.741L845.478 429.831C845.507 432.741 845.984 436.442 845.179 439.224L844.125 439.631L833.94 439.589C833.862 436.723 833.272 432.732 834.398 430.121L835.834 429.741Z"/>
	<path fill="#FEFEFE" d="M833.473 405.91L845.486 405.94L845.462 415.954C841.48 416.034 837.48 415.94 833.496 415.927L833.473 405.91Z"/>
	<path fill="#FEFEFE" d="M699.412 424.731L710.832 424.612L710.732 435.133C706.937 435.309 703.12 435.281 699.32 435.326Q699.288 430.028 699.412 424.731Z"/>
	<path fill="#FEFEFE" d="M699.546 377.034C703.379 377.038 707.108 377.232 710.92 377.629C711.033 381.113 710.984 384.615 711.001 388.101C707.18 388.173 703.352 388.141 699.53 388.156L699.546 377.034Z"/>
	<path fill="#FEFEFE" d="M787.966 382.511L800.169 382.531L800.15 392.916C796.11 392.965 792.062 392.9 788.021 392.885L787.966 382.511Z"/>
	<path fill="#FEFEFE" d="M787.7 358.505L800.232 358.467C800.288 362.098 800.22 365.74 800.208 369.372C796.096 369.054 791.934 369.125 787.81 369.083C787.648 365.565 787.706 362.027 787.7 358.505Z"/>
	<path fill="#FEFEFE" d="M701.318 400.746C704.541 400.704 707.771 400.755 710.995 400.765C711.026 404.091 711.653 409.003 710.574 412.097L709.57 412.483L699.575 412.502C699.469 409.425 698.677 403.828 700.06 401.074L701.318 400.746Z"/>
	<path fill="#FEFEFE" d="M787.75 333.935C791.902 333.801 796.081 333.904 800.235 333.911C800.279 337.48 800.153 341.065 800.099 344.634C796.024 344.688 791.944 344.65 787.869 344.654C787.662 341.088 787.737 337.505 787.75 333.935Z"/>
	<path d="M385.511 418.836C386.689 418.831 387.617 418.92 388.733 419.328C395.66 421.867 410.643 433.723 413.358 440.437C413.872 441.707 413.554 442.317 413.039 443.51C412.253 444.118 411.655 444.575 410.644 444.76C405.628 445.676 401.742 438.795 397.714 436.595C396.363 435.858 394.787 435.581 393.326 436.21C392.542 436.548 391.755 437.139 391.16 437.753C389.114 439.865 387.529 442.693 385.569 444.959C382.776 448.188 379.465 451.052 376.797 454.368C376.131 455.196 375.427 456.054 375.128 457.095C374.885 457.943 375.103 457.982 375.474 458.713C381.104 460.765 402.825 449.954 412.031 451.346C416.593 452.035 418.795 454.674 421.45 458.117C416.244 459.26 400.92 459.602 397.454 462.38C396.355 463.262 396.342 463.914 396.198 465.192C396.624 465.964 396.76 466.445 397.514 466.956C399.846 468.537 422.398 465.941 426.507 465.341Q430.177 468.635 433.813 471.965C429.433 471.319 424.118 470.012 419.697 470.543C418.058 470.74 417.397 471.232 416.426 472.522C416.65 478.232 435.89 477.443 441.374 482.908C444.738 486.259 445.199 491.231 445.046 495.733C444.831 502.051 443.75 506.526 439.016 510.974C438.927 506.279 440.343 499.697 437.906 495.601C437.211 495.163 436.967 494.836 436.105 494.863C434.453 494.913 433.726 495.796 433.196 497.244C431.526 501.812 432.102 512.686 431.716 518.054Q431.112 526.609 429.238 534.978C427.964 540.451 426.092 546.615 423.038 551.382C420.703 555.025 416.438 558.137 415.212 562.358C413.275 569.026 412.658 576.574 411.33 583.42C408.881 596.036 406.002 608.647 403.069 621.161C394.369 658.274 383.067 694.851 371.529 731.165Q365.35 751.135 358.146 770.759C355.381 778.511 352.785 786.583 349.154 793.98C346.272 799.852 342.268 805.846 337.438 810.295Q336.815 810.879 336.163 811.431Q335.512 811.982 334.833 812.501Q334.154 813.019 333.45 813.502Q332.746 813.984 332.018 814.431Q331.291 814.878 330.541 815.287Q329.792 815.696 329.023 816.067Q328.254 816.438 327.467 816.769Q326.68 817.101 325.877 817.392Q325.074 817.683 324.258 817.932Q323.441 818.182 322.613 818.391Q321.785 818.599 320.948 818.765Q320.11 818.931 319.265 819.055Q318.42 819.178 317.57 819.258Q316.72 819.339 315.867 819.376Q315.014 819.413 314.16 819.407Q313.306 819.401 312.454 819.352C284.064 817.911 231.411 772.554 210.121 753.015C191.238 735.684 173.177 717.102 155.882 698.196C142.93 684.33 125.583 664.1 115.662 647.843C103.998 628.728 106.071 579.453 111.399 558.065C114.747 544.627 122.275 532.156 134.433 525.023C142.901 520.056 152.728 519.091 162.175 521.597C204.595 532.852 232.444 600.489 251.879 635.906C262.411 655.098 274.119 673.413 285.129 692.307C282.573 695.396 279.963 698.468 277.525 701.651C272.711 707.939 261.857 725.166 262.879 733.121C263.598 734.19 263.778 734.611 265.191 734.751C266.235 734.854 267.875 734.366 268.517 733.504C270.353 731.037 271.31 726.504 272.629 723.556C274.676 718.977 277.278 714.574 280.005 710.371C289.401 695.894 301.486 683.169 311.016 668.682C315.413 661.999 319.282 654.926 323.241 647.978C337.699 622.595 349.651 596.708 361.219 569.911C364.158 563.105 370.019 552.074 370.581 544.78C370.932 540.22 369.131 534.978 368.308 530.473C365.64 515.876 362.542 501.357 359.812 486.767C358.756 481.124 357.128 475.158 356.716 469.445C355.863 457.624 377.305 428.563 385.511 418.836Z"/>
	<path d="M879.288 617.343C879.832 617.58 880.238 617.857 880.667 618.289C884.872 622.526 888.887 633.634 891.327 639.253C905.238 671.292 917.718 706.419 913.931 741.891C909.438 783.982 885.519 811.76 853.822 837.148C853.015 847.175 853.347 857.423 853.279 867.482Q853.039 898.049 853.513 928.613C859.698 928.965 875.544 927.246 879.809 930.151C881.162 931.072 881.942 932.078 882.283 933.692C882.016 934.559 882.063 934.688 881.36 935.365C879.737 936.926 877.402 937.373 875.232 937.501C869.448 937.843 863.411 937.503 857.604 937.511L819.736 937.521L703.032 937.458L377.253 937.841C374.568 921.157 371.144 904.617 368.22 887.98C378.979 887.001 389.457 886.856 400.062 884.372C404.02 899.075 405.777 914.32 409.867 929.011L465.972 929.043L466.071 859.246C466.068 848.614 465.091 837.228 466.107 826.684C466.251 825.183 466.291 824.055 467.308 822.895C469.091 820.864 471.668 820.646 474.193 820.504C483.062 820.003 492.195 820.524 501.093 820.493L559.239 820.357L592.601 820.384C598.302 820.349 604.449 819.777 610.098 820.341C611.836 820.515 613.724 821.072 614.987 822.343C616.131 823.494 616.643 825.133 616.86 826.705C617.453 830.998 616.794 835.899 616.775 840.255L616.886 867.75Q616.753 898.197 617.08 928.642C626.186 929.471 635.756 928.902 644.926 928.905L697.973 928.908Q698.002 906.258 697.536 883.613C695.482 881.821 693.504 879.903 691.607 877.949C665.722 851.286 647.854 817.911 648.478 779.954C649.044 745.538 664.615 713.724 682.501 685.14C686.602 678.586 690.616 670.813 696.176 665.429C699.682 668.379 702.765 672.084 705.823 675.492C724.869 696.716 743.245 724.476 753.211 751.313C762.924 777.467 764.337 807.498 752.45 833.184Q750.232 837.957 747.573 842.5Q744.914 847.043 741.839 851.315C734.951 860.835 717.005 880.557 706.425 884.425L706.642 928.834C752.759 928.311 798.887 929.3 845.004 928.795C845.46 898.107 845.037 867.346 845.094 836.652C836.914 829.787 828.865 822.904 822.072 814.601Q821.233 813.575 820.42 812.529Q819.607 811.483 818.82 810.416Q818.034 809.35 817.274 808.264Q816.514 807.178 815.782 806.074Q815.049 804.969 814.345 803.847Q813.64 802.725 812.964 801.585Q812.288 800.445 811.64 799.289Q810.993 798.133 810.374 796.961Q809.756 795.789 809.167 794.601Q808.578 793.414 808.019 792.213Q807.46 791.011 806.932 789.796Q806.403 788.581 805.905 787.353Q805.406 786.125 804.939 784.885Q804.472 783.645 804.036 782.393Q803.599 781.142 803.195 779.88Q802.79 778.618 802.417 777.347Q802.044 776.075 801.703 774.795Q801.362 773.514 801.053 772.225Q800.744 770.937 800.467 769.641Q800.191 768.345 799.946 767.042Q799.702 765.74 799.491 764.432Q799.279 763.123 799.101 761.81Q798.922 760.497 798.776 759.18Q798.63 757.863 798.518 756.542Q798.405 755.222 798.325 753.899Q798.245 752.576 798.199 751.252Q798.152 749.928 798.139 748.603Q798.125 747.277 798.145 745.952Q798.165 744.627 798.218 743.303Q798.27 741.979 798.356 740.657Q798.442 739.334 798.561 738.014Q798.68 736.694 798.832 735.378C799.845 725.841 801.988 715.888 805.51 706.95C819.067 672.551 850.954 640.359 879.288 617.343Z"/>
	<path fill="#FEFEFE" d="M869.097 653.328C870.27 653.632 871.168 654.139 872.224 654.715C872.447 655.103 872.793 655.443 872.894 655.879C873.105 656.789 868.455 672.687 867.977 674.521C863.257 692.636 859.826 710.736 856.667 729.172Q860.671 724.982 864.897 721.016C870.304 715.994 881.785 704.791 887.178 701.189C888.117 700.561 889.023 700.028 890.21 700.299C891.477 700.588 891.903 701.297 892.598 702.266C892.42 703.573 892.282 703.866 891.35 704.872C887.075 709.488 881.574 713.586 876.881 717.816C869.724 724.266 862.823 730.992 855.658 737.436C854.601 747.279 853.465 757.029 853.409 766.945C860.519 760.115 867.821 753.555 875.123 746.939C877.837 744.48 880.349 741.27 883.383 739.259C884.743 738.357 885.655 738.416 887.19 738.752C888.379 739.692 888.476 739.754 888.906 741.198C888.672 742.439 888.271 743.165 887.392 744.044C884.66 746.78 881.2 748.992 878.263 751.553C869.6 759.105 860.838 766.788 852.805 775.013Q852.428 790.883 852.425 806.758C852.371 812.599 853.693 821.659 852.139 827.026C851.717 828.481 851.166 829.053 849.841 829.716C849.119 829.563 848.598 829.618 848.082 829.034C845.201 825.774 846.647 780.965 847.138 774.099C843.652 768.897 840.563 763.442 837.029 758.268C832.808 752.086 828.099 746.125 824.129 739.788C823.42 738.656 822.175 736.845 822.066 735.47C821.949 733.985 822.272 733.809 823.202 732.761C823.906 732.522 824.358 732.218 825.114 732.406C826.671 732.793 827.877 734.04 828.854 735.254C831.504 738.541 833.492 742.494 835.79 746.047C839.721 752.123 843.892 758.035 847.787 764.14C847.989 754.985 848.913 745.652 849.861 736.541C844.675 726.651 833.454 714.914 829.511 705.632C828.878 704.143 828.476 702.886 829.126 701.335C830.445 700.762 830.653 700.876 832.088 701.147C836.138 704.171 848.011 722.547 851.148 727.747C853.265 719.663 853.986 710.976 855.473 702.744C857.562 691.176 860.479 679.849 863.574 668.518C864.968 663.415 865.984 657.674 869.097 653.328Z"/>
	<path fill="#FEFEFE" d="M696.874 700.331L698.958 701.167C701.787 703.956 702.629 711.31 703.45 715.138C707.776 735.305 709.863 754.879 711.197 775.417C714.074 770.716 724.366 754.427 727.671 751.254C728.681 750.285 729.792 750.182 731.137 750.189C732.472 750.823 732.503 750.842 733.177 752.156C733.087 757.331 715.511 780.436 711.235 784.595C710.61 794.326 710.509 804.085 710.194 813.83C715.611 808.178 721.127 802.591 726.31 796.723C729.438 793.182 733.326 786.909 736.866 784.333C738.1 783.436 738.724 783.584 740.183 783.786C741.253 784.618 741.574 784.741 741.638 786.205C741.867 791.449 715.041 819.257 709.4 823.74Q708.383 843.018 706.736 862.252C706.462 865.788 706.788 869.471 706.188 872.957C705.852 874.912 705.34 875.953 703.698 877.078C702.185 877.107 702.113 877.177 700.919 876.274C698.94 872.056 700.74 864.447 701.127 859.879C702.31 848.999 702.793 837.736 702.985 826.79C696.216 818.01 671.503 792.462 669.317 784.206C669.666 782.751 669.73 782.6 670.811 781.57C672.031 781.317 672.651 781.005 673.789 781.722C675.827 783.007 677.994 786.438 679.569 788.365C682.812 792.333 699.839 814.705 702.903 815.671C704.535 813.125 704.526 790.998 704.549 786.388C700.35 782.224 674.883 753.198 673.576 749.426C673.136 748.156 673.258 747.903 673.724 746.732C674.802 745.908 675.379 745.512 676.752 745.247C680.63 746.884 699.822 771.037 703.974 775.909C703.805 758.915 701.38 742.172 698.661 725.432C697.822 720.269 694.24 707.174 694.545 703.266C694.654 701.865 695.909 701.177 696.874 700.331Z"/>
	<path fill="#FEFEFE" d="M473.987 828.838C491.026 828.431 508.17 829.001 525.212 829.24C552.849 829.628 580.72 829.862 608.349 829.045C608.431 862.295 609.066 895.681 608.183 928.918C592.754 929.814 576.807 929.056 561.34 929.033L473.869 929.115Q473.657 878.976 473.987 828.838Z"/>
	<path d="M564.994 897.528Q580.528 897.499 596.061 897.705C596.065 903.889 596.141 910.081 595.875 916.26Q580.432 916.347 564.99 916.204L564.994 897.528Z"/>
	<path d="M525.572 897.508L556.466 897.387L556.349 916.266L525.526 916.42L525.572 897.508Z"/>
	<path d="M486.863 897.432C497.032 897.327 507.225 897.485 517.396 897.513L517.481 916.499L486.913 916.796Q486.838 907.114 486.863 897.432Z"/>
	<path d="M487.036 842.521C497.114 842.403 507.211 842.514 517.29 842.514C517.431 848.965 517.355 855.435 517.377 861.888L487.019 861.844Q486.955 852.182 487.036 842.521Z"/>
	<path d="M529.938 842.753Q543.183 842.653 556.427 842.398C556.485 848.587 556.901 855.083 556.315 861.237C555.195 862.088 554.484 861.857 553.125 861.888L525.894 861.798C525.87 855.99 525.07 848.988 526.099 843.342C527.402 842.614 528.481 842.77 529.938 842.753Z"/>
	<path d="M487.021 869.957Q502.225 869.987 517.427 870.173L517.456 889.292C507.31 889.24 497.151 889.447 487.005 889.507L487.021 869.957Z"/>
	<path d="M525.614 870.209L556.509 870.379L556.459 889.325L525.505 889.469Q525.508 879.839 525.614 870.209Z"/>
	<path d="M583.832 870.265L595.596 870.093L596.079 889.36C589.488 889.649 582.81 889.454 576.21 889.467L564.441 889.407L564.476 870.379L583.832 870.265Z"/>
	<path d="M594.49 842.24L595.661 842.308C597.303 845.555 595.957 858.016 595.844 862.123L566.375 862.085C565.927 862.05 565.55 861.827 565.141 861.649C563.92 857.723 564.902 847.103 564.975 842.532Q579.734 842.555 594.49 842.24Z"/>
</svg>
