<?xml version="1.0" standalone="no"?>
<!DOCTYPE svg PUBLIC "-//W3C//DTD SVG 20010904//EN"
 "http://www.w3.org/TR/2001/REC-SVG-20010904/DTD/svg10.dtd">
<svg version="1.0" xmlns="http://www.w3.org/2000/svg"
 width="46.000000pt" height="46.000000pt" viewBox="0 0 46.000000 46.000000"
 preserveAspectRatio="xMidYMid meet">

<g transform="translate(0.000000,46.000000) scale(0.100000,-0.100000)"
fill="#000000" stroke="none">
<path d="M282 373 c-6 -10 -13 -31 -16 -48 -6 -27 -10 -30 -44 -30 -20 0 -41
6 -45 13 -13 19 -44 14 -73 -12 -14 -13 -35 -31 -45 -40 -28 -24 -25 -81 6
-111 13 -14 29 -25 35 -25 5 0 10 -9 10 -19 0 -15 -8 -21 -37 -24 -21 -2 48
-3 152 -3 105 0 138 2 75 3 -113 4 -145 12 -123 34 8 8 17 7 32 -2 16 -11 23
-11 33 -1 6 6 36 12 65 12 46 0 53 3 53 20 0 15 7 20 25 20 23 0 25 4 25 45 0
41 -2 45 -25 45 -18 0 -25 5 -25 20 0 11 -6 20 -14 20 -12 0 -25 28 -26 53 0
4 20 7 45 7 38 0 45 3 45 20 0 18 -7 20 -60 20 -46 0 -61 -4 -68 -17z m118 -3
c0 -5 -20 -10 -45 -10 -33 0 -45 -4 -45 -15 0 -8 -4 -15 -10 -15 -11 0 -14 33
-3 43 10 11 103 8 103 -3z m-235 -70 c3 -5 -3 -10 -14 -10 -12 0 -21 5 -21 10
0 6 6 10 14 10 8 0 18 -4 21 -10z m155 0 c0 -5 -9 -10 -20 -10 -11 0 -20 5
-20 10 0 6 9 10 20 10 11 0 20 -4 20 -10z m-79 -42 c1 -24 3 -27 6 -10 4 19
11 22 54 22 l49 0 0 -70 0 -70 -50 0 c-45 0 -50 2 -51 23 -1 17 -3 16 -8 -7
-12 -56 -26 -26 -29 59 -2 71 0 85 13 85 10 0 15 -11 16 -32z m-41 -58 l0 -70
-49 0 c-61 0 -101 28 -101 71 0 47 31 69 95 69 l55 0 0 -70z m200 5 c0 -28 -4
-35 -20 -35 -16 0 -20 7 -20 35 0 28 4 35 20 35 16 0 20 -7 20 -35z m-240
-105 c0 -11 -7 -20 -15 -20 -8 0 -15 9 -15 20 0 11 7 20 15 20 8 0 15 -9 15
-20z"/>
<path d="M150 240 c0 -5 7 -10 15 -10 8 0 15 5 15 10 0 6 -7 10 -15 10 -8 0
-15 -4 -15 -10z"/>
<path d="M158 203 c7 -3 16 -2 19 1 4 3 -2 6 -13 5 -11 0 -14 -3 -6 -6z"/>
<path d="M158 163 c7 -3 16 -2 19 1 4 3 -2 6 -13 5 -11 0 -14 -3 -6 -6z"/>
</g>
</svg>
