<?xml version="1.0" standalone="no"?>
<!DOCTYPE svg PUBLIC "-//W3C//DTD SVG 20010904//EN"
 "http://www.w3.org/TR/2001/REC-SVG-20010904/DTD/svg10.dtd">
<svg version="1.0" xmlns="http://www.w3.org/2000/svg"
 width="225.000000pt" height="225.000000pt" viewBox="0 0 225.000000 225.000000"
 preserveAspectRatio="xMidYMid meet">

<g transform="translate(0.000000,225.000000) scale(0.100000,-0.100000)"
fill="#000000" stroke="none">
<path d="M1085 1996 c-42 -18 -55 -53 -55 -152 0 -81 1 -87 29 -115 33 -33 67
-37 111 -14 39 20 54 70 48 162 -4 62 -9 79 -29 98 -31 31 -67 38 -104 21z
m63 -142 c2 -70 0 -83 -15 -88 -27 -11 -43 21 -43 85 0 73 7 91 34 87 19 -3
21 -10 24 -84z"/>
<path d="M701 1904 c-43 -36 -41 -78 4 -160 41 -73 76 -104 117 -104 41 0 88
48 88 90 0 37 -69 161 -102 185 -33 22 -72 18 -107 -11z m115 -111 c34 -59 35
-66 21 -81 -15 -14 -18 -14 -34 1 -10 9 -31 41 -47 71 -24 45 -27 57 -17 70
20 23 39 9 77 -61z"/>
<path d="M1442 1917 c-25 -14 -97 -131 -108 -172 -7 -27 18 -80 45 -95 28 -15
73 -12 98 5 12 8 40 49 63 91 46 82 49 124 11 158 -25 23 -81 29 -109 13z m62
-63 c15 -14 14 -21 -15 -72 -18 -32 -37 -63 -44 -70 -14 -16 -45 -5 -45 16 0
23 72 142 86 142 1 0 10 -7 18 -16z"/>
<path d="M358 1703 c-9 -10 -93 -152 -187 -316 -111 -192 -170 -304 -167 -315
6 -18 247 -162 271 -162 7 0 18 7 25 15 24 29 39 17 37 -28 -2 -56 44 -135 90
-157 24 -11 33 -22 33 -40 0 -33 58 -126 87 -139 13 -6 36 -11 51 -11 23 -1
31 -9 54 -60 32 -71 74 -103 128 -97 34 4 36 2 63 -55 47 -97 111 -113 211
-52 56 35 60 36 85 21 89 -52 128 -68 153 -63 46 9 73 33 103 92 19 38 32 53
42 49 40 -15 63 -15 96 -1 36 15 81 72 92 119 5 19 15 26 44 31 52 8 121 90
121 143 0 16 10 27 33 37 65 27 118 129 98 187 -15 43 2 63 25 31 8 -12 21
-22 28 -22 25 0 266 144 272 162 6 19 -340 625 -367 641 -12 7 -47 -8 -145
-66 -127 -74 -129 -76 -128 -110 1 -32 -3 -36 -53 -62 -44 -22 -62 -26 -101
-21 -108 12 -107 12 -110 -11 -5 -33 48 -57 124 -57 50 0 71 6 119 33 31 18
58 31 60 29 3 -4 249 -430 253 -438 1 -4 -8 -12 -22 -19 -22 -12 -42 -3 -279
134 -246 142 -256 149 -251 175 4 16 0 31 -9 38 -17 15 -47 6 -47 -14 0 -27
-54 -75 -92 -81 -31 -4 -46 0 -86 26 -59 37 -69 38 -130 7 -78 -39 -128 -38
-177 5 -19 17 -35 36 -35 43 1 15 298 184 339 192 20 4 48 0 77 -11 43 -16 47
-16 62 -1 34 34 -29 74 -118 75 -52 1 -94 -17 -217 -90 -103 -61 -120 -62
-207 -16 -57 30 -61 34 -58 63 3 27 -2 35 -32 54 -20 12 -44 20 -53 18 -26 -5
-28 -39 -4 -58 22 -16 22 -16 -134 -285 -85 -149 -160 -271 -164 -273 -10 -3
-168 86 -177 99 -4 8 285 520 306 543 4 4 16 3 26 -2 22 -12 54 2 54 23 0 15
-66 65 -86 65 -6 0 -18 -8 -26 -17z m1658 -336 c85 -147 153 -271 150 -276 -9
-13 -167 -102 -177 -99 -9 3 -321 539 -317 544 14 12 175 103 181 101 5 -2 78
-123 163 -270z m-1345 50 c54 -31 56 -33 42 -54 -42 -63 74 -182 177 -183 19
0 62 13 95 28 l60 29 44 -29 c56 -35 129 -38 180 -7 l33 20 162 -93 c400 -230
391 -224 394 -253 4 -32 -41 -105 -65 -105 -8 0 -79 36 -155 80 -143 81 -174
92 -185 64 -8 -23 12 -39 149 -118 139 -80 147 -92 104 -157 -18 -26 -34 -39
-49 -39 -12 0 -80 33 -152 74 -103 59 -133 72 -148 64 -34 -18 -12 -43 93
-105 58 -35 109 -71 114 -82 12 -28 -32 -105 -62 -109 -14 -2 -66 21 -133 59
-100 56 -112 60 -126 46 -23 -23 -11 -41 50 -76 30 -17 58 -38 61 -47 6 -16
-29 -94 -48 -106 -21 -14 -45 -8 -105 28 -53 32 -61 40 -61 66 0 72 -55 132
-132 144 -33 6 -38 10 -38 33 0 60 -65 121 -130 121 -26 0 -30 4 -30 26 0 14
-5 35 -11 47 -16 31 -60 77 -74 77 -8 0 -10 19 -7 58 5 66 -18 109 -52 96 -15
-6 -17 -14 -11 -51 5 -32 2 -51 -8 -67 -19 -28 -148 -106 -176 -106 -24 0 -71
64 -71 96 0 27 14 38 104 89 73 42 88 67 55 88 -13 8 -34 0 -95 -36 -61 -36
-82 -44 -96 -36 -18 10 -16 14 19 77 119 211 219 382 223 382 3 -1 30 -15 61
-33z m45 -630 c32 -27 37 -76 11 -104 -8 -10 -41 -31 -71 -48 -44 -24 -59 -28
-73 -19 -26 16 -64 89 -57 108 7 19 121 86 146 86 9 0 29 -11 44 -23z m169
-162 c45 -45 28 -94 -49 -139 -66 -39 -90 -35 -121 19 -16 27 -24 52 -21 63 8
23 111 81 144 82 13 0 34 -11 47 -25z m165 -155 c28 -28 26 -81 -2 -106 -76
-67 -113 -67 -148 -1 -28 52 -23 68 27 101 47 31 96 33 123 6z"/>
<path d="M1780 1531 c-7 -15 -6 -24 6 -36 19 -18 33 -16 48 7 7 12 6 21 -3 32
-18 22 -38 20 -51 -3z"/>
<path d="M419 1534 c-9 -11 -10 -20 -3 -32 15 -23 29 -25 48 -7 12 12 13 21 6
36 -13 23 -33 25 -51 3z"/>
</g>
</svg>
