<?xml version="1.0" standalone="no"?>
<!DOCTYPE svg PUBLIC "-//W3C//DTD SVG 20010904//EN"
 "http://www.w3.org/TR/2001/REC-SVG-20010904/DTD/svg10.dtd">
<svg version="1.0" xmlns="http://www.w3.org/2000/svg"
 width="564.000000pt" height="443.000000pt" viewBox="0 0 564.000000 443.000000"
 preserveAspectRatio="xMidYMid meet">

<g transform="translate(0.000000,443.000000) scale(0.100000,-0.100000)"
fill="#000000" stroke="none">
<path d="M2364 4411 c-49 -22 -90 -69 -104 -119 -14 -51 -14 -1573 0 -1624 14
-50 55 -97 105 -119 36 -17 72 -19 386 -19 l347 0 43 -57 c23 -32 45 -60 49
-63 3 -3 21 -25 40 -50 19 -25 51 -65 72 -90 20 -25 76 -94 124 -155 101 -127
119 -144 156 -145 45 0 56 9 125 104 36 50 91 125 121 166 31 41 73 99 94 128
21 28 57 77 79 107 l41 55 342 1 c364 1 380 2 435 51 63 57 61 21 61 898 0
675 -2 803 -15 832 -18 45 -74 94 -122 107 -26 7 -414 11 -1188 10 -1087 0
-1152 -1 -1191 -18z m2341 -931 l0 -765 -375 -5 c-206 -3 -376 -7 -378 -8 -3
-3 -186 -250 -285 -386 -43 -59 -82 -106 -87 -104 -8 3 -125 146 -272 332 -35
44 -80 98 -100 120 l-37 41 -370 3 -371 3 0 769 0 770 1138 -2 1137 -3 0 -765z"/>
<path d="M2801 3800 c-111 -40 -180 -132 -189 -252 -6 -92 18 -158 83 -224 65
-65 129 -89 226 -82 105 8 186 63 237 163 36 71 36 179 -1 252 -32 63 -94 117
-164 143 -67 25 -122 25 -192 0z m175 -194 c27 -27 34 -42 34 -72 0 -53 -30
-99 -75 -114 -44 -15 -74 -8 -113 25 -79 67 -29 195 77 195 36 0 49 -6 77 -34z"/>
<path d="M3483 3806 c-160 -50 -242 -218 -186 -382 23 -68 102 -145 172 -169
192 -63 385 74 386 275 1 190 -191 332 -372 276z m163 -200 c27 -27 34 -42 34
-71 0 -52 -33 -101 -76 -115 -43 -15 -73 -8 -113 26 -80 67 -31 194 76 194 38
0 50 -5 79 -34z"/>
<path d="M4130 3798 c-152 -59 -227 -247 -155 -393 54 -111 160 -172 284 -163
75 6 114 23 172 75 161 145 107 406 -99 483 -67 25 -132 25 -202 -2z m180
-185 c42 -38 51 -98 21 -146 -75 -122 -262 -15 -196 113 34 66 120 82 175 33z"/>
<path d="M865 2360 c-38 -10 -173 -46 -300 -80 -126 -34 -276 -75 -331 -89
-115 -30 -160 -57 -198 -115 -47 -72 -46 -102 8 -301 13 -49 49 -184 80 -300
31 -115 67 -250 80 -300 47 -173 84 -311 121 -450 20 -77 42 -160 50 -185 7
-25 32 -117 55 -205 23 -88 48 -176 57 -196 32 -77 109 -128 193 -129 25 0 86
11 135 24 50 14 126 34 170 46 44 12 130 35 190 50 371 98 383 103 430 164 40
52 51 114 36 191 -7 36 -12 68 -10 70 5 4 316 86 351 93 24 4 35 -4 75 -49
278 -310 625 -514 987 -579 181 -33 236 -27 516 51 80 23 186 52 235 65 97 25
315 84 595 159 96 26 231 62 300 80 69 18 170 45 225 60 55 15 138 37 185 50
206 55 245 67 293 91 111 57 208 182 236 305 33 144 -19 314 -129 419 -114
109 -271 153 -420 116 -57 -14 -302 -80 -785 -209 -154 -42 -289 -77 -300 -79
-17 -3 -21 5 -27 62 -9 79 -41 171 -79 226 -44 64 -98 107 -195 154 -136 66
-387 187 -499 240 -55 26 -172 82 -260 125 -88 42 -198 95 -245 117 -47 22
-139 67 -205 101 -260 131 -279 138 -391 158 -81 14 -264 7 -374 -15 -41 -9
-174 -43 -295 -76 -121 -33 -223 -60 -227 -60 -3 0 -10 15 -13 33 -24 110
-117 189 -220 186 -16 0 -61 -9 -100 -19z m133 -172 c6 -7 19 -47 30 -88 23
-89 143 -536 178 -665 13 -49 38 -139 54 -200 16 -60 35 -135 44 -165 8 -30
24 -91 36 -135 28 -105 61 -230 104 -388 32 -119 33 -128 18 -146 -11 -12 -74
-33 -177 -60 -88 -24 -198 -53 -245 -66 -251 -70 -361 -96 -377 -87 -11 7 -37
88 -84 263 -37 140 -77 288 -88 329 -11 41 -39 143 -61 225 -22 83 -49 184
-60 225 -11 41 -37 140 -59 220 -21 80 -60 223 -85 318 -26 95 -46 185 -44
199 4 32 -14 26 383 132 44 12 143 39 220 60 151 42 197 48 213 29z m1131 -64
c29 -8 132 -55 229 -104 98 -48 220 -108 272 -133 52 -25 156 -74 230 -110 74
-35 187 -90 251 -120 152 -73 448 -216 521 -252 97 -47 138 -101 158 -206 14
-72 13 -107 -6 -169 -25 -84 -89 -137 -196 -160 -76 -17 -110 -7 -328 98 -96
46 -206 99 -245 117 -38 18 -160 77 -270 130 -110 53 -217 99 -237 102 -50 7
-88 -29 -88 -85 0 -45 22 -69 92 -101 26 -12 114 -53 195 -92 82 -39 193 -93
248 -119 55 -26 172 -82 260 -125 175 -84 241 -105 325 -105 151 0 279 69 376
202 20 26 42 48 49 48 8 0 98 23 202 51 103 28 238 63 298 79 61 16 151 41
200 54 441 120 479 128 547 124 147 -11 247 -121 248 -272 0 -86 -33 -161 -94
-211 -57 -46 -28 -37 -546 -175 -58 -15 -150 -40 -205 -54 -55 -15 -149 -41
-210 -56 -60 -16 -162 -43 -225 -60 -63 -17 -207 -56 -320 -86 -113 -30 -261
-71 -330 -91 -199 -56 -230 -62 -322 -63 -197 0 -447 86 -668 230 -145 95
-234 175 -395 353 -57 62 -76 77 -99 77 -27 0 -262 -59 -401 -100 -45 -13 -62
-15 -67 -6 -3 6 -23 74 -44 151 -47 180 -71 268 -134 500 -28 105 -66 246 -85
315 -18 69 -43 160 -55 204 -11 43 -19 81 -16 83 2 3 38 14 78 24 87 23 202
55 278 76 197 54 419 70 529 37z"/>
</g>
</svg>
