<?xml version="1.0" encoding="utf-8" ?>
<svg xmlns="http://www.w3.org/2000/svg" xmlns:xlink="http://www.w3.org/1999/xlink" width="1024" height="1024">
	<path fill="#FEFEFE" d="M0 0L1024 0L1024 1024L0 1024L0 0Z"/>
	<path d="M442.922 310.77C445.439 310.978 447.967 311.166 450.472 311.49C452.541 311.757 454.458 311.887 455.78 313.607C455.677 314.647 455.467 315.057 454.832 315.882C450.375 315.58 445.92 315.529 441.455 315.463L442.922 310.77Z"/>
	<path d="M263.261 310.695C264.4 310.526 265.239 310.295 266.343 310.726C266.537 311.112 266.817 311.604 266.868 312.034C267.038 313.455 266.612 313.946 265.775 314.938C263.099 315.985 259.317 315.325 256.375 315.408C256.071 315.422 255.768 315.462 255.465 315.448C253.94 315.378 253.665 315.177 252.632 314.166L252.701 313.134C254.845 310.894 260.224 311.018 263.261 310.695Z"/>
	<path d="M432.49 311.183C433.567 311.014 435.067 310.674 436.125 311.015C437.293 311.39 437.584 311.896 438.146 312.874C438.095 313.683 437.941 313.995 437.459 314.685C435.879 316.942 433.095 317.042 430.605 317.484C429.67 317.723 428.722 317.911 427.778 318.112C426.623 317.463 426.475 317.258 425.788 316.115C425.739 314.749 426.252 313.694 427.163 312.687C428.443 311.272 430.693 311.341 432.49 311.183Z"/>
	<path d="M272.511 310.404C276.461 310.569 280.508 311.303 284.437 311.791L284.738 318.876C280.798 317.572 275.694 317.712 272.439 315.224C271.77 313.402 272.198 312.296 272.511 310.404Z"/>
	<path d="M420.089 313.529L420.589 313.661C421.928 315.219 422.245 317.535 422.75 319.487C419.494 320.735 416.345 322.513 413.222 324.073L412.206 324.246L412.083 323.8L411.888 323.054C411.411 321.277 410.589 319.17 411.628 317.43C413.024 315.09 417.642 314.291 420.089 313.529Z"/>
	<path d="M290.478 313.709C292.764 314.378 295.326 314.941 297.472 315.971C298.562 316.494 299.627 317.435 299.937 318.634C300.507 320.838 299.29 322.727 298.331 324.635C295.225 322.664 291.617 321.379 288.228 319.963L290.478 313.709Z"/>
	<path d="M306.486 320.843C309.441 322.386 312.808 323.595 314.38 326.704C314.686 329.509 313.238 330.85 311.589 332.931C308.364 331.626 305.699 329.811 302.901 327.791C304.255 325.575 305.334 323.169 306.486 320.843Z"/>
	<path d="M372.126 347.929C375.54 348.489 377.838 350.034 380.601 351.976C379.185 354.885 377.323 357.293 375.205 359.706L374.465 360.067C372.971 359.756 371.071 359.424 369.865 358.408C368.876 357.573 368.441 356.712 368.309 355.454C367.992 352.437 370.288 350.034 372.126 347.929Z"/>
	<path d="M403.836 320.471C405.483 322.428 406.797 325.203 408.113 327.425C405.095 329.799 401.84 331.676 398.527 333.606C397.699 333.884 398.158 333.859 397.155 333.482C395.877 331.095 395.493 328.296 394.922 325.667C397.783 323.727 400.8 322.115 403.836 320.471Z"/>
	<path d="M319.894 331.783C323.762 332.6 326.423 336.647 328.754 339.568C326.944 341.5 324.976 343.325 323.086 345.182C322.439 345.639 322.838 345.474 321.83 345.498C319.272 343.379 317.238 340.405 315.173 337.804C316.82 335.88 318.335 333.783 319.894 331.783Z"/>
	<path d="M331.707 346.419C332.287 346.432 332.925 346.419 333.493 346.554C336.125 347.182 338.701 352.784 339.905 354.94C338.003 356.896 335.874 358.589 333.777 360.329L333.342 360.341C330.448 357.948 328.142 354.841 326.118 351.701C327.906 349.811 329.724 348.104 331.707 346.419Z"/>
	<path d="M386.527 331.806C389.659 332.793 390.834 336.011 392.368 338.718Q388.259 343.296 383.975 347.712C381.423 346.475 379.564 343.175 377.971 340.881C380.364 337.468 383.431 334.57 386.527 331.806Z"/>
	<path d="M423.075 488.207C427.13 490.98 429.846 496.036 433.61 499.339C438.523 503.65 444.754 506.316 449.607 510.754C458.148 518.564 463.095 531.288 469.65 540.817C476.458 550.712 483.289 556.02 495.196 558.275C454.512 561.374 456.136 520.738 428.861 511.282C427.988 503.242 425.197 495.95 423.075 488.207Z"/>
	<path d="M282.498 495.207C283.427 497.164 280.375 504.776 279.587 507.279C270.812 514.371 262.655 522.834 255.28 531.362C248.141 539.616 240.995 549.644 232.03 556.003C226.826 559.694 221.029 560.141 214.956 559.064C214.034 558.479 214.356 558.862 213.928 557.974C216.622 556.976 219.843 556.084 222.286 554.611C233.514 547.847 242.21 531.327 249.864 520.707C258.734 508.402 266.708 497.735 282.498 495.207Z"/>
	<path d="M875.99 96.6499C889.467 96.6668 903.178 96.3934 916.615 97.4214C916.87 102.371 916.697 107.368 916.658 112.324L904.128 117.039C894.566 120.412 884.978 123.865 875.588 127.688Q875.912 112.171 875.99 96.6499Z"/>
	<path d="M215.776 433.621C228.063 433.772 235.874 442.886 245.058 449.704C256.58 458.258 268.289 463.342 282.892 461.906C287.238 461.478 291.568 460.491 295.9 459.869L289.978 475.545C289.425 477.089 289.307 478.055 288.025 479.112C284.713 479.902 280.036 478.321 276.729 477.601Q274.821 477.19 272.94 476.672Q271.058 476.155 269.208 475.533Q267.358 474.912 265.546 474.188Q263.734 473.464 261.965 472.64Q260.196 471.816 258.475 470.895Q256.755 469.974 255.089 468.958Q253.422 467.942 251.816 466.835Q250.209 465.727 248.666 464.532C239.181 457.269 224.235 437.345 212.949 436.001C212.052 435.894 211.826 435.907 210.974 435.501C212.146 434.385 214.227 434.058 215.776 433.621Z"/>
	<path d="M875.969 60.1824C889.57 65.033 903.593 70.2107 916.755 76.1266C917.074 81.5106 916.903 86.9478 916.875 92.3402C903.267 92.2571 889.562 91.2081 875.946 90.8243L875.969 60.1824Z"/>
	<path d="M494.977 435.21C498.452 435.069 501.746 435.372 505.182 435.851C476.423 439.817 478.862 449.436 458.46 465.213C447.86 473.41 433.198 479.728 419.542 477.939C416.595 471.257 414.738 464.383 410.842 458.113C418.2 459.187 425.491 460.25 432.949 459.773C445.679 458.958 454.825 453.745 465.035 446.529C468.936 443.771 472.752 441.003 477.156 439.083C482.843 436.604 488.836 435.681 494.977 435.21Z"/>
	<path d="M327.122 411C345.211 415.484 363.19 417.812 380.845 410.522C380.996 414.463 382.37 426.805 380.703 429.611C368.01 433.745 355.922 435.715 342.556 434.132C338.104 433.604 329.953 432.741 327.272 428.678C325.297 425.686 326.606 414.653 327.122 411Z"/>
	<path d="M434.589 549.143C435.074 549.295 435.386 549.357 435.824 549.684C439.62 552.515 442.639 561.452 444.199 565.805C453.083 590.598 453.626 604.015 447.985 629.853C446.275 637.685 444.295 645.503 445.137 653.582C446.326 664.976 451.986 673.327 460.754 680.348L461.225 680.896L460.718 681.15C455.35 679.299 449.974 676.07 445.993 671.998C433.846 659.576 437.186 644.822 439.556 629.365C440.691 621.958 441.53 614.573 441.589 607.067C441.658 598.243 441.812 587.495 435.254 580.791C435.473 570.202 435.086 559.715 434.589 549.143Z"/>
	<path d="M273.209 545.86C273.952 549.559 272.708 558.062 272.588 562.255C272.422 568.101 272.634 573.902 273.021 579.734C264.392 593.104 264.289 613.778 266.43 628.996C267.597 637.3 269.782 645.882 269.524 654.284C269.29 661.926 266.237 668.736 260.573 673.912C257.364 676.846 252.751 680.36 248.161 680.149L248.72 679.633C268.593 667.053 260.352 642.901 256.769 624.544C255.162 616.314 254.108 607.787 254.576 599.389C255.736 578.554 263.248 563.585 273.209 545.86Z"/>
	<path d="M386.485 433.512C397.092 442.305 402.079 451.724 406.366 464.71C397.448 469.87 385.167 472.975 375.129 474.87Q366.629 476.096 358.046 476.395Q358.022 458.726 357.704 441.06C368.572 440.107 376.721 438.466 386.485 433.512Z"/>
	<path d="M321.403 434.351C324.587 434.27 332.652 438.156 336.401 439.103C341.493 440.389 346.591 440.889 351.82 441.2C352.099 452.915 351.972 464.674 352.058 476.395Q342.93 476.101 333.881 474.862C322.04 472.929 310.918 470.152 300.098 464.831C305.678 453.378 311.189 442.386 321.403 434.351Z"/>
	<path d="M341.328 359.947C343.932 362.917 345.526 367.427 347.21 371.01C352.065 370.242 355.827 370.051 360.671 371.099C362.007 367.124 363.349 364.094 366.206 360.914C368.145 362.18 369.866 363.646 371.633 365.135L367.633 373.443C369.588 374.935 371.48 376.574 373.152 378.381C377.241 382.802 379.992 388.427 379.628 394.558C379.469 397.233 378.424 404.282 376.408 406.02C361.35 410.454 347.226 409.95 332.067 406.235C330.036 401.856 328.371 397.373 328.553 392.451C328.851 384.383 334.039 378.412 339.675 373.277C338.599 370.923 336.366 367.229 336.694 364.613C337.006 362.131 339.421 361.114 341.328 359.947Z"/>
	<path fill="#FEFEFE" d="M350.828 380.445C351.346 380.386 351.863 380.32 352.383 380.292C354.31 380.189 356.15 380.624 357.562 382.006C358.718 383.137 359.143 384.29 359.041 385.889C358.904 388.022 357.442 389.493 355.878 390.744C355.248 390.851 354.629 390.961 353.99 390.99C352.127 391.075 350.352 390.53 349.121 389.057C348.257 388.023 347.89 386.647 348.012 385.316C348.212 383.139 349.303 381.885 350.828 380.445Z"/>
	<path d="M842.146 145.95C842.414 146.077 842.745 146.116 842.948 146.331C843.285 146.688 843.421 148.354 843.439 148.834C845.281 197.416 855.939 247.541 877.937 291.123C882.241 299.652 887.409 307.786 892.358 315.95C887.825 317.353 883.905 319.657 879.812 322.008C876.521 316.787 872.869 311.795 869.305 306.759C861.78 296.704 854.32 286.793 847.83 276.025C827.075 241.592 813.803 201.458 803.855 162.642C816.436 156.083 828.875 150.921 842.146 145.95Z"/>
	<path d="M867.432 96.5884L867.876 96.8767C869.316 102.052 868.374 123.775 868.36 130.591C827.128 140.199 783.765 157.359 753.122 187.527C741.676 198.795 732.417 211.371 722.616 224.029Q705.018 224.001 687.421 224.241C686.853 224.033 687.143 224.214 686.663 223.549Q692.705 214.968 699.282 206.789Q705.86 198.611 712.945 190.869Q720.031 183.127 727.596 175.853Q735.161 168.579 743.175 161.802C784.392 126.418 815.327 111.799 867.432 96.5884Z"/>
	<path d="M877.779 239.311C882.863 243.347 890.522 256.216 894.534 262.157Q897.858 267.083 901.049 272.098Q904.239 277.112 907.294 282.21Q910.349 287.307 913.265 292.486Q916.182 297.664 918.958 302.918Q921.735 308.173 924.369 313.5Q927.003 318.828 929.494 324.224Q931.984 329.62 934.328 335.081Q936.672 340.543 938.869 346.065Q941.066 351.587 943.114 357.166Q945.161 362.745 947.058 368.377Q948.955 374.01 950.7 379.691Q952.445 385.372 954.037 391.098Q955.629 396.824 957.066 402.59Q958.504 408.357 959.786 414.16Q961.067 419.963 962.193 425.799Q963.319 431.634 964.287 437.498C978.991 530.37 967.196 626.606 923.933 710.781Q909.603 738.502 892.193 764.4C886.516 772.67 880.304 780.609 874.41 788.728L868.535 795.972C868.427 785.47 867.657 774.907 867.143 764.413C871.1 758.808 875.341 753.458 879.157 747.739C896.738 721.395 912.099 692.388 923.053 662.663Q924.675 658.278 926.202 653.86Q927.729 649.441 929.16 644.99Q930.591 640.54 931.926 636.059Q933.261 631.579 934.5 627.071Q935.738 622.563 936.879 618.029Q938.019 613.495 939.062 608.938Q940.105 604.381 941.05 599.802Q941.994 595.223 942.84 590.625Q943.685 586.027 944.432 581.412Q945.178 576.797 945.825 572.167Q946.471 567.537 947.018 562.894Q947.565 558.251 948.012 553.597Q948.458 548.943 948.805 544.281Q949.151 539.619 949.396 534.95Q949.642 530.282 949.787 525.609Q949.932 520.936 949.977 516.261Q950.021 511.586 949.965 506.912Q949.908 502.237 949.751 497.564Q949.594 492.892 949.336 488.224Q949.078 483.556 948.72 478.895Q948.362 474.233 947.903 469.581Q947.445 464.928 946.886 460.287Q946.327 455.645 945.669 451.017Q945.01 446.388 944.252 441.775Q943.494 437.162 942.636 432.566Q941.779 427.97 940.822 423.394Q939.866 418.818 938.812 414.263Q937.757 409.709 936.604 405.178Q935.452 400.647 934.202 396.142Q932.952 391.637 931.605 387.16Q930.259 382.684 928.816 378.237Q927.373 373.79 925.835 369.375C920.342 353.397 913.544 337.755 906.461 322.432C908.576 321.651 910.533 320.921 911.717 318.872C913.181 316.337 912.509 312.616 911.503 310.043C908.381 302.054 902.281 294.435 897.987 286.945Q894.765 281.317 891.882 275.508Q889 269.699 886.467 263.729Q883.934 257.759 881.76 251.649Q879.587 245.539 877.779 239.311Z"/>
	<path d="M593.672 232.153C628.029 232.935 662.396 231.68 696.764 232.224C706.553 232.379 717.818 231.377 727.355 232.716C729.264 232.984 730.253 233.122 731.366 234.798C732.371 236.311 732.713 238.478 732.866 240.25C733.358 245.962 732.642 251.956 732.644 257.696C732.648 268.713 734.084 296.498 731.966 305.666C731.027 306.73 730.479 306.676 729.125 306.999L641.542 306.898C631.895 306.931 598.443 308.022 591.369 306.094C590.486 305.854 588.913 305.295 588.539 304.408C587.693 302.403 587.39 249.05 587.767 242.597C587.885 240.577 588.132 238.479 588.9 236.589C589.855 234.24 591.409 233.117 593.672 232.153Z"/>
	<path fill="#FEFEFE" d="M713.436 244.296C714.851 244.606 715.642 244.773 716.8 245.711C717.627 247.237 717.703 248.887 717.777 250.587C718.117 258.401 717.918 266.316 717.959 274.141C717.991 279.993 718.632 286.734 717.595 292.461C717.329 293.935 716.653 294.734 715.664 295.819C714.19 295.494 713.307 295.188 712.038 294.374C710.575 292.389 710.397 251.417 711.041 247.033C711.229 245.753 712.476 245.022 713.436 244.296Z"/>
	<path fill="#FEFEFE" d="M646.952 244.959C648.45 244.809 649.53 244.794 650.993 245.171C652.12 246.139 652.381 246.261 652.65 247.779C653.452 252.303 653.48 287.085 652.682 292.341C652.504 293.516 652.092 294.235 651.407 295.188C650.554 295.266 649.137 295.494 648.311 295.256C647.14 294.917 646.558 294.382 646.188 293.225C645.612 291.43 645.306 252.431 645.679 248.576C645.812 247.206 646.27 246.139 646.952 244.959Z"/>
	<path fill="#FEFEFE" d="M602.975 245.025C604.195 244.954 605.551 244.765 606.762 244.91C607.975 245.055 608.413 245.685 609.046 246.618C609.727 252.485 610.195 291.554 608.279 295.225C606.851 295.358 605.218 295.642 603.854 295.117C603.176 294.857 602.874 294.416 602.649 293.726C601.632 290.599 601.793 252.822 602.242 247.68C602.327 246.7 602.602 245.925 602.975 245.025Z"/>
	<path fill="#FEFEFE" d="M624.674 245.022C625.922 244.905 627.521 244.742 628.759 245.013C629.853 245.252 630.764 245.853 631.158 246.931C632.169 249.695 631.911 287.869 631.388 292.287C631.262 293.353 630.878 294.135 630.37 295.063C629.497 295.247 628.182 295.508 627.307 295.278C625.848 294.894 625.57 294.408 624.719 293.262C623.893 287.704 623.333 248.904 624.674 245.022Z"/>
	<path fill="#FEFEFE" d="M669.264 244.433C671.187 244.59 672.166 244.623 673.645 245.891C675.453 250.857 674.599 279.664 674.509 286.947C674.468 290.25 674.803 293.275 672.272 295.725C670.6 295.45 669.213 295.35 667.872 294.209C666.128 290.805 667.052 273.545 667.064 268.518C667.077 263.177 665.898 247.782 669.264 244.433Z"/>
	<path fill="#FEFEFE" d="M690.876 244.342C692.614 244.56 693.895 244.668 695.145 246.019C696.864 250.612 696.438 284.781 696.047 291.434C695.912 293.725 695.283 294.313 693.649 295.759C692.24 295.614 691.438 295.306 690.199 294.687C688.404 292.632 688.696 289.903 688.656 287.318C688.543 279.963 687.712 252.52 689.106 246.988C689.391 245.857 690.085 245.159 690.876 244.342Z"/>
	<path d="M408.141 471.432C408.793 471.478 408.984 471.662 409.517 472.015C412.889 477.774 414.457 485.1 416.335 491.468C419.212 501.224 422.213 511.023 424.174 521.008C427.575 538.328 428.763 562.103 427.799 579.854C425.848 615.786 395.784 646.173 370.496 668.838C366.666 672.459 362.5 675.287 358.049 678.093L358.074 482.636C377.172 482.303 390.676 479.064 408.141 471.432Z"/>
	<path d="M298.389 471.367C316.122 479.012 332.857 481.847 352.005 482.908L352.156 602.628C352.228 627.948 352.852 653.48 352.091 678.784C348.02 676.318 344.148 673.788 340.329 670.94C320.568 656.398 299.815 637.701 289.249 615.265C269.062 572.402 283.2 513.861 298.389 471.367Z"/>
	<path d="M759.451 206.299L759.913 206.553C761.888 209.639 762.702 215.052 763.733 218.644C768.22 222.77 773.288 226.43 777.993 230.323Q786.84 237.709 795.051 245.795Q798.905 249.533 802.645 253.385Q806.384 257.237 810.006 261.2Q813.628 265.163 817.129 269.233Q820.63 273.303 824.007 277.477Q827.384 281.651 830.634 285.924Q833.883 290.198 837.003 294.567Q840.122 298.937 843.109 303.398Q846.095 307.859 848.946 312.409Q851.797 316.958 854.51 321.591Q857.223 326.224 859.794 330.937Q862.366 335.649 864.795 340.437Q867.224 345.225 869.508 350.084Q871.791 354.943 873.928 359.868Q876.064 364.794 878.051 369.781Q880.038 374.769 881.874 379.814Q883.71 384.859 885.393 389.957C915.74 484.239 909.81 593.413 864.458 681.982C862.756 685.168 861.2 688.382 859.711 691.672Q857.056 672.054 853.963 652.5C852.782 645.164 850.389 636.498 850.703 629.14C850.991 622.38 854.379 614.613 856.277 608.076C857.895 602.501 859.211 596.868 860.492 591.208Q862.07 584.502 863.388 577.74Q864.707 570.978 865.764 564.17Q866.821 557.362 867.615 550.519Q868.409 543.675 868.939 536.806Q869.469 529.937 869.734 523.053Q869.999 516.169 869.999 509.28Q869.998 502.39 869.733 495.506Q869.467 488.622 868.937 481.753C862.805 407.891 832.6 335.656 781.64 281.533C772.204 271.512 762.082 262.839 751.597 253.962C751.55 243.18 752.649 230.235 748.421 220.126C752.25 215.631 755.431 210.647 759.451 206.299Z"/>
	<path d="M497.637 54.2254C524.754 53.0999 552.368 55.2481 579.229 58.8826C588.883 60.1887 598.43 62.9304 608.114 63.7491C596.813 67.6564 585.866 73.5216 575.092 78.6916C566.975 78.2594 558.805 76.8008 550.697 76.0526Q531.275 74.2594 511.771 74.2573Q507.885 74.2159 503.999 74.2451Q500.114 74.2744 496.229 74.3744Q492.344 74.4744 488.462 74.645Q484.58 74.8157 480.701 75.0569Q476.823 75.2982 472.949 75.61Q469.076 75.9218 465.209 76.304Q461.342 76.6862 457.482 77.1387Q453.623 77.5913 449.772 78.1139Q445.921 78.6366 442.081 79.2293Q438.24 79.8219 434.411 80.4844Q430.582 81.1468 426.766 81.8788Q422.949 82.6109 419.147 83.4122Q415.344 84.2135 411.557 85.0839Q407.77 85.9543 403.999 86.8934Q400.228 87.8326 396.475 88.8402Q392.722 89.8478 388.988 90.9236Q385.254 91.9993 381.54 93.1428Q377.826 94.2863 374.134 95.4972Q370.441 96.7081 366.771 97.986Q363.102 99.2639 359.456 100.608Q355.81 101.953 352.189 103.363Q348.568 104.774 344.973 106.25Q341.378 107.726 337.811 109.268Q334.244 110.809 330.706 112.415Q327.167 114.021 323.658 115.691Q320.149 117.361 316.672 119.095Q313.194 120.829 309.748 122.626Q306.303 124.422 302.89 126.282Q299.478 128.141 296.1 130.062Q292.722 131.982 289.379 133.964Q286.037 135.947 282.731 137.989Q279.425 140.032 276.157 142.134Q271.635 145.037 267.184 148.05Q262.734 151.063 258.358 154.183Q253.982 157.303 249.684 160.529Q245.385 163.755 241.166 167.085Q236.948 170.414 232.811 173.845Q228.675 177.277 224.624 180.808Q220.572 184.339 216.608 187.967Q212.643 191.596 208.769 195.32Q204.894 199.044 201.111 202.862Q197.328 206.679 193.639 210.587Q189.95 214.496 186.357 218.493Q182.765 222.49 179.271 226.573Q175.776 230.656 172.383 234.824Q168.989 238.991 165.698 243.24Q162.406 247.488 159.22 251.816Q156.033 256.143 152.952 260.547Q149.872 264.951 146.9 269.428Q143.927 273.906 141.065 278.455Q138.202 283.003 135.452 287.62Q132.701 292.237 130.063 296.92Q127.426 301.602 124.903 306.348Q122.38 311.093 119.974 315.899Q117.568 320.704 115.279 325.567Q112.99 330.429 110.821 335.346Q108.651 340.263 106.602 345.231Q104.553 350.2 102.625 355.216Q100.698 360.233 98.8928 365.295Q97.088 370.357 95.407 375.462Q93.7259 380.567 92.1697 385.711Q90.6135 390.855 89.183 396.035Q87.7525 401.216 86.4486 406.429Q85.1447 411.643 83.9681 416.887Q82.7982 422.115 81.7564 427.371Q80.7146 432.626 79.8015 437.905Q78.8883 443.184 78.1044 448.484Q77.3204 453.784 76.6662 459.102Q76.0119 464.419 75.4877 469.751Q74.9635 475.083 74.5696 480.426Q74.1758 485.769 73.9126 491.12Q73.6494 496.471 73.5169 501.827Q73.3845 507.183 73.3829 512.541Q73.3812 517.899 73.5105 523.255Q73.6397 528.611 73.8997 533.962Q74.1598 539.313 74.5504 544.657Q74.941 550 75.462 555.332Q75.983 560.664 76.6341 565.982Q77.2852 571.3 78.066 576.601Q78.8467 581.901 79.7567 587.181Q80.6667 592.461 81.7054 597.716Q82.744 602.972 83.9107 608.201Q85.0774 613.43 86.3715 618.629Q87.6656 623.828 89.0862 628.994Q90.5069 634.16 92.0533 639.29Q93.5997 644.419 95.2709 649.509Q96.9421 654.6 98.7372 659.648Q100.532 664.695 102.45 669.698Q104.368 674.701 106.407 679.655Q108.447 684.609 110.606 689.512Q112.766 694.415 115.045 699.264Q117.324 704.113 119.72 708.904Q122.117 713.696 124.63 718.428Q127.143 723.159 129.771 727.828Q132.398 732.497 135.139 737.101Q137.88 741.704 140.733 746.239C200.737 841.023 297.431 912.644 407.452 937.385C424.604 940.946 441.728 943.83 459.197 945.225C461.33 954.533 465.218 961.439 472.271 967.844Q467.58 967.49 462.898 967.038Q458.215 966.586 453.543 966.036Q448.871 965.486 444.211 964.838Q439.552 964.19 434.907 963.445Q430.262 962.699 425.634 961.857Q421.006 961.014 416.396 960.075Q411.787 959.135 407.198 958.099Q402.609 957.063 398.043 955.931Q393.477 954.799 388.936 953.572Q384.395 952.345 379.88 951.022Q375.365 949.7 370.879 948.283Q366.393 946.866 361.938 945.356Q357.483 943.846 353.06 942.242Q348.638 940.639 344.25 938.943Q339.862 937.247 335.51 935.459Q331.159 933.672 326.846 931.794Q322.533 929.915 318.26 927.947Q313.987 925.979 309.757 923.921Q305.526 921.864 301.34 919.718Q297.154 917.572 293.013 915.339Q288.873 913.106 284.78 910.787Q280.687 908.468 276.644 906.063Q272.6 903.658 268.608 901.17Q264.616 898.681 260.677 896.109Q256.739 893.537 252.854 890.883Q248.97 888.229 245.143 885.494Q241.315 882.759 237.545 879.944Q233.776 877.13 230.066 874.237Q226.357 871.344 222.709 868.374Q219.06 865.404 215.475 862.358Q211.89 859.312 208.37 856.192Q204.849 853.072 201.395 849.878Q181.307 831.446 163.465 810.833Q160.367 807.228 157.345 803.558Q154.323 799.888 151.379 796.155Q148.435 792.423 145.57 788.629Q142.705 784.836 139.921 780.983Q137.136 777.129 134.433 773.219Q131.731 769.308 129.111 765.341Q126.491 761.374 123.955 757.353Q121.419 753.332 118.969 749.259Q116.518 745.185 114.153 741.061Q111.789 736.937 109.512 732.764Q107.235 728.591 105.046 724.371Q102.857 720.151 100.757 715.886Q98.6577 711.621 96.6482 707.312Q94.6388 703.004 92.7205 698.654Q90.8021 694.305 88.9757 689.916Q87.1493 685.527 85.4156 681.1Q83.682 676.674 82.0418 672.212Q80.4016 667.75 78.8557 663.254Q77.3097 658.759 75.8587 654.232Q74.4077 649.705 73.0522 645.148Q71.6967 640.592 70.4374 636.008Q69.1781 631.424 68.0155 626.814Q66.8529 622.205 65.7876 617.572Q64.7222 612.939 63.7545 608.285Q62.7869 603.63 61.9173 598.957Q61.0478 594.283 60.2768 589.592Q59.5057 584.901 58.8336 580.195Q58.1614 575.489 57.5884 570.77Q57.0154 566.05 56.5417 561.32Q56.0681 556.59 55.6941 551.851Q55.3201 547.112 55.0459 542.366Q54.7717 537.62 54.5974 532.869Q53.8745 513.767 54.5398 494.662Q55.2051 475.558 57.2551 456.552C68.8535 355.799 114.076 265.441 183.281 192.035C203.059 171.055 225.801 152.397 249.413 135.935Q252.795 133.539 256.221 131.207Q259.647 128.875 263.116 126.607Q266.585 124.339 270.096 122.136Q273.607 119.934 277.158 117.797Q280.709 115.66 284.299 113.589Q287.889 111.519 291.518 109.516Q295.146 107.513 298.811 105.577Q302.476 103.642 306.177 101.776Q309.877 99.9093 313.612 98.1121Q317.346 96.3149 321.114 94.5877Q324.881 92.8605 328.68 91.2038Q332.479 89.5471 336.309 87.9615Q340.138 86.3759 343.996 84.862Q347.854 83.348 351.74 81.9063Q355.625 80.4646 359.537 79.0955Q363.449 77.7265 367.386 76.4306Q371.323 75.1347 375.283 73.9124Q379.243 72.6902 383.225 71.5419Q387.208 70.3937 391.211 69.3199Q395.214 68.2461 399.236 67.2472Q403.258 66.2482 407.299 65.3244Q411.339 64.4006 415.396 63.5522Q419.453 62.7039 423.525 61.9313Q427.596 61.1588 431.682 60.4623Q435.768 59.7658 439.865 59.1455Q443.963 58.5253 448.072 57.9816Q452.181 57.4379 456.299 56.9708Q460.417 56.5038 464.543 56.1136Q468.669 55.7234 472.802 55.4103Q476.935 55.0971 481.073 54.861Q485.21 54.6249 489.352 54.466Q493.493 54.3071 497.637 54.2254Z"/>
	<path d="M785.418 54.7487C813.195 54.4121 840.845 56.6901 868.471 59.282L868.438 88.2073C863.187 90.136 857.518 91.3781 852.131 92.9217Q840.125 96.2941 828.539 100.907C762.44 126.963 716.828 166.862 675.277 224.18C649.522 224.881 623.624 224.095 597.85 224.244C597.249 221.517 596.346 218.844 595.539 216.172C585.155 186.359 556.996 173.714 527.178 171.486C521.171 171.037 511.086 173.352 506.282 168.995C505.027 167.856 504.416 166.396 504.356 164.72C504.086 157.25 512.225 149.928 517.068 144.951C538.202 123.228 562.845 104.317 590.035 90.7613C603.116 84.2402 616.822 79.4046 630.769 75.1165C681.181 59.6173 732.954 55.4624 785.418 54.7487Z"/>
	<path d="M490.285 122.226C498.597 122.019 507.049 121.707 515.341 122.378C504.232 134.071 491.543 142.957 485.299 158.507C472.292 159.968 459.346 160.423 446.375 162.524C389.702 171.703 341.675 194.644 295.35 227.851C282.188 237.285 269.996 248.724 258.51 260.123C202.508 315.697 170.608 381.596 157.891 459.243C155.702 472.614 154.794 485.987 154.322 499.517Q154.187 503.177 154.128 506.839Q154.068 510.501 154.084 514.164Q154.099 517.826 154.189 521.488Q154.28 525.149 154.445 528.808Q154.611 532.466 154.851 536.121Q155.091 539.776 155.406 543.425Q155.721 547.074 156.111 550.715Q156.501 554.357 156.965 557.99Q157.43 561.623 157.968 565.246Q158.507 568.868 159.119 572.479Q159.732 576.09 160.419 579.688Q161.105 583.285 161.865 586.868Q162.625 590.451 163.458 594.018Q164.292 597.584 165.198 601.133Q166.104 604.681 167.083 608.211Q168.061 611.74 169.112 615.249Q170.163 618.757 171.285 622.243Q172.407 625.73 173.601 629.192Q174.794 632.655 176.058 636.092Q177.323 639.53 178.657 642.941Q179.991 646.351 181.395 649.734Q182.799 653.117 184.272 656.47Q185.745 659.824 187.286 663.146Q188.827 666.469 190.436 669.759Q192.045 673.049 193.721 676.305Q195.397 679.562 197.14 682.783Q198.882 686.005 200.69 689.19Q202.498 692.375 204.371 695.523Q206.244 698.67 208.18 701.779Q210.117 704.887 212.118 707.955Q214.118 711.023 216.18 714.05Q218.243 717.076 220.367 720.06Q222.43 722.976 224.553 725.849Q226.677 728.721 228.86 731.549Q231.042 734.377 233.284 737.158Q235.525 739.94 237.824 742.674Q240.122 745.408 242.478 748.094Q244.833 750.78 247.244 753.416Q249.655 756.052 252.12 758.637Q254.585 761.222 257.103 763.756Q259.622 766.289 262.193 768.769Q264.764 771.249 267.385 773.675Q270.007 776.101 272.679 778.472Q275.351 780.843 278.072 783.158Q280.793 785.473 283.561 787.73Q286.33 789.987 289.145 792.187Q291.96 794.386 294.82 796.526Q297.68 798.666 300.584 800.746Q303.488 802.826 306.435 804.845Q309.382 806.864 312.37 808.821Q315.358 810.779 318.387 812.673Q321.415 814.567 324.483 816.398Q327.55 818.229 330.655 819.996Q333.759 821.762 336.9 823.464Q340.041 825.165 343.217 826.801Q346.393 828.436 349.602 830.005Q352.811 831.574 356.052 833.076Q359.293 834.578 362.565 836.012Q365.837 837.446 369.138 838.811Q372.439 840.177 375.767 841.473Q379.096 842.769 382.451 843.996Q385.806 845.222 389.186 846.379Q392.566 847.535 395.969 848.621Q399.372 849.706 402.797 850.721C420.229 855.836 437.893 859.134 455.806 862.042C456.295 874.225 455.811 886.512 456.131 898.722C453.127 898.494 450.107 898.004 447.119 897.61C439.531 896.914 431.822 895.258 424.351 893.799C357.474 880.735 290.444 843.897 241.084 797.156Q237.644 793.886 234.284 790.534Q230.924 787.182 227.646 783.749Q224.369 780.317 221.175 776.806Q217.982 773.295 214.874 769.707Q211.767 766.12 208.747 762.458Q205.728 758.796 202.798 755.062Q199.868 751.328 197.03 747.524Q194.192 743.72 191.447 739.848Q188.701 735.977 186.051 732.04Q183.4 728.103 180.846 724.102Q178.292 720.102 175.835 716.041Q173.379 711.98 171.021 707.861Q168.664 703.741 166.407 699.566Q164.15 695.391 161.996 691.162Q159.841 686.933 157.789 682.653Q155.738 678.374 153.79 674.045Q151.843 669.717 150.001 665.343Q148.16 660.968 146.425 656.551Q144.69 652.133 143.062 647.675Q141.435 643.216 139.916 638.72Q138.397 634.223 136.988 629.691Q135.579 625.159 134.28 620.594Q132.981 616.029 131.793 611.434Q130.605 606.839 129.529 602.216Q128.453 597.594 127.489 592.946Q126.525 588.299 125.674 583.63Q124.824 578.96 124.087 574.272Q123.349 569.583 122.726 564.878Q122.103 560.173 121.594 555.454Q121.085 550.736 120.69 546.006Q120.296 541.276 120.016 536.538Q119.737 531.8 119.572 527.057C116.573 420.729 152.983 319.234 226.241 241.692Q229.43 238.314 232.7 235.016Q235.97 231.717 239.319 228.498Q242.668 225.28 246.095 222.144Q249.521 219.008 253.023 215.956Q256.525 212.905 260.1 209.939Q263.675 206.973 267.321 204.096Q270.967 201.218 274.682 198.43Q278.397 195.641 282.179 192.944Q285.961 190.247 289.807 187.643Q293.653 185.039 297.562 182.529Q301.47 180.019 305.438 177.605Q309.407 175.191 313.433 172.874Q317.459 170.557 321.54 168.339Q325.621 166.121 329.755 164.002Q333.888 161.884 338.073 159.867Q342.257 157.85 346.489 155.935Q350.721 154.02 354.998 152.209Q359.275 150.398 363.595 148.691Q367.915 146.985 372.276 145.384Q376.636 143.783 381.034 142.288Q385.432 140.794 389.865 139.406Q394.298 138.019 398.763 136.741Q403.229 135.462 407.724 134.292Q412.219 133.122 416.741 132.062Q421.264 131.002 425.811 130.052Q430.357 129.102 434.926 128.263Q439.495 127.424 444.082 126.697Q448.67 125.969 453.274 125.353Q457.878 124.738 462.495 124.234Q467.113 123.73 471.741 123.339Q476.37 122.948 481.006 122.67Q485.643 122.392 490.285 122.226Z"/>
	<path d="M594.057 313.869C601.533 313.588 609.153 313.947 616.645 313.979L663.998 314.208C685.128 314.307 706.632 313.307 727.711 314.708C728.276 322.23 727.93 329.976 727.933 337.526C740.491 338.152 751.373 340.622 761.016 349.184Q762.047 350.096 763.021 351.068Q763.995 352.039 764.909 353.068Q765.824 354.096 766.675 355.177Q767.527 356.258 768.312 357.388Q769.098 358.517 769.814 359.692Q770.531 360.867 771.176 362.082Q771.821 363.298 772.393 364.55Q772.964 365.801 773.46 367.085C777.055 376.249 778.817 386.472 781.276 396.013C786.398 415.889 791.536 435.717 796.145 455.722Q809.816 514.144 821.491 572.998C826.811 599.771 832.146 626.517 836.141 653.53Q841.628 692.201 845.203 731.095Q848.166 759.722 850.118 788.435Q853.391 840.583 853.493 892.834C853.543 903.818 854.679 918.395 852.969 929.12C852.084 934.673 850.072 940.209 846.206 944.398C842.959 947.916 838.823 950.438 834.442 952.295C810.054 962.636 758.72 966.39 731.623 967.86Q672.97 971.051 614.249 969.54C581.046 968.744 547.196 967.117 514.459 961.232C505.007 959.533 490.21 956.921 482.51 951.114C477.772 947.541 476.847 941.183 476.07 935.685C474.017 921.154 474.035 906.148 473.99 891.501Q473.845 861.943 475.1 832.412Q476.101 806.771 477.811 781.168Q479.52 755.564 481.938 730.018Q484.356 704.471 487.479 679.002Q490.603 653.532 494.43 628.158Q498.257 602.785 502.784 577.527Q507.312 552.269 512.536 527.146Q517.761 502.023 523.679 477.054Q529.597 452.086 536.203 427.29Q541.542 405.962 547.551 384.813C549.429 378.118 551.002 370.966 553.542 364.503Q554.536 361.896 555.894 359.459Q557.252 357.022 558.945 354.804C567.774 343.207 579.232 337.538 593.46 335.624Q593.866 324.749 594.057 313.869Z"/>
	<path fill="#FEFEFE" d="M836.23 921.635L837.368 921.65L837.259 921.896C822.463 928.754 802.053 930.987 785.944 933.14C739.49 939.351 692.53 940.659 645.717 940.262C598.908 939.865 547.41 938.01 501.836 926.798C499.344 926.164 496.961 925.474 494.547 924.578C501.368 925.11 508.291 926.429 515.106 927.233Q534.015 929.379 553.003 930.636Q602.505 933.326 652.08 933.371Q701.654 933.416 751.161 930.816Q773.056 929.685 794.883 927.619C808.788 926.352 822.672 925.133 836.23 921.635Z"/>
	<path fill="#FEFEFE" d="M594.395 353.208C602.951 352.76 611.636 353.035 620.206 353.082L662.434 353.343Q688.685 353.323 714.923 354.178C727 354.485 739.373 354.425 751.338 356.253C739.564 358.704 723.156 358.011 710.89 358.133L628.172 359.564C617.764 359.778 602.46 358.952 592.632 360.42C590.465 360.744 588.745 361.301 586.934 362.546C584.88 363.958 583.064 365.81 581.99 368.081C579.686 372.958 578.588 378.486 577.112 383.659C574.009 394.535 571.067 405.391 568.209 416.333Q557.4 457.277 547.972 498.562C541.688 527.008 536.389 555.622 530.812 584.208Q532.523 581.476 534.358 578.825C538.238 573.335 543.526 568.449 548.356 563.781C572.407 540.538 601.633 524.051 634.81 518.336C683.356 509.974 723.695 525.467 762.917 553.25C797.716 577.9 817.517 617.126 824.509 658.384Q825.208 663.681 825.686 669.003C829.407 710.003 814.879 753.765 788.528 785.298C759.725 819.765 718.969 842.23 673.975 846.134Q672.021 846.291 670.064 846.4Q668.106 846.51 666.147 846.571Q664.187 846.632 662.227 846.646Q660.267 846.659 658.307 846.624Q656.346 846.59 654.388 846.507Q652.429 846.425 650.473 846.294Q648.517 846.164 646.565 845.985Q644.613 845.807 642.665 845.581Q640.718 845.355 638.777 845.081Q636.836 844.807 634.902 844.486Q632.968 844.165 631.042 843.797Q629.117 843.428 627.201 843.013Q625.285 842.598 623.38 842.136Q621.475 841.673 619.582 841.165Q617.688 840.656 615.808 840.101Q613.928 839.547 612.062 838.946Q610.196 838.345 608.345 837.699Q606.494 837.053 604.659 836.362Q602.825 835.67 601.008 834.934Q599.191 834.198 597.393 833.418Q595.594 832.638 593.815 831.814Q592.037 830.99 590.279 830.123Q588.52 829.255 586.784 828.345Q585.048 827.435 583.334 826.483Q581.621 825.531 579.931 824.537Q578.241 823.543 576.576 822.508Q574.911 821.473 573.272 820.397Q571.633 819.322 570.021 818.206Q568.409 817.091 566.824 815.937Q565.24 814.782 563.684 813.589Q562.129 812.397 560.603 811.166Q559.076 809.936 557.581 808.668Q555.976 807.336 554.405 805.964Q552.834 804.591 551.298 803.181Q549.762 801.77 548.261 800.321Q546.761 798.873 545.297 797.387Q543.833 795.901 542.406 794.38Q540.979 792.858 539.591 791.302Q538.203 789.745 536.854 788.154Q535.505 786.563 534.196 784.939Q532.887 783.316 531.619 781.659Q530.351 780.003 529.125 778.316Q527.898 776.629 526.715 774.912Q525.531 773.195 524.39 771.449Q523.249 769.703 522.152 767.929Q521.055 766.155 520.003 764.354Q518.95 762.553 517.943 760.727Q516.936 758.9 515.975 757.049Q515.014 755.198 514.099 753.324Q513.184 751.449 512.316 749.553Q511.448 747.656 510.628 745.739Q509.807 743.821 509.035 741.883Q508.263 739.946 507.539 737.99Q506.815 736.034 506.14 734.06Q505.465 732.086 504.84 730.097Q504.214 728.107 503.639 726.102Q503.063 724.097 502.538 722.079Q502.012 720.06 501.537 718.03Q501.062 715.999 500.638 713.956Q500.214 711.914 499.84 709.862Q499.467 707.81 499.145 705.75Q498.823 703.689 498.552 701.621Q498.282 699.552 498.063 697.478Q497.844 695.404 497.677 693.325C495.472 666.79 501.762 639.564 512.179 615.23C515.01 608.616 519.917 602.385 521.51 595.333C524.925 580.223 526.498 564.515 529.483 549.272C532.194 535.43 534.802 521.533 537.811 507.754C542.569 485.967 568.396 371.551 577.56 361.115C582.119 355.924 587.65 353.676 594.395 353.208Z"/>
	<path d="M651.329 532.208C684.204 529.951 708.459 537.106 736.064 554.555C743.672 559.364 751.189 564.34 758.175 570.029C789.074 595.192 805.157 629.744 809.088 668.912C782.423 670.748 755.418 667.887 728.798 669.977C732.657 678.819 736.352 687.572 739.787 696.598C762.768 697.921 785.988 696.172 809.018 696.896C804.433 724.009 798.614 743.573 782.496 766.149Q780.706 768.66 778.817 771.097Q776.927 773.533 774.94 775.891Q772.953 778.249 770.871 780.524Q768.79 782.8 766.618 784.989Q764.446 787.177 762.188 789.277Q759.929 791.376 757.587 793.381Q755.245 795.387 752.823 797.296Q750.401 799.205 747.904 801.014Q745.407 802.823 742.839 804.53Q740.271 806.236 737.635 807.837Q735 809.438 732.301 810.93Q729.603 812.423 726.846 813.805Q724.09 815.186 721.279 816.455Q718.469 817.724 715.609 818.878Q712.75 820.031 709.846 821.068Q706.942 822.105 703.998 823.023C694.307 825.969 684.34 827.582 674.374 829.273C673.872 818.85 674.027 808.34 673.924 797.903L673.796 797.096C672.563 796.453 651.984 796.661 648.346 796.417C646.634 807.214 647.816 818.644 647.259 829.575Q644.724 829.321 642.2 828.978Q639.676 828.634 637.166 828.201Q634.655 827.768 632.162 827.246Q629.669 826.724 627.195 826.113Q624.722 825.503 622.272 824.805Q619.822 824.107 617.399 823.322Q614.975 822.537 612.581 821.667Q610.187 820.796 607.826 819.841Q605.464 818.886 603.138 817.848Q600.812 816.809 598.524 815.689Q596.236 814.568 593.99 813.367Q591.743 812.166 589.541 810.886Q587.339 809.605 585.183 808.248Q583.028 806.89 580.922 805.456Q578.816 804.023 576.763 802.515Q574.709 801.008 572.711 799.428Q571.229 798.265 569.776 797.066Q568.322 795.867 566.899 794.632Q565.476 793.397 564.084 792.128Q562.692 790.858 561.332 789.555Q559.972 788.251 558.644 786.915Q557.317 785.578 556.022 784.209Q554.728 782.84 553.468 781.439Q552.208 780.038 550.983 778.607Q549.759 777.175 548.569 775.714Q547.38 774.253 546.227 772.763Q545.075 771.272 543.959 769.754Q542.844 768.236 541.766 766.69Q540.689 765.145 539.649 763.574Q538.61 762.002 537.61 760.405Q536.611 758.809 535.65 757.188Q534.69 755.567 533.77 753.922Q532.851 752.278 531.972 750.612Q531.093 748.945 530.256 747.258Q529.418 745.57 528.623 743.862Q527.827 742.154 527.074 740.427Q526.321 738.7 525.611 736.955Q524.901 735.21 524.235 733.448Q523.568 731.686 522.945 729.908Q522.322 728.13 521.743 726.337Q521.165 724.544 520.63 722.737Q520.096 720.931 519.607 719.111Q519.117 717.292 518.673 715.461Q518.228 713.63 517.829 711.789Q517.43 709.948 517.077 708.097Q516.724 706.247 516.416 704.388Q516.109 702.529 515.848 700.663Q515.586 698.798 515.371 696.926C537.275 696.356 559.217 696.82 581.125 696.682C584.536 687.618 588.13 679.025 592.916 670.58Q554.146 669.814 515.369 669.883Q515.636 667.026 516.011 664.182Q516.386 661.338 516.868 658.509Q517.349 655.681 517.937 652.873Q518.525 650.064 519.218 647.28Q519.911 644.496 520.709 641.74Q521.506 638.984 522.407 636.26Q523.308 633.536 524.31 630.848Q525.313 628.16 526.416 625.511Q527.519 622.863 528.721 620.258Q529.923 617.652 531.222 615.094Q532.521 612.536 533.916 610.029Q535.311 607.522 536.799 605.069Q538.287 602.616 539.866 600.22Q541.446 597.825 543.114 595.491Q544.782 593.157 546.538 590.888Q548.293 588.618 550.132 586.416C575.747 555.802 611.341 535.807 651.329 532.208Z"/>
	<path fill="#FEFEFE" d="M658.693 609.048C659.633 609.014 660.586 608.977 661.526 609.045C664.193 609.24 665.646 610.255 667.407 612.155C667.74 613.561 667.842 613.55 667.163 614.805C665.879 615.66 665.08 615.879 663.601 616.137C660.505 616.279 656.944 616.738 654.319 614.65C653.328 613.861 653.169 613.682 653.106 612.456C654.192 610.406 656.65 609.747 658.693 609.048Z"/>
	<path fill="#FEFEFE" d="M608.335 664.553C609.076 664.48 610.006 664.309 610.74 664.407C612.055 664.582 612.221 664.876 612.949 665.865C610.55 671.163 604.064 678.718 600.662 684.116C598.428 687.661 597.164 691.852 594.899 695.371C594.132 696.564 593.963 696.458 592.624 696.731L586.14 696.513C587.303 693.098 588.763 689.761 590.189 686.448C594.31 676.877 598.11 668.626 608.335 664.553Z"/>
	<path fill="#FEFEFE" d="M726.268 571.194C730.204 570.85 734.193 570.837 738.064 571.684C735.252 572.147 732.083 571.74 729.182 571.998Q727.42 572.157 725.67 572.415Q723.92 572.674 722.188 573.03Q720.455 573.387 718.745 573.841Q717.036 574.295 715.355 574.845Q713.673 575.395 712.026 576.039Q710.378 576.683 708.77 577.419Q707.161 578.155 705.597 578.981Q704.032 579.806 702.517 580.719C687.883 589.631 681.249 602.826 677.29 618.953C682.992 622.229 684.847 627.719 686.508 633.695C686.53 634.688 686.588 635.75 686.441 636.733C686.267 637.897 685.975 639.162 685.041 639.881C683.748 637.844 683.696 634.83 683.161 632.487C681.514 625.276 677.106 620.809 671.128 616.974C673.364 608.471 677.473 600.781 683.054 593.996Q684.057 592.792 685.117 591.638Q686.177 590.484 687.292 589.384Q688.407 588.283 689.575 587.239Q690.743 586.194 691.96 585.208Q693.177 584.221 694.441 583.295Q695.705 582.37 697.013 581.507Q698.321 580.644 699.669 579.846Q701.018 579.048 702.403 578.316Q703.789 577.585 705.209 576.923Q706.629 576.26 708.079 575.667Q709.53 575.075 711.007 574.554Q712.485 574.033 713.987 573.585Q715.488 573.137 717.009 572.763Q718.531 572.389 720.069 572.089Q721.607 571.79 723.157 571.566Q724.708 571.342 726.268 571.194Z"/>
	<path fill="#FEFEFE" d="M710.25 659.612C713.788 660.345 716.436 662.443 718.929 664.974C724.37 670.5 734.622 688.345 734.514 695.928C733.24 696.887 731.109 696.855 729.535 697.066C727.898 696.038 723.69 686.409 722.311 684.137Q718.149 677.167 712.964 670.92C710.439 667.827 707.232 664.667 705.232 661.237C706.578 660.281 708.643 660.007 710.25 659.612Z"/>
	<path fill="#FEFEFE" d="M591.212 572.698Q592.353 572.612 593.496 572.572Q594.639 572.531 595.783 572.536Q596.926 572.541 598.069 572.592Q599.212 572.642 600.352 572.737Q601.492 572.833 602.627 572.973Q603.762 573.114 604.891 573.299Q606.019 573.485 607.14 573.715Q608.26 573.945 609.371 574.219Q610.481 574.493 611.58 574.811Q612.679 575.129 613.764 575.491Q614.849 575.852 615.919 576.256Q616.989 576.66 618.043 577.106Q619.096 577.552 620.131 578.04Q621.165 578.527 622.18 579.055Q623.195 579.583 624.188 580.151Q625.18 580.719 626.15 581.326C639.161 589.546 647.519 602.176 650.93 617.02C643.926 620.322 637.471 627.055 636.684 635.056C636.452 637.42 636.881 640.115 635.942 642.322L635.198 641.941C633.319 638.108 634.536 633.344 635.733 629.453C637.931 625.256 640.51 622.427 644.039 619.305C641.138 606.82 638.703 596.749 628.817 587.868C616.592 576.886 601.464 573.2 585.372 574.617C580.694 575.029 576.083 576.313 571.402 576.542L571.982 576.296L571.862 576.335C578.101 574.272 584.685 573.246 591.212 572.698Z"/>
	<path fill="#FEFEFE" d="M733.241 716.722C735.605 717.505 737.879 718.595 740.16 719.589C749.237 740.769 753.312 751.848 772.709 766.097C765.599 765.157 757.262 761.661 751.571 757.264C738.988 747.544 735.115 731.788 733.241 716.722Z"/>
	<path fill="#FEFEFE" d="M590.456 716.046L590.902 716.745C590.843 725.29 588.713 735.474 584.272 742.883C577.303 754.507 567.186 760.055 554.39 763.257L554.211 763.143L554.317 762.526C567.748 752.004 580.104 736.536 582.638 719.232C585.388 718.376 587.868 717.302 590.456 716.046Z"/>
	<path fill="#FEFEFE" d="M746.285 606.071L747.606 606.26C745.614 607.581 743.45 608.525 741.5 609.925C731.684 616.973 728.645 626.553 722.766 636.55C717.29 645.864 710.68 650.444 700.162 653.137C698.985 651.386 698.053 649.478 697.069 647.613C709.044 642.731 714.334 633.119 720.809 622.708C726.964 612.81 735.168 608.591 746.285 606.071Z"/>
	<path fill="#FEFEFE" d="M568.875 605.042C575.533 604.82 581.831 606.293 587.647 609.575C598.948 615.951 603.898 626.742 611.878 636.257C613.841 638.598 616.048 640.936 618.542 642.723C620.474 644.107 623.993 645.348 625.401 647.197C625.616 647.479 625.594 647.88 625.691 648.221L624.488 649.653C623.129 650.655 621.673 651.559 620.27 652.502C605.771 648.454 601.245 636.469 594.342 624.54C588.46 614.373 580.217 607.996 568.875 605.042Z"/>
	<path fill="#FEFEFE" d="M682.939 645.125C683.719 645.201 684.505 645.283 685.273 645.449C688.233 646.088 690.866 648.975 692.253 651.527C693.018 652.935 693.159 654.348 692.617 655.876C691.611 658.716 687.657 660.474 685.081 661.565C666.981 669.234 650.461 669.017 632.366 661.586C630.584 660.667 628.939 659.515 627.268 658.41C629.629 654.286 632.493 650.639 636.175 647.627C639.162 651.73 642.671 654.714 647.275 656.829C654.437 660.119 662.928 660.622 670.305 657.697C676.332 655.308 680.396 651.019 682.939 645.125Z"/>
	<path fill="#FEFEFE" d="M657.888 621.13C662.097 620.669 665.774 620.944 669.555 623.03Q669.94 623.244 670.314 623.477Q670.688 623.71 671.049 623.963Q671.41 624.215 671.757 624.486Q672.105 624.757 672.438 625.045Q672.771 625.334 673.088 625.639Q673.406 625.944 673.707 626.265Q674.009 626.587 674.293 626.923Q674.577 627.26 674.844 627.61Q675.11 627.961 675.358 628.325Q675.606 628.689 675.835 629.066Q676.064 629.442 676.273 629.83Q676.482 630.218 676.671 630.616Q676.859 631.014 677.027 631.421Q677.195 631.829 677.341 632.244Q677.488 632.66 677.613 633.082Q677.737 633.505 677.84 633.933Q678.03 634.706 678.14 635.495Q678.249 636.283 678.277 637.079Q678.305 637.875 678.25 638.669Q678.195 639.464 678.059 640.248Q677.922 641.033 677.706 641.799Q677.489 642.565 677.194 643.305Q676.9 644.045 676.53 644.75Q676.161 645.455 675.721 646.119C672.477 651.002 667.755 652.792 662.303 654.007C657.659 654.534 652.253 653.858 648.208 651.425C644.851 649.405 642.517 646.21 641.741 642.357C640.822 637.794 642.096 632.752 644.712 628.952C647.964 624.226 652.435 622.147 657.888 621.13Z"/>
	<path fill="#FEFEFE" d="M624.354 663.558C636.195 669.582 644.923 671.329 657.921 673.816C659.419 685.466 658.446 701.548 658.453 713.547L658.463 792.583C651.971 792.575 646.218 791.147 640.198 788.775C621.527 781.416 611.16 768.337 603.284 750.429C616.658 757.38 630.763 761.413 645.34 765.011L645.815 758.635C638.274 756.864 630.806 754.981 623.478 752.447C615.98 749.853 608.712 746.675 601.163 744.21C599.677 739.064 599.026 733.645 598.318 728.346Q603.864 730.608 609.463 732.735C622.1 737.527 634.846 741.445 647.896 744.917L648.41 737.697C641.651 735.424 634.391 734.015 627.49 732.15C617.866 729.549 608.239 726.281 598.979 722.603C599.983 716.404 601.342 710.389 603.005 704.34C616.749 711.971 633.424 718.324 649.094 719.743L649.186 712.695C633.627 708.22 620.108 705.334 605.53 697.64Q608.135 691.483 610.469 685.218C623.298 690.25 636.064 694.075 649.485 697.17L649.5 689.025C637.502 686.33 625.692 683.545 614.186 679.133C616.594 673.466 620.458 668.279 624.354 663.558Z"/>
	<path fill="#FEFEFE" d="M694.261 662.948C698.536 664.438 703.839 671.924 706.884 675.363C697.804 682.33 684.913 686.578 674.511 691.36C674.438 693.563 674.502 695.779 674.517 697.984C686.76 694.418 700.742 688.723 710.848 680.963C714.232 685.879 716.442 691.02 718.647 696.55C712.625 699.69 706.73 702.838 700.397 705.332C692.09 708.604 683.472 710.996 675.119 714.143C674.883 716.545 674.91 718.969 674.874 721.381C692.725 716.1 705.216 712.697 721.08 702.122C723.439 707.724 724.695 714.284 726.264 720.173C710.794 728.271 692.55 732.598 675.746 736.849L675.445 744.234C687.975 740.975 700.042 737.417 712.123 732.725Q719.373 729.75 726.699 726.968C726.538 732.198 725.623 737.072 724.326 742.132C708.508 749.485 691.856 755.883 674.586 758.839L674.61 765.731C691.749 762.322 706.995 756.714 722.879 749.46C719.749 756.733 716.104 763.379 711.049 769.52C698.926 784.244 682.617 790.85 663.967 792.574C662.847 777.252 663.618 761.417 663.769 746.051Q664.238 709.732 664.021 673.411C674.955 671.083 684.57 668.771 694.261 662.948Z"/>
</svg>
