<?xml version="1.0" encoding="utf-8" ?>
<svg xmlns="http://www.w3.org/2000/svg" xmlns:xlink="http://www.w3.org/1999/xlink" width="1024" height="1024">
	<path fill="#FEFEFE" d="M0 0L1024 0L1024 1024L0 1024L0 0Z"/>
	<path fill="#0E0E0E" d="M810.807 848.78C819.867 852.858 825.21 863.01 832.713 868.946L834.686 868.588C834.129 869.379 833.786 869.958 833.537 870.896C836.823 872.851 841.997 873.155 845.691 874.813C845.911 874.912 846.127 875.021 846.348 875.118C846.491 875.181 846.637 875.235 846.781 875.294L845.391 874.932L845.322 875.103L833.531 872.609C835.618 873.624 837.768 874.533 839.884 875.486L841.382 876.256C838.553 876.19 836.132 874.238 833.202 874.048C831.924 875.062 832.745 876.991 831.757 878.518L830.424 878.051L830.293 878.637L831.563 880.398C832.317 880.278 833.049 880.198 833.81 880.151L832.279 881.582L831.478 881.531C827.401 877.217 812.798 854.196 810.807 848.78Z"/>
	<path fill="#0E0E0E" d="M864.413 782.358L870.975 786.208Q854.426 801.219 839.389 817.744L836.884 820.35L835.387 812.236C843.809 801.584 854.776 791.979 864.413 782.358Z"/>
	<path fill="#0E0E0E" d="M298.064 629.72C311.911 629.838 325.773 629.967 339.621 629.882C347.736 629.832 356.227 629 364.277 629.93C366.65 630.204 367.919 630.369 369.438 632.266C369.573 633.257 369.662 633.954 369.265 634.916C368.493 636.791 366.997 637.511 365.265 638.275C349.771 637.594 334.147 638.272 318.631 638.258C313.122 638.253 307.449 638.491 301.96 638.039C298.922 637.789 295.747 637.242 293.677 634.835C293.497 634.112 293.172 633.583 293.51 632.865C294.354 631.071 296.272 630.229 298.064 629.72Z"/>
	<path fill="#0E0E0E" d="M296.766 601.566Q321.177 601.874 345.589 601.911C355.452 601.843 365.383 601.136 375.236 601.648C377.975 601.79 381.866 601.841 384.162 603.401C384.589 604.092 385.042 604.522 385.034 605.37C385.017 607.341 383.786 608.713 382.47 610.034C370.506 610.763 358.459 610.096 346.479 610.128C331.84 610.167 316.976 610.834 302.36 610.112C300.297 610.01 296.743 610.026 295.035 608.858C294.279 608.342 293.74 607.259 293.78 606.357C293.876 604.143 295.231 602.945 296.766 601.566Z"/>
	<path fill="#0E0E0E" d="M359.232 351.229C363.819 351.031 382.998 350.479 386.122 352.3C387.263 352.965 387.999 353.93 388.21 355.262C388.432 356.663 387.996 357.557 387.241 358.676C386.1 359.559 385.206 359.772 383.804 359.89C377.858 360.386 371.587 359.696 365.603 359.685L324.804 359.97C317.123 360.019 305.759 361.097 298.514 359.539C296.537 359.113 295.148 358.464 294.003 356.75C293.908 355.478 293.786 354.757 294.618 353.654C295.704 352.214 298.226 351.679 299.915 351.474C306.342 350.692 313.436 351.316 319.933 351.365Q339.584 351.691 359.232 351.229Z"/>
	<path fill="#0E0E0E" d="M295.87 772.488C307.591 772.432 384.099 771.087 388.785 773.662C389.495 774.052 390.044 774.61 390.228 775.398C390.696 777.398 389.546 778.902 388.472 780.457C382.471 781.19 376.195 780.954 370.153 780.985L340.14 781.046C329.953 781.026 304.184 781.933 295.397 779.98C294.805 779.354 294.313 779.066 294.147 778.18C293.744 776.021 294.811 774.28 295.87 772.488Z"/>
	<path fill="#0E0E0E" d="M366.257 491.221C371.625 491.118 381.301 489.853 385.925 492.443C386.767 492.915 387.545 493.742 387.715 494.71Q387.757 494.948 387.772 495.189Q387.786 495.43 387.774 495.672Q387.762 495.913 387.723 496.152Q387.685 496.39 387.619 496.623Q387.554 496.856 387.464 497.08Q387.373 497.304 387.258 497.516Q387.143 497.729 387.004 497.927Q386.866 498.125 386.707 498.307C385.68 499.484 384.224 499.787 382.752 499.972C376.844 500.711 370.178 500.154 364.186 500.169C348.285 500.209 332.357 499.735 316.465 500.402C311.133 500.456 299.062 501.33 294.854 498.637C293.713 497.906 293.537 497.338 293.265 496.068C293.612 494.994 293.91 494.215 294.682 493.369C295.583 492.38 296.371 491.86 297.722 491.628C303.835 490.582 311.211 491.439 317.477 491.455C333.675 491.494 350.083 492.009 366.257 491.221Z"/>
	<path fill="#0E0E0E" d="M296.374 573.583Q327.922 573.134 359.471 573.523C367.392 573.561 375.901 572.482 383.731 573.452C386.048 573.739 387.917 574.398 389.345 576.291C389.736 577.652 389.69 578.32 389.347 579.689C388.397 580.991 387.841 581.27 386.403 581.845C369.205 582.211 351.967 581.953 334.763 581.984C324.719 582.002 314.592 582.578 304.562 582.133C302.066 582.023 297.041 582.078 294.952 580.665C294.225 580.173 293.494 578.989 293.522 578.102C293.585 576.086 294.971 574.821 296.374 573.583Z"/>
	<path fill="#0E0E0E" d="M772.186 838.548Q783.062 838.73 793.932 838.34C798.702 844.918 802.923 855.233 804.079 863.243C804.22 864.215 804.342 865.691 803.635 866.454C802 868.221 798.343 868.164 796.075 868.4C796.035 860.902 795.712 853.831 793.737 846.563C790.287 846.463 786.815 846.123 783.37 845.885C780.249 850.847 777.89 856.271 775.504 861.612C774.011 865.127 772.527 870.097 768.962 872.074C767.749 872.747 766.393 872.842 765.088 872.379C758.936 870.192 754.458 856.87 751.991 851.301L731.554 853.77C744.103 847.013 758.694 843.033 772.186 838.548Z"/>
	<path fill="#FEFEFE" d="M772.868 846.638C773.477 847.013 773.15 846.722 773.571 847.747C772.505 852.599 769.29 858.446 766.26 862.328C765.249 861.796 764.309 859.726 763.679 858.699C762.006 856.005 760.505 853.272 759.05 850.455C763.635 849.008 768.174 847.703 772.868 846.638Z"/>
	<path fill="#0E0E0E" d="M324.075 462.746C347.258 462.598 370.455 463.095 393.641 463.119C406.24 463.131 418.942 462.549 431.515 462.708C432.802 462.724 434.017 462.951 435.197 463.472C436.735 464.152 438.321 465.549 438.674 467.269C438.931 468.525 438.5 468.972 437.825 469.917C433.797 472.167 413.922 470.985 408.25 470.983C397.443 470.983 299.292 471.882 295.749 470.425C294.231 469.802 293.357 468.941 292.772 467.438C293.044 466.535 293.252 466.071 293.944 465.389C295.237 464.115 297.728 463.217 299.488 462.947C301.787 462.593 304.334 462.937 306.67 462.926L324.075 462.746Z"/>
	<path fill="#0E0E0E" d="M297.042 294.138C330.407 293.451 363.918 294.116 397.297 294.118L437.442 294.074C446.304 294.019 455.247 293.667 464.098 294.103C466.508 294.221 470.32 294.232 472.263 295.891C473.409 296.87 473.304 297.228 473.332 298.625C472.602 300.191 471.673 300.98 470.364 302.08Q394.501 301.625 318.638 302.161C313.496 302.241 298.534 303.742 295.042 299.921C294.143 298.937 294.105 298.355 294.133 297.072C294.915 295.612 295.714 295.028 297.042 294.138Z"/>
	<path fill="#0E0E0E" d="M296.975 434.577L414.15 434.917Q427.738 435.091 441.325 434.87C448.89 434.731 456.651 434.248 464.207 434.661C466.39 434.78 470.219 435.121 471.91 436.66C472.956 437.612 472.932 437.995 473.042 439.316C472.468 441.028 471.475 441.87 470.175 443.081C455.483 442.715 440.766 442.924 426.069 442.872L345.441 442.548Q331.422 442.472 317.404 442.57C312.529 442.609 307.487 442.972 302.632 442.675C300.397 442.539 296.195 442.218 294.515 440.543C293.643 439.673 293.458 438.765 293.743 437.586C294.096 436.127 295.797 435.3 296.975 434.577Z"/>
	<path fill="#0E0E0E" d="M295.416 323.559C307.734 323.119 320.126 323.395 332.452 323.414L394.803 323.483L441.001 323.441C449.615 323.391 458.433 322.913 467.026 323.325C468.506 323.396 470.478 323.724 471.67 324.687C472.322 325.214 472.806 325.898 472.924 326.725C473.216 328.769 472.199 330.02 470.969 331.474C438.066 332.222 405.227 331.586 372.324 331.506C348.994 331.45 325.497 332.188 302.198 331.459C300.396 331.402 296.841 331.514 295.333 330.533C294.186 329.787 294.041 329.201 293.64 327.983C293.863 326.159 294.45 325.106 295.416 323.559Z"/>
	<path fill="#0E0E0E" d="M296.144 714.58L419.046 714.571L455.882 714.469C461.204 714.431 466.901 713.813 472.184 714.218C474.3 714.38 477.221 715.002 478.87 716.436C479.889 717.324 479.997 718.134 480.19 719.405C479.44 720.9 478.066 721.879 476.523 722.493Q415.244 723.127 353.963 722.621C337.844 722.56 321.464 723.313 305.38 722.726C302.163 722.609 297.65 722.691 294.788 721.14C294.274 720.46 293.836 720.15 293.787 719.257C293.676 717.217 294.775 715.935 296.144 714.58Z"/>
	<path fill="#0E0E0E" d="M467.388 742.728C470.478 742.777 475.38 742.512 478.21 743.772C479.175 744.202 479.923 745.256 480.096 746.273C480.325 747.612 480.071 748.736 479.168 749.782C478.038 751.09 476.761 751.21 475.147 751.353C469.367 751.864 463.249 751.479 457.438 751.466L424.864 751.439C385.511 751.45 346.096 750.975 306.75 751.597C303.581 751.774 297.188 752.263 294.748 749.988C294.12 749.402 293.857 748.819 293.834 747.982C293.795 746.6 294.208 745.535 295.239 744.585C296.65 743.284 298.647 743.133 300.47 742.992C305.089 742.635 310.008 743.046 314.657 743.065L344.706 743.109L419.742 743.114C435.606 743.098 451.535 743.31 467.388 742.728Z"/>
	<path fill="#0E0E0E" d="M205.387 271.68C219.917 269.902 234.811 274.512 246.433 283.232Q247.556 284.075 248.636 284.972Q249.717 285.87 250.751 286.819Q251.786 287.769 252.772 288.768Q253.758 289.768 254.694 290.815Q255.63 291.862 256.512 292.955Q257.395 294.047 258.223 295.181Q259.05 296.316 259.821 297.49Q260.591 298.664 261.303 299.875Q262.014 301.085 262.665 302.33Q263.316 303.574 263.905 304.849Q264.493 306.124 265.018 307.427Q265.542 308.729 266.002 310.056Q266.462 311.383 266.855 312.731Q267.249 314.079 267.575 315.445Q267.901 316.811 268.16 318.191Q268.418 319.572 268.608 320.963Q268.791 322.409 268.903 323.862Q269.016 325.315 269.057 326.772Q269.098 328.229 269.068 329.686Q269.039 331.143 268.938 332.597Q268.837 334.051 268.665 335.499Q268.494 336.946 268.252 338.383Q268.01 339.82 267.698 341.244Q267.387 342.668 267.006 344.075Q266.625 345.482 266.177 346.868Q265.728 348.255 265.212 349.618Q264.696 350.981 264.114 352.318Q263.533 353.654 262.886 354.96Q262.24 356.267 261.531 357.54Q260.822 358.814 260.052 360.051Q259.282 361.288 258.452 362.486Q257.622 363.685 256.735 364.841C246.621 377.997 231.776 384.707 215.619 386.775C215.331 386.834 215.047 386.912 214.756 386.951C201.377 388.778 185.976 382.537 175.417 374.703Q174.289 373.874 173.204 372.99Q172.118 372.105 171.079 371.167Q170.04 370.229 169.049 369.24Q168.059 368.251 167.119 367.213Q166.179 366.175 165.293 365.092Q164.407 364.008 163.577 362.881Q162.746 361.754 161.974 360.586Q161.201 359.419 160.488 358.214Q159.775 357.009 159.124 355.77Q158.473 354.531 157.885 353.26Q157.297 351.99 156.773 350.691Q156.25 349.393 155.793 348.07Q155.336 346.747 154.946 345.402Q154.556 344.058 154.234 342.695Q153.912 341.333 153.659 339.956Q153.406 338.579 153.223 337.191Q153.027 335.801 152.9 334.402Q152.773 333.004 152.716 331.601Q152.659 330.198 152.671 328.794Q152.684 327.39 152.766 325.988Q152.848 324.587 153 323.191Q153.152 321.795 153.373 320.408Q153.594 319.022 153.883 317.648Q154.173 316.274 154.53 314.916Q154.888 313.558 155.312 312.22Q155.737 310.881 156.227 309.566Q156.718 308.25 157.273 306.96Q157.828 305.671 158.447 304.41Q159.065 303.15 159.746 301.922Q160.426 300.693 161.167 299.501Q161.908 298.308 162.707 297.153Q163.506 295.998 164.361 294.885C174.422 281.566 189.045 274.021 205.387 271.68Z"/>
	<path fill="#FEFEFE" d="M205.229 281.624C217.078 280.415 228.834 283.144 238.76 289.815C249.175 296.814 255.922 307.872 258.217 320.13Q258.446 321.294 258.617 322.468Q258.787 323.642 258.9 324.823Q259.012 326.004 259.065 327.189Q259.118 328.374 259.113 329.561Q259.107 330.747 259.042 331.931Q258.978 333.116 258.854 334.296Q258.73 335.476 258.548 336.648Q258.366 337.82 258.126 338.982Q257.886 340.144 257.588 341.292Q257.291 342.441 256.936 343.573Q256.582 344.705 256.172 345.818Q255.761 346.931 255.296 348.022Q254.831 349.114 254.312 350.181Q253.794 351.248 253.222 352.287Q252.651 353.327 252.029 354.337Q251.407 355.347 250.735 356.325C242.444 368.419 230.22 374.315 216.116 376.899C204.905 378.64 193.103 375.079 183.765 368.873Q182.803 368.228 181.873 367.536Q180.943 366.844 180.048 366.108Q179.154 365.371 178.296 364.592Q177.438 363.813 176.62 362.992Q175.801 362.172 175.024 361.312Q174.247 360.453 173.512 359.556Q172.778 358.66 172.089 357.729Q171.399 356.797 170.756 355.833Q170.113 354.869 169.518 353.875Q168.923 352.88 168.377 351.858Q167.831 350.836 167.336 349.788Q166.841 348.74 166.398 347.67Q165.955 346.599 165.564 345.508Q165.174 344.417 164.838 343.308Q164.502 342.199 164.22 341.075Q163.938 339.951 163.712 338.814Q163.487 337.65 163.319 336.477Q163.152 335.304 163.042 334.124Q162.932 332.944 162.881 331.76Q162.829 330.575 162.836 329.39Q162.842 328.205 162.907 327.022Q162.972 325.838 163.095 324.659Q163.218 323.481 163.399 322.309Q163.58 321.138 163.818 319.977Q164.056 318.816 164.351 317.668Q164.646 316.52 164.997 315.388Q165.349 314.256 165.755 313.143Q166.161 312.029 166.622 310.937Q167.082 309.845 167.596 308.777Q168.11 307.709 168.675 306.668Q169.241 305.626 169.857 304.613Q170.473 303.601 171.138 302.62C179.284 290.68 191.273 284.272 205.229 281.624Z"/>
	<path fill="#0E0E0E" d="M232.002 306.39C237.025 309.121 241.308 315.061 245.044 319.317C240.37 324.076 235.159 328.402 230.204 332.874L203.935 356.64C200.817 353.223 197.396 350.092 194.039 346.911Q187.003 340.57 179.718 334.518Q186.536 327.844 193.471 321.293C197.288 324.371 200.853 327.856 204.485 331.154C213.852 323.121 222.347 314.089 232.002 306.39Z"/>
	<path fill="#0E0E0E" d="M205.61 413.184C219.003 411.176 234.166 415.869 245.058 423.596Q246.223 424.436 247.346 425.332Q248.469 426.228 249.547 427.177Q250.625 428.126 251.656 429.126Q252.687 430.126 253.669 431.175Q254.65 432.223 255.579 433.319Q256.509 434.414 257.384 435.553Q258.259 436.691 259.078 437.871Q259.897 439.051 260.658 440.269Q261.419 441.487 262.12 442.741Q262.822 443.995 263.461 445.281Q264.101 446.567 264.677 447.883Q265.254 449.198 265.766 450.54Q266.278 451.882 266.725 453.247Q267.171 454.612 267.551 455.997Q267.931 457.383 268.243 458.785Q268.556 460.187 268.8 461.602Q269.017 463.02 269.165 464.446Q269.313 465.872 269.391 467.304Q269.47 468.736 269.478 470.17Q269.486 471.604 269.425 473.037Q269.363 474.47 269.232 475.898Q269.1 477.326 268.899 478.746Q268.698 480.166 268.429 481.575Q268.159 482.983 267.821 484.377Q267.482 485.77 267.077 487.146Q266.671 488.521 266.199 489.875Q265.726 491.229 265.188 492.559Q264.651 493.888 264.049 495.19Q263.447 496.492 262.782 497.762Q262.117 499.033 261.391 500.27Q260.666 501.507 259.88 502.707Q259.095 503.907 258.252 505.067C247.844 519.324 234.202 526.235 217.021 528.873C202.826 530.749 186.166 525.28 174.856 516.748Q173.733 515.908 172.653 515.014Q171.573 514.12 170.538 513.174Q169.503 512.228 168.516 511.231Q167.529 510.235 166.593 509.192Q165.657 508.148 164.773 507.059Q163.889 505.971 163.06 504.84Q162.231 503.709 161.459 502.539Q160.686 501.368 159.973 500.161Q159.259 498.954 158.606 497.713Q157.953 496.472 157.362 495.201Q156.771 493.929 156.244 492.63Q155.716 491.331 155.253 490.007Q154.79 488.684 154.393 487.339Q153.996 485.994 153.666 484.631Q153.336 483.268 153.074 481.891Q152.811 480.514 152.617 479.125C150.51 463.362 154.84 447.936 164.526 435.349C174.867 421.912 189.051 415.257 205.61 413.184Z"/>
	<path fill="#FEFEFE" d="M208.292 422.703C219.625 422.173 231.17 425.455 240.221 432.366C250.831 440.466 257.378 452.305 259.006 465.524Q259.149 466.706 259.234 467.894Q259.318 469.082 259.343 470.273Q259.368 471.464 259.334 472.654Q259.3 473.845 259.207 475.032Q259.114 476.219 258.961 477.401Q258.809 478.582 258.598 479.754Q258.387 480.926 258.119 482.086Q257.85 483.247 257.523 484.392Q257.197 485.538 256.814 486.665Q256.432 487.793 255.993 488.901Q255.555 490.008 255.062 491.092Q254.569 492.176 254.022 493.235Q253.476 494.293 252.878 495.323Q252.28 496.352 251.631 497.351Q250.982 498.35 250.284 499.315Q249.587 500.281 248.842 501.21C239.802 512.643 227.296 517.665 213.126 519.291C201.802 520.105 189.126 515.668 180.263 508.725Q179.332 507.999 178.438 507.228Q177.543 506.456 176.689 505.641Q175.834 504.827 175.021 503.97Q174.208 503.114 173.438 502.218Q172.668 501.323 171.944 500.39Q171.22 499.457 170.542 498.49Q169.865 497.522 169.237 496.523Q168.609 495.523 168.031 494.493Q167.453 493.463 166.927 492.406Q166.401 491.348 165.928 490.266Q165.456 489.184 165.037 488.08Q164.618 486.976 164.255 485.852Q163.892 484.728 163.585 483.588Q163.278 482.448 163.028 481.294Q162.778 480.139 162.586 478.974Q162.393 477.809 162.259 476.636Q162.119 475.445 162.04 474.248Q161.96 473.051 161.941 471.852Q161.921 470.652 161.962 469.454Q162.003 468.255 162.104 467.06Q162.205 465.864 162.365 464.676Q162.526 463.487 162.746 462.308Q162.966 461.129 163.246 459.962Q163.525 458.796 163.862 457.645Q164.199 456.494 164.594 455.361Q164.988 454.228 165.439 453.117Q165.89 452.005 166.396 450.918Q166.902 449.83 167.463 448.77Q168.023 447.709 168.635 446.678Q169.248 445.646 169.911 444.647Q170.575 443.648 171.288 442.683Q172.001 441.719 172.761 440.791C181.905 429.532 194.102 424.189 208.292 422.703Z"/>
	<path fill="#0E0E0E" d="M232.025 447.346C236.483 449.71 241.103 457.05 244.245 461.064C230.933 473.979 216.649 486.109 202.715 498.357C199.253 494.604 195.497 491.127 191.808 487.6Q185.523 481.753 179.175 475.975C183.545 471.623 187.924 467.319 192.5 463.181L203.065 473.696C212.481 464.677 222.309 456.041 232.025 447.346Z"/>
	<path fill="#0E0E0E" d="M205.025 553.167C218.977 551.453 234.47 555.823 245.809 564.005Q246.968 564.844 248.085 565.738Q249.202 566.633 250.274 567.58Q251.346 568.528 252.37 569.527Q253.395 570.525 254.37 571.573Q255.345 572.62 256.267 573.713Q257.19 574.807 258.059 575.944Q258.927 577.081 259.739 578.259Q260.552 579.436 261.305 580.652Q262.059 581.868 262.753 583.12Q263.447 584.371 264.079 585.654Q264.712 586.938 265.281 588.251Q265.85 589.563 266.354 590.902Q266.859 592.241 267.298 593.603Q267.737 594.965 268.109 596.346Q268.481 597.728 268.785 599.126Q269.09 600.524 269.326 601.935Q269.546 603.36 269.696 604.794Q269.846 606.228 269.925 607.667Q270.004 609.107 270.012 610.549Q270.02 611.99 269.957 613.431Q269.894 614.871 269.76 616.306Q269.626 617.742 269.421 619.169Q269.217 620.596 268.942 622.011Q268.667 623.427 268.323 624.827Q267.979 626.227 267.566 627.608Q267.154 628.99 266.673 630.349Q266.193 631.708 265.646 633.043Q265.099 634.377 264.488 635.682Q263.876 636.988 263.2 638.261Q262.525 639.535 261.787 640.774Q261.05 642.013 260.252 643.214Q259.455 644.415 258.599 645.575C248.463 659.52 233.855 666.649 217.137 669.321C203.545 670.832 188.169 666.118 177.085 658.317Q175.917 657.488 174.792 656.602Q173.666 655.716 172.586 654.776Q171.505 653.836 170.472 652.844Q169.44 651.852 168.457 650.811Q167.474 649.769 166.544 648.68Q165.613 647.591 164.738 646.458Q163.862 645.325 163.043 644.15Q162.224 642.975 161.464 641.761Q160.704 640.547 160.005 639.297Q159.306 638.047 158.669 636.764Q158.032 635.482 157.459 634.169Q156.886 632.857 156.378 631.517Q155.87 630.178 155.429 628.816Q154.988 627.453 154.615 626.071Q154.241 624.688 153.936 623.289Q153.631 621.89 153.395 620.477C150.895 605.397 154.517 589.11 163.577 576.739C173.659 562.974 188.451 555.75 205.025 553.167Z"/>
	<path fill="#FEFEFE" d="M210.538 562.719C221.478 562.579 232.826 566.152 241.48 572.891Q242.416 573.623 243.315 574.401Q244.213 575.179 245.072 576Q245.931 576.822 246.749 577.685Q247.566 578.548 248.34 579.45Q249.113 580.352 249.841 581.292Q250.569 582.231 251.25 583.206Q251.93 584.18 252.562 585.187Q253.193 586.194 253.774 587.231Q254.355 588.268 254.884 589.332Q255.413 590.396 255.888 591.486Q256.364 592.575 256.785 593.686Q257.206 594.798 257.572 595.929Q257.937 597.06 258.246 598.207Q258.555 599.355 258.807 600.516Q259.059 601.678 259.253 602.851Q259.447 604.023 259.583 605.204C261.039 618.236 257.785 631.244 249.483 641.51C240.121 653.088 227.695 658.023 213.163 659.465C200.722 658.862 189.786 655.965 180.013 647.93Q179.099 647.176 178.224 646.377Q177.349 645.578 176.515 644.737Q175.681 643.896 174.889 643.014Q174.097 642.133 173.35 641.213Q172.603 640.294 171.902 639.338Q171.202 638.383 170.549 637.394Q169.897 636.405 169.294 635.385Q168.691 634.365 168.14 633.316Q167.589 632.267 167.09 631.193Q166.591 630.118 166.146 629.02Q165.701 627.922 165.311 626.803Q164.921 625.684 164.587 624.547Q164.253 623.411 163.976 622.259Q163.699 621.107 163.479 619.943Q163.259 618.779 163.097 617.605Q162.935 616.431 162.831 615.251Q162.719 614.072 162.666 612.889Q162.613 611.706 162.618 610.521Q162.623 609.337 162.686 608.155Q162.749 606.972 162.871 605.794Q162.993 604.616 163.172 603.445Q163.352 602.274 163.589 601.114Q163.826 599.954 164.119 598.807Q164.413 597.659 164.763 596.528Q165.113 595.396 165.519 594.284Q165.924 593.171 166.384 592.079Q166.844 590.988 167.357 589.921Q167.87 588.853 168.435 587.812Q169 586.771 169.615 585.76Q170.231 584.748 170.896 583.768Q171.561 582.787 172.273 581.841Q172.985 580.895 173.743 579.985C183.184 568.834 196.295 563.887 210.538 562.719Z"/>
	<path fill="#0E0E0E" d="M231.818 587.36C236.185 590.891 239.932 595.772 243.679 599.956C230.45 613.55 216.507 626.47 202.919 639.707C199.362 635.952 195.638 632.474 191.807 629.007Q185.29 622.724 178.677 616.542C182.262 611.959 186.79 607.987 190.969 603.951Q197.006 609.314 202.797 614.941C212.222 605.452 221.937 596.368 231.818 587.36Z"/>
	<path fill="#0E0E0E" d="M210.044 693.206Q211.434 693.204 212.822 693.266Q214.211 693.328 215.595 693.453Q216.979 693.579 218.356 693.768Q219.733 693.956 221.1 694.208Q222.467 694.46 223.821 694.774Q225.175 695.089 226.513 695.465Q227.85 695.841 229.17 696.278Q230.489 696.715 231.787 697.213Q233.085 697.71 234.359 698.266Q235.632 698.823 236.879 699.437Q238.126 700.051 239.343 700.722Q240.56 701.392 241.746 702.118Q242.931 702.844 244.082 703.624Q245.232 704.403 246.346 705.235Q247.46 706.066 248.534 706.948Q249.608 707.83 250.641 708.76Q251.71 709.728 252.73 710.749Q253.749 711.769 254.716 712.839Q255.684 713.909 256.596 715.026Q257.509 716.143 258.365 717.304Q259.221 718.465 260.018 719.667Q260.814 720.87 261.55 722.11Q262.286 723.351 262.959 724.627Q263.632 725.902 264.24 727.21Q264.849 728.518 265.391 729.855Q265.933 731.191 266.408 732.553Q266.883 733.915 267.29 735.299Q267.696 736.683 268.033 738.085Q268.37 739.488 268.636 740.906Q268.902 742.323 269.098 743.752Q269.293 745.181 269.417 746.618Q269.54 748.056 269.592 749.497Q269.648 750.93 269.633 752.364Q269.617 753.798 269.529 755.23Q269.441 756.661 269.282 758.086Q269.122 759.511 268.891 760.927Q268.66 762.342 268.358 763.744Q268.056 765.146 267.684 766.531Q267.312 767.916 266.871 769.281Q266.43 770.645 265.921 771.986Q265.412 773.327 264.836 774.64Q264.26 775.954 263.619 777.237Q262.978 778.519 262.273 779.768Q261.568 781.017 260.802 782.229Q260.035 783.441 259.208 784.613Q258.382 785.785 257.497 786.914Q256.613 788.043 255.673 789.126Q254.732 790.209 253.739 791.243Q252.717 792.3 251.644 793.306Q250.572 794.312 249.451 795.265Q248.331 796.218 247.166 797.115Q246 798.012 244.793 798.851Q243.585 799.691 242.338 800.47Q241.091 801.249 239.807 801.967Q238.523 802.685 237.206 803.339Q235.889 803.994 234.542 804.583Q233.195 805.173 231.82 805.696Q230.446 806.219 229.048 806.674Q227.649 807.13 226.23 807.517Q224.812 807.904 223.376 808.221Q221.94 808.539 220.49 808.786Q219.04 809.033 217.58 809.209Q216.12 809.385 214.653 809.49Q213.186 809.595 211.716 809.628C196.793 809.266 183.945 804.938 172.425 795.272Q171.323 794.348 170.269 793.371Q169.214 792.393 168.209 791.365Q167.204 790.337 166.251 789.26Q165.298 788.183 164.399 787.061Q163.501 785.938 162.659 784.773Q161.817 783.607 161.033 782.401Q160.25 781.196 159.528 779.953Q158.805 778.71 158.145 777.432Q157.484 776.155 156.888 774.847Q156.292 773.538 155.761 772.202Q155.23 770.866 154.766 769.505Q154.302 768.144 153.905 766.762Q153.509 765.38 153.182 763.979Q152.854 762.579 152.596 761.165Q152.339 759.75 152.151 758.325Q151.964 756.899 151.847 755.466C150.73 740.886 155.89 725.306 165.5 714.287C177.081 701.007 192.649 694.338 210.044 693.206Z"/>
	<path fill="#FEFEFE" d="M205.32 703.63C216.393 702.628 227.703 704.878 237.156 710.837Q238.177 711.467 239.166 712.147Q240.154 712.828 241.107 713.558Q242.059 714.287 242.974 715.064Q243.889 715.841 244.763 716.663Q245.637 717.485 246.469 718.35Q247.3 719.215 248.087 720.121Q248.874 721.027 249.614 721.971Q250.355 722.916 251.046 723.896Q251.738 724.877 252.379 725.891Q253.02 726.906 253.609 727.951Q254.198 728.996 254.734 730.07Q255.27 731.144 255.75 732.244Q256.231 733.343 256.656 734.465Q257.08 735.588 257.448 736.73Q257.815 737.873 258.124 739.032Q258.434 740.191 258.684 741.365Q258.925 742.541 259.108 743.726Q259.292 744.912 259.418 746.106Q259.544 747.299 259.613 748.497Q259.681 749.695 259.691 750.895Q259.701 752.095 259.653 753.294Q259.605 754.493 259.499 755.688Q259.394 756.883 259.23 758.072Q259.066 759.261 258.846 760.44Q258.625 761.62 258.347 762.787Q258.069 763.955 257.736 765.107Q257.402 766.26 257.013 767.395Q256.623 768.53 256.18 769.645Q255.736 770.76 255.239 771.852Q254.742 772.945 254.193 774.011Q253.643 775.078 253.043 776.117Q252.443 777.156 251.793 778.165C243.507 790.816 231.85 796.503 217.414 799.457C205.455 800.174 194.661 798.594 184.438 791.992Q183.413 791.33 182.422 790.618Q181.431 789.907 180.476 789.147Q179.522 788.387 178.606 787.581Q177.69 786.775 176.815 785.925Q175.94 785.074 175.108 784.182Q174.276 783.289 173.49 782.357Q172.703 781.424 171.963 780.454Q171.224 779.483 170.533 778.478Q169.842 777.472 169.202 776.433Q168.562 775.394 167.974 774.325Q167.385 773.256 166.851 772.16Q166.316 771.063 165.837 769.941Q165.357 768.819 164.934 767.675Q164.51 766.531 164.143 765.367Q163.777 764.203 163.468 763.023Q163.16 761.842 162.91 760.648Q162.68 759.48 162.507 758.302Q162.334 757.124 162.219 755.939Q162.105 754.754 162.048 753.564Q161.992 752.375 161.994 751.184Q161.997 749.994 162.057 748.805Q162.118 747.616 162.237 746.431Q162.356 745.246 162.534 744.069Q162.711 742.892 162.946 741.724Q163.181 740.557 163.473 739.403Q163.765 738.249 164.113 737.11Q164.462 735.971 164.866 734.851Q165.27 733.731 165.728 732.633Q166.187 731.534 166.699 730.459Q167.211 729.384 167.775 728.335Q168.339 727.287 168.954 726.268Q169.57 725.248 170.234 724.26C178.669 711.828 190.945 706.314 205.32 703.63Z"/>
	<path fill="#0E0E0E" d="M207.552 710.123C209.781 709.941 212.032 709.867 214.257 710.153Q214.793 710.225 215.326 710.325Q215.858 710.425 216.384 710.551Q216.91 710.678 217.429 710.832Q217.948 710.985 218.459 711.165Q218.969 711.345 219.47 711.551Q219.97 711.757 220.46 711.988Q220.949 712.219 221.426 712.476Q221.903 712.732 222.366 713.012Q222.83 713.292 223.278 713.595Q223.726 713.899 224.158 714.225Q224.59 714.551 225.005 714.899Q225.42 715.246 225.816 715.615Q226.213 715.983 226.59 716.372Q226.967 716.76 227.324 717.167Q227.68 717.575 228.016 718Q228.351 718.425 228.664 718.866C232.825 724.618 233.595 730.791 232.455 737.606L236.537 745.629C237.747 745.575 239.114 745.415 240.314 745.549C242.084 745.746 243.975 747.17 245.058 748.565C245.782 749.498 246.093 750.685 245.763 751.843C245.181 753.885 243.232 755.094 241.438 755.907C239.849 756.628 238.345 757.41 236.821 758.259C237.034 763.329 239.102 778.523 235.408 782.111C231.969 785.452 216.412 783.597 211.359 783.482C202.26 783.398 193.021 784.33 183.952 783.666C181.003 775.763 182.332 765.731 182.559 757.421C181.188 757.21 179.786 757.024 178.434 756.713C176.195 756.197 174.604 755.083 173.44 753.078C172.577 751.593 172.442 750.022 172.961 748.394C173.445 746.874 174.916 745.678 176.356 745.12C179.015 744.091 180.951 745.218 183.388 746.296L187.954 739.491C187.889 732.723 188.58 725.513 192.33 719.686C195.991 713.997 201.182 711.538 207.552 710.123Z"/>
	<path fill="#FEFEFE" d="M208.602 754.349C210.253 754.421 211.749 754.359 213.103 755.45C214.655 756.701 215.528 758.929 215.733 760.864C216.088 764.205 215.21 767.936 213.032 770.503C211.618 770.508 210.086 770.605 208.845 769.806C207.407 768.88 206.512 767.421 206.107 765.781C205.144 761.877 206.622 757.665 208.602 754.349Z"/>
	<path fill="#FEFEFE" d="M207.095 716.114C208.42 715.995 209.752 715.882 211.084 715.918C215.369 716.035 219.441 717.581 222.317 720.84C227.073 726.23 226.747 733.06 226.472 739.746L214.252 739.765C209.217 739.967 202.267 741 197.457 739.596C195.979 739.164 194.469 738.093 193.879 736.617C192.696 733.659 194.109 730.103 195.321 727.374C197.817 721.751 201.398 718.312 207.095 716.114Z"/>
	<path fill="#0E0E0E" d="M773.247 554.625C778.516 554.147 784.01 554.765 788.931 556.759C800.907 561.611 814.912 573.644 825.784 581.105C836.204 588.257 847.084 594.719 857.083 602.481Q857.769 601.923 858.506 601.434C860.934 599.792 863.663 599.035 866.574 599.668C869.133 600.225 871.216 601.836 872.565 604.064C874.679 607.553 874.485 610.389 873.472 614.183C884.691 621.756 895.735 629.581 906.993 637.099C916.649 643.548 927.165 649.579 935.81 657.345C942.376 663.244 946.122 670.788 946.523 679.655C947.135 693.204 938.887 702.542 930.4 712.02Q923.52 719.676 916.519 727.22L911.584 722.361C918.679 713.368 928.107 706.134 934.553 696.679C939.041 690.096 940.568 682.821 938.918 675.003C938.177 671.49 936.819 668.229 934.397 665.546C926.221 656.485 913.335 649.933 903.247 643.05C891.963 635.352 880.955 627.315 869.483 619.887C867.357 622.863 865.508 626.029 863.613 629.155C880.031 640.105 896.629 650.873 912.751 662.255C919.008 666.672 927.027 671.458 928.199 679.763C929.951 692.176 910.715 705.968 903.667 714.97L903.238 715.522C901.261 713.441 899.115 711.59 896.947 709.713C904.454 703.629 913.256 696.027 918.787 688.06C920.407 685.726 921.776 683.157 921.143 680.248C920.656 678.004 919.32 676.105 917.676 674.555C911.884 669.091 904.212 665.165 897.638 660.69C884.903 652.02 872.527 642.997 859.314 635.04C856.761 635.955 854.238 636.79 851.484 636.571C848.969 636.371 846.622 635.387 845.07 633.337C842.489 629.926 843.006 626.282 843.677 622.373Q823.665 608.627 803.408 595.244C794.961 589.693 786.324 583.507 777.035 579.455C773.724 580.994 771.111 582.975 768.457 585.439C763.418 590.119 759.11 595.69 754.437 600.745C745.482 610.433 736.332 619.95 727.456 629.71C722.751 634.884 717.97 641.436 712.006 645.2C708.407 647.471 705.152 647.394 701.117 646.532L589.477 764.762L550.466 805.916C541.598 815.254 532.666 824.4 524.277 834.183C549.276 830.77 571.446 842.973 596.004 843.475C610.263 843.767 623.403 840.495 633.853 830.466C631.125 804.064 625.105 794.371 633.893 766.683Q634.356 765.24 634.854 763.809Q635.352 762.378 635.885 760.96Q636.418 759.542 636.985 758.137Q637.552 756.732 638.154 755.341Q638.755 753.951 639.39 752.575Q640.025 751.2 640.694 749.84Q641.363 748.481 642.064 747.138Q642.766 745.795 643.5 744.469Q644.234 743.144 645 741.837Q645.766 740.53 646.564 739.242Q647.362 737.954 648.191 736.686Q649.021 735.418 649.88 734.17Q650.74 732.923 651.63 731.697Q652.52 730.471 653.44 729.267Q654.36 728.063 655.309 726.881Q656.257 725.7 657.235 724.542Q658.212 723.385 659.217 722.251Q660.223 721.118 661.255 720.009Q662.288 718.901 663.348 717.817Q664.407 716.734 665.493 715.677Q666.578 714.62 667.689 713.59Q668.8 712.56 669.936 711.558Q671.072 710.555 672.232 709.58Q673.392 708.606 674.576 707.66Q675.759 706.714 676.965 705.797Q678.171 704.88 679.4 703.993Q680.628 703.106 681.877 702.249Q683.127 701.392 684.397 700.566Q685.667 699.74 686.957 698.945Q688.247 698.15 689.555 697.386Q690.864 696.623 692.191 695.892Q693.518 695.161 694.863 694.463C719.641 681.703 746.607 679.489 772.475 690.731C781.358 694.591 789.574 700.227 798.84 703.143C802.446 704.278 807.828 705.4 811.268 703.332C811.909 702.947 812.151 702.564 812.2 701.792C812.483 697.251 810.885 693.515 811.958 688.696C812.834 684.765 814.773 681.301 818.289 679.187C822.713 676.527 830.522 675.562 835.612 676.983C842.213 678.826 846.681 684.778 849.787 690.518C851.011 693.142 851.999 695.854 853.02 698.561L853.739 698.841C872.525 706.245 912.877 733.579 920.339 751.934C921.766 755.446 921.596 757.461 920.141 760.912C926.979 762.892 933.363 764.612 939.173 768.855C932.662 766.199 926.16 763.808 919.483 761.601C916.644 763.438 913.689 764.934 910.665 766.44Q914.754 768.46 918.333 771.286C920.326 772.842 928.997 780.988 929.252 783.106C923.39 777.701 916.367 770.18 908.774 767.406C907.555 766.96 906.52 766.726 905.286 767.262C904.385 768.727 904.627 769.992 905.289 771.531C906.738 774.892 909.309 778.086 911.226 781.209Q912.156 782.736 912.991 784.316Q913.826 785.897 914.564 787.525Q915.302 789.153 915.939 790.823Q916.577 792.493 917.112 794.199Q917.648 795.905 918.078 797.64Q918.509 799.374 918.834 801.132Q919.159 802.89 919.376 804.664Q919.594 806.439 919.703 808.223C915.842 792.736 910.729 782.813 902.192 769.49L897.4 771.133Q897.874 772.169 898.308 773.223Q898.742 774.276 899.134 775.346Q899.527 776.416 899.877 777.5Q900.227 778.585 900.535 779.682Q900.843 780.779 901.108 781.887Q901.372 782.996 901.594 784.113Q901.815 785.231 901.993 786.357Q902.171 787.482 902.304 788.614Q902.438 789.746 902.527 790.882Q902.617 792.018 902.662 793.156Q902.707 794.295 902.707 795.434Q902.708 796.574 902.664 797.713Q902.621 798.851 902.532 799.988Q902.444 801.124 902.312 802.255Q902.18 803.387 902.003 804.513Q901.827 805.639 901.607 806.757C901.245 799.709 900.862 776.355 895.442 771.741C894.755 771.156 894.707 771.336 893.878 771.388C891.824 773.617 891.961 777.382 891.825 780.236C891.273 777.947 891.054 775.603 890.774 773.268C878.757 776.693 867.242 778.136 854.895 779.514C845.127 780.605 838.041 783.265 831.808 791.182C825.852 798.745 821.872 807.987 823.258 817.782C825.267 831.969 838.701 846.75 849.626 855.096C847.056 857.874 844.698 860.069 841.27 861.749C828.792 856.935 813.187 840.845 803.072 831.625C798.775 827.708 794.002 822.547 788.499 820.438C776.467 815.825 749.586 835.92 738.175 841.731C731.3 845.232 723.831 847.505 716.821 850.724C712.341 852.781 705.334 856.593 703.737 861.518C703.374 862.636 703.295 863.944 704.003 864.95C707.529 869.958 711.587 864.244 715.452 865.162C714.608 866.067 714.984 865.737 713.995 866.502C713.762 866.683 713.525 866.857 713.291 867.035C714.327 868.085 728.186 869.715 731.683 871.611C727.738 872.097 720.238 869.463 715.963 868.785C712.801 868.284 709.583 868.088 706.392 867.863C707.956 868.674 710.69 869.617 711.546 871.161L708.992 870.568L708.517 870.989C709.506 872.681 711.581 873.829 713.154 874.956C710.805 874.464 709.067 874.24 706.701 874.759L706.298 875.443C706.395 875.56 706.48 875.687 706.587 875.795C709.385 878.602 717.823 881.044 721.728 881.107L722.07 880.605C721.934 880.344 721.442 879.39 721.305 879.173C721.138 878.911 720.941 878.669 720.759 878.418C721.421 878.594 721.887 878.726 722.49 879.08C723.576 879.719 724.101 879.887 724.425 881.191C723.704 882.073 723.66 882.105 722.564 882.233C714.958 883.118 705.111 876.045 699.41 871.882C699.669 872.417 699.942 872.947 700.198 873.485C701.82 876.899 704.11 879.536 706.587 882.357C700.759 877.407 694.289 872.45 689.19 866.758C682.031 858.766 681.474 848.932 669.778 844.847C661.02 841.789 653.058 843.634 644.974 847.494C647.301 852.936 650.648 858.044 653.761 863.066C656.227 858.531 658.004 853.767 659.8 848.943C662.583 849.813 665.324 850.832 668.073 851.803C665.434 857.451 661.702 868.095 656.171 871.239C654.729 872.058 653.344 872.145 651.773 871.573C646.236 869.558 640.854 856.185 638.25 851.081C625.508 856.112 612.907 858.425 599.224 858.541C597.275 862.597 595.066 868.342 591.235 870.963C589.864 871.901 588.279 872.295 586.649 871.858C581.581 870.5 578.192 862.114 575.861 857.752C563.888 855.156 552.395 850.406 540.435 848.157C537.644 853.472 531.561 868.682 526.476 871.093C525.251 871.674 524.165 871.869 522.875 871.346C517.658 869.233 510.908 852.734 508.363 847.249C501.521 848.492 485.974 852.3 479.879 850.18L479.542 849.38C480.257 847.185 481.29 845.377 482.443 843.398C492.278 840.835 502.284 839.109 512.047 836.184C527.222 820.908 541.597 804.662 556.462 789.057L695.909 642.269C695.87 642.079 695.827 641.889 695.791 641.699C694.794 636.493 693.89 630.218 697.044 625.576C704.069 615.235 715.627 605.848 724.302 596.699Q734.994 585.417 745.548 574.006C750.078 569.12 754.619 563.511 759.906 559.455C763.779 556.485 768.561 555.47 773.247 554.625Z"/>
	<path fill="#FEFEFE" d="M584.412 857.883C586.046 857.878 588.601 857.514 589.966 858.482C590.226 860.081 589.739 860.72 589.118 862.19C588.513 862.694 588.909 862.443 587.835 862.769C586.204 861.651 585.353 859.579 584.412 857.883Z"/>
	<path fill="#FEFEFE" d="M516.788 847.012C522.073 846.803 527.287 846.793 532.573 846.947L527.294 857.32L524.719 862.062C521.213 857.498 519.062 852.25 516.788 847.012Z"/>
	<path fill="#FEFEFE" d="M866.368 728.993C866.914 728.97 867.461 728.959 868.007 728.977C870.175 729.047 872.21 729.896 873.612 731.586C874.704 732.902 875.086 734.52 874.895 736.207C874.566 739.11 872.743 740.588 870.525 742.219C869.861 742.311 869.177 742.43 868.502 742.4C866.529 742.314 864.404 741.228 863.235 739.636C862.108 738.1 861.849 736.052 862.22 734.214C862.734 731.666 864.332 730.41 866.368 728.993Z"/>
	<path fill="#FEFEFE" d="M864.469 605.789C864.898 606.009 865.551 606.319 865.911 606.619C866.913 607.452 867.268 608.174 867.239 609.459C867.123 614.671 856.96 627.104 853.353 630.891C852.75 630.525 852.151 630.143 851.593 629.711C850.715 629.03 850.267 628.218 850.257 627.087C850.199 620.526 860.197 610.275 864.469 605.789Z"/>
	<path fill="#FEFEFE" d="M818.565 684.004C823.011 683.929 826.065 684.427 829.738 687.152C835.54 691.458 839.284 699.177 840.049 706.285C840.565 711.091 839.646 714.673 836.649 718.434C832.347 718.685 829.615 718.107 826.115 715.503C820.295 711.174 816.387 703.376 815.511 696.217C814.923 691.407 815.619 687.835 818.565 684.004Z"/>
	<path fill="#FEFEFE" d="M774.164 561.56C778.652 561.326 782.929 561.804 787.083 563.633C798.46 568.64 808.739 577.738 818.888 584.926Q835.817 597.13 853.676 607.927C851.84 610.962 849.765 613.889 847.798 616.842C838.51 609.059 827.368 602.866 817.222 596.227C806.782 589.395 796.352 581.73 785.476 575.677C783.166 574.391 780.121 572.741 777.468 572.658C772.184 572.493 768.448 575.867 764.959 579.356C759.414 585.494 710.753 638.112 708.626 639.259C707.144 640.058 706.072 640.134 704.431 639.687C703.32 638.873 702.683 638.12 702.341 636.772C701.674 634.15 702.239 631.141 703.643 628.861C707.515 622.571 713.514 617.587 718.668 612.374Q728.442 602.413 738.093 592.332C745.741 584.296 752.612 574.868 761.201 567.853C765.213 564.576 769.162 562.834 774.164 561.56Z"/>
	<path fill="#0E0E0E" d="M763.801 158.705C763.967 158.676 764.132 158.637 764.3 158.619C771.559 157.819 779.747 158.165 786.993 158.746Q790.364 159.029 793.722 159.442Q797.08 159.854 800.419 160.396Q803.759 160.937 807.075 161.607Q810.391 162.277 813.679 163.073Q816.967 163.87 820.222 164.793Q823.477 165.715 826.694 166.763Q829.911 167.81 833.085 168.98Q836.259 170.15 839.386 171.442Q842.513 172.734 845.588 174.145Q848.663 175.555 851.681 177.084Q854.699 178.612 857.657 180.255Q860.614 181.898 863.506 183.654Q866.397 185.41 869.22 187.276Q872.042 189.142 874.79 191.115Q877.538 193.088 880.208 195.165Q882.879 197.242 885.467 199.421Q887.097 200.814 888.692 202.246Q890.288 203.678 891.848 205.148Q893.408 206.619 894.932 208.127Q896.456 209.635 897.942 211.18Q899.429 212.725 900.877 214.305Q902.326 215.886 903.735 217.501Q905.145 219.117 906.515 220.766Q907.884 222.415 909.214 224.098Q910.543 225.78 911.83 227.494Q913.118 229.208 914.363 230.953Q915.609 232.698 916.811 234.473Q918.014 236.248 919.173 238.052Q920.332 239.855 921.446 241.687Q922.561 243.518 923.631 245.376Q924.7 247.234 925.724 249.118Q926.748 251.001 927.726 252.909Q928.704 254.817 929.635 256.748Q930.566 258.68 931.45 260.633Q932.333 262.586 933.169 264.561Q934.005 266.535 934.792 268.529Q935.579 270.523 936.318 272.536Q937.056 274.549 937.746 276.579Q938.435 278.609 939.074 280.655Q939.714 282.701 940.303 284.763Q940.893 286.824 941.432 288.899Q941.97 290.974 942.459 293.062Q942.947 295.149 943.384 297.248Q943.821 299.347 944.207 301.456Q944.593 303.565 944.927 305.683Q945.262 307.8 945.544 309.925Q945.827 312.051 946.058 314.182Q946.288 316.314 946.467 318.45Q946.644 320.584 946.769 322.722Q946.893 324.86 946.965 327.001Q947.037 329.141 947.056 331.283Q947.075 333.424 947.042 335.566Q947.008 337.707 946.922 339.847Q946.836 341.987 946.697 344.124Q946.558 346.261 946.367 348.395Q946.175 350.528 945.931 352.655Q945.688 354.783 945.391 356.904Q945.095 359.025 944.747 361.138Q944.399 363.252 943.998 365.355Q943.598 367.459 943.146 369.553Q942.695 371.646 942.192 373.728Q941.688 375.81 941.134 377.878Q940.58 379.947 939.975 382.002Q939.37 384.056 938.714 386.095Q938.059 388.134 937.354 390.156Q936.648 392.178 935.893 394.182Q935.138 396.187 934.334 398.172Q933.53 400.157 932.677 402.121Q931.825 404.086 930.924 406.029Q930.023 407.972 929.075 409.892Q928.127 411.812 927.132 413.709Q926.136 415.605 925.095 417.476Q924.053 419.348 922.966 421.193Q921.878 423.038 920.746 424.856Q919.614 426.673 918.437 428.463Q917.26 430.252 916.039 432.012Q914.819 433.772 913.555 435.501Q912.292 437.23 910.986 438.928Q909.681 440.626 908.334 442.291Q906.987 443.956 905.599 445.587C874.395 482.15 830.838 502.76 783.125 506.477C738.265 508.25 696.669 495.326 661.754 466.784Q660.124 465.463 658.527 464.103Q656.93 462.742 655.367 461.342Q653.805 459.943 652.277 458.505Q650.749 457.067 649.257 455.592Q647.765 454.117 646.31 452.606Q644.855 451.095 643.438 449.548Q642.021 448.001 640.642 446.42Q639.263 444.838 637.924 443.223Q636.585 441.609 635.286 439.961Q633.987 438.314 632.729 436.635Q631.471 434.956 630.255 433.246Q629.039 431.537 627.866 429.797Q626.692 428.058 625.562 426.291Q624.432 424.523 623.345 422.729Q622.259 420.934 621.218 419.113Q620.176 417.292 619.18 415.445Q618.183 413.599 617.233 411.729Q616.282 409.859 615.378 407.965Q614.474 406.072 613.617 404.157Q612.76 402.242 611.951 400.307Q611.141 398.372 610.38 396.417Q609.618 394.462 608.905 392.489Q608.192 390.516 607.528 388.526Q606.864 386.536 606.249 384.53Q605.635 382.524 605.07 380.503Q604.505 378.483 603.99 376.449Q603.474 374.416 603.01 372.37Q602.545 370.324 602.131 368.267Q601.717 366.211 601.354 364.144Q600.991 362.078 600.679 360.003Q600.367 357.929 600.106 355.847Q599.845 353.766 599.636 351.678C595.02 304.978 608.004 259.028 637.874 222.614C670.471 182.874 713.405 163.617 763.801 158.705Z"/>
	<path fill="#FEFEFE" d="M774.203 177.727Q776.053 177.744 777.902 177.806Q779.751 177.867 781.599 177.973Q783.446 178.079 785.29 178.228Q787.134 178.378 788.974 178.572Q790.814 178.765 792.649 179.003Q794.484 179.241 796.313 179.522Q798.141 179.803 799.963 180.128Q801.784 180.453 803.597 180.821Q805.411 181.189 807.214 181.6Q809.018 182.012 810.812 182.466Q812.605 182.92 814.388 183.417Q816.17 183.914 817.94 184.453Q819.71 184.993 821.466 185.574Q823.223 186.155 824.965 186.779Q826.707 187.402 828.433 188.066Q830.16 188.731 831.87 189.436Q833.581 190.142 835.274 190.888Q836.967 191.634 838.642 192.421Q840.317 193.207 841.972 194.033Q843.628 194.859 845.263 195.725Q846.898 196.59 848.512 197.494Q850.127 198.398 851.719 199.341Q853.311 200.283 854.88 201.264Q856.449 202.244 857.995 203.261Q859.54 204.278 861.061 205.332Q862.582 206.386 864.077 207.476Q865.572 208.566 867.041 209.691Q868.509 210.817 869.951 211.977Q871.392 213.137 872.805 214.331Q874.219 215.525 875.603 216.752Q876.987 217.98 878.342 219.24Q879.697 220.5 881.021 221.792C910.907 251.021 927.234 292.365 927.505 333.981Q927.511 335.844 927.471 337.706Q927.43 339.569 927.345 341.43Q927.259 343.291 927.127 345.149Q926.996 347.008 926.819 348.862Q926.642 350.717 926.419 352.566Q926.196 354.416 925.929 356.26Q925.661 358.103 925.347 359.94Q925.034 361.776 924.676 363.604Q924.318 365.433 923.915 367.251Q923.512 369.07 923.065 370.879Q922.617 372.687 922.125 374.484Q921.633 376.281 921.098 378.065Q920.562 379.849 919.982 381.62Q919.403 383.391 918.78 385.146Q918.158 386.902 917.492 388.642Q916.826 390.382 916.118 392.105Q915.41 393.828 914.66 395.534Q913.909 397.239 913.117 398.925Q912.325 400.611 911.492 402.278Q910.659 403.944 909.785 405.589Q908.911 407.235 907.998 408.858Q907.084 410.481 906.13 412.082Q905.177 413.682 904.184 415.259Q903.191 416.835 902.16 418.387Q901.129 419.939 900.061 421.465Q898.992 422.991 897.886 424.49Q896.78 425.989 895.637 427.461Q894.495 428.932 893.317 430.375Q892.138 431.818 890.925 433.232Q889.712 434.646 888.464 436.029Q887.217 437.413 885.935 438.765Q884.654 440.117 883.34 441.438Q881.982 442.805 880.592 444.138Q879.201 445.471 877.777 446.77Q876.354 448.068 874.899 449.331Q873.444 450.594 871.958 451.821Q870.473 453.048 868.957 454.237Q867.442 455.427 865.898 456.579Q864.353 457.731 862.781 458.844Q861.209 459.958 859.609 461.032Q858.01 462.106 856.385 463.141Q854.76 464.175 853.109 465.17Q851.459 466.164 849.784 467.117Q848.11 468.07 846.413 468.981Q844.715 469.893 842.996 470.762Q841.277 471.632 839.537 472.459Q837.796 473.285 836.036 474.069Q834.276 474.852 832.497 475.592Q830.718 476.332 828.922 477.028Q827.125 477.724 825.312 478.375Q823.499 479.026 821.67 479.632Q819.841 480.239 817.998 480.8Q816.155 481.361 814.299 481.876Q812.442 482.392 810.574 482.861Q808.705 483.33 806.825 483.754Q804.946 484.177 803.056 484.554Q801.167 484.93 799.269 485.26Q797.371 485.59 795.465 485.873Q793.559 486.156 791.647 486.392Q789.735 486.628 787.818 486.817Q785.9 487.006 783.979 487.147Q782.057 487.288 780.133 487.382Q778.209 487.476 776.283 487.523Q774.357 487.569 772.43 487.568C734.463 487.842 694.543 470.697 666.752 445.194C637.613 418.455 620.003 379.259 618.428 339.81Q618.338 337.895 618.296 335.979Q618.254 334.063 618.259 332.146Q618.264 330.229 618.316 328.314Q618.369 326.398 618.469 324.483Q618.568 322.569 618.716 320.658Q618.863 318.747 619.057 316.84Q619.252 314.934 619.494 313.032Q619.735 311.131 620.024 309.236Q620.312 307.341 620.648 305.454Q620.983 303.567 621.365 301.689Q621.747 299.81 622.176 297.942Q622.604 296.074 623.079 294.217Q623.553 292.36 624.073 290.515Q624.594 288.67 625.159 286.839Q625.725 285.008 626.336 283.191Q626.947 281.374 627.603 279.573Q628.259 277.772 628.959 275.988Q629.659 274.203 630.403 272.437Q631.147 270.671 631.934 268.923Q632.722 267.176 633.552 265.448Q634.383 263.721 635.256 262.015Q636.129 260.308 637.044 258.624Q637.959 256.94 638.915 255.279Q639.871 253.618 640.869 251.981Q641.866 250.344 642.903 248.732Q643.941 247.12 645.018 245.535Q646.094 243.949 647.21 242.391Q648.326 240.833 649.48 239.302Q650.634 237.772 651.826 236.271Q653.018 234.769 654.246 233.298Q655.474 231.827 656.739 230.386Q658.003 228.946 659.303 227.537C689.617 194.763 730.281 179.358 774.203 177.727Z"/>
	<path fill="#0E0E0E" d="M860.767 243.404C866.012 247.526 870.66 252.869 875.276 257.689L896.35 279.705C886.58 290.863 876.317 301.573 866.264 312.474L814.831 368.423L773.626 413.306C764.39 423.391 755.318 433.673 745.644 443.342C725.298 423.466 705.465 403.092 684.844 383.495L647.173 346.566C659.424 334.765 672.249 323.608 684.527 311.842C704.645 331.223 723.432 352.001 744.355 370.527C756.643 356.509 769.618 343.001 782.213 329.247L860.767 243.404Z"/>
	<path fill="#0E0E0E" d="M312.317 107.132C324.625 105.769 337.328 108.729 347.182 116.422C358.197 125.023 362.384 136.097 364.129 149.576C375.808 149.633 387.505 149.804 399.183 149.686C406.762 149.609 414.871 148.734 422.36 149.861C425.933 150.398 429.45 151.585 432.362 153.773C437.879 157.919 439.09 163.733 440.061 170.146Q476.046 170.358 512.026 169.779C525.238 169.565 540.271 170.328 550.247 180.165Q551.248 181.136 552.167 182.185Q553.087 183.233 553.92 184.352Q554.752 185.471 555.492 186.653Q556.232 187.835 556.875 189.072Q557.518 190.31 558.06 191.595Q558.601 192.88 559.038 194.205Q559.474 195.529 559.803 196.884Q560.132 198.24 560.351 199.617C561.846 208.933 561.078 218.665 561.04 228.072L560.976 273.582L561.065 441.924C569.799 441.287 578.622 442.186 586.702 445.708Q587.755 446.163 588.783 446.67Q589.812 447.177 590.813 447.735Q591.815 448.293 592.788 448.901Q593.76 449.509 594.701 450.164Q595.641 450.82 596.548 451.522Q597.455 452.224 598.325 452.971Q599.195 453.718 600.027 454.507Q600.859 455.297 601.65 456.127Q602.441 456.957 603.189 457.826Q603.938 458.695 604.641 459.6Q605.345 460.505 606.003 461.445Q606.66 462.384 607.27 463.356Q607.879 464.327 608.439 465.327Q608.999 466.328 609.508 467.356Q610.018 468.383 610.474 469.435Q610.931 470.487 611.335 471.56C618.042 489.282 612.085 503.322 604.768 519.583C616.125 523.464 627.085 528.717 638.092 533.48C645.884 536.852 654.059 539.792 661.592 543.703C663.684 544.789 667.832 546.755 668.846 548.932C669.336 549.983 667.747 555.286 667.353 556.535C664.625 565.202 659.744 573.643 656.085 581.998Q641.96 614.603 627.358 646.997Q616.446 671.192 606.021 695.601C600.826 707.724 595.99 720.469 589.487 731.969C587.973 734.646 585.229 737.409 582.44 738.734C577.445 741.107 571.038 739.464 566.068 737.728C552.742 733.075 539.895 726.709 526.952 721.097Q492.653 706.598 458.583 691.568L411.817 671.563C403.28 667.941 393.915 664.762 385.892 660.151C382.566 658.24 379.872 655.582 378.263 652.087C376.409 648.061 376.049 644.188 377.238 639.923C379.262 632.662 382.802 625.697 385.877 618.833Q392.227 604.759 398.381 590.599L428.075 522.323C432.418 512.368 437.306 502.534 441.307 492.448C443.788 486.195 445.187 479.54 447.529 473.23C449.452 468.05 452.235 462.358 457.628 460.102C461.128 458.637 465.55 459.108 469.113 460.059C475.43 461.744 481.649 465.488 487.545 468.319Q503.984 476.367 520.69 483.846C523.007 473.784 526.531 466.129 532.298 457.604L532.041 217.503L439.588 217.494C439.582 222.519 438.852 227.438 435.948 231.673C433.567 235.147 429.992 237.82 425.798 238.487C413.925 240.375 401.186 239.444 389.169 239.409L329.254 239.246L253.02 239.537C240.044 239.514 226.703 239.914 213.784 238.841C210.754 238.59 208.48 237.597 206.069 235.734C200.431 231.377 199.325 224.589 198.384 217.987L110.875 217.91L110.742 855.745L349.13 855.451C350.021 851.456 350.826 847.415 351.848 843.453C352.693 840.175 354.189 836.976 357.295 835.307C361.685 832.947 372.225 833.077 376.972 834.592C383.099 836.547 392.183 857.013 395.647 863.211L399.16 856.702C402.08 850.456 405.356 840.798 410.979 836.568C417.079 831.981 435.494 833.625 443.147 834.69C450.863 841.811 454.424 853.591 460.448 862.149C463.507 856.961 470.094 840.444 475.005 837.83C476.144 837.223 477.112 837.394 478.302 837.676C478.926 838.253 479.43 838.503 479.653 839.365C480.959 844.43 470.396 860.363 467.276 865.169C465.441 867.997 463.073 871.655 459.587 872.411C453.337 869.993 442.611 847.942 438.86 841.564L415.583 841.545C412.4 848.358 403.982 868.222 398.321 871.866C397.1 872.652 395.609 872.942 394.213 872.461C388.272 870.416 377.928 847.717 374.469 841.497L361.029 841.546C354.011 863.456 349.339 886.21 343.076 908.365C374.348 909.28 405.773 908.57 437.059 908.525L594.797 908.499L828.8 908.561C865.241 908.583 901.685 909.201 938.122 908.768C932.755 885.927 926.223 863.225 920.348 840.497L911.615 840.542C907.922 847.556 900.368 863.963 895.028 869.4C893.907 870.541 892.502 871.557 890.81 871.392C889.125 871.227 887.67 869.804 886.635 868.571C883.875 865.286 881.861 860.905 879.682 857.199Q874.755 848.644 869.191 840.488L856.678 840.484C855.635 841.632 854.689 842.663 853.168 843.155C851.848 843.582 850.955 843.226 849.773 842.678C849.03 841.423 848.7 840.399 849.088 838.932C849.8 836.236 852.29 834.974 854.465 833.589Q863.678 833.518 872.89 833.694C880.263 842.194 885.599 852.342 891.325 861.979C896.373 852.47 901.225 842.553 908.064 834.186C912.201 833.865 920.808 832.36 924.382 834.868C926.176 836.127 927.254 839.315 927.952 841.333C930.874 849.774 932.609 858.987 934.866 867.661C937.958 879.546 941.494 891.397 944.371 903.32C945.157 906.58 947.06 912.712 945.231 915.695C931.417 917.384 914.752 916.061 900.579 916.036L810.007 915.986L505.736 915.982C487.24 915.982 339.595 917.231 336.05 914.786C333.626 909.104 339.125 894.58 340.978 888.617Q259.131 887.689 177.282 888.467L138.837 888.532C128.755 888.599 118.18 889.331 108.214 887.694Q106.812 887.456 105.433 887.111Q104.054 886.766 102.705 886.316Q101.356 885.866 100.046 885.314Q98.7363 884.761 97.4727 884.11Q96.209 883.458 94.9992 882.711Q93.7894 881.964 92.6406 881.127Q91.4918 880.289 90.4109 879.365Q89.33 878.442 88.3233 877.438C81.6215 870.747 78.7418 862.687 77.8016 853.398C77.0098 845.575 77.4082 837.356 77.3916 829.493L77.4361 786.942L77.5254 658.078L77.4837 221.242C77.4481 205.758 77.3976 192.241 89.14 180.62C93.3269 176.476 98.7399 173.099 104.489 171.662C117.827 168.33 132.901 170.044 146.569 170.09L198.883 170.141C199.366 164.642 200.449 159.021 204.441 154.903C207.187 152.072 210.786 150.726 214.595 150.012C222.562 148.517 231.422 149.415 239.525 149.495L272.927 149.597C274.24 140.769 276.047 132.668 281.175 125.183C288.558 114.408 299.804 109.387 312.317 107.132Z"/>
	<path fill="#FEFEFE" d="M565.165 554.601Q571.262 557.015 577.206 559.787L570.998 574.486C567.163 573.904 562.908 571.278 559.442 569.535L565.165 554.601Z"/>
	<path fill="#FEFEFE" d="M233.794 188.688C239.743 187.875 246.255 188.653 252.258 188.673C258.147 188.693 264.07 188.086 269.948 188.618C271.833 188.789 274.368 188.867 275.658 190.404L274.912 191.659C272.969 193.031 270.427 193.06 268.119 193.359C261.682 193.786 255.193 193.096 248.749 193.062C243.114 193.031 237.293 193.566 231.686 193.026C229.607 192.826 227.466 192.619 225.696 191.443L225.676 190.962C227.866 188.992 230.997 188.992 233.794 188.688Z"/>
	<path fill="#FEFEFE" d="M510.473 530.879C514.603 532.815 518.886 534.501 523.085 536.29L516.923 550.884C512.687 549.278 508.608 547.31 504.506 545.395L510.473 530.879Z"/>
	<path fill="#FEFEFE" d="M364.117 188.571C373.643 188.523 404.598 187.177 412.394 189.579C413.191 190.815 412.919 191.555 412.845 192.998C405.939 193.002 367.324 194.092 363.951 192.101C363.405 190.662 363.765 190.042 364.117 188.571Z"/>
	<path fill="#FEFEFE" d="M226.779 168.572C241.148 168.5 255.835 167.798 270.17 168.546C271.938 168.638 273.264 168.641 274.487 170.002C274.634 171.344 274.434 171.956 273.877 173.176C267.519 173.601 230.421 174.355 226.386 172.184C225.951 170.677 226.338 170.051 226.779 168.572Z"/>
	<path fill="#FEFEFE" d="M238.855 208.25C244.686 208.134 270.893 206.958 274.598 209.51C274.845 210.697 274.621 211.227 274.158 212.329C271.785 213.89 264.68 213.103 261.603 213.151C253.007 213.363 234.093 214.873 226.5 211.303L226.675 211.269L226.104 209.79C229.464 207.746 235.025 208.26 238.855 208.25Z"/>
	<path fill="#FEFEFE" d="M364.351 168.503C371.835 168.466 408.506 167.312 412.291 169.456C412.864 171.002 412.559 171.622 412.234 173.21C404.327 173.402 369.239 174.68 364.208 172.274C363.599 170.731 363.979 170.09 364.351 168.503Z"/>
	<path fill="#FEFEFE" d="M365.61 208.21C376.038 207.815 401.809 206.831 410.76 209.101C412.074 209.435 412.931 209.636 413.593 210.873C412.826 212.088 412.228 212.368 410.987 212.988C404.148 213.108 368.171 214.8 363.692 211.459C363.036 210.97 363.246 211.056 363.212 210.158C363.868 209.253 364.685 208.806 365.61 208.21Z"/>
	<path fill="#FEFEFE" d="M315.702 134.495C316.934 134.457 318.208 134.392 319.43 134.574C322.228 134.99 325.013 136.711 326.556 139.093C327.999 141.32 328.37 144.026 327.686 146.573C326.654 150.415 324.12 152.143 320.825 153.978C318.458 154.186 316.192 154.171 314.015 153.078C310.544 151.335 309.363 147.893 308.273 144.447Q308.426 143.831 308.59 143.218C309.832 138.57 311.587 136.887 315.702 134.495Z"/>
	<path fill="#FEFEFE" d="M556.476 575.833L568.342 580.93Q564.09 592.279 559.057 603.304C555.309 601.179 551.312 599.556 547.362 597.853C550.249 590.458 553.415 583.158 556.476 575.833Z"/>
	<path fill="#FEFEFE" d="M544.129 604.634Q550.386 606.835 556.29 609.859C553.222 617.249 549.926 624.559 546.738 631.899L534.572 626.583L544.129 604.634Z"/>
	<path fill="#FEFEFE" d="M531.578 633.231C535.561 635.128 539.594 636.799 543.7 638.413Q539.544 649.621 534.811 660.598C530.73 658.173 526.419 656.326 522.071 654.451C525.48 647.525 528.431 640.286 531.578 633.231Z"/>
	<path fill="#FEFEFE" d="M488.868 580.653Q495.201 583.733 501.642 586.579C498.682 593.744 495.372 600.775 492.16 607.831C487.854 606.283 483.617 604.201 479.406 602.392C482.336 595.047 485.617 587.859 488.868 580.653Z"/>
	<path fill="#FEFEFE" d="M501.404 552.068C505.676 553.876 509.815 556.138 513.968 558.211C511.101 565.419 508.133 572.569 504.557 579.459C500.177 577.75 495.894 575.727 491.595 573.82C495.206 566.805 498.174 559.278 501.404 552.068Z"/>
	<path fill="#FEFEFE" d="M476.371 609.037C480.684 610.688 484.873 612.854 489.062 614.805C486.524 622.069 483.492 629.417 479.841 636.191Q473.3 633.213 466.612 630.583C469.552 623.225 472.652 616.041 476.371 609.037Z"/>
	<path fill="#FEFEFE" d="M519.645 661.217C523.8 662.867 527.889 664.697 531.995 666.467Q527.986 678.247 522.672 689.498L509.89 683.906C512.844 676.228 516.313 668.737 519.645 661.217Z"/>
	<path fill="#FEFEFE" d="M464.092 636.699C468.177 639.031 472.717 640.8 476.998 642.765C474.511 650.547 470.739 657.992 467.306 665.387L454.257 659.459C457.295 651.777 460.749 644.252 464.092 636.699Z"/>
	<path fill="#FEFEFE" d="M529.837 539.236Q544.29 545.675 558.991 551.525L552.092 566.447C542.42 562.714 532.957 558.308 523.504 554.057L529.837 539.236Z"/>
	<path fill="#FEFEFE" d="M496.35 618.132C506.03 621.235 515.179 626.173 524.508 630.198L515.597 651.521C505.688 647.978 496.252 643.52 486.88 638.768C489.549 631.69 492.933 624.875 496.35 618.132Z"/>
	<path fill="#FEFEFE" d="M508.591 589.231C518.072 593.676 527.785 597.655 537.342 601.94Q532.69 612.771 527.503 623.356C522.866 622.365 504.689 613.496 499.05 611.026Q503.705 600.078 508.591 589.231Z"/>
	<path fill="#FEFEFE" d="M520.596 561.12Q535.126 567.204 549.761 573.033Q545.327 584.02 540.511 594.845C530.426 591.595 520.969 586.95 511.387 582.483C514.286 575.307 517.569 568.249 520.596 561.12Z"/>
	<path fill="#FEFEFE" d="M483.895 646.058Q498.3 652.414 512.775 658.611Q508.337 669.878 503.054 680.775C493.43 676.844 483.913 672.587 474.356 668.492Q478.986 657.216 483.895 646.058Z"/>
	<path fill="#FEFEFE" d="M444.571 504.809L445.763 506.113C445.989 507.707 445.65 509.012 445.096 510.501C441.294 520.725 435.607 530.596 431.208 540.629L399.752 613.413C395.173 623.737 389.797 633.506 386.085 644.224C387.043 646.255 388.064 648.246 389.659 649.862C392.317 652.554 398.129 654.472 401.706 656.073C411.552 660.481 421.671 664.286 431.581 668.556Q470.908 685.78 510.447 702.509C522.133 707.451 533.875 712.285 545.503 717.359C552.867 720.573 560.121 724.139 567.602 727.072C570.347 728.148 574.008 729.493 576.959 729.498C579.479 729.502 581.92 725.021 582.989 723.042C588.82 712.25 592.706 700.072 597.654 688.824L630.845 614.398C633.302 608.839 639.064 592.97 642.612 589.304L643.4 589.383C644.054 590.96 643.829 591.152 643.382 592.736C639.46 600.878 636.181 609.457 632.468 617.714L598.449 694.306C594.116 704.119 590.311 714.363 585.542 723.952C583.902 727.248 582.335 730.75 578.586 731.879C576.006 732.656 573.504 732.485 570.972 731.646C560.636 728.224 550.485 723.054 540.463 718.755L481.567 693.544L418.823 666.437C409.312 662.318 399.12 658.872 389.996 653.98C385.617 651.632 384.779 647.974 383.415 643.525C386.801 631.143 393.779 619.972 398.787 608.205Q413.22 574.104 428.141 540.214C433.314 528.532 438.23 515.872 444.571 504.809Z"/>
	<path fill="#FEFEFE" d="M463.24 508.159Q479.837 516.262 496.53 524.168Q468.993 589.483 439.943 654.14Q422.672 647.305 405.818 639.499C413.859 619.098 423.19 599.012 432.014 578.927Q447.275 543.387 463.24 508.159Z"/>
	<path fill="#FEFEFE" d="M591.265 566.141C603.493 569.377 615.899 576.354 627.39 581.67C619.549 597.127 613.208 613.55 606.31 629.452L571.217 709.648C567.954 710.369 541.16 697.679 536.001 695.407L565.136 627.658C573.828 607.133 582.023 586.428 591.265 566.141Z"/>
	<path fill="#FEFEFE" d="M563.396 449.658Q564.24 449.55 565.088 449.479Q565.936 449.408 566.786 449.373Q567.636 449.338 568.487 449.341Q569.338 449.343 570.188 449.382Q571.038 449.421 571.885 449.496Q572.733 449.572 573.576 449.684Q574.419 449.796 575.257 449.945Q576.095 450.093 576.926 450.278Q577.756 450.462 578.578 450.682Q579.4 450.902 580.212 451.158Q581.023 451.414 581.823 451.704Q582.623 451.994 583.409 452.319Q584.196 452.644 584.967 453.002Q585.739 453.36 586.495 453.751Q587.25 454.143 587.988 454.566Q588.726 454.99 589.445 455.445C598.135 460.982 604.155 470.268 606.223 480.31C609.543 496.427 601.864 509.464 593.41 522.465C615.623 533.383 639.203 542.137 662.125 551.479C658.047 562.123 652.75 572.335 647.767 582.577C638.897 576.889 625.897 572.352 616.079 568.161L569.796 548.029C552.794 540.595 535.58 533.657 518.642 526.07C509.011 521.755 499.621 516.935 490.056 512.482C479.491 507.562 468.136 503.319 458.094 497.421C453.015 494.437 451.609 491.565 450.158 486.008C452.669 478.537 455.312 471.727 460.957 466.099C472.01 467.195 483.478 474.873 493.41 479.812C504.674 485.414 515.977 491.38 528.013 495.152C527.804 484.85 528.523 476.084 534.52 467.372C541.497 457.235 551.495 451.859 563.396 449.658Z"/>
	<path fill="#0E0E0E" d="M565.342 461.14C566.371 461.047 567.379 461.031 568.413 461.054C575.862 461.217 583.074 463.837 588.214 469.413C593.539 475.191 595.901 483.37 595.443 491.129C594.772 502.506 588.659 510.164 580.51 517.489L573.135 514.644C563.209 509.937 552.428 507.522 542.962 501.75C541.868 499.239 540.973 496.644 540.497 493.943C539.163 486.369 540.591 478.566 545.202 472.307C550.265 465.434 557.177 462.431 565.342 461.14Z"/>
	<path fill="#FEFEFE" d="M561.73 468.151C567.385 467.655 572.901 467.684 578.011 470.538Q578.48 470.804 578.934 471.094Q579.389 471.384 579.828 471.696Q580.267 472.009 580.689 472.343Q581.112 472.678 581.517 473.034Q581.922 473.389 582.308 473.765Q582.694 474.141 583.061 474.536Q583.428 474.931 583.773 475.345Q584.119 475.758 584.444 476.189Q584.768 476.619 585.07 477.066Q585.372 477.512 585.651 477.973Q585.93 478.435 586.184 478.91Q586.439 479.385 586.67 479.872Q586.9 480.359 587.105 480.858Q587.31 481.356 587.49 481.864Q587.669 482.373 587.822 482.889Q587.975 483.406 588.102 483.93C590.012 491.53 587.774 498.058 583.802 504.473C582.403 506.028 580.865 507.468 579.378 508.939C573.352 506.768 567.396 504.345 561.422 502.031C561.076 490.825 560.343 479.294 561.73 468.151Z"/>
</svg>
