<?xml version="1.0" standalone="no"?>
<!DOCTYPE svg PUBLIC "-//W3C//DTD SVG 20010904//EN"
 "http://www.w3.org/TR/2001/REC-SVG-20010904/DTD/svg10.dtd">
<svg version="1.0" xmlns="http://www.w3.org/2000/svg"
 width="225.000000pt" height="225.000000pt" viewBox="0 0 225.000000 225.000000"
 preserveAspectRatio="xMidYMid meet">

<g transform="translate(0.000000,225.000000) scale(0.100000,-0.100000)"
fill="#000000" stroke="none">
<path d="M796 2235 c-77 -27 -126 -96 -126 -177 0 -38 -11 -57 -96 -173 -121
-164 -138 -199 -138 -290 0 -63 12 -105 117 -414 l117 -344 0 -403 0 -403 22
-15 c20 -14 84 -16 501 -16 l478 0 24 25 c25 24 25 26 25 205 l0 180 49 0 c76
0 81 12 81 195 0 82 -5 167 -10 187 -11 36 -58 95 -92 114 -15 8 -12 30 42
244 l59 235 1 220 c0 193 -3 225 -19 260 -38 82 -99 118 -194 114 -57 -2 -60
-1 -72 27 -29 71 -126 121 -208 109 -41 -6 -43 -5 -62 32 -11 20 -40 51 -63
68 -37 26 -53 30 -105 30 -46 0 -71 -6 -98 -22 l-35 -22 -49 24 c-54 28 -92
31 -149 10z m109 -140 l25 -24 0 -221 c0 -207 1 -221 20 -240 27 -27 56 -25
85 5 l25 24 0 220 c0 214 1 221 22 241 12 11 31 20 43 20 12 0 31 -9 43 -20
21 -20 22 -27 22 -241 l0 -220 25 -24 c29 -30 58 -32 85 -5 18 18 20 33 20
175 0 154 0 156 26 181 19 20 31 24 52 19 54 -13 57 -23 62 -202 l5 -167 28
-16 c24 -13 30 -13 55 0 26 15 27 20 33 110 7 109 11 123 45 138 29 14 68 1
83 -27 7 -12 11 -98 11 -223 l-1 -203 -57 -230 -58 -230 -415 0 -414 0 -103
300 c-126 367 -128 381 -62 479 25 36 48 66 52 66 4 0 8 -37 10 -82 3 -78 4
-83 31 -98 24 -13 30 -13 55 0 l27 16 5 233 c5 230 5 233 29 252 31 26 57 24
86 -6z m792 -1317 c21 -20 23 -29 23 -135 l0 -113 -462 2 -463 3 -3 133 -3
132 443 0 c440 0 442 0 465 -22z m-109 -510 l3 -138 -401 0 -400 0 0 133 c0
74 3 137 7 140 4 4 182 6 397 5 l391 -3 3 -137z"/>
<path d="M20 2060 c-49 -49 -17 -88 110 -134 117 -44 157 -44 180 -3 13 24 13
30 0 54 -12 20 -39 35 -119 65 -119 43 -143 46 -171 18z"/>
<path d="M2055 2041 c-76 -29 -104 -44 -115 -64 -13 -24 -13 -30 0 -54 23 -41
63 -41 180 3 127 46 159 85 110 134 -28 28 -60 24 -175 -19z"/>
<path d="M20 1700 c-27 -27 -25 -56 5 -85 23 -24 30 -25 145 -25 107 0 122 2
140 20 25 25 26 72 2 93 -15 14 -41 17 -145 17 -114 0 -129 -2 -147 -20z"/>
<path d="M1937 1702 c-23 -25 -21 -68 3 -92 18 -18 33 -20 140 -20 115 0 122
1 145 25 30 29 32 58 5 85 -18 18 -33 20 -148 20 -112 0 -131 -2 -145 -18z"/>
<path d="M127 1388 c-120 -45 -141 -65 -119 -113 23 -50 49 -51 168 -9 113 40
144 60 144 94 0 26 -43 70 -67 69 -10 0 -67 -19 -126 -41z"/>
<path d="M1955 1405 c-29 -29 -32 -58 -7 -83 21 -21 225 -95 249 -90 9 2 25
15 36 30 17 23 19 33 11 55 -8 24 -26 34 -119 70 -61 23 -118 42 -128 42 -10
1 -29 -10 -42 -24z"/>
</g>
</svg>
