<?xml version="1.0" standalone="no"?>
<!DOCTYPE svg PUBLIC "-//W3C//DTD SVG 20010904//EN"
 "http://www.w3.org/TR/2001/REC-SVG-20010904/DTD/svg10.dtd">
<svg version="1.0" xmlns="http://www.w3.org/2000/svg"
 width="512.000000pt" height="512.000000pt" viewBox="0 0 512.000000 512.000000"
 preserveAspectRatio="xMidYMid meet">

<g transform="translate(0.000000,512.000000) scale(0.100000,-0.100000)"
fill="#000000" stroke="none">
<path d="M2476 5104 c-56 -20 -102 -58 -131 -108 l-26 -44 -297 -4 c-281 -5
-302 -6 -397 -31 -373 -98 -669 -408 -746 -780 -35 -172 -26 -501 32 -1087 16
-168 41 -420 54 -560 40 -401 54 -665 61 -1106 6 -379 8 -412 26 -444 37 -67
99 -90 244 -90 l73 0 3 -338 3 -337 28 -48 c33 -56 89 -99 149 -116 32 -9 254
-11 858 -9 783 3 817 4 854 22 50 25 97 72 122 122 19 38 19 77 19 1694 l0
1655 -36 75 c-21 45 -54 93 -82 120 -25 25 -144 107 -264 182 -120 75 -228
146 -240 158 -33 30 -55 77 -51 109 l3 28 670 -158 c369 -87 683 -159 698
-159 32 0 77 39 77 67 0 37 -93 299 -114 321 -15 16 -162 69 -511 186 -361
120 -483 165 -465 170 14 3 256 46 538 96 282 50 526 97 541 105 36 18 79 69
87 101 11 43 -2 120 -24 152 -12 17 -42 40 -65 51 -43 21 -52 21 -848 20 -672
0 -810 -3 -843 -15z m1624 -157 c0 -15 -1323 -251 -1328 -236 -2 5 -23 35 -46
67 -44 59 -119 116 -191 144 -40 16 -40 16 -15 27 40 16 1580 15 1580 -2z
m-2052 -164 c-54 -109 -68 -141 -68 -155 0 -15 -9 -18 -49 -18 -26 0 -69 -3
-95 -6 l-46 -7 0 91 c0 63 4 92 13 95 20 9 249 8 245 0z m458 -25 c129 -64
179 -215 114 -345 -49 -97 -124 -143 -234 -143 -188 0 -312 194 -232 366 62
132 221 188 352 122z m-886 -105 l-1 -98 -50 -24 c-110 -51 -230 -171 -294
-292 -100 -190 -101 -366 -9 -1304 44 -454 66 -702 80 -882 l7 -93 -92 0 c-50
0 -91 4 -91 8 0 31 -44 536 -60 688 -91 880 -111 1262 -74 1442 42 206 160
392 329 519 70 52 187 114 253 132 1 1 2 -43 2 -96z m1765 -343 c303 -100 555
-187 561 -194 6 -6 16 -26 23 -45 10 -32 10 -33 -11 -28 -12 4 -286 68 -608
143 -322 76 -586 138 -588 139 -1 1 6 22 17 47 10 24 22 63 26 87 4 25 12 41
18 38 7 -2 260 -86 562 -187z m-1391 75 c12 -34 30 -72 39 -85 20 -28 24 -160
6 -207 -18 -49 -58 -80 -282 -220 -268 -167 -324 -220 -368 -348 l-14 -40 -6
100 c-13 200 -10 404 7 469 63 243 274 399 533 393 l63 -2 22 -60z m277 -261
c57 -20 181 -19 238 1 57 20 61 19 61 -10 0 -44 40 -132 81 -179 28 -31 110
-89 262 -183 230 -144 284 -187 314 -250 17 -36 18 -131 21 -1648 2 -1202 -1
-1617 -9 -1638 -25 -60 6 -58 -865 -55 l-796 3 -24 28 -24 28 0 1608 c0 1768
-4 1655 61 1734 18 22 115 89 252 174 122 76 243 159 270 185 50 50 83 113 93
179 7 45 7 44 65 23z m-909 -2411 c3 -49 2 -92 -2 -96 -4 -4 -45 -7 -91 -5
l-84 3 -3 93 -3 92 89 0 89 0 5 -87z m8 -478 l0 -215 -90 0 -90 0 0 215 0 215
90 0 90 0 0 -215z"/>
<path d="M2370 4603 c-32 -11 -60 -47 -60 -75 0 -39 40 -78 80 -78 38 0 80 39
80 74 0 45 -61 93 -100 79z"/>
<path d="M2479 3760 c-9 -5 -22 -23 -29 -39 -19 -46 3 -78 95 -139 65 -44 84
-53 109 -48 45 9 66 34 66 76 0 42 -15 58 -109 119 -63 41 -101 49 -132 31z"/>
<path d="M2849 3501 c-41 -41 -37 -67 16 -117 l45 -41 0 -280 c0 -279 0 -280
23 -301 45 -42 117 -20 132 41 4 13 5 151 3 308 -3 325 -4 327 -92 387 -60 40
-89 41 -127 3z"/>
<path d="M1885 2543 c-50 -13 -118 -71 -148 -128 -22 -39 -22 -48 -25 -604 -2
-501 -1 -569 14 -613 21 -65 67 -115 129 -144 l50 -24 486 0 485 0 53 26 c65
33 116 99 131 170 7 34 10 234 8 595 l-3 544 -25 49 c-28 54 -66 91 -125 117
-37 17 -76 18 -525 18 -267 -1 -494 -4 -505 -6z m992 -177 l28 -24 0 -552 0
-552 -28 -24 -28 -24 -463 0 -463 0 -24 26 -24 26 0 548 0 548 24 26 24 26
463 0 463 0 28 -24z"/>
<path d="M2089 2200 c-29 -17 -43 -65 -27 -96 24 -52 39 -54 340 -52 266 3
278 4 298 24 29 29 29 78 0 109 l-23 25 -286 0 c-161 0 -293 -5 -302 -10z"/>
<path d="M1735 475 c-32 -31 -32 -66 -1 -102 l24 -28 377 0 377 0 19 24 c26
32 25 82 -4 109 -23 22 -27 22 -396 22 l-372 0 -24 -25z"/>
<path d="M2762 477 c-22 -23 -28 -60 -16 -92 12 -31 59 -45 156 -45 104 0 136
11 156 54 16 32 2 80 -29 96 -10 6 -69 10 -132 10 -106 0 -115 -2 -135 -23z"/>
</g>
</svg>
