<?xml version="1.0" encoding="utf-8" ?>
<svg xmlns="http://www.w3.org/2000/svg" xmlns:xlink="http://www.w3.org/1999/xlink" width="1024" height="1024">
	<path fill="#FEFEFE" d="M0 0L1024 0L1024 1024L0 1024L0 0Z"/>
	<path fill="#1A1A1A" d="M93.5812 435.103C95.857 434.921 98.293 434.603 100.259 435.954C100.919 437.361 100.808 437.579 100.558 439.136C98.2313 439.24 95.7556 439.275 93.7879 437.897C93.1339 436.608 93.2634 436.537 93.5812 435.103Z"/>
	<path fill="#1A1A1A" d="M107.964 538.639C108.331 538.759 109.115 539.359 109.452 539.58C109.716 540.297 109.931 540.293 109.619 540.849C108.564 542.731 105.53 543.364 103.644 543.907C102.913 543.291 102.458 542.961 102.133 542.025C101.858 541.232 102.097 541.162 102.438 540.472C104.184 539.311 105.942 539.042 107.964 538.639Z"/>
	<path fill="#1A1A1A" d="M91.485 456.176C92.638 456.036 94.0814 455.792 95.2392 455.958C96.544 456.146 97.2099 456.473 97.9351 457.54C97.684 458.74 97.0095 459.158 96.1278 459.933C95.3656 459.999 94.6 460.067 93.8355 460.096C92.2278 460.156 91.1441 460.029 89.9648 458.913C90.1718 457.534 90.6035 457.224 91.485 456.176Z"/>
	<path fill="#1A1A1A" d="M88.0691 544.436C88.8727 544.483 89.6824 544.609 90.4826 544.702C91.6375 545.59 91.7125 545.515 91.9769 546.928C91.4723 548.457 90.6534 548.977 89.4165 549.881C88.4727 549.875 87.6278 549.735 86.6984 549.585C85.681 548.778 85.6658 548.837 85.4432 547.567C85.9406 545.966 86.7987 545.402 88.0691 544.436Z"/>
	<path fill="#1A1A1A" d="M129.133 473.635C130.475 473.971 130.977 474.004 131.97 474.936L131.614 475.991C130.019 477.264 128.925 477.657 126.936 478.067C126.493 478.021 125.918 477.975 125.495 477.872C124.192 477.556 123.971 477.459 123.333 476.37C123.504 476.083 123.647 475.778 123.846 475.509C124.89 474.1 127.566 473.858 129.133 473.635Z"/>
	<path fill="#1A1A1A" d="M94.762 476.519C95.5219 476.831 96.1772 477.221 96.885 477.634C97.5906 478.828 97.6015 478.761 97.3212 480.115C96.2965 481.356 95.3262 481.561 93.8484 481.975C92.8636 481.764 92.1553 481.4 91.2785 480.912C90.7207 479.738 90.6658 479.8 91.0503 478.57C92.1947 477.242 93.0953 476.977 94.762 476.519Z"/>
	<path fill="#1A1A1A" d="M112.943 558.439C113.77 559.045 114.021 559.402 114.563 560.242C114.542 560.95 114.693 561.472 114.22 562.053C112.794 563.802 110.706 564.103 108.597 564.335C107.751 563.611 107.927 563.921 107.5 563.047C107.116 562.262 107.383 562.113 107.65 561.334C109.14 559.859 111.041 559.236 112.943 558.439Z"/>
	<path fill="#1A1A1A" d="M95.7977 498.595C96.9967 498.477 98.4844 498.201 99.637 498.612C100.716 498.997 100.803 499.139 101.244 500.196C100.517 501.591 99.5019 501.93 98.1493 502.556C96.6095 502.864 95.1447 503.222 93.72 502.318C92.9821 501.85 93.1324 501.686 92.9644 500.911C93.6474 499.565 94.5124 499.227 95.7977 498.595Z"/>
	<path fill="#1A1A1A" d="M116.325 514.661C117.281 514.575 118.285 514.45 119.244 514.499C120.536 514.565 121.354 514.745 122.238 515.681C121.52 517.098 120.741 517.403 119.432 518.265C118.379 518.424 117.275 518.627 116.21 518.633C115.032 518.64 114.109 518.143 113.247 517.382L113.258 516.474C114.092 515.417 115.115 515.125 116.325 514.661Z"/>
	<path fill="#1A1A1A" d="M96.53 565.452C97.2026 565.63 97.9847 566.167 98.5819 566.492C98.9208 567.248 99.1044 567.184 98.8488 567.839C98.0793 569.81 95.6573 570.713 93.8761 571.491C92.5944 571.037 92.0718 570.77 91.2457 569.68L91.4386 568.551C92.8712 567.015 94.6599 566.325 96.53 565.452Z"/>
	<path fill="#1A1A1A" d="M102.855 518.086C104.275 518.466 104.761 518.619 105.519 519.814L105.178 520.796C103.655 522.239 102.32 522.831 100.372 523.573C100.022 523.457 99.7091 523.366 99.3805 523.18C98.2605 522.543 97.9931 522.302 97.56 521.16L98.0854 520.069C99.7025 518.804 100.851 518.466 102.855 518.086Z"/>
	<path fill="#1A1A1A" d="M150.73 506.048L152.473 506.208L152.899 506.798C151.16 509.399 148.532 510.233 145.621 510.982C144.442 511.054 143.71 511.063 142.814 510.309C142.948 509.905 143.016 509.593 143.316 509.248C145.032 507.271 148.333 506.564 150.73 506.048Z"/>
	<path fill="#1A1A1A" d="M111.434 475.059C112.584 475.146 113.96 475.18 114.973 475.787C115.961 476.379 116.039 476.559 116.32 477.6C115.338 478.965 114.643 479.062 113.115 479.692C112.832 479.722 112.55 479.757 112.267 479.782C110.932 479.899 109.823 479.725 108.813 478.774C108.168 478.166 108.343 478.028 108.314 477.222C109.182 475.896 110.028 475.607 111.434 475.059Z"/>
	<path fill="#1A1A1A" d="M131.402 510.634C132.98 510.412 134.633 510.094 136.141 510.741C137.238 511.211 136.869 510.884 137.344 511.979C136.61 513.33 135.568 513.702 134.249 514.337C132.735 514.796 131.308 515.185 129.769 514.614C128.816 514.261 129.118 514.399 128.645 513.4C129.402 511.839 129.995 511.592 131.402 510.634Z"/>
	<path fill="#1A1A1A" d="M167.545 504.743C165.185 505.549 162.077 506.769 159.576 506.536C158.385 506.426 157.719 506.383 156.926 505.422C158.65 503.256 162.889 502.765 165.504 502.124L166.298 502.637L167.545 504.743Z"/>
	<path fill="#1A1A1A" d="M121.469 533.612L121.908 533.57C123.748 533.404 124.851 533.213 126.325 534.445L126.184 535.459C124.97 536.954 123.722 537.383 121.956 538.07C121.75 538.109 121.546 538.155 121.338 538.187C119.734 538.432 118.976 538.399 117.704 537.465L117.805 536.301C118.825 534.826 119.867 534.36 121.469 533.612Z"/>
	<path fill="#1A1A1A" d="M143.902 471.59C144.557 471.591 145.018 471.569 145.684 471.678C146.804 471.863 147.397 472.323 147.939 473.259L147.491 474.296C145.732 475.632 144.775 475.562 142.62 475.848C141.243 475.982 140.393 475.99 139.029 475.613L138.595 474.762C138.666 474.611 138.721 474.451 138.809 474.309C139.959 472.438 141.889 471.982 143.902 471.59Z"/>
	<path fill="#1A1A1A" d="M129.096 551.936C129.171 551.959 129.252 551.968 129.322 552.004C130.491 552.615 130.786 552.802 131.341 553.945L130.855 555.004C129.069 556.535 127.349 557.15 125.165 557.918C124.326 557.708 123.776 557.36 123.034 556.928C122.818 556.209 122.548 556.046 123.017 555.353C124.35 553.384 126.942 552.602 129.096 551.936Z"/>
	<path fill="#1A1A1A" d="M143.155 546.047C144.633 545.931 145.885 545.73 147.092 546.669L146.888 547.702C145.379 549.313 143.832 550.226 141.89 551.252C140.603 551.475 139.926 551.496 138.681 551.085C138.28 550.179 138.128 550.381 138.422 549.645C139.311 547.414 141.077 546.849 143.155 546.047Z"/>
	<path fill="#1A1A1A" d="M138.882 528.028C139.935 528.236 140.357 528.471 141.253 529.017L141.33 529.865C139.837 532.229 136.68 533.06 134.145 533.8C134.097 533.778 134.045 533.763 134 533.735C132.783 532.981 132.521 533.003 132.216 531.647C133.622 529.398 136.471 528.692 138.882 528.028Z"/>
	<path fill="#1A1A1A" d="M112.201 435.672C114.283 435.672 116.228 435.646 118.007 436.899C118.893 437.523 118.593 437.151 118.796 438.358C117.987 439.453 117.161 439.586 115.917 439.99C114.418 440.015 112.982 440.038 111.554 439.482C110.401 439.034 109.774 438.567 109.322 437.439C110.253 436.309 110.859 436.197 112.201 435.672Z"/>
	<path fill="#1A1A1A" d="M125.684 455.073C127.064 454.981 128.625 454.892 129.994 455.09C131.353 455.285 132.144 455.555 132.973 456.636C132.553 457.865 131.999 458.158 131.028 458.992C129.567 459.078 128.09 459.153 126.633 458.962C125.145 458.767 124.067 458.438 123.181 457.215C123.89 455.985 124.479 455.783 125.684 455.073Z"/>
	<path fill="#1A1A1A" d="M109.653 455.563C110.816 455.491 112.094 455.354 113.251 455.501C114.773 455.694 115.669 456.214 116.646 457.313C116.122 458.651 115.57 458.815 114.406 459.609C112.666 459.819 110.805 460.034 109.11 459.466C107.926 459.07 107.805 459.013 107.272 457.958C107.687 456.75 108.653 456.254 109.653 455.563Z"/>
	<path fill="#1A1A1A" d="M158.994 470.144C159.684 470.132 160.457 470.079 161.148 470.179C162.291 470.344 162.855 470.57 163.569 471.503L163.132 472.47C161.554 473.851 159.755 473.77 157.767 473.923C156.951 473.984 155.982 474.133 155.175 474.034C154.007 473.892 153.773 473.84 153.123 472.904C153.326 472.451 153.314 472.397 153.712 471.977C155.032 470.58 157.209 470.368 158.994 470.144Z"/>
	<path fill="#1A1A1A" d="M143.407 437.544C146.103 437.452 150.14 436.849 152.354 438.605C152.628 439.897 152.486 439.978 151.906 441.189C149.348 441.225 145.12 441.824 143.035 440.192C142.694 438.865 142.831 438.812 143.407 437.544Z"/>
	<path fill="#1A1A1A" d="M125.975 436.938C128.215 436.799 132.214 436.105 134.176 437.282C135.544 438.101 135.432 439.115 135.689 440.518C132.962 440.699 129.93 441.25 127.333 440.274C126.091 439.034 126.219 438.626 125.975 436.938Z"/>
	<path fill="#1A1A1A" d="M140.965 454.511C142.135 454.53 143.309 454.549 144.478 454.631C146.009 454.739 147.625 454.959 148.672 456.174C148.433 457.463 148.103 457.542 147.108 458.431C145.427 458.502 143.646 458.669 141.969 458.555C140.541 458.459 139.796 458.327 138.804 457.294C139.2 455.776 139.8 455.519 140.965 454.511Z"/>
	<path fill="#1A1A1A" d="M119.985 579.4C120.511 579.564 121.232 580.022 121.728 580.282C122.048 580.891 122.422 581.163 122.157 581.869C121.386 583.924 118.836 585.14 117.044 586.135C115.968 585.795 115.279 585.388 114.374 584.718C114.157 584.137 113.859 583.818 114.126 583.203C114.981 581.235 118.133 580.221 119.985 579.4Z"/>
	<path fill="#1A1A1A" d="M130.091 492.565C131.493 492.524 132.447 492.699 133.704 493.33C133.915 494.267 134.084 494.058 133.609 494.724C132.195 496.708 130.192 496.964 127.957 497.415C127.724 497.411 127.491 497.418 127.259 497.403C126.053 497.324 124.841 497.162 123.995 496.243L124.284 495.272C126.059 493.604 127.817 493.176 130.091 492.565Z"/>
	<path fill="#1A1A1A" d="M113.254 495.538C113.947 495.484 114.844 495.343 115.523 495.468C116.869 495.714 117.103 495.992 117.842 497.022L117.606 498.126C116.432 499.352 115.497 499.638 113.926 500.084C113.348 500.171 112.765 500.262 112.182 500.314C110.666 500.45 109.911 500.16 108.764 499.196L108.92 498.102C110.078 496.567 111.498 496.191 113.254 495.538Z"/>
	<path fill="#1A1A1A" d="M159.55 539.557C160.846 539.934 161.152 539.795 162.022 540.892C161.97 541.049 161.94 541.215 161.865 541.363C160.803 543.448 156.96 544.63 154.877 545.479C154.75 545.472 154.621 545.484 154.497 545.458C153.185 545.188 152.816 545.266 152.107 544.11C152.288 543.658 152.409 543.278 152.725 542.88C154.335 540.854 157.162 540.078 159.55 539.557Z"/>
	<path fill="#1A1A1A" d="M143.554 489.64C145.242 489.447 147.016 489.102 148.612 489.833C149.697 490.329 149.341 489.985 149.75 491.111C148.824 492.532 147.567 492.877 146.065 493.475Q145.348 493.611 144.628 493.728C142.561 494.057 141.605 493.976 139.877 492.732L139.812 491.752C140.818 490.436 142.054 490.151 143.554 489.64Z"/>
	<path fill="#1A1A1A" d="M150.825 563.446C152.394 563.376 153.31 563.443 154.525 564.411L154.379 565.62C153.077 567.407 151.603 568.318 149.763 569.476C148.334 569.571 147.573 569.601 146.213 569.034C145.828 568.311 145.636 568.385 145.854 567.756C146.584 565.649 149.023 564.461 150.825 563.446Z"/>
	<path fill="#1A1A1A" d="M182.945 548.043C183.007 548.067 183.071 548.085 183.131 548.113C184.276 548.648 184.928 548.748 185.364 549.974C184.398 552.303 180.692 553.525 178.51 554.518C177.152 553.966 176.855 553.973 176.08 552.759C176.151 552.348 176.175 552.032 176.4 551.651C177.613 549.594 180.809 548.616 182.945 548.043Z"/>
	<path fill="#1A1A1A" d="M157.366 438.583C160.426 438.416 165.521 437.56 168.175 439.328C168.564 440.57 168.486 440.614 168.025 441.848C165.492 441.909 162.844 442.093 160.322 441.87C158.838 441.739 158.05 441.397 157.128 440.243L157.366 438.583Z"/>
	<path fill="#1A1A1A" d="M103.647 587.43C104.747 587.593 105.332 587.943 106.251 588.555L106.361 589.487C105.319 591.995 102.279 593.113 99.9478 594.116C98.9106 593.865 98.4776 593.481 97.6375 592.852C97.5074 592.182 97.3199 591.94 97.6668 591.288C98.867 589.032 101.4 588.239 103.647 587.43Z"/>
	<path fill="#1A1A1A" d="M135.385 571.438C136.808 571.461 137.971 571.494 139.132 572.409L139.125 573.503C137.766 575.297 136.249 576.2 134.356 577.348C133.008 577.564 131.635 577.591 130.477 576.806C130.222 575.777 130.108 576.084 130.509 575.224C131.569 572.949 133.198 572.374 135.385 571.438Z"/>
	<path fill="#1A1A1A" d="M154.469 522.547C155.568 522.383 156.553 522.557 157.647 522.695L158.135 523.382C156.853 525.913 153.176 527.111 150.671 528.134C149.289 528.327 148.375 528.341 147.182 527.635L147.401 526.422C149.544 524.016 151.461 523.402 154.469 522.547Z"/>
	<path fill="#1A1A1A" d="M175.948 536.017C173.563 537.595 169.438 539.975 166.546 539.78C165.782 539.728 165.998 539.679 165.481 538.974C165.61 538.352 165.607 538.2 165.923 537.569C166.974 535.471 170.091 534.079 172.281 533.809C174.076 533.589 174.497 534.132 175.769 535.203L175.948 536.017Z"/>
	<path fill="#1A1A1A" d="M167.385 555.478C167.913 555.408 168.179 555.358 168.745 555.36C169.935 555.366 170.529 555.532 171.346 556.368C171.316 556.537 171.312 556.712 171.257 556.875C170.503 559.102 167.304 560.472 165.342 561.435C164.96 561.563 164.569 561.708 164.17 561.772C162.879 561.977 162.595 562.027 161.63 561.26C161.603 560.853 161.553 560.558 161.694 560.142C162.576 557.534 165.087 556.489 167.385 555.478Z"/>
	<path fill="#1A1A1A" d="M197.488 540.426C198.709 540.302 199.402 540.442 200.558 540.845L200.73 541.645C198.593 544.88 193.415 546.858 190.053 548.569C189.87 548.599 189.688 548.643 189.502 548.659C188.43 548.752 187.692 548.75 186.809 548.097L187.045 547.07C189.466 543.869 193.959 542.095 197.488 540.426Z"/>
	<path fill="#1A1A1A" d="M199.81 442.964L199.356 442.984C195.515 443.132 174.795 443.273 172.698 441.334C172.926 440.059 173.164 440.056 174.175 439.208C182.246 438.985 199.005 439.868 207.05 440.952C220.927 441.043 234.919 442.057 248.785 442.707C254.849 442.99 265.189 442.856 270.755 444L271.007 444.28L271.292 444.233C259.732 444.669 248.094 444.03 236.532 443.756C224.301 443.467 212.03 443.513 199.81 442.964Z"/>
	<path fill="#1A1A1A" d="M835.916 445.223C836.522 445.757 836.33 445.426 836.469 446.317C836.823 448.578 836.752 450.916 837.047 453.202C837.613 457.589 838.591 461.914 839.519 466.236C836.062 466.844 832.717 467.25 829.212 467.437C829.078 460.296 826.671 453.831 824.437 447.13C828.253 446.371 832.062 445.758 835.916 445.223Z"/>
	<path fill="#1A1A1A" d="M282.788 497.513L283.078 497.66C282.035 499.911 209.522 538.476 202.173 541.193C201.642 540.445 201.589 540.14 201.424 539.264C204.6 534.919 272.08 503.003 282.788 497.513Z"/>
	<path fill="#1A1A1A" d="M274.011 458.738L275.934 458.624C274.371 459.663 176.615 471.782 167.118 472.789C166.956 472.818 166.797 472.869 166.632 472.876C165.251 472.937 165.192 472.675 164.309 471.708L164.366 470.753C168.725 467.556 260.882 459.963 274.011 458.738Z"/>
	<path fill="#1A1A1A" d="M199.942 452.63C223.586 452.393 247.377 451.038 271.004 451.653L270.866 451.92C262.719 452.714 254.495 452.97 246.321 453.388C240.654 453.678 234.694 454.306 229.032 454.053C221.478 455.242 209.546 454.958 201.57 455.336C187.159 456.018 172.586 457.337 158.18 457.595C156.355 457.627 154.534 457.734 152.802 457.089L152.825 456.278C154.622 454.785 156.661 454.088 158.971 453.771C161.464 453.427 164.015 454.076 166.55 453.967Q183.238 453.086 199.942 452.63Z"/>
	<path fill="#1A1A1A" d="M166.298 502.637C168.906 501.424 171.508 500.371 174.266 499.543C185.146 496.275 274.249 472.678 278.276 473.665L277.654 473.851L277.995 474.245L277.104 474.002Q245.016 483.556 212.683 492.247C197.69 496.432 182.691 501.212 167.545 504.743L166.298 502.637Z"/>
	<path fill="#1A1A1A" d="M175.769 535.203C175.71 534.39 175.409 533.715 175.986 533.056C178.677 529.981 246.466 503.236 256.34 499.218C264.399 495.937 274.127 490.739 282.38 488.88C277.631 493.337 187.955 531.795 175.948 536.017L175.769 535.203Z"/>
	<path fill="#1A1A1A" d="M276.907 465.741L278.872 465.58C275.27 467.428 260.875 469.598 256.12 470.532L216.771 478.428C196.177 482.618 175.274 487.88 154.618 491.406C153.375 490.876 153.067 490.926 152.444 489.753L152.928 488.831C158.519 485.169 260.38 468.135 276.907 465.741Z"/>
	<path fill="#1A1A1A" d="M279.34 481.051L280.069 481.061C276.531 483.822 259.584 489.013 254.003 491.036C222.856 502.328 191.612 513.133 160.295 523.935C159.178 523.436 159.557 523.84 159.107 522.775C160.065 521.112 161.869 520.272 163.569 519.508C174.461 514.614 188.827 510.72 200.444 506.826Q239.704 493.364 279.34 481.051Z"/>
	<path fill="#1A1A1A" d="M366.19 772.314C370.268 776.537 373.768 783.407 374.065 789.277C374.412 796.137 371.23 801.133 366.855 806.025C367.084 800.719 367.778 795.268 366.124 790.141C362.598 790.198 364.892 802.598 362.989 804.539C362.478 804.309 362.394 804.307 361.904 803.878C359.514 801.783 358.203 797.167 357.881 794.128C356.972 785.554 361.202 778.754 366.19 772.314Z"/>
	<path fill="#1A1A1A" d="M271.466 656.763C272.13 657.093 271.913 656.936 272.575 657.537C278.531 662.938 283.102 674.701 283.643 682.639C284.351 693.035 280.223 700.883 273.512 708.458C274.284 699.217 274.435 690.226 271.66 681.287L270.871 681.86C268.14 689.716 268.996 700.469 269.027 708.779C264.21 702.663 259.966 695.363 259.132 687.48C257.889 675.719 264.543 665.592 271.466 656.763Z"/>
	<path fill="#1A1A1A" d="M401.211 787.634C408.819 786.941 415.367 787.698 422.409 790.825C415.429 798.357 407.444 807.294 399.937 814.109C391.553 821.72 382.373 825.757 370.983 825.263C375.871 818.038 380.953 811.297 387.357 805.343C392.187 801.034 397.411 798.086 403.164 795.187C401.064 795.576 398.946 795.956 396.893 796.548C383.336 800.459 374.369 809.491 367.728 821.566C369.474 815.371 371.046 809.398 374.779 804.047C381.26 794.76 390.185 789.522 401.211 787.634Z"/>
	<path fill="#1A1A1A" d="M319.643 788.577C327.827 787.854 335.338 788.861 342.466 793.14C353.157 799.558 359.13 809.906 362.04 821.765C360.346 820.038 359.122 817.777 357.721 815.807C349.044 803.6 338.925 797.915 324.232 795.451C327.931 797.033 331.484 798.717 335.018 800.641Q337.821 802.425 340.42 804.496Q343.018 806.567 345.383 808.901C348.136 811.58 356.978 821.437 357.045 824.985C356.414 825.221 356.248 825.315 355.49 825.413C343.156 827.012 330.635 817.54 322.654 809.29C319.481 806.009 316.71 802.211 313.367 799.12C311.244 797.157 308.732 795.505 306.379 793.829C310.758 791.32 314.729 789.722 319.643 788.577Z"/>
	<path fill="#1A1A1A" d="M748.219 245.597C749.526 245.415 750.912 245.268 752.181 245.737C753.522 246.233 754.65 247.141 755.085 248.559C755.501 249.916 755.123 251.469 754.359 252.631C753.534 253.885 752.093 254.936 750.695 255.461C743.896 258.012 732.608 259.892 725.112 261.694C726.566 266.63 728.057 271.516 729.791 276.364C735.348 275.092 740.704 273.261 746.372 272.448Q748.68 280.346 751.271 288.155C736.245 292.714 721.122 296.341 705.95 300.323Q704.462 294.913 702.553 289.636L700.787 285.478C706.694 283.13 712.986 281.219 719.13 279.595Q717.266 272.036 715.231 264.522L685.861 270.943C684.135 269.397 682.284 267.609 680.855 265.789C680.114 264.845 679.625 264.248 679.806 263.02L680.347 263.388L680.571 262.413C686.243 259.155 699.964 257.123 706.813 255.493Q727.484 250.411 748.219 245.597Z"/>
	<path fill="#1A1A1A" d="M188.554 673.203C205.534 671.19 223.398 677.059 237.438 686.329C254.476 697.579 260.004 711.508 263.963 730.601C260.201 725.707 256.859 720.45 252.852 715.755C237.048 697.235 212.913 686.355 188.846 684.553Q194.949 686.325 200.86 688.658Q206.771 690.991 212.439 693.865C230.088 703.246 249.316 720.798 259.128 738.26Q257.205 738.727 255.252 739.04Q252.165 739.492 249.049 739.637Q245.933 739.782 242.818 739.618Q239.702 739.454 236.619 738.982Q233.535 738.51 230.513 737.736C206.282 731.536 194.034 712.698 177.218 696.08C171.778 690.704 165.854 686.174 159.731 681.628C168.001 675.901 178.732 674.051 188.554 673.203Z"/>
	<path fill="#1A1A1A" d="M343.785 672.701C357.142 670.678 373.896 674.287 385.912 680.071C380.023 685.462 373.232 689.741 367.388 695.346C355.857 706.406 346.164 720.307 332.689 729.07C318.078 738.572 300.935 741.983 283.843 738.433C293.056 722.481 309.429 707.298 324.66 697.466C330.891 693.532 338.023 690.262 345.019 687.952C348.448 686.82 353.985 686.354 356.885 684.46L356.36 684.082C350.655 684.345 345.076 685.39 339.518 686.662C312.687 692.802 292.578 708.762 278.056 731.859C280.452 719.182 284.372 707.484 292.737 697.443C305.073 682.634 324.984 674.494 343.785 672.701Z"/>
	<path fill="#1A1A1A" d="M713.366 897.675C715.162 899.836 716.682 902.742 718.994 904.385C721.11 905.888 723.118 905.521 725.5 905.069C724.248 909.921 722.918 914.685 721.342 919.445C706.97 926.361 698.317 923.87 688.281 938.729C673.861 943.285 659.647 948.241 645.05 952.252Q635.557 954.851 625.953 957.002Q616.348 959.153 606.654 960.853Q596.96 962.552 587.196 963.796Q577.433 965.04 567.622 965.826L556.26 966.615C557.478 957.942 557.032 949.771 556.105 941.114C568.523 939.858 580.799 939.09 593.167 937.169C631.795 931.169 679.195 916.945 713.366 897.675Z"/>
	<path fill="#1A1A1A" d="M798.785 874.434C800.94 874.998 819.407 907.644 822.357 912.291C815.705 914.744 809.251 918.645 802.953 921.895C785.788 930.756 768.229 940.905 749.932 947.231C739.865 950.712 728.808 953.295 718.219 954.532C713.688 955.061 708.831 954.366 704.418 955.475L703.976 956.42C704.066 956.556 704.127 956.715 704.245 956.827C705.197 957.726 706.495 958.123 707.772 958.164C713.245 958.341 719 957.46 724.404 956.634C753.78 952.144 776.745 939.785 802.614 926.156C809.674 922.437 818.857 918.92 824.541 913.405C826.417 915.866 828.009 918.641 829.671 921.257C830.528 922.699 831.246 924.238 832 925.737C825.436 929.702 802.649 942.085 796.07 942.641C794.681 941.911 794.173 940.684 793.443 939.369C786.971 943.261 780.17 946.551 773.343 949.764C771.879 954.065 768.921 955.451 765.041 957.328C761.801 958.895 754.434 962.671 750.868 961.434L750.658 960.086L749.906 959.636C746.178 960.237 745.774 961.676 743.219 964.084C737.378 965.816 728.111 968.485 722.176 966.657C720.916 966.269 719.79 965.896 718.457 965.917C716.622 965.947 716.143 966.755 715.034 967.97C710.653 968.758 705.504 968.925 701.3 967.27C698.354 966.111 696.15 964.012 694.973 961.058C692.863 955.761 694.063 946.029 696.567 940.936C701.279 931.355 718.41 929.299 727.766 926.202C729.409 918.481 731.668 910.913 733.894 903.345C741.445 901.039 748.912 897.734 756.21 894.729C770.522 888.838 785.689 882.741 798.785 874.434Z"/>
	<path fill="#1A1A1A" d="M479.006 891.19C502.498 897.939 525.772 900.734 550.094 902.085C548.661 917.05 548.851 932.432 548.462 947.462C532.893 947.569 517.034 946.737 501.509 947.719C486.998 948.638 473.621 951.833 458.867 950.751Q447.105 949.894 435.658 947.06C431.173 945.906 422.298 941.544 418.149 942.405C418.556 942.832 418.591 942.899 419.147 943.301C423.026 946.101 428.034 947.593 432.54 949.014C453.5 955.621 470.984 955.41 492.399 952.639C511.462 949.994 531.417 950.786 550.623 951.261L550.413 964.531C536.966 966.306 520.638 964.393 506.601 965.258L502.813 961.488C497.521 961.475 490.59 960.839 485.795 963.254C477.731 967.316 440.547 962.112 431.475 959.694C426.18 958.283 412.617 954.337 410.064 949.38C408.007 945.383 409.624 938.795 411.126 934.725C417.1 918.53 426.039 923.187 439.332 922.501C444.35 922.242 449.412 920.676 453.949 918.579C466.168 912.933 474.401 903.735 479.006 891.19Z"/>
	<path fill="#1A1A1A" d="M613.751 718.888C651.764 734.337 692.643 740.941 733.473 742.042C740.625 754.18 746.765 767.025 753.08 779.616C763.152 799.697 772.976 819.748 782.188 840.243L787.266 836.567C793.073 846.202 798.001 856.162 803.08 866.183C795.886 871.08 788.489 875.121 780.733 879.043C762.48 887.877 743.417 896.661 723.527 901.108C720.105 896.47 712.142 882.867 711.758 877.231C712.561 875.785 714.153 875.221 715.565 874.486C712.953 869.347 709.482 864.504 706.291 859.708Q695.957 844.399 685.341 829.285Q659.316 791.952 634.698 753.677C627.417 742.464 618.943 731.264 613.751 718.888Z"/>
	<path fill="#FEFEFE" d="M650.308 750.436C655.018 752.278 669.581 763.937 674.751 767.567C693.247 780.551 712.229 792.995 730.469 806.312Q730.673 813.96 730.585 821.611C721.178 812.182 710.33 803.711 700.22 795.021C683.249 780.433 666.576 765.814 650.308 750.436Z"/>
	<path fill="#1A1A1A" d="M519.805 667.263C525.529 670.822 530.517 676.168 536.228 679.956Q543.884 685.127 551.806 689.88Q559.728 694.633 567.894 698.954Q576.059 703.275 584.445 707.152Q592.831 711.029 601.412 714.451Q597.377 724.992 594.445 735.891C590.555 750.696 563.238 869.353 563.894 872.875C564.886 873.271 564.523 873.203 565.484 873.325C565.691 873.351 565.9 873.368 566.109 873.39L566.723 874.453C566.574 877.122 563.402 894.814 562.459 895.934C561.302 897.307 559.285 897.189 557.621 897.323C534.987 898.999 493.205 893.225 473.065 883.215C473.899 873.396 476.146 863.506 477.504 853.719C479.721 853.916 481.905 854.32 484.098 854.689C489.744 830.298 493.926 805.547 498.596 780.955L519.805 667.263Z"/>
	<path fill="#FEFEFE" d="M522.74 698.475C524.138 703.468 523.821 709.834 524.102 715.017Q524.785 727.41 525.621 739.793L530.123 811.312C530.77 821.678 531.935 832.047 532.294 842.424L531.753 842.976L529.497 842.75C525.854 841.839 522.082 841.293 518.384 840.632L519.787 773.225C520.151 749.349 520.107 721.987 522.74 698.475Z"/>
	<path fill="#1A1A1A" d="M634.976 397.8C638.543 401.349 641.306 405.966 644.872 409.648C660.813 426.106 681.544 443.304 703.37 450.929C709.877 485.3 710.702 522.706 706.559 557.453C706.01 562.058 705.189 566.75 704.085 571.254C702.799 576.495 700.826 581.865 700.68 587.288C700.357 599.301 701.805 611.845 702.298 623.885Q703.9 660.166 704.025 696.482C710.774 703.836 716.031 712.747 721.946 720.783C683.208 719.917 645.474 708.741 609.602 694.939Q634.569 647.539 658.057 599.388C670.465 573.599 683.1 547.302 691.13 519.767C692.329 515.654 694.215 510.855 694.383 506.578C692.743 508.416 691.648 513.785 690.708 516.404Q686.362 528.664 680.976 540.503C668.216 568.153 653.332 594.592 638.131 620.949C628.495 637.658 619.189 654.53 607.893 670.205C601.518 663.407 596.633 655.069 590.892 647.718C597.169 662.728 604.317 676.81 603.839 693.399C594.431 688.374 584.701 683.948 575.28 678.939C557.572 669.524 540.772 658.543 525.775 645.22Q544.105 597.461 564.141 550.392L582.18 509.907C585.453 502.602 589.132 495.272 591.858 487.75C584.748 497.766 578.498 508.235 572.216 518.771C571.123 512.004 571.001 504.907 570.469 498.065L567.31 457.75C580.29 455.316 601.426 451.198 612.757 444.81C625.432 437.663 631.346 411.153 634.976 397.8Z"/>
	<path fill="#1A1A1A" d="M503.604 54.7208C527.834 54.1605 552.817 55.7295 576.811 59.1351Q582.312 59.9028 587.792 60.8045Q593.273 61.7062 598.729 62.7413Q604.186 63.7765 609.616 64.9445Q615.046 66.1125 620.446 67.4127Q625.846 68.7129 631.212 70.1444Q636.578 71.576 641.908 73.1381Q647.238 74.7002 652.529 76.3919Q657.819 78.0836 663.066 79.9039Q668.313 81.7242 673.515 83.672Q678.716 85.6199 683.869 87.694Q689.021 89.7682 694.121 91.9675Q699.221 94.1668 704.266 96.4899Q709.311 98.8129 714.298 101.258Q719.284 103.704 724.21 106.27Q729.135 108.837 733.997 111.523Q738.858 114.209 743.653 117.013Q748.447 119.816 753.172 122.736Q757.897 125.656 762.549 128.69Q767.201 131.725 771.777 134.872Q776.354 138.019 780.852 141.276Q785.35 144.534 789.768 147.901Q794.186 151.267 798.52 154.741Q802.854 158.214 807.102 161.792Q811.35 165.37 815.509 169.051Q819.668 172.731 823.737 176.512Q827.805 180.294 831.78 184.173Q835.755 188.052 839.634 192.027Q843.513 196.002 847.294 200.071Q851.075 204.139 854.755 208.299Q858.436 212.458 862.014 216.707Q865.591 220.955 869.065 225.289Q872.538 229.623 875.904 234.041Q879.376 238.611 882.733 243.266Q886.09 247.921 889.33 252.659Q892.57 257.396 895.691 262.213Q898.812 267.029 901.812 271.922Q904.812 276.815 907.689 281.781Q910.566 286.747 913.319 291.783Q916.072 296.82 918.698 301.923Q921.324 307.026 923.822 312.193Q926.32 317.36 928.689 322.588Q931.058 327.816 933.295 333.101Q935.533 338.386 937.638 343.726Q939.744 349.065 941.715 354.455Q943.687 359.845 945.524 365.283Q947.36 370.72 949.061 376.202Q950.762 381.683 952.325 387.205Q953.889 392.728 955.315 398.287Q956.74 403.847 958.027 409.44Q959.313 415.033 960.46 420.657Q961.607 426.281 962.613 431.931Q963.619 437.582 964.484 443.255Q965.35 448.929 966.073 454.623Q966.797 460.316 967.378 466.026Q967.96 471.736 968.399 477.458Q968.838 483.181 969.134 488.913Q969.43 494.644 969.584 500.382Q969.737 506.119 969.747 511.858Q969.758 517.598 969.625 523.335Q969.493 529.073 969.217 534.806Q968.942 540.539 968.523 546.263Q968.105 551.987 967.544 557.699Q966.983 563.411 966.281 569.107Q965.578 574.803 964.733 580.48Q964.109 584.658 963.406 588.824Q962.703 592.99 961.922 597.142Q961.142 601.294 960.284 605.431Q959.425 609.568 958.489 613.688Q957.554 617.807 956.541 621.909Q955.528 626.011 954.439 630.092Q953.349 634.174 952.183 638.235Q951.018 642.296 949.776 646.334Q948.534 650.372 947.217 654.386Q945.9 658.401 944.508 662.389Q943.116 666.378 941.649 670.34Q940.182 674.302 938.641 678.236Q937.101 682.17 935.487 686.074Q933.872 689.979 932.185 693.852Q930.498 697.725 928.739 701.566Q926.979 705.407 925.148 709.214Q923.317 713.022 921.415 716.794Q919.513 720.567 917.541 724.303Q915.568 728.039 913.526 731.737Q911.484 735.436 909.373 739.095Q907.262 742.755 905.082 746.374Q902.903 749.993 900.656 753.571Q898.41 757.149 896.096 760.684Q893.783 764.219 891.403 767.71Q889.024 771.201 886.58 774.647Q884.135 778.093 881.627 781.492Q879.118 784.892 876.547 788.244Q873.975 791.596 871.341 794.899Q868.707 798.202 866.011 801.455Q863.316 804.708 860.559 807.91Q857.803 811.112 854.988 814.262Q852.172 817.412 849.298 820.508C836.488 834.383 822.903 848.493 807.765 859.867L795.084 837.183C806.991 829.631 832.099 802.118 842.037 790.723Q845.441 786.781 848.748 782.755Q852.055 778.73 855.261 774.625Q858.468 770.52 861.572 766.338Q864.677 762.155 867.678 757.897Q870.679 753.639 873.574 749.309Q876.469 744.979 879.257 740.579Q882.045 736.178 884.724 731.711Q887.403 727.244 889.971 722.712Q892.539 718.18 894.995 713.586Q897.451 708.992 899.794 704.34Q902.136 699.687 904.363 694.978Q906.59 690.269 908.701 685.507Q910.812 680.745 912.805 675.932Q914.798 671.119 916.672 666.259Q918.546 661.399 920.3 656.494Q922.054 651.589 923.686 646.643Q925.319 641.696 926.83 636.711Q928.341 631.726 929.728 626.705Q931.116 621.684 932.38 616.631Q933.643 611.577 934.783 606.494Q935.922 601.411 936.935 596.302Q937.949 591.193 938.837 586.06Q939.725 580.927 940.486 575.774Q941.248 570.621 941.882 565.451Q942.516 560.28 943.023 555.096Q943.531 549.912 943.91 544.716Q944.29 539.521 944.541 534.318Q944.793 529.115 944.916 523.908Q945.04 518.7 945.035 513.491Q945.031 508.282 944.898 503.075Q944.766 497.868 944.505 492.665Q944.244 487.463 943.856 482.268Q943.474 476.975 942.962 471.693Q942.451 466.411 941.811 461.142Q941.171 455.874 940.403 450.623Q939.635 445.372 938.739 440.142Q937.843 434.911 936.819 429.704Q935.796 424.496 934.646 419.316Q933.495 414.135 932.219 408.984Q930.943 403.832 929.542 398.714Q928.14 393.595 926.614 388.513Q925.089 383.43 923.439 378.386Q921.79 373.342 920.018 368.339Q918.246 363.337 916.353 358.379Q914.459 353.422 912.445 348.512Q910.432 343.602 908.299 338.742Q906.166 333.883 903.915 329.077Q901.664 324.271 899.297 319.522Q896.929 314.772 894.447 310.082Q891.964 305.391 889.368 300.763Q886.772 296.134 884.064 291.57Q881.355 287.007 878.537 282.51Q875.718 278.014 872.79 273.588Q869.862 269.161 866.828 264.808Q863.793 260.454 860.653 256.176Q857.513 251.898 854.269 247.697Q851.026 243.497 847.681 239.377Q844.336 235.257 840.892 231.22Q837.447 227.183 833.905 223.231Q830.363 219.279 826.726 215.414Q823.089 211.55 819.359 207.775Q815.628 204.001 811.807 200.318Q807.986 196.636 804.076 193.048Q800.165 189.46 796.169 185.968Q792.167 182.504 788.081 179.139Q783.995 175.774 779.828 172.51Q775.661 169.246 771.415 166.085Q767.169 162.924 762.847 159.868Q758.525 156.812 754.129 153.863Q749.734 150.914 745.267 148.074Q740.8 145.233 736.266 142.503Q731.731 139.773 727.13 137.155Q722.53 134.537 717.867 132.032Q713.203 129.528 708.48 127.138Q703.757 124.749 698.977 122.475Q694.196 120.202 689.362 118.047Q684.527 115.892 679.641 113.856Q674.755 111.82 669.821 109.904Q664.886 107.988 659.907 106.194Q654.927 104.4 649.904 102.728Q644.882 101.056 639.82 99.5081Q634.758 97.96 629.66 96.5364Q624.562 95.1128 619.43 93.8146Q614.299 92.5164 609.137 91.3444Q603.975 90.1723 598.786 89.1271Q593.597 88.0819 588.384 87.1642Q583.171 86.2465 577.937 85.4568Q572.703 84.6672 567.451 84.006Q562.199 83.3448 556.933 82.8126Q551.666 82.2803 546.388 81.8773Q541.11 81.4743 535.824 81.2007Q530.538 80.9272 525.247 80.7832Q519.956 80.6393 514.662 80.6251Q509.369 80.6109 504.077 80.7264Q498.785 80.8419 493.498 81.0871Q488.21 81.3323 482.93 81.707Q479.042 81.9816 475.159 82.326Q471.276 82.6703 467.4 83.0844Q463.524 83.4984 459.657 83.982Q455.789 84.4656 451.93 85.0186Q448.072 85.5716 444.224 86.1938Q440.376 86.8161 436.539 87.5073Q432.703 88.1985 428.88 88.9585Q425.057 89.7186 421.248 90.5471Q417.439 91.3757 413.646 92.2725Q409.852 93.1694 406.076 94.1342Q402.299 95.099 398.54 96.1316Q394.782 97.1641 391.042 98.2639Q387.302 99.3638 383.583 100.531Q379.864 101.697 376.166 102.931Q372.469 104.164 368.794 105.464Q365.119 106.764 361.468 108.129Q357.817 109.495 354.191 110.926Q350.565 112.356 346.966 113.852Q343.366 115.348 339.794 116.908Q336.222 118.468 332.678 120.092Q329.135 121.716 325.621 123.404Q322.107 125.091 318.624 126.841Q315.141 128.592 311.69 130.404Q308.239 132.217 304.822 134.091Q301.404 135.965 298.02 137.9Q294.637 139.836 291.288 141.832Q287.94 143.827 284.628 145.883Q281.316 147.939 278.042 150.053Q274.767 152.168 271.531 154.341Q268.296 156.515 265.099 158.746Q261.903 160.977 258.747 163.265Q255.591 165.553 252.477 167.897C229.855 184.699 208.023 203.827 189.538 225.148C157.655 259.273 131.928 301.13 113.457 343.935C94.4986 387.871 84.9766 433.919 81.6788 481.505C81.4009 485.515 79.7065 497.288 80.9884 500.523L83.8113 501.297C84.6189 502.264 84.5794 502.237 84.5503 503.503C83.6896 504.833 82.0954 505.255 80.6936 505.852C80.7224 509.546 79.7644 520.488 81.9797 523.014C82.51 522.802 83.4267 522.346 84.0275 522.279C85.4213 522.122 85.8173 522.598 86.8798 523.374C87.3304 524.568 87.3123 524.616 86.9575 525.846C85.4371 527.035 83.2072 526.78 81.3396 527.018C80.2643 531.436 81.751 544.589 82.1404 549.659Q82.7728 558.638 83.8035 567.579Q84.8342 576.521 86.2612 585.408Q87.6882 594.295 89.5086 603.11Q91.329 611.925 93.5393 620.65Q95.7495 629.376 98.3453 637.994Q100.941 646.613 103.917 655.107Q106.893 663.602 110.244 671.956Q113.595 680.31 117.313 688.507Q120.594 695.876 124.169 703.107Q127.743 710.339 131.606 717.42Q135.469 724.502 139.613 731.422Q143.757 738.343 148.176 745.091Q152.596 751.84 157.283 758.405Q161.97 764.97 166.917 771.341Q171.865 777.713 177.064 783.88Q182.264 790.047 187.707 796C197.286 806.371 207.773 816.754 219.436 824.773C232.498 833.753 246.631 839.699 261.414 845.191C263.048 815.25 265.483 784.953 268.96 755.172C269.766 748.27 269.895 739.596 272.315 733.119Q279.367 793.147 280.671 853.573C307.17 861.826 333.508 874.742 356.619 890.044C358.213 868.763 361.19 847.716 363.48 826.518C367.327 850.326 368.233 875.027 369.748 899.091C380.98 907.814 401.158 915.231 414.871 918.595C412.339 920.46 410.277 922.266 408.449 924.855C404.238 930.819 401.381 940.679 402.847 947.898C403.924 953.198 406.859 955.897 411.089 958.8Q407.444 957.929 403.814 957.001Q400.184 956.072 396.569 955.086Q392.954 954.1 389.355 953.056Q385.757 952.012 382.175 950.911Q378.593 949.81 375.03 948.652Q371.466 947.494 367.921 946.279Q364.377 945.064 360.852 943.793Q357.327 942.522 353.822 941.195Q350.318 939.868 346.836 938.485Q343.353 937.103 339.893 935.665Q336.433 934.227 332.996 932.734Q329.559 931.241 326.147 929.693Q322.734 928.145 319.347 926.544Q315.959 924.942 312.598 923.286Q309.236 921.63 305.901 919.922Q302.567 918.212 299.26 916.451Q295.953 914.689 292.674 912.874Q289.396 911.06 286.147 909.193Q282.897 907.327 279.678 905.409Q276.459 903.491 273.271 901.522Q270.083 899.553 266.927 897.533Q263.771 895.514 260.647 893.444Q257.524 891.374 254.433 889.255Q251.343 887.136 248.287 884.968Q245.231 882.799 242.21 880.583Q239.189 878.366 236.203 876.102Q233.218 873.837 230.269 871.526Q227.32 869.214 224.408 866.855Q221.497 864.497 218.623 862.092Q215.749 859.688 212.914 857.237Q210.079 854.787 207.283 852.292Q204.488 849.797 201.732 847.258Q197.658 843.531 193.676 839.706Q189.694 835.881 185.807 831.96Q181.92 828.039 178.129 824.024Q174.339 820.009 170.648 815.903Q166.957 811.796 163.367 807.601Q159.778 803.406 156.292 799.124Q152.806 794.842 149.425 790.476Q146.045 786.111 142.772 781.664Q139.499 777.217 136.336 772.691Q133.173 768.166 130.122 763.564Q127.07 758.963 124.132 754.288Q121.194 749.613 118.37 744.868Q115.547 740.123 112.841 735.31Q110.135 730.498 107.547 725.62Q104.959 720.743 102.491 715.804Q100.023 710.865 97.6759 705.867Q95.3293 700.869 93.1055 695.815Q90.8817 690.761 88.782 685.654Q86.6824 680.548 84.7081 675.391Q82.7338 670.235 80.8861 665.032Q79.0384 659.829 77.3184 654.582Q75.5984 649.336 74.007 644.048Q72.4157 638.761 70.954 633.437Q69.4924 628.112 68.1612 622.754Q66.8301 617.395 65.6303 612.006Q64.4304 606.616 63.3627 601.199Q62.2949 595.782 61.3597 590.34Q60.4246 584.899 59.6228 579.436Q58.8209 573.973 58.1527 568.492Q57.4845 563.011 56.9505 557.516Q56.4164 552.02 56.0168 546.513Q55.6172 541.006 55.3522 535.491C54.7108 519.906 54.3961 504.227 55.1743 488.641Q55.41 483.687 55.7543 478.739Q56.0985 473.79 56.5512 468.851Q57.0038 463.912 57.5646 458.984Q58.1255 454.055 58.7942 449.141Q59.4629 444.226 60.2392 439.327Q61.0155 434.428 61.8991 429.547Q62.7826 424.667 63.7729 419.807Q64.7632 414.946 65.8598 410.109Q66.9565 405.272 68.1589 400.46Q69.3613 395.648 70.6689 390.863Q71.9765 386.079 73.3887 381.324Q74.8009 376.569 76.3169 371.847Q77.833 367.124 79.4523 362.436Q81.0715 357.747 82.7932 353.096Q84.5148 348.444 86.338 343.831Q88.1613 339.219 90.0851 334.647Q92.009 330.075 94.0327 325.547Q96.0564 321.018 98.1788 316.535Q100.301 312.052 102.521 307.617Q104.742 303.182 107.059 298.796Q109.376 294.411 111.788 290.077Q114.201 285.743 116.707 281.463Q119.214 277.183 121.815 272.959Q124.415 268.736 127.107 264.57Q129.799 260.404 132.582 256.298Q135.365 252.192 138.237 248.148Q141.109 244.105 144.069 240.125Q147.029 236.145 150.076 232.231Q153.123 228.317 156.254 224.471Q159.386 220.624 162.601 216.848Q165.817 213.071 169.114 209.365Q172.411 205.66 175.789 202.028C260.998 109.828 378.975 59.6822 503.604 54.7208Z"/>
	<path fill="#1A1A1A" d="M569.59 97.4999C569.748 97.4943 569.905 97.4835 570.063 97.483C577.947 97.4575 573.908 101.697 575.444 103.455C575.465 103.479 584.633 105.816 585.86 106.238C593.798 108.965 600.811 112.782 606.719 118.804C619.086 131.41 622.617 147.943 622.497 165.031C604.279 161.853 585.705 156.384 568.048 150.913C555.155 146.918 542.126 142.085 528.651 140.479C526.552 140.229 524.341 139.99 522.247 140.363C513.379 141.947 485.731 152.859 479.089 158.541C478.03 159.448 477.302 160.749 477.326 162.178C477.348 163.437 478.02 164.409 478.929 165.212C487.564 172.831 508.258 172.784 518.896 171.892C520.274 170.073 521.824 168.515 523.429 166.904C511.107 166.888 498.601 167.28 486.786 163.243C487.021 163.124 487.255 163.002 487.493 162.887C497.612 157.992 538.601 148.301 549.949 149.307C555.454 149.795 561.316 152.461 566.515 154.277C557.831 163.957 549.901 174.505 541.783 184.671C536.047 185.728 523.36 185.854 519.445 190.317C519.408 191.166 519.179 191.55 519.862 192.239C521.439 193.83 533.655 189.803 536.259 189.368C538.86 188.933 541.567 188.851 544.199 188.711Q557.798 172.102 570.834 155.048C581.712 158.908 593.551 161.409 604.71 164.415C599.483 170.682 566.586 205.634 565.833 208.849C565.54 210.098 565.525 210.627 566.159 211.736C567.245 211.608 567.631 211.492 568.518 210.775C572.9 207.232 576.811 202.086 580.68 197.907C590.366 187.448 600.291 177.009 609.266 165.927L618.598 167.782Q616.338 172.745 613.891 177.619C615.996 185.718 618.777 193.704 621.082 201.762C607.194 208.965 594.135 218.155 584.145 230.353C590.86 225.894 597.271 221.08 604.167 216.879C610.979 212.728 618.145 209.282 625.094 205.379Q626.846 206.337 628.568 207.35Q630.289 208.363 631.977 209.429Q633.666 210.496 635.319 211.615Q636.973 212.735 638.591 213.906Q640.209 215.077 641.789 216.298Q643.369 217.519 644.91 218.79Q646.451 220.061 647.951 221.379Q649.45 222.698 650.908 224.063Q652.366 225.428 653.779 226.839Q655.193 228.249 656.562 229.704Q657.93 231.158 659.252 232.655Q660.574 234.152 661.849 235.69Q663.123 237.228 664.348 238.805Q665.573 240.382 666.747 241.997Q667.922 243.612 669.045 245.264Q670.169 246.915 671.239 248.601C673.939 252.869 676.58 257.083 678.127 261.923C675.344 259.151 672.825 256.137 669.967 253.426C650.326 234.787 632.182 228.001 605.405 228.763C614.938 225.115 626.451 223.176 636.543 225.131C640.429 225.884 645.361 227.579 649.307 227.192C648.973 226.36 648.524 226.14 647.771 225.691C637.193 219.393 622.478 219.699 611.002 222.984C606.614 224.24 602.358 226.59 598.379 228.778C586.6 235.254 576.09 242.491 569.47 254.594C568.725 255.957 567.745 257.5 568.19 259.034C571.825 258.5 576.363 252.365 579.257 249.942C590.074 240.883 605.464 235.354 619.618 236.731C645.574 239.255 672.691 265.839 687.461 286.368C692.379 293.205 695.919 301.242 701.277 307.696L701.65 307.459L702.278 307.073C703.633 306.227 705.001 305.336 706.478 304.71C710.764 302.894 715.778 302.318 720.269 301.045L747.507 293.229C752.782 291.732 758.323 289.75 763.782 289.141C766.962 288.786 770.235 288.971 773.232 290.165C778.416 292.229 782.902 296.292 784.985 301.502C788.348 309.913 790.28 319.558 792.584 328.328L806.46 382.686L820.729 439.378C822.471 446.141 825.208 452.797 826.436 459.662C827.046 463.066 827.185 466.284 825.644 469.483C824.436 471.992 822.524 474.025 820.043 475.296C812.985 478.911 803.607 480.464 795.935 482.581Q780.154 486.833 764.681 492.099C756.345 494.909 748.654 497.129 740.283 492.768C737.02 491.067 733.076 488.139 731.494 484.703C727.631 476.313 722.795 450.75 720.391 440.525Q713.509 411.658 706.334 382.862C702.59 367.674 699.049 352.327 694.463 337.369Q694.503 347.249 694.072 357.119Q693.641 366.99 692.739 376.828Q691.837 386.667 690.467 396.451Q689.097 406.235 687.261 415.943C671.901 405.997 653.236 386.482 642.864 371.422C647.572 352.497 652.182 325.503 648.084 306.398C647.453 307.343 646.215 323.03 645.87 325.554C644.428 336.085 642.964 346.757 640.729 357.153C639.38 363.426 637.528 369.583 636.075 375.833C648.5 395.155 684.21 427.572 706.112 434.596L706.38 443.646C681.993 436.964 648.092 408.597 633.4 387.419C628.133 401.296 625.224 416.01 619.233 429.636C617.86 432.761 616.275 436.054 613.426 438.085C608.277 441.754 600.69 443.624 594.628 445.467C565.858 454.216 536.028 458.941 506.418 463.842C494.338 465.841 481.952 467.376 470.032 470.153C465.097 471.302 460.595 473.903 455.968 475.892C452.01 477.594 447.853 478.926 443.833 480.491C446.489 512.2 456.091 544.628 468.509 573.794C473.194 584.276 478.855 594.618 485.021 604.303C492.292 615.726 500.17 626.766 509.507 636.603C548.156 677.326 609.685 705.505 663.922 717.545C719.732 729.934 784.256 732.804 834.336 700.726C864.668 681.298 882.562 651.669 890.084 616.888C897.994 580.319 896.058 518.347 875.24 486.433C866.525 473.073 855.925 465.005 840.314 461.758C839.423 458.304 838.675 454.902 838.121 451.379C848.781 451.53 859.287 455.536 867.709 461.991C891.68 480.365 899.435 512.348 903.193 540.798C909.46 588.242 903.543 640.34 873.566 679.195C849.432 710.477 811.221 729.363 772.444 734.451C688.266 745.497 591.7 717.028 524.724 665.513C483.801 634.037 455.285 581.821 442.167 532.57C437.916 516.611 435.49 500.515 433.352 484.181C431.765 483.635 430.571 483.673 429.371 482.308C427.325 479.981 425.127 480.035 422.446 478.748C420.969 478.039 420.458 477.299 419.935 475.787C420.129 474.271 420.556 473.548 421.457 472.315C421.558 472.177 421.661 472.042 421.764 471.905C420.829 470.961 418.072 471.509 416.684 470.931C415.244 470.331 413.53 469.455 412.924 467.95C413.312 466.488 413.757 465.35 413.198 463.865C411.371 464.26 409.588 464.481 407.712 464.336C405.91 464.197 403.978 463.438 402.889 461.928C401.755 460.357 401.81 458.599 402.017 456.777C406.075 452.503 417.691 450.001 423.437 446.903C423.634 446.797 423.828 446.686 424.024 446.577C423.313 445.652 422.57 444.72 421.955 443.729C421.292 442.662 421.016 441.338 421.402 440.118C421.843 438.722 422.971 437.657 424.188 436.915C432.704 431.72 448.832 432.703 458.151 435.073C460.04 434.32 462.084 433.823 464.033 433.238C455.505 429.032 444.705 428.624 435.431 429.969C430.054 430.748 422.185 432.416 418.921 437.125C417.748 438.818 417.383 440.396 417.831 442.403C418.059 443.424 418.209 444.269 418.221 445.329C412.208 448.026 377.21 457.585 372.496 456.183C370.948 454.811 370.367 452.882 369.589 451.013L339.546 459.88C334.075 461.453 327.874 462.646 322.707 464.939C320.711 465.825 319.418 466.868 318.107 468.603C317.175 469.837 316.581 470.103 315.199 470.586C311.394 471.918 304.206 475.056 300.445 472.786C298.71 471.739 297.603 469.684 297.083 467.782C296.625 466.105 296.671 463.676 297.691 462.188C299.55 459.474 309.58 455.733 313.083 455.387C314.29 455.268 314.718 455.996 315.624 456.717C320.792 456.484 327.343 453.706 332.376 452.246Q349.96 447.254 367.449 441.94C367.47 440.605 367.333 438.806 367.866 437.568C368.51 436.072 370.363 435.426 371.776 434.92C375.933 433.432 380.453 432.521 384.718 431.358L410.397 424.253L485.667 403.204L533.171 390.79C543.045 388.271 553.045 386.051 562.765 382.977C562.763 376.173 564.15 364.38 561.806 358.301C559.943 353.472 556.747 349.231 555.11 344.261C546.774 318.955 549.919 294.279 561.853 270.75C558.603 265.693 556.378 261.497 555.141 255.591C557.326 249.92 561.853 244.084 562.629 237.981C562.731 237.181 562.812 236.378 562.922 235.577L562.297 235.296C560.24 235.832 557.987 237.852 556.191 239.02C550.291 242.858 543.805 243.993 536.957 242.511L536.143 242.331C531.264 245.462 527.083 249.642 522.195 252.733C519.007 254.749 515.55 256.179 511.768 255.168C505.362 253.455 500.189 247.448 497.126 241.802C493.638 235.374 491.006 226.132 493.346 218.947C495.263 213.061 499.848 211.036 505.006 208.557C505.412 205.368 505.864 202.265 506.616 199.136C509.298 197.531 511.915 196.409 514.849 195.357C517.717 188.969 518.254 184.958 517.586 178.031C506.32 178.395 494.486 178.602 483.85 174.337C478.67 172.26 473.158 168.827 471.038 163.412C470.417 161.825 470.299 160.307 471.076 158.741C474.762 151.305 507.968 138.856 516.275 136.452C518.697 131.036 522.387 125.417 526.176 120.858C535.993 109.047 548.132 104.229 563.101 102.803C564.588 100.133 566.926 98.827 569.59 97.4999Z"/>
	<path fill="#FEFEFE" d="M563.631 257.356C563.786 257.528 563.972 257.676 564.096 257.872C565.323 259.816 565.464 263.895 564.777 265.929C563.721 264.978 563.032 264.151 562.576 262.797C561.92 260.848 562.7 259.04 563.631 257.356Z"/>
	<path fill="#FEFEFE" d="M560.791 109.698C563.414 109.427 566.133 109.695 568.766 109.8C554.408 113.825 546.585 114.638 533.422 123.172L527.546 127.412Q528.249 126.483 528.978 125.573C537.512 114.949 547.556 111.136 560.791 109.698Z"/>
	<path fill="#FEFEFE" d="M504.048 213.063C505.711 213.178 507.394 213.281 508.994 213.785C514.798 215.616 519.302 221.021 522.129 226.216C524.988 231.472 526.637 237.438 524.736 243.324C523.308 247.744 520.54 250.394 516.453 252.385C514.95 252.5 513.657 252.34 512.244 251.822C505.61 249.391 500.938 243.142 498.178 236.867C495.884 231.653 494.417 225.23 496.696 219.779C498.191 216.206 500.572 214.498 504.048 213.063Z"/>
	<path fill="#1A1A1A" d="M506.659 219.104C507.667 219.111 508.701 219.106 509.701 219.242C512.521 219.625 515.298 222.693 516.794 224.905C519.487 228.884 521.093 234.042 520.105 238.833C519.316 242.666 517.515 244.98 514.299 247.07C512.8 246.738 511.252 246.269 509.916 245.5C504.846 242.579 501.309 236.297 500.066 230.728C499.453 227.98 499.361 224.955 500.979 222.518C502.418 220.351 504.202 219.631 506.659 219.104Z"/>
	<path fill="#FEFEFE" d="M538.474 194.184C542.219 193.906 546 194.855 549.293 196.662Q549.76 196.923 550.213 197.206Q550.667 197.489 551.106 197.793Q551.545 198.098 551.969 198.423Q552.394 198.748 552.802 199.093Q553.21 199.438 553.601 199.803Q553.992 200.167 554.365 200.55Q554.738 200.933 555.092 201.333Q555.446 201.733 555.781 202.15Q556.115 202.567 556.429 203Q556.744 203.432 557.037 203.879Q557.33 204.326 557.601 204.787Q557.872 205.247 558.121 205.72Q558.369 206.194 558.595 206.678Q558.821 207.163 559.023 207.657Q559.225 208.152 559.403 208.656Q559.581 209.16 559.735 209.672C561.146 214.5 560.701 219.616 558.248 224.032C555.468 229.036 551.182 231.757 545.84 233.359C541.954 233.982 539.144 233.844 535.342 232.686C530.479 226.619 524.54 217.418 523.313 209.6C522.783 206.226 523.283 202.564 525.406 199.796C528.571 195.671 533.64 194.802 538.474 194.184Z"/>
	<path fill="#FEFEFE" d="M737.994 313.077L738.205 313.513C732.819 316.916 726.852 320.565 723.965 326.489C722.515 329.466 722.33 332.604 722.767 335.848C723.543 341.609 725.642 347.419 727.011 353.078Q732.963 377.459 739.467 401.698C745.783 425.975 750.517 450.949 758.155 474.826L748.222 477.902C748.156 477.769 748.085 477.639 748.025 477.503C745.406 471.573 744.413 464.077 742.889 457.775L734.596 424.404L720.139 367.237C717.47 356.795 714.041 346.019 712.271 335.41C711.834 332.793 711.945 329.973 713.015 327.511C716.554 319.37 730.429 315.945 737.994 313.077Z"/>
	<path fill="#FEFEFE" d="M611.285 244.712C614.589 244.371 618.276 244.853 621.515 245.503C655.64 252.351 677.852 287.686 695.711 314.47C694.927 317.635 694.524 320.876 694.052 324.099C686.488 307.444 673.711 290.563 661.176 277.342C648.71 264.195 632.63 250.797 613.674 250.304C604.424 250.816 595.362 254.906 588.254 260.77C568.716 276.889 568.509 299.066 567.076 322.259C566.459 332.23 565.33 342.201 564.353 352.143C560.769 342.859 557.215 333.164 556.232 323.21C554.313 303.761 560.192 279.93 572.782 264.686C582.227 253.249 596.649 246.038 611.285 244.712Z"/>
	<path fill="#FEFEFE" d="M762.839 329.197C767.987 329.025 773.167 330.068 777.687 332.595Q778.247 332.915 778.79 333.262Q779.333 333.609 779.858 333.983Q780.384 334.357 780.89 334.756Q781.396 335.155 781.882 335.578Q782.368 336.002 782.832 336.449Q783.297 336.896 783.739 337.365Q784.181 337.835 784.599 338.325Q785.017 338.816 785.41 339.327Q785.804 339.837 786.171 340.367Q786.539 340.896 786.88 341.443Q787.221 341.99 787.535 342.553Q787.849 343.117 788.134 343.695Q788.42 344.272 788.676 344.864Q788.933 345.455 789.16 346.058Q789.387 346.662 789.584 347.275Q789.781 347.889 789.948 348.512Q790.124 349.2 790.266 349.896Q790.409 350.592 790.517 351.294Q790.625 351.996 790.699 352.702Q790.773 353.408 790.812 354.117Q790.852 354.827 790.856 355.537Q790.861 356.247 790.831 356.957Q790.801 357.666 790.737 358.373Q790.672 359.081 790.573 359.784Q790.475 360.487 790.342 361.185Q790.209 361.883 790.042 362.573Q789.875 363.263 789.675 363.945Q789.474 364.626 789.241 365.297Q789.008 365.968 788.742 366.626Q788.476 367.285 788.179 367.93Q787.881 368.575 787.552 369.204Q787.224 369.834 786.865 370.447C782.744 377.34 776.891 380.642 769.316 382.493C763.487 382.741 758.446 382.223 753.38 378.989C747.183 375.034 742.729 368.398 741.152 361.245C739.579 354.109 741.06 346.066 745.129 339.965C749.319 333.681 755.609 330.563 762.839 329.197Z"/>
	<path fill="#1A1A1A" d="M782.601 359.927C783.026 360.004 783.56 360.261 783.969 360.414L783.979 361.447C782.498 363.223 780.744 364.584 778.958 366.033C777.581 365.316 777.476 365.394 776.909 363.973L777.447 362.842C778.483 362.04 779.296 361.359 780.584 361.005C781.609 360.724 781.251 360.972 782.117 360.335C782.287 360.21 782.44 360.063 782.601 359.927Z"/>
	<path fill="#1A1A1A" d="M779.981 369.463L780.418 369.167C781.418 368.498 782.179 367.925 783.408 367.772C783.578 368.732 783.683 368.339 783.08 369.178C780.036 373.417 773.899 376.269 768.858 376.811C763.43 377.395 758.159 375.407 753.981 371.996C750.211 368.917 748.717 364.255 745.476 361.556L743.596 361.796C741.93 360.028 742.193 356.819 742.299 354.469C742.332 353.735 742.439 353.032 742.555 352.308C743.977 352.527 745.369 353.708 746.251 354.865C746.605 355.329 746.572 355.425 746.75 356.007L746.267 356.418C744.903 355.745 745.432 354.485 743.908 354.722C743.211 356.251 742.777 357.649 743.509 359.297C743.593 359.486 743.709 359.659 743.809 359.839C745.289 360.207 746.032 359.717 747.454 359.229C750.407 364.884 752.755 371.695 759.502 373.698C761.1 374.173 761.766 374.223 763.26 373.422C763.504 373.291 763.739 373.142 763.979 373.003C763.985 372.682 764.014 372.267 763.918 371.961C762.87 368.632 758.717 371.233 756.433 369.889C756.353 368.804 756.347 368.613 756.824 367.646C757.117 368.619 756.866 368.137 757.695 369.023L758.773 367.752C760.076 368.119 761.372 368.564 762.681 368.898C765.033 369.5 764.284 368.266 765.721 367.384C767.01 367.676 768.479 368.189 769.777 367.814C771.545 367.304 773.416 367.096 775.261 366.606C776.75 366.211 778.589 366.715 779.874 367.482L779.663 369.142L779.981 369.463Z"/>
	<path fill="#FEFEFE" d="M763.979 373.003C765.435 372.133 766.502 371.133 768.242 371.218C769.033 371.93 769.62 372.476 770.123 373.422C768.831 374.33 767.641 375.1 765.991 374.726C765.359 374.582 764.775 374.267 764.201 373.984L763.979 373.003Z"/>
	<path fill="#FEFEFE" d="M770.297 374.072C771.366 372.721 774.28 368.325 775.719 368.113C775.768 369.106 775.803 369.823 776.23 370.73L779.663 369.142L779.981 369.463C779.906 369.569 779.834 369.678 779.756 369.781C777.043 373.375 774.526 373.401 770.297 374.072Z"/>
	<path fill="#1A1A1A" d="M762.761 335.622C764.021 335.175 764.613 335.29 765.232 334.029C764.715 332.916 764.144 332.262 763.323 331.376C764.725 330.739 769.251 331.047 770.737 331.602C770.882 331.656 771.015 331.738 771.154 331.806C769.256 332.759 767.323 331.901 765.486 332.916C766.132 334.275 766.298 334.498 767.526 335.362C768.545 334.767 768.609 334.41 769.2 333.427C770.04 334.418 769.372 335.248 770.428 335.853C771.225 335.334 771.907 334.814 772.606 334.168L772.873 335.823L774.296 336.583L774.221 337.002C773.051 336.871 772.138 336.618 771.04 336.197C770.314 336.381 769.896 336.259 769.527 336.992C769.039 337.964 768.734 339.998 769.147 341.044C769.415 341.72 770.128 342.397 770.6 342.942C771.79 342.822 772.65 342.658 773.744 342.168L774.061 341.29C772.771 339.714 770.52 338.899 768.723 338.003C771.638 338.345 777.008 338.276 779.148 340.434C779.33 341.477 779.502 342.597 780.003 343.543C780.723 344.903 781.945 346.133 783.428 346.474C783.63 346.282 783.874 346.126 784.035 345.898C784.396 345.387 784.723 344.515 785.061 343.937L785.85 344.504C786.387 345.559 786.923 346.39 786.802 347.617L785.699 346.762C784.421 346.616 784.52 346.838 783.521 347.537C782.841 349.093 782.988 350.422 783.062 352.101L783.1 352.853C781.904 349.831 780.418 342.912 777.789 341.141C777.078 340.662 777.221 340.853 776.286 341.108C776.313 341.412 776.449 342.724 776.395 342.995C776.147 344.26 773.887 345.046 772.829 345.635C773.879 348.095 774.999 350.423 775.404 353.089C773.677 350.837 772.681 347.981 771.54 345.394C770.691 345.574 769.844 345.778 768.993 345.946C765.137 346.707 755.034 351.457 751.9 353.855C750.922 354.603 750.148 355.696 749.417 356.676C749.544 350.973 750.235 346.069 752.138 340.684C755.822 339.149 758.903 336.855 762.761 335.622Z"/>
	<path fill="#FEFEFE" d="M766.739 336.071C767.074 337.096 767.28 337.21 766.968 338.288C765.866 337.934 765.01 337.485 764.023 336.884C762.626 337.365 762.424 337.383 761.545 338.546C761.412 339.743 761.579 340.632 762.382 341.597C763.247 342.635 764.578 342.756 765.839 342.656C766.028 342.641 766.216 342.619 766.404 342.603C767.473 342.508 768.035 342.67 769.017 343.145C768.631 343.72 768.272 343.987 767.732 344.408C761.741 344.31 757.37 348.837 753.467 347.496C752.848 346.451 752.8 346.335 752.856 345.125C754.117 344.199 757.177 344.611 758.832 344.409C761.898 342.071 758.894 340.652 759.654 337.786C761.372 336.43 764.592 336.386 766.739 336.071Z"/>
	<path fill="#FEFEFE" d="M603.465 264.612C609.527 263.906 614.435 265.168 619.727 268.113C617.622 267.979 615.437 267.765 613.33 267.876C608.96 268.105 604.533 270.625 601.675 273.85C589.271 287.847 599.026 320.654 602.72 337.131C603.751 341.729 605.291 346.642 605.518 351.351C605.527 351.523 605.529 351.695 605.534 351.867C598.755 336.195 593.027 320.028 587.03 304.048C583.826 323.14 582.213 342.369 580.822 361.661C580.32 368.636 579.198 376.183 579.854 383.155C580.544 390.495 583.328 398.283 584.803 405.593C581.449 400.664 578.301 395.687 573.845 391.662C567.626 393.127 562.636 396.076 557.293 399.461C562.128 401.571 566.927 403.847 571.474 406.527C565.852 406.43 560.027 406.056 554.434 406.668C544.246 407.782 532.858 413.605 523.895 418.328C530.671 417.378 537.512 417.057 544.336 416.635C546.916 416.495 549.5 416.57 552.082 416.602C522.507 425.868 492.742 435.54 463.87 446.837C462.575 443.976 461.606 441.057 460.631 438.077C470.164 434.139 479.69 429.742 488.954 425.215C501.542 419.063 539.223 398.506 550.301 397.624C553.897 393.734 557.88 389.506 562.47 386.776C565.455 385.001 567.485 384.593 570.846 385.468C571.046 385.521 571.246 385.577 571.446 385.632L571.969 385.277C571.501 384.213 571.245 383.091 570.987 381.961C566.727 363.358 572.605 310.15 578.059 290.988C579.268 286.738 580.938 282.643 583.333 278.919C588.223 271.312 594.589 266.55 603.465 264.612Z"/>
</svg>
