<?xml version="1.0" encoding="utf-8" ?>
<svg xmlns="http://www.w3.org/2000/svg" xmlns:xlink="http://www.w3.org/1999/xlink" width="1024" height="1024">
	<path fill="#FEFEFE" d="M0 0L1024 0L1024 1024L0 1024L0 0Z"/>
	<path fill="#121212" d="M625.6 251.888L626.599 252.265C632.492 262.115 638.081 272.12 644.093 281.905C649.164 290.157 655.283 298.618 659.286 307.429C660.577 310.27 661.391 313.253 661.439 316.387C661.539 322.94 658.568 328.356 654.016 332.84C638.541 348.085 615.649 345.418 595.751 345.335L590.551 345.333C585.934 338.88 582.096 331.647 578.029 324.822Q568.335 308.767 558.979 292.513C581.466 279.502 602.932 264.491 625.6 251.888Z"/>
	<path fill="#121212" d="M423.475 354.558L486.883 354.641C486.618 380.223 487.29 405.779 486.541 431.363L462.25 431.306C451.458 431.349 421.108 433.172 412.211 428.61C406.106 425.48 401.277 420.019 399.327 413.399C395.258 399.582 404.164 388.067 410.68 376.826L423.475 354.558Z"/>
	<path fill="#121212" d="M578.023 492.692C603.837 493.713 629.903 493.01 655.746 493.025L749.351 493.516Q764.887 493.395 780.414 492.833C784.89 492.687 789.497 492.168 793.963 492.314C796.128 492.385 798.282 492.797 800.267 493.683C803.779 495.251 806.662 498.292 807.903 501.947Q808.127 502.601 808.28 503.274Q808.434 503.948 808.515 504.634Q808.597 505.32 808.606 506.011Q808.615 506.702 808.552 507.39Q808.488 508.078 808.352 508.756Q808.217 509.433 808.01 510.093Q807.804 510.752 807.529 511.386Q807.255 512.02 806.915 512.622C804.734 516.51 801.218 518.445 797.045 519.503Q721.021 520.157 645 519.24Q623.17 519.205 601.341 518.936C593.971 518.918 586.291 519.536 578.963 518.94C576.119 518.709 573.33 518.005 570.934 516.407C568.115 514.527 566.11 511.585 565.619 508.208C565.111 504.702 566.157 501.123 568.258 498.299C570.762 494.931 573.988 493.397 578.023 492.692Z"/>
	<path fill="#121212" d="M444.946 156.585C447.617 156.421 450.08 156.39 452.735 156.891C472.362 160.6 482.361 177.751 490.358 194.251C492.698 199.081 494.849 204.583 497.946 208.963C498.044 209.102 498.146 209.237 498.246 209.373C487.991 227.486 475.996 244.704 466.214 263.058C463.104 260.999 459.666 259.278 456.408 257.452L418.284 236.747C411.462 232.989 404.832 228.764 397.834 225.354C400.809 220.429 403.358 215.189 406.168 210.162C410.105 203.116 414.424 196.286 418.442 189.286C422.318 182.532 425.855 175.562 429.899 168.908C433.819 162.457 437.355 158.405 444.946 156.585Z"/>
	<path fill="#121212" d="M671.317 432.146C677.202 431.873 683.131 432.002 689.022 432.01C700.551 432.024 710.915 431.426 720.631 438.674C728.234 444.345 731.602 451.561 732.929 460.776L762.951 460.646C769.613 460.608 777.355 459.838 783.851 461.265C786.344 461.812 788.532 463.022 790.365 464.795C793.223 467.559 795.022 471.331 795.092 475.33C795.15 478.668 793.895 481.71 791.485 484.022C789.067 486.341 785.902 487.717 782.626 488.281C775.456 489.517 767.012 488.702 759.692 488.708Q733.533 488.723 707.375 488.454Q668.758 487.814 630.135 487.826C619.558 487.755 603.984 488.642 593.976 486.985C591.374 486.554 589.254 485.448 587.304 483.666C584.725 481.307 583.371 478.036 583.413 474.556C583.458 470.796 585.117 466.84 587.833 464.229C590.227 461.928 593.304 460.577 596.539 459.963C601.319 459.056 606.786 459.557 611.648 459.565Q627.487 459.472 643.312 460.121C644.355 454.237 645.966 448.909 649.638 444.08C654.959 437.083 662.779 433.388 671.317 432.146Z"/>
	<path fill="#FEFEFE" d="M673.471 444.657C683.155 444.724 702.147 442.641 710.27 446.946C715.804 449.879 718.71 454.911 720.436 460.7C714.494 461.236 708.402 460.9 702.441 460.814C686.824 460.333 671.164 460.691 655.535 460.371C656.328 457.622 657.131 455.162 658.814 452.789C662.47 447.634 667.474 445.683 673.471 444.657Z"/>
	<path fill="#121212" d="M472.369 149.236L508.116 149.283C520.915 149.292 535.363 147.859 547.64 151.848C565.684 157.71 573.962 170.227 582.166 186.333L592.562 206.815C600.437 202.473 608.607 198.588 616.212 193.785C612.144 200.378 608.589 207.262 604.76 213.993C598.978 224.159 592.973 234.209 587.037 244.286C584.141 248.719 581.534 253.271 578.942 257.884C554.716 256.832 530.358 257.831 506.086 257.009C513.456 253.645 520.543 249.539 527.774 245.867C522.89 234.042 516.388 222.857 510.594 211.458C503.741 197.978 494.012 175.035 484.35 164.177C478.353 157.437 471.447 153.39 463.45 149.49L472.369 149.236Z"/>
	<path fill="#121212" d="M543.319 329.909C544.509 331.352 543.962 351.394 543.978 354.807C554.249 355.078 564.541 354.869 574.817 355.09C593.077 355.481 621.074 357.675 638.134 353.191C644.297 351.571 649.107 348.508 654.335 344.946C648.583 356.608 642.234 367.973 636.194 379.486C630.124 391.057 624.629 405.262 615.814 414.929C610.169 421.119 603.369 425.13 595.621 428.136C582.361 432.788 558.325 430.928 543.684 430.892C543.575 439.972 543.8 449.079 543.936 458.16C539.256 448.766 532.904 440.049 527.326 431.16Q515.728 412.603 504.892 393.59C516.695 371.923 530.378 350.93 543.319 329.909Z"/>
	<path fill="#121212" d="M346.202 258.709C355.347 259.396 364.755 259.022 373.927 258.969Q399.471 258.604 425.015 259.023C428.809 268.243 434.41 277.072 439.261 285.794L461.834 326.506C453.24 321.957 444.766 317.157 436.08 312.788C424.485 333.434 412.076 353.679 400.234 374.193C397.527 378.837 394.745 383.587 392.586 388.514C387.482 400.163 387.09 410.568 391.757 422.363C387.224 418.655 382.911 414.574 379.473 409.811C370.85 397.863 365.161 383.226 358.733 370.013C354.963 362.261 350.371 354.606 347.448 346.496C337.018 317.563 357.965 296.79 369.413 272.386C361.736 267.761 353.795 263.435 346.202 258.709Z"/>
	<path fill="#121212" d="M98.0273 655.788C133.997 671.69 170.786 685.839 206.448 702.431C200.848 705.604 194.419 707.848 188.47 710.309L159.983 722.224C167.84 735.23 177.384 748.08 186.929 759.927C239.536 825.219 310.52 875.985 391.656 898.908C418.485 906.488 445.826 910.67 473.495 913.64C464.678 921.018 454.139 926.705 444.735 933.363C456.069 941.624 467.675 949.424 478.849 957.921C481.967 960.24 485.225 962.484 488.114 965.082Q478.767 965.105 469.431 964.672Q460.095 964.238 450.79 963.348Q441.486 962.458 432.237 961.113Q422.988 959.769 413.815 957.974Q409.09 957.034 404.385 955.993Q399.681 954.953 395 953.811Q390.32 952.669 385.664 951.427Q381.009 950.185 376.382 948.843Q371.755 947.501 367.157 946.06Q362.56 944.62 357.994 943.08Q353.429 941.541 348.897 939.904Q344.366 938.267 339.871 936.533Q335.376 934.799 330.919 932.968Q326.462 931.138 322.046 929.212Q317.629 927.287 313.255 925.267Q308.881 923.247 304.552 921.133Q300.222 919.02 295.939 916.814Q291.655 914.607 287.421 912.31Q283.186 910.012 279.001 907.624Q274.817 905.236 270.685 902.759Q266.552 900.281 262.474 897.715Q258.396 895.15 254.374 892.497Q250.352 889.844 246.388 887.106Q242.424 884.367 238.52 881.544Q234.616 878.721 230.773 875.815Q226.93 872.909 223.151 869.921Q219.371 866.933 215.657 863.864Q211.943 860.795 208.295 857.647Q204.648 854.5 201.069 851.274Q197.49 848.049 193.981 844.747Q190.472 841.446 187.034 838.069Q183.597 834.693 180.233 831.244Q176.87 827.795 173.581 824.274Q170.292 820.753 167.079 817.163Q163.867 813.572 160.732 809.913Q157.597 806.254 154.542 802.529C138.96 783.628 126.021 763.11 112.456 742.8C95.3657 750.639 77.454 756.676 60.4284 764.644C61.5443 759.674 63.5344 754.714 65.1645 749.884Q70.7119 733.468 76.6868 717.203C84.0422 696.817 90.8064 676.223 98.0273 655.788Z"/>
	<path fill="#121212" d="M905.296 531.234C908.152 533.813 910.71 537.628 913.238 540.623Q923.583 552.844 933.729 565.231C937.161 561.47 940.076 557.054 943.178 553C948.213 546.418 953.442 539.996 958.194 533.2C956.588 549.419 955.867 565.398 953.216 581.537Q952.582 585.283 951.888 589.018Q951.194 592.753 950.439 596.476Q949.685 600.199 948.87 603.91Q948.056 607.62 947.181 611.317Q946.307 615.014 945.372 618.697Q944.438 622.379 943.445 626.046Q942.451 629.712 941.398 633.362Q940.346 637.013 939.234 640.645Q938.122 644.278 936.952 647.892Q935.782 651.506 934.553 655.101Q933.325 658.696 932.038 662.271Q930.752 665.845 929.408 669.398Q928.064 672.952 926.663 676.483Q925.261 680.014 923.803 683.522Q922.345 687.03 920.83 690.513Q919.315 693.997 917.744 697.456Q916.173 700.915 914.547 704.348Q912.92 707.781 911.238 711.188Q909.556 714.594 907.819 717.973Q906.082 721.351 904.291 724.702Q902.5 728.052 900.655 731.372Q898.81 734.693 896.911 737.984Q895.013 741.274 893.061 744.534Q891.11 747.793 889.106 751.02Q887.102 754.248 885.046 757.442Q882.99 760.637 880.883 763.798Q878.775 766.959 876.617 770.085Q874.459 773.212 872.251 776.303Q870.042 779.394 867.784 782.449Q865.526 785.504 863.219 788.522Q860.912 791.54 858.556 794.521Q856.201 797.501 853.797 800.443C794.814 873.296 707.482 929.985 616.049 951.539C603.203 954.567 590.429 957.442 577.278 958.814C577.025 974.339 577.273 989.904 577.334 1005.43C566.715 997.018 556.037 988.718 545.577 980.104C537.924 973.556 529.778 967.501 521.974 961.12C510.806 951.99 499.701 942.403 487.937 934.061C499.652 922.386 512.652 911.848 524.837 900.653Q541.655 884.914 558.981 869.737C564.998 864.465 570.915 859.027 577.376 854.298C576.809 871.764 576.828 889.784 577.549 907.246Q580.899 906.629 584.237 905.954Q587.576 905.279 590.902 904.547Q594.229 903.815 597.542 903.026Q600.856 902.237 604.155 901.391Q607.455 900.545 610.739 899.642Q614.023 898.74 617.292 897.781Q620.56 896.822 623.812 895.807Q627.063 894.792 630.296 893.722Q633.53 892.651 636.745 891.525Q639.959 890.399 643.154 889.218Q646.349 888.037 649.523 886.801Q652.697 885.565 655.849 884.275Q659.001 882.985 662.131 881.641Q665.261 880.297 668.367 878.899Q671.473 877.501 674.554 876.05Q677.636 874.599 680.692 873.095Q683.749 871.592 686.779 870.036Q689.809 868.48 692.811 866.872Q695.814 865.264 698.789 863.605Q701.763 861.946 704.709 860.236Q707.655 858.526 710.571 856.766Q713.487 855.005 716.372 853.195Q719.257 851.385 722.111 849.525Q724.965 847.665 727.786 845.757Q730.607 843.849 733.395 841.892Q736.183 839.936 738.937 837.931Q741.692 835.927 744.411 833.876Q747.13 831.825 749.814 829.727Q752.497 827.63 755.144 825.486Q757.791 823.343 760.401 821.154Q763.011 818.965 765.583 816.732Q768.155 814.499 770.688 812.222Q774.409 808.887 778.046 805.462Q781.684 802.037 785.236 798.524Q788.789 795.01 792.253 791.411Q795.718 787.811 799.094 784.128Q802.469 780.444 805.753 776.678Q809.037 772.912 812.227 769.067Q815.417 765.222 818.512 761.3Q821.607 757.377 824.604 753.38Q827.602 749.383 830.5 745.313Q833.398 741.243 836.195 737.103Q838.993 732.964 841.687 728.756Q844.382 724.549 846.973 720.277Q849.563 716.004 852.048 711.67Q854.533 707.335 856.91 702.941Q859.287 698.546 861.556 694.095Q863.825 689.643 865.983 685.137Q868.142 680.631 870.189 676.074Q872.236 671.516 874.171 666.91Q876.105 662.303 877.926 657.65Q879.747 652.997 881.453 648.301Q883.158 643.605 884.748 638.869Q886.338 634.132 887.811 629.358Q889.284 624.584 890.639 619.775Q891.994 614.966 893.231 610.125Q894.467 605.284 895.585 600.414Q896.702 595.544 897.699 590.649Q898.696 585.753 899.573 580.834Q900.449 575.915 901.204 570.976Q901.96 566.037 902.593 561.081Q903.227 556.125 903.739 551.155Q904.25 546.185 904.64 541.204Q905.029 536.223 905.296 531.234Z"/>
	<path fill="#121212" d="M603.525 526.101C618.875 525.489 634.362 526.116 649.723 526.383L702.003 526.793L753.532 527.086C761.329 527.132 776.697 526.142 783.758 528.187C788.083 529.441 791.31 532.121 793.409 536.11C794.62 538.41 794.984 540.483 795.032 543.066C795.141 548.946 794.759 554.884 794.67 560.77Q794.461 582.813 793.801 604.848L791.861 699.962C791.612 710.815 792.41 759.283 789.856 766.841C786.791 775.91 781.464 782.285 772.972 786.698Q770.108 787.975 767.057 788.703C757.143 791.085 739.364 789.573 728.535 789.449L678.08 789.143L633.769 789.072C626.18 789.076 618.255 789.53 610.698 788.924C606.091 788.555 600.909 787.176 597.032 784.616C591.029 780.653 585.793 773.41 584.435 766.347C582.26 755.04 583.533 737.704 583.525 725.849L583.585 643.811L583.508 579.504C583.49 569.264 582.698 558.441 583.568 548.267C583.959 543.697 585.319 539.29 587.984 535.517C591.673 530.294 597.354 527.276 603.525 526.101Z"/>
	<path fill="#FEFEFE" d="M706.191 555.535Q707.441 555.387 708.697 555.455C710.636 555.55 712.658 556.211 713.94 557.745C714.986 558.996 715.4 560.356 715.472 561.968C716.029 574.545 715.539 587.367 715.541 599.965L715.479 678.116L715.564 729.938C715.585 738.537 716.232 747.653 715.476 756.189C715.234 758.929 714.154 759.801 712.155 761.481C711.094 761.573 710.052 761.635 708.987 761.573C707.048 761.459 705.617 760.863 704.347 759.308C703.345 758.08 703.058 756.139 702.959 754.619C702.198 742.887 702.91 730.602 702.889 718.824L702.79 644.039L702.795 586.546C702.79 578.123 701.939 569.105 702.728 560.756C702.965 558.245 704.408 557.069 706.191 555.535Z"/>
	<path fill="#FEFEFE" d="M664.451 555.423C665.538 555.323 666.603 555.3 667.68 555.499Q667.982 555.554 668.276 555.64Q668.57 555.726 668.854 555.842Q669.138 555.958 669.408 556.103Q669.679 556.247 669.933 556.419Q670.187 556.591 670.421 556.789Q670.656 556.986 670.869 557.206Q671.082 557.427 671.272 557.668Q671.461 557.909 671.624 558.169C672.805 560.068 673.01 562.408 673.103 564.588C673.792 580.639 673.449 596.823 673.438 612.89L673.466 691.208L673.489 737.283C673.481 742.97 674.533 751.771 673.081 757.035C672.41 759.47 671.283 760.436 669.158 761.689C668.648 761.729 668.137 761.78 667.625 761.784C665.748 761.799 663.615 761.109 662.297 759.726C660.644 757.992 660.651 755.532 660.55 753.281C659.978 740.533 660.474 727.534 660.481 714.764L660.503 642.703L660.461 592.541C660.405 583.176 659.779 573.409 660.433 564.091C660.729 559.864 661.274 558.214 664.451 555.423Z"/>
	<path fill="#FEFEFE" d="M749.497 555.532L750.142 555.468C752.557 555.247 755.32 555.254 757.154 557.124C758.882 558.885 758.797 562.174 758.925 564.496C759.536 575.601 759.045 586.979 759.047 598.11L759.307 653.602L759.46 717.677C759.502 729.869 759.95 742.205 759.425 754.377C759.282 757.706 758.23 759.033 755.842 761.217C754.91 761.439 753.99 761.602 753.032 761.653C751.051 761.76 749.337 761.271 747.917 759.818C745.758 757.609 746.038 753.326 745.998 750.461C745.429 709.662 746.037 668.777 746.056 627.968L746.035 586.47C746.016 578.849 745.503 570.88 746.276 563.301C746.628 559.851 747.062 558.045 749.497 555.532Z"/>
	<path fill="#FEFEFE" d="M621.054 556.519C622.276 556.449 623.484 556.457 624.698 556.631C626.365 556.871 627.973 557.598 628.949 559.024C630.194 560.841 630.154 562.816 630.197 564.945C630.582 584.308 630.211 603.733 630.153 623.101L630.034 708.34Q629.964 722.566 630.137 736.79C630.194 743.078 631.141 750.949 629.645 757.077C629.09 759.354 627.943 760.184 626.069 761.377C625.138 761.516 624.187 761.666 623.245 761.691C621.483 761.738 619.462 761.259 618.301 759.833C617.399 758.724 617.268 757.43 617.117 756.071C616.222 747.986 616.727 739.317 616.687 731.176L616.578 684.734L616.573 592.731C616.577 585.05 615.26 568.415 616.778 561.693C617.392 558.976 618.82 557.958 621.054 556.519Z"/>
	<path fill="#121212" d="M309.609 458.65L386.36 458.692C392.273 458.687 397.589 458.334 402.014 462.994C408.767 470.108 407.111 480.874 407.06 489.884C423.703 490.479 440.467 490.163 457.124 490.135C464.637 490.123 472.321 489.75 479.805 490.359C481.823 490.523 483.811 490.755 485.614 491.746C488.701 493.443 490.884 495.912 491.786 499.358C492.487 502.039 492.578 536.658 492.079 540.819C491.786 543.261 491.144 545.654 489.799 547.739C487.296 551.618 483.999 552.698 479.731 553.58C476.739 572.148 475.288 590.973 473.058 609.649L459.342 726.217L454.56 767.835C453.779 774.39 453.394 781.402 452.018 787.84C451.504 790.247 450.664 792.527 448.897 794.305C447.011 796.204 443.977 796.99 441.398 797.3C435.624 797.996 429.316 797.34 423.481 797.224Q409.367 796.954 395.25 797.035L308.867 797.128C294.631 797.116 280.087 797.689 265.881 796.911C263.703 796.792 260.066 796.689 258.272 795.468C256.163 794.032 254.825 791.617 254.297 789.168C252.701 781.778 252.169 773.937 251.291 766.431L246.158 722.247L225.326 551.588C223.561 551.561 221.74 551.583 219.985 551.396Q219.485 551.343 218.993 551.237Q218.501 551.131 218.023 550.972Q217.546 550.814 217.088 550.605Q216.63 550.396 216.198 550.139Q215.765 549.882 215.362 549.581Q214.96 549.279 214.592 548.935Q214.224 548.592 213.896 548.211Q213.567 547.83 213.281 547.416C211.995 545.579 211.549 542.904 211.292 540.729C210.501 534.033 211.031 526.784 211.048 520.034C211.068 512.168 210.418 503.608 211.669 495.853C212.44 494.605 213.358 493.413 214.441 492.415C215.47 491.468 216.684 490.773 218.066 490.521C225.838 489.102 234.816 489.931 242.748 489.846Q271.091 489.514 299.436 489.64C299.464 482.245 297.911 470.525 301.6 464.106C303.428 460.924 306.18 459.575 309.609 458.65Z"/>
	<path fill="#FEFEFE" d="M323.318 476.717Q343.94 476.818 364.561 476.586C370.899 476.544 378.42 475.686 384.586 476.881C386.137 477.181 387.499 477.909 388.32 479.322C389.406 481.19 389.414 486.903 388.706 488.888C387.22 489.861 386.239 489.646 384.488 489.689Q351.491 489.818 318.496 489.486C318.43 486.316 317.884 481.929 319.554 479.105C320.489 477.522 321.599 477.078 323.318 476.717Z"/>
	<path fill="#FEFEFE" d="M229.566 507.665L473.301 508.526L473.454 534.009L229.452 534.048Q229.316 520.855 229.566 507.665Z"/>
	<path fill="#FEFEFE" d="M243.475 552.112L460.701 552.449C460.401 561.441 459 570.554 458.022 579.506Q455.332 605.163 452.076 630.755L436.859 757.118C436.122 764.678 434.843 772.169 434.352 779.755C416.762 780.708 398.713 779.944 381.072 779.955L270.76 779.953C270.411 774.139 269.455 768.316 268.771 762.533L263.276 718.994L243.475 552.112Z"/>
	<path fill="#121212" d="M329.521 585.615C331.706 585.445 333.689 585.636 335.748 586.443C345.149 590.126 349.836 606.361 353.636 615.105C348.687 624.648 342.69 633.914 337.383 643.289L329.971 638.431C320.513 632.322 311.134 625.986 301.365 620.382C307.051 612.159 311.231 603.192 316.582 594.818C319.959 589.533 323.503 586.985 329.521 585.615Z"/>
	<path fill="#121212" d="M419.094 637.442L419.656 637.775C423.217 644.123 436.87 668.3 437.043 674.12C437.174 678.522 435.104 683.086 432.076 686.206C425.382 693.104 411.783 690.604 402.875 690.691C402.417 690.675 401.995 690.681 401.542 690.569C399.433 690.047 385.926 663.219 384.393 659.602C396.402 652.859 407.198 644.285 419.094 637.442Z"/>
	<path fill="#121212" d="M313.715 690.215C326.25 689.643 338.956 690.01 351.511 689.993L351.516 732.193L337.375 732.298C328.132 732.474 317.826 733.641 309.235 729.594C305.715 727.936 302.42 725.443 301.235 721.578C298.729 713.405 309.651 697.539 313.715 690.215Z"/>
	<path fill="#121212" d="M308.263 638.209C310.735 637.934 313.344 638.036 315.836 637.977C323.005 648.516 328.198 661.461 333.501 673.028C329.496 671.427 325.405 670.135 321.297 668.828Q314.601 682.231 307.384 695.361C305.006 699.672 301.55 704.376 299.779 708.913C298.66 711.78 298.222 715.222 297.599 718.239L297.017 718.357L295.537 716.685C289.561 708.29 277.524 693.748 274.997 684.376C271.638 671.912 282.733 657.735 288.689 647.358C284.608 645.141 280.288 643.321 276.06 641.402Q292.115 639.333 308.263 638.209Z"/>
	<path fill="#121212" d="M378.736 679.321C380.942 681.397 381.393 690.98 381.758 694.064C389.783 693.898 397.822 693.655 405.849 693.667C411.3 693.675 416.872 694.08 422.306 693.659C429.83 693.077 433.826 688.686 438.438 683.276Q437.943 685.264 437.324 687.216C434.015 697.422 425.318 717.489 417.876 725.074C415.665 727.328 413.194 728.725 410.433 730.165C400.906 733.47 390.65 732.58 380.705 732.529Q380.59 739.713 380.171 746.885Q368.463 730.954 357.582 714.446L357.762 713.705C360.516 702.117 371.648 689.076 378.736 679.321Z"/>
	<path fill="#121212" d="M336.534 582.758C345.708 582.209 373.896 581.261 381.163 584.785C389.385 588.773 395.734 602.558 398.833 610.894L417.272 605.359C412.05 614.913 407.334 624.738 402.168 634.325C400.898 636.676 399.337 640.368 397.244 642.006C393.029 645.304 362.538 643.22 355.54 642.998C359.049 639.848 362.694 636.833 366.28 633.769C362.995 626.192 359.118 618.92 355.606 611.452C352.54 604.934 349.144 595.2 344.74 589.577C342.547 586.775 340.089 585.062 336.896 583.581L336.331 583.323L336.534 582.758Z"/>
	<path fill="#121212" d="M495.567 53.2231C512.058 52.1053 532.896 53.9497 549.394 55.7855Q553.054 56.1618 556.707 56.5968Q560.36 57.0317 564.005 57.5253Q567.651 58.0189 571.288 58.571Q574.925 59.1231 578.553 59.7335Q582.181 60.3439 585.799 61.0125Q589.416 61.681 593.023 62.4076Q596.629 63.1342 600.223 63.9186Q603.818 64.7031 607.399 65.5451Q610.98 66.3871 614.547 67.2865Q618.115 68.186 621.667 69.1426Q625.219 70.0992 628.756 71.1127Q632.292 72.1262 635.812 73.1964Q639.332 74.2666 642.834 75.3931Q646.336 76.5197 649.82 77.7023Q653.303 78.885 656.767 80.1234Q660.231 81.3619 663.675 82.6558Q667.119 83.9497 670.542 85.2988Q673.964 86.6478 677.365 88.0517Q680.765 89.4555 684.143 90.9138Q687.52 92.372 690.874 93.8843Q694.227 95.3966 697.556 96.9626Q700.885 98.5286 704.189 100.148Q707.492 101.767 710.769 103.439Q714.046 105.111 717.296 106.836Q720.545 108.56 723.767 110.337Q726.988 112.113 730.181 113.941Q733.374 115.769 736.536 117.648Q739.699 119.527 742.831 121.456Q745.964 123.386 749.065 125.365Q752.165 127.345 755.234 129.374Q758.303 131.403 761.338 133.481Q764.374 135.559 767.376 137.686Q771.965 140.976 776.472 144.378Q780.978 147.781 785.4 151.292Q789.822 154.804 794.156 158.423Q798.491 162.042 802.735 165.766Q806.979 169.491 811.131 173.318Q815.282 177.146 819.339 181.074Q823.395 185.002 827.354 189.029Q831.312 193.055 835.171 197.178Q839.03 201.3 842.786 205.516Q846.542 209.732 850.194 214.039Q853.846 218.346 857.391 222.742Q860.936 227.137 864.372 231.618Q867.808 236.099 871.133 240.663Q874.458 245.227 877.669 249.871Q880.881 254.515 883.978 259.236Q887.075 263.958 890.055 268.754Q893.036 273.55 895.897 278.418Q898.759 283.286 901.5 288.223Q904.241 293.16 906.86 298.162Q909.479 303.164 911.975 308.23Q914.471 313.295 916.841 318.42Q919.212 323.545 921.456 328.726Q923.7 333.908 925.816 339.143Q927.932 344.378 929.919 349.664Q931.906 354.949 933.763 360.282Q935.62 365.614 937.345 370.991Q939.07 376.368 940.663 381.785Q942.256 387.202 943.715 392.657Q945.175 398.112 946.5 403.601Q947.825 409.09 949.014 414.61Q950.204 420.13 951.258 425.677Q952.312 431.224 953.23 436.796C969.3 436.348 985.348 436.71 1001.42 436.715C996.045 444.199 989.957 451.254 984.383 458.603Q959.729 491.616 933.559 523.441L853.735 436.933L898.783 436.815Q898.372 433.853 897.838 430.911C879.427 329.221 816.538 236.169 731.998 177.587Q727.952 174.757 723.837 172.027Q719.723 169.298 715.542 166.671Q711.361 164.044 707.117 161.52Q702.872 158.997 698.567 156.58Q694.262 154.162 689.898 151.851Q685.535 149.541 681.115 147.338Q676.696 145.136 672.224 143.043Q667.751 140.951 663.229 138.969Q658.706 136.988 654.136 135.118Q649.566 133.249 644.951 131.493Q640.336 129.737 635.679 128.096Q631.022 126.454 626.326 124.928Q621.63 123.402 616.898 121.992Q612.166 120.582 607.401 119.289Q602.635 117.997 597.839 116.822Q593.044 115.648 588.22 114.592Q583.397 113.536 578.549 112.599Q573.701 111.663 568.831 110.846Q563.961 110.029 559.073 109.333Q554.185 108.637 549.281 108.062Q544.376 107.486 539.46 107.032Q534.543 106.578 529.617 106.245Q524.69 105.913 519.757 105.701Q514.824 105.49 509.887 105.401Q504.95 105.312 500.013 105.345Q495.075 105.377 490.14 105.532Q485.204 105.686 480.275 105.962Q475.345 106.239 470.423 106.636Q465.501 107.034 460.591 107.553Q455.681 108.072 450.785 108.712Q445.889 109.353 441.01 110.113Q436.131 110.874 431.273 111.755C406.054 116.836 381.271 123.452 357.327 132.969Q352.702 134.808 348.123 136.759Q343.543 138.711 339.013 140.773Q334.483 142.835 330.004 145.006Q325.525 147.178 321.1 149.458Q316.676 151.738 312.308 154.125Q307.94 156.512 303.632 159.004Q299.323 161.497 295.077 164.093Q290.83 166.69 286.648 169.389Q282.466 172.088 278.35 174.888Q274.235 177.689 270.189 180.588Q266.143 183.487 262.169 186.484Q258.195 189.481 254.295 192.574Q250.395 195.667 246.571 198.854Q242.748 202.041 239.003 205.32Q235.258 208.598 231.594 211.967Q227.93 215.336 224.349 218.794Q220.768 222.251 217.272 225.794Q213.776 229.337 210.368 232.965Q206.959 236.592 203.64 240.301Q200.32 244.01 197.092 247.799Q193.864 251.588 190.729 255.454Q187.594 259.321 184.554 263.262Q181.514 267.203 178.571 271.218Q175.628 275.232 172.784 279.316Q169.939 283.401 167.195 287.554Q164.45 291.706 161.808 295.924Q159.165 300.143 156.626 304.424Q154.087 308.705 151.653 313.047Q149.219 317.388 146.891 321.788Q144.563 326.188 142.343 330.643Q140.123 335.098 138.012 339.606Q135.901 344.113 133.9 348.671Q132.339 352.264 130.848 355.887Q129.357 359.51 127.936 363.161Q126.515 366.812 125.165 370.49Q123.816 374.168 122.537 377.871Q121.259 381.575 120.052 385.302Q118.846 389.029 117.712 392.779Q116.578 396.53 115.516 400.301Q114.455 404.072 113.467 407.863Q112.479 411.654 111.564 415.464Q110.649 419.273 109.809 423.1Q108.968 426.926 108.201 430.768Q107.435 434.61 106.743 438.467Q106.051 442.323 105.434 446.192Q104.817 450.06 104.274 453.94Q103.732 457.821 103.265 461.71Q102.798 465.6 102.406 469.498Q102.015 473.397 101.698 477.301Q101.382 481.206 101.142 485.117Q100.901 489.027 100.736 492.942Q100.572 496.856 100.483 500.773Q100.394 504.689 100.38 508.607Q100.367 512.525 100.43 516.442Q100.492 520.359 100.631 524.275Q100.769 528.19 100.983 532.102Q101.198 536.014 101.487 539.921Q101.777 543.828 102.143 547.729Q102.508 551.629 102.949 555.522Q103.39 559.415 103.906 563.299Q104.422 567.182 105.013 571.055Q105.604 574.928 106.27 578.789Q106.936 582.65 107.677 586.497Q108.417 590.344 109.232 594.176C112.398 608.635 115.805 623.705 121.291 637.48C108.036 632.727 95.5984 624.841 82.6675 619.146C80.4086 625.546 78.7882 632.278 76.8392 638.787C74.7366 645.809 72.2812 652.713 70.3186 659.778C56.0759 617.296 49.1383 571.3 47.6379 526.575Q47.4767 521.662 47.4206 516.748Q47.3646 511.833 47.4137 506.918Q47.4629 502.003 47.6172 497.09Q47.7716 492.177 48.031 487.269Q48.2905 482.361 48.6549 477.459Q49.0194 472.557 49.4887 467.664Q49.9579 462.772 50.5318 457.89Q51.1057 453.009 51.784 448.14Q52.4622 443.272 53.2445 438.42Q54.0268 433.567 54.9127 428.732Q55.7987 423.898 56.7879 419.083Q57.7771 414.269 58.8692 409.476Q59.9613 404.684 61.1556 399.916Q62.35 395.148 63.6462 390.407Q64.9423 385.666 66.3396 380.953Q67.737 376.241 69.2348 371.559Q70.7327 366.878 72.3304 362.23Q73.9282 357.582 75.625 352.969Q77.3219 348.356 79.117 343.78Q80.9122 339.204 82.8049 334.668Q84.6976 330.132 86.687 325.637Q88.6764 321.143 90.7615 316.692Q92.8466 312.241 95.0265 307.835Q97.2064 303.43 99.4801 299.072Q101.754 294.715 104.12 290.407Q106.487 286.099 108.945 281.842Q111.403 277.586 113.951 273.383Q116.5 269.18 119.138 265.033Q121.776 260.885 124.502 256.796Q127.228 252.706 130.042 248.675Q132.855 244.644 135.753 240.675Q138.652 236.706 141.635 232.799C149.923 221.986 158.416 211.132 167.756 201.201C255.141 108.283 368.074 56.9814 495.567 53.2231Z"/>
</svg>
