<?xml version="1.0" encoding="utf-8" ?>
<svg xmlns="http://www.w3.org/2000/svg" xmlns:xlink="http://www.w3.org/1999/xlink" width="144" height="202">
	<path fill="#337C51" d="M81.7864 18.3599L85.4846 18.2653C81.6595 35.1234 77.9029 59.3296 67.1913 72.8787C59.9452 82.0444 49.7412 87.36 38.7043 90.5673C35.856 91.395 32.9062 92.2536 29.95 92.5882C29.0757 92.6872 28.0522 92.8291 27.3198 92.2431C26.852 91.3314 26.8852 90.2554 26.9253 89.2561C27.6126 72.126 38.6284 53.7297 50.9708 42.3233C52.6649 40.7549 54.6063 39.4625 56.3024 37.87Q53.6975 39.2602 51.1324 40.7227C38.2119 48.1798 25.035 67.3778 21.1398 81.8257C20.0246 78.158 19.3987 74.4589 19.1252 70.6367C18.3316 59.5466 21.3099 47.1212 28.7179 38.5921C41.8681 23.4518 62.7877 19.7068 81.7864 18.3599Z"/>
	<path fill="#337C51" d="M67.3946 92.3542C69.5911 92.0862 72.0362 92.1395 74.2465 92.2869C88.0244 93.2055 101.126 100.468 110.145 110.792C125.331 128.174 131.102 152.226 129.587 174.905C129.44 174.927 129.292 174.94 129.143 174.919C128.028 174.764 122.073 170.624 120.772 169.882C117.407 167.963 113.599 166.357 109.995 164.949C101.238 161.526 92.1065 159.831 82.97 157.75C69.571 154.699 60.2299 151.38 51.3677 140.356C43.85 131.02 38.5211 116.001 35.1693 104.524C38.7416 104.683 42.3362 104.659 45.8986 104.973C60.5675 106.266 75.3451 110.572 86.9645 119.866C89.8697 122.19 92.6888 124.764 95.3715 127.34C97.0658 128.966 98.6754 130.722 100.515 132.185C99.3036 129.726 97.9504 127.372 96.2516 125.215C88.0951 114.858 75.0027 106.41 62.5465 102.283C56.7087 100.349 50.8817 99.2874 44.7995 98.5571C51.7054 94.6322 59.5312 92.9079 67.3946 92.3542Z"/>
</svg>
