<?xml version="1.0" standalone="no"?>
<!DOCTYPE svg PUBLIC "-//W3C//DTD SVG 20010904//EN"
 "http://www.w3.org/TR/2001/REC-SVG-20010904/DTD/svg10.dtd">
<svg version="1.0" xmlns="http://www.w3.org/2000/svg"
 width="512.000000pt" height="512.000000pt" viewBox="0 0 512.000000 512.000000"
 preserveAspectRatio="xMidYMid meet">

<g transform="translate(0.000000,512.000000) scale(0.100000,-0.100000)"
fill="#000000" stroke="none">
<path d="M400 3680 l0 -1360 -160 0 -160 0 0 -880 0 -880 1280 0 1280 0 0 80
0 80 150 0 150 0 122 -61 c130 -65 240 -99 323 -99 l52 0 5 -91 c5 -78 11
-100 42 -163 43 -88 102 -146 194 -189 61 -29 76 -32 162 -32 86 0 101 3 162
32 92 43 151 101 194 189 31 63 37 85 42 163 l5 91 55 0 c85 0 131 18 187 75
81 80 96 170 47 269 l-29 56 29 56 c37 75 37 133 0 208 l-29 56 29 56 c19 39
28 72 28 104 0 32 -9 65 -28 104 l-29 56 29 56 c47 95 34 183 -39 264 -47 53
-108 80 -176 80 -27 0 -37 4 -33 13 34 83 43 167 21 219 -5 13 12 26 82 62
321 167 552 470 629 826 23 106 26 352 5 455 -91 462 -426 822 -876 943 -44
12 -111 25 -150 29 l-70 8 -3 243 -2 242 -1760 0 -1760 0 0 -1360z m3360 1040
c0 -120 -3 -162 -12 -164 -7 -2 -50 -8 -96 -14 -103 -14 -273 -70 -372 -123
-318 -172 -540 -466 -616 -819 -26 -117 -25 -361 0 -480 65 -305 259 -592 505
-750 38 -25 70 -48 70 -51 1 -4 -18 -10 -42 -13 -56 -9 -158 -57 -224 -107
l-52 -39 -141 0 -140 0 0 80 0 80 -1040 0 -1040 0 0 1280 0 1280 1600 0 1600
0 0 -160z m226 -331 c153 -21 331 -92 459 -184 68 -48 205 -187 251 -255 181
-263 232 -619 131 -915 -53 -156 -124 -271 -242 -393 -321 -335 -801 -416
-1220 -205 -104 53 -183 113 -276 210 -89 93 -124 142 -177 249 -149 296 -149
632 0 928 55 110 89 158 177 249 93 96 181 162 286 215 191 96 401 130 611
101z m-2306 -2949 l0 -720 -720 0 -720 0 0 720 0 720 720 0 720 0 0 -720z
m320 0 l0 -720 -80 0 -80 0 0 720 0 720 80 0 80 0 0 -720z m480 0 l0 -720
-160 0 -160 0 0 720 0 720 160 0 160 0 0 -720z m1676 688 c-7 -39 -31 -74 -70
-102 -26 -20 -42 -21 -353 -24 l-326 -3 -53 -48 c-89 -81 -171 -110 -311 -111
l-83 0 0 -80 0 -80 88 0 c145 0 265 36 360 107 l32 24 0 -545 0 -546 -47 0
c-74 0 -136 21 -280 94 l-133 66 -170 0 -170 0 0 560 0 560 176 0 176 0 53 48
c29 27 70 57 92 67 85 42 112 44 577 44 l449 1 -7 -32z m-393 -342 c-6 -58 8
-114 39 -158 19 -28 19 -28 0 -55 -10 -16 -24 -43 -30 -62 -23 -66 -11 -144
30 -203 19 -28 19 -28 0 -55 -10 -16 -24 -43 -30 -62 -23 -66 -11 -144 30
-203 19 -28 19 -28 0 -55 -67 -97 -54 -211 33 -298 56 -57 102 -75 189 -75
l56 0 0 -56 c0 -87 -18 -133 -75 -189 -70 -71 -145 -91 -239 -63 -55 16 -138
99 -154 154 -9 31 -12 220 -12 738 l0 696 84 0 85 0 -6 -54z m612 29 c16 -15
25 -36 25 -55 0 -19 -9 -40 -25 -55 -24 -25 -26 -25 -215 -25 -189 0 -191 0
-215 25 -16 15 -25 36 -25 55 0 19 9 40 25 55 24 25 26 25 215 25 189 0 191 0
215 -25z m0 -320 c16 -15 25 -36 25 -55 0 -19 -9 -40 -25 -55 -24 -25 -26 -25
-215 -25 -189 0 -191 0 -215 25 -16 15 -25 36 -25 55 0 19 9 40 25 55 24 25
26 25 215 25 189 0 191 0 215 -25z m0 -320 c16 -15 25 -36 25 -55 0 -19 -9
-40 -25 -55 -24 -25 -26 -25 -215 -25 -189 0 -191 0 -215 25 -16 15 -25 36
-25 55 0 19 9 40 25 55 24 25 26 25 215 25 189 0 191 0 215 -25z m0 -320 c16
-15 25 -36 25 -55 0 -19 -9 -40 -25 -55 -24 -25 -26 -25 -215 -25 -189 0 -191
0 -215 25 -16 15 -25 36 -25 55 0 19 9 40 25 55 24 25 26 25 215 25 189 0 191
0 215 -25z"/>
<path d="M720 3920 l0 -800 880 0 880 0 0 800 0 800 -880 0 -880 0 0 -800z
m1600 0 l0 -640 -79 0 -78 0 -6 98 c-6 104 -31 191 -80 274 -34 59 -128 152
-186 185 -25 15 -47 27 -49 29 -2 1 9 19 23 40 65 95 70 220 13 326 -35 66
-67 97 -142 136 -44 22 -63 26 -136 26 -100 0 -160 -24 -225 -89 -65 -65 -89
-125 -89 -225 0 -86 18 -143 62 -193 8 -9 13 -18 11 -20 -2 -1 -29 -19 -59
-38 -166 -108 -260 -284 -260 -486 l0 -63 -80 0 -80 0 0 640 0 640 720 0 720
0 0 -640z m-657 306 c103 -43 128 -177 48 -257 -65 -65 -157 -65 -222 0 -124
123 13 325 174 257z m101 -504 c90 -42 149 -100 192 -188 31 -63 37 -85 42
-163 l5 -91 -403 0 -403 0 5 89 c9 152 83 273 207 339 78 42 122 52 213 48 61
-3 92 -11 142 -34z"/>
<path d="M720 2880 l0 -80 80 0 80 0 0 80 0 80 -80 0 -80 0 0 -80z"/>
<path d="M1040 2880 l0 -80 720 0 720 0 0 80 0 80 -720 0 -720 0 0 -80z"/>
<path d="M720 2560 l0 -80 880 0 880 0 0 80 0 80 -880 0 -880 0 0 -80z"/>
<path d="M3676 4224 c-350 -63 -639 -356 -701 -709 -104 -600 417 -1125 1013
-1021 479 84 801 540 718 1015 -85 484 -544 803 -1030 715z m379 -178 c113
-36 198 -89 290 -181 91 -91 144 -175 182 -290 23 -71 26 -96 26 -215 0 -119
-3 -144 -26 -215 -38 -115 -91 -199 -182 -290 -91 -91 -175 -144 -290 -182
-71 -23 -96 -26 -215 -26 -119 0 -144 3 -215 26 -114 38 -198 90 -290 182 -91
91 -144 175 -182 290 -23 71 -26 96 -26 215 0 119 3 144 26 215 38 114 90 198
182 291 109 110 234 177 380 204 88 16 250 4 340 -24z"/>
<path d="M3928 3483 l-248 -248 -48 48 c-26 26 -52 47 -58 47 -13 0 -104 -93
-104 -106 0 -5 47 -56 105 -114 l105 -105 305 305 c168 168 305 310 305 315 0
13 -92 105 -105 105 -6 0 -121 -111 -257 -247z"/>
</g>
</svg>
