<?xml version="1.0" standalone="no"?>
<!DOCTYPE svg PUBLIC "-//W3C//DTD SVG 20010904//EN"
 "http://www.w3.org/TR/2001/REC-SVG-20010904/DTD/svg10.dtd">
<svg version="1.0" xmlns="http://www.w3.org/2000/svg"
 width="982.000000pt" height="980.000000pt" viewBox="0 0 982.000000 980.000000"
 preserveAspectRatio="xMidYMid meet">

<g transform="translate(0.000000,980.000000) scale(0.100000,-0.100000)"
fill="#000000" stroke="none">
<path d="M4865 9790 c-11 -4 -31 -20 -45 -35 l-25 -27 -3 -466 c-2 -257 0
-487 3 -511 10 -64 58 -111 114 -111 33 0 49 7 79 34 l37 34 0 505 c0 400 -3
509 -13 529 -26 48 -94 70 -147 48z"/>
<path d="M2475 9156 c-43 -19 -66 -49 -72 -93 -4 -34 7 -58 119 -253 68 -118
177 -307 242 -420 64 -113 131 -217 147 -232 75 -71 210 8 185 108 -4 13 -41
84 -83 156 -231 400 -291 503 -347 602 -33 60 -70 115 -82 122 -31 21 -76 25
-109 10z"/>
<path d="M7251 9152 c-27 -14 -54 -53 -149 -217 -63 -110 -173 -301 -243 -424
-71 -123 -132 -234 -135 -247 -10 -37 15 -94 50 -115 46 -28 99 -25 135 9 24
21 422 699 495 839 33 65 9 130 -60 159 -43 18 -52 18 -93 -4z"/>
<path d="M4640 8369 c-602 -66 -1172 -324 -1599 -724 -426 -398 -700 -868
-831 -1428 -76 -320 -90 -759 -35 -1077 46 -262 139 -492 295 -725 26 -38 112
-167 192 -286 393 -586 520 -1071 556 -2118 l7 -213 33 -29 32 -29 1631 0
c1619 0 1631 0 1659 20 16 11 33 35 38 53 6 17 13 145 16 282 14 599 90 1065
237 1454 62 161 178 380 294 552 57 85 143 213 192 284 255 377 345 691 346
1200 0 390 -58 699 -199 1055 -200 503 -590 980 -1051 1283 -336 221 -716 367
-1117 429 -151 23 -553 33 -696 17z m650 -244 c564 -86 1057 -338 1452 -741
376 -385 602 -828 699 -1371 16 -89 23 -176 26 -354 7 -314 -11 -473 -78 -693
-60 -194 -124 -312 -344 -632 -84 -121 -183 -273 -220 -337 -263 -458 -396
-1033 -422 -1824 l-6 -203 -474 0 -473 0 0 844 0 845 231 3 231 3 29 33 c39
43 41 117 5 159 l-24 28 -992 3 -991 2 -29 -29 c-38 -37 -47 -75 -29 -125 24
-70 48 -76 297 -76 l212 0 0 -845 0 -845 -469 0 -468 0 -7 163 c-25 600 -85
1000 -203 1362 -84 257 -177 444 -352 705 -69 102 -162 240 -207 308 -142 211
-224 401 -269 626 -133 661 37 1412 445 1966 419 569 1067 953 1740 1029 52 6
109 13 125 15 69 10 465 -3 565 -19z m-70 -5310 l0 -845 -300 0 -300 0 0 845
0 845 300 0 300 0 0 -845z"/>
<path d="M4684 7746 c-47 -21 -68 -58 -126 -225 l-53 -153 -75 -28 c-41 -15
-90 -35 -109 -45 l-34 -17 -148 72 c-156 77 -216 93 -262 68 -36 -18 -315
-296 -333 -330 -28 -54 -18 -97 60 -256 41 -83 72 -152 70 -155 -3 -3 -25 -54
-49 -113 l-44 -109 -128 -40 c-165 -53 -227 -86 -251 -131 -18 -34 -21 -460
-3 -502 19 -45 70 -72 238 -127 125 -41 142 -49 147 -71 4 -14 24 -65 45 -113
l38 -89 -70 -141 c-58 -115 -71 -151 -75 -200 l-4 -59 105 -114 c141 -153 221
-226 260 -236 48 -13 95 2 245 77 135 68 138 69 167 53 17 -8 66 -30 109 -48
44 -18 83 -39 87 -46 4 -7 29 -78 55 -158 55 -167 81 -205 154 -221 66 -15
448 -1 477 17 36 22 70 92 116 235 l44 134 69 26 c38 15 91 35 117 45 l48 19
118 -62 c132 -70 214 -96 261 -83 36 10 297 255 341 320 44 64 37 100 -51 279
l-72 147 29 60 c17 32 38 82 48 110 l18 52 141 46 c163 52 228 89 245 136 14
41 15 431 1 481 -15 52 -61 79 -227 134 -78 25 -145 52 -150 58 -5 7 -28 60
-51 118 l-43 106 70 136 c68 133 89 202 77 251 -8 33 -291 323 -339 348 -57
29 -94 20 -258 -63 l-141 -70 -116 49 -116 49 -41 130 c-49 152 -78 209 -124
240 -33 22 -41 23 -255 23 -163 -1 -229 -4 -252 -14z m412 -348 c44 -135 82
-211 114 -228 11 -6 50 -20 87 -31 59 -18 109 -41 236 -107 40 -20 73 -11 226
63 73 36 138 65 145 65 6 0 49 -37 94 -83 l83 -83 -67 -132 c-89 -173 -92
-206 -36 -319 23 -44 50 -111 62 -149 38 -122 42 -128 112 -157 34 -15 110
-44 168 -64 l105 -38 3 -122 3 -121 -128 -42 c-138 -45 -205 -78 -227 -113 -8
-12 -26 -58 -41 -102 -14 -44 -47 -118 -71 -164 -36 -66 -44 -90 -40 -115 3
-17 35 -91 71 -165 36 -73 65 -138 65 -145 0 -6 -38 -49 -84 -95 l-84 -83
-133 66 c-182 90 -197 91 -325 28 -56 -27 -132 -57 -170 -67 -46 -11 -78 -26
-94 -44 -15 -16 -46 -84 -79 -178 l-54 -153 -123 0 -122 0 -41 123 c-23 68
-56 148 -74 177 -32 54 -32 54 -139 90 -59 21 -134 53 -168 73 -88 53 -107 50
-283 -34 l-147 -72 -87 87 -88 86 58 115 c66 130 87 186 87 225 0 15 -19 65
-43 112 -24 46 -51 111 -61 143 -36 122 -39 128 -86 152 -25 12 -101 42 -170
67 l-125 43 -3 125 -3 125 93 28 c112 34 227 85 251 112 9 11 31 59 47 108 16
48 48 122 71 164 53 99 51 118 -35 296 l-67 139 87 87 87 87 140 -69 c176 -87
197 -89 325 -24 49 24 122 53 162 64 108 30 109 31 181 241 22 63 41 121 44
128 3 9 35 12 127 10 l123 -3 41 -127z"/>
<path d="M4806 6949 c-101 -14 -182 -36 -264 -75 -265 -122 -450 -344 -529
-636 -24 -88 -24 -335 0 -431 83 -333 335 -592 667 -687 97 -28 281 -37 387
-20 494 79 843 539 784 1030 -46 381 -326 701 -694 795 -110 28 -253 38 -351
24z m287 -246 c240 -55 449 -264 513 -513 21 -79 23 -231 5 -315 -53 -243
-234 -442 -476 -522 -70 -23 -97 -27 -210 -27 -99 0 -144 4 -190 18 -192 59
-355 195 -438 367 -174 356 -36 764 318 942 145 72 308 90 478 50z"/>
<path d="M684 7386 c-29 -29 -34 -41 -34 -80 0 -36 6 -52 28 -75 40 -43 640
-394 814 -476 71 -34 80 -36 113 -25 89 29 102 160 21 209 -17 10 -211 122
-432 250 -450 259 -448 259 -510 197z"/>
<path d="M8596 7171 c-278 -161 -433 -257 -442 -272 -34 -61 -3 -148 61 -169
34 -11 42 -9 132 34 185 90 774 437 803 474 13 16 20 40 20 69 0 38 -5 50 -34
79 -62 62 -59 64 -540 -215z"/>
<path d="M65 5021 c-59 -25 -82 -111 -46 -169 12 -18 33 -37 47 -42 15 -6 222
-10 517 -10 474 0 493 1 525 20 18 11 37 32 43 48 16 41 4 101 -25 131 l-26
26 -508 2 c-279 1 -516 -2 -527 -6z"/>
<path d="M8725 5021 c-41 -17 -60 -50 -60 -107 0 -45 4 -58 28 -81 l27 -28
521 0 521 0 24 28 c49 58 43 135 -15 174 l-34 23 -496 -1 c-273 0 -505 -4
-516 -8z"/>
<path d="M3384 1403 c-32 -6 -74 -56 -80 -95 -4 -23 0 -48 10 -69 33 -69 -97
-64 1586 -67 1062 -2 1536 0 1562 8 52 15 78 52 78 111 0 60 -28 96 -85 109
-38 9 -3026 12 -3071 3z"/>
<path d="M3552 800 c-36 -22 -52 -54 -52 -107 0 -27 8 -43 34 -69 l34 -34
1357 0 1357 0 28 29 c16 16 32 41 36 56 11 43 -13 103 -49 125 -31 19 -61 20
-1372 20 -1322 0 -1340 0 -1373 -20z"/>
<path d="M3963 220 c-73 -30 -79 -158 -9 -201 30 -18 62 -19 969 -19 864 0
941 1 968 17 48 29 67 105 39 159 -31 56 10 54 -1007 53 -517 0 -948 -4 -960
-9z"/>
</g>
</svg>
