<?xml version="1.0" standalone="no"?>
<!DOCTYPE svg PUBLIC "-//W3C//DTD SVG 20010904//EN"
 "http://www.w3.org/TR/2001/REC-SVG-20010904/DTD/svg10.dtd">
<svg version="1.0" xmlns="http://www.w3.org/2000/svg"
 width="256.000000pt" height="256.000000pt" viewBox="0 0 256.000000 256.000000"
 preserveAspectRatio="xMidYMid meet">

<g transform="translate(0.000000,256.000000) scale(0.100000,-0.100000)"
fill="#000000" stroke="none">
<path d="M670 2466 c-289 -61 -499 -285 -541 -579 -23 -153 18 -328 105 -460
56 -84 172 -188 258 -230 172 -85 367 -98 532 -36 27 10 53 16 57 13 5 -3 50
-65 100 -139 50 -74 97 -139 105 -145 21 -18 54 -2 54 26 0 14 -39 81 -95 163
l-95 139 32 20 c18 11 35 19 38 17 3 -2 31 -40 61 -84 56 -83 80 -101 104 -81
25 21 17 43 -46 133 -36 53 -57 92 -53 100 4 6 24 32 45 57 52 64 84 123 115
215 23 68 27 97 28 195 0 80 -5 134 -17 179 -80 292 -328 493 -625 506 -60 3
-122 -1 -162 -9z m268 -81 c211 -50 397 -235 447 -446 88 -375 -200 -739 -585
-739 -164 0 -301 58 -421 179 -152 152 -212 356 -164 559 49 208 236 396 443
446 76 19 202 19 280 1z"/>
<path d="M705 2310 c-270 -54 -459 -316 -418 -577 38 -241 205 -408 445 -446
175 -28 374 56 482 203 137 186 137 434 0 620 -114 155 -323 237 -509 200z
m252 -98 c110 -42 207 -139 254 -252 30 -73 33 -229 6 -307 -39 -111 -141
-216 -257 -264 -79 -33 -241 -33 -320 0 -296 122 -374 497 -150 721 57 57 134
101 207 120 60 15 200 5 260 -18z"/>
<path d="M732 1867 c-72 -73 -132 -139 -132 -148 0 -19 20 -39 40 -39 20 0
280 260 280 281 0 19 -20 39 -40 39 -8 0 -75 -60 -148 -133z"/>
<path d="M932 1867 c-53 -54 -61 -74 -40 -95 22 -22 43 -13 96 41 53 54 61 74
40 95 -22 22 -43 13 -96 -41z"/>
<path d="M1570 1438 c-19 -5 -49 -20 -66 -33 -54 -42 -65 -79 -84 -307 -17
-203 -19 -211 -61 -314 -44 -112 -45 -136 -2 -142 27 -4 33 7 81 128 39 101
41 112 58 310 17 220 26 250 74 275 65 34 69 26 95 -162 10 -73 23 -137 29
-141 6 -5 43 -17 81 -27 94 -23 241 -81 290 -114 59 -39 82 -80 90 -158 6 -67
-6 -235 -25 -342 -6 -30 -10 -58 -10 -62 0 -12 227 -189 242 -189 19 0 38 20
38 41 0 12 -115 114 -196 173 -1 1 5 42 12 91 7 50 13 144 13 211 1 155 -13
207 -73 262 -58 54 -105 77 -266 132 l-135 46 -20 136 c-12 76 -27 143 -35
153 -14 17 -71 46 -87 44 -4 0 -24 -5 -43 -11z"/>
<path d="M1172 868 c-18 -18 -16 -400 2 -462 29 -95 93 -148 217 -181 59 -15
74 -25 130 -81 64 -64 85 -74 107 -52 23 23 12 44 -60 114 -68 66 -79 73 -153
93 -94 27 -129 49 -155 101 -18 35 -20 60 -20 248 0 213 -3 232 -40 232 -9 0
-21 -5 -28 -12z"/>
</g>
</svg>
