<?xml version="1.0" encoding="utf-8" ?>
<svg xmlns="http://www.w3.org/2000/svg" xmlns:xlink="http://www.w3.org/1999/xlink" width="1024" height="1024">
	<path fill="#FEFEFF" d="M0 0L1024 0L1024 1024L0 1024L0 0Z"/>
	<path fill="#1C1C1F" d="M661.589 891.379C665.184 891.499 668.792 891.497 672.389 891.552C673.44 896.507 674.857 900.186 677.419 904.563C677.276 904.536 677.132 904.512 676.989 904.483L676.276 904.331C669.281 902.89 665.443 896.859 661.589 891.379Z"/>
	<path fill="#1C1C1F" d="M664.842 821.777C666.259 824.918 669.147 847.638 668.121 850.702L666.626 851.101L662.676 851.238L662.533 850.429L662.72 850.25C661.796 847.448 664.334 826.145 664.842 821.777Z"/>
	<path fill="#1C1C1F" d="M866.915 874.742C879.435 875.258 891.917 876.06 904.426 876.748C910.363 877.075 916.626 876.873 922.471 877.799L921.917 878.372C909.195 879.09 896.462 879.235 883.727 879.52C878.358 879.64 872.399 880.449 867.123 879.661C866.4 878.248 866.796 876.299 866.915 874.742Z"/>
	<path fill="#1C1C1F" d="M895.988 677.05C896.178 677.306 896.11 677.678 896.151 677.996C893.646 684.336 887.423 703.612 883.886 707.598C880.409 702.692 883.291 688.946 883.645 682.907C883.791 682.898 883.937 682.893 884.082 682.881C889.538 682.454 892.362 681.158 895.988 677.05Z"/>
	<path fill="#1C1C1F" d="M660.411 863.343C663.694 863.217 667.028 863.403 670.314 863.476C670.48 867.866 671.802 873.351 671.034 877.633C670.839 878.72 670.535 878.795 669.688 879.405C665.961 879.564 662.209 879.527 658.478 879.565C658.525 874.128 659.521 868.694 660.411 863.343Z"/>
	<path fill="#1C1C1F" d="M218.836 846.705C221.032 846.29 223.564 846.378 225.81 846.243C228.684 849.016 231.824 851.269 235.153 853.455Q204.137 853.719 173.125 853.102Q164.095 853.128 155.071 852.779C162.268 851.277 170.16 851.132 177.511 850.472L218.836 846.705Z"/>
	<path fill="#1C1C1F" d="M866.884 897.886C874.746 898.014 882.651 898.784 890.503 899.244L953.024 903.299L953.676 904.324L954.947 903.824L953.872 904.238L954.889 903.644L954.923 903.891C952.874 904.604 950.533 904.559 948.378 904.694C939.136 905.742 929.455 905.454 920.136 905.661L860.604 906.504C864 903.928 865.31 901.713 866.884 897.886Z"/>
	<path fill="#1C1C1F" d="M406.498 565.281C407.41 565.768 407.186 565.534 407.811 566.274C413.388 572.887 417.218 581.881 416.381 590.662C415.822 596.522 412.98 601.331 408.571 605.115C409.913 597.944 409.252 589.693 406.622 582.854C405.895 590.803 406.384 599.264 406.642 607.257C401.728 601.178 396.507 594.042 396.403 585.901C396.297 577.673 400.9 570.829 406.498 565.281Z"/>
	<path fill="#1C1C1F" d="M190.953 623.179C195.498 622.794 199.361 622.952 203.715 624.588C214.534 628.651 219.948 637.792 224.518 647.78C215.203 642.714 207.754 635.52 197.741 631.35C200.803 634.226 204.24 636.669 207.599 639.182C213.483 643.836 219.343 648.119 225.901 651.81C218.409 652.062 210.133 651.734 202.994 649.239C191.499 645.222 185.111 636.04 180.004 625.508C183.652 624.548 187.216 623.701 190.953 623.179Z"/>
	<path fill="#1C1C1F" d="M248.49 870.227C250.343 870.15 252.233 870.263 254.088 870.296C259.076 873.809 264.428 876.956 269.576 880.241C253.472 878.937 236.695 879.964 220.509 879.977Q175.921 879.886 131.34 879.041C125.804 878.991 115.332 879.247 110.294 878.461C110.112 878.432 109.958 878.296 109.775 878.269C109.621 878.247 109.464 878.301 109.309 878.317L109.415 877.936C113.129 876.948 117.226 877.212 121.058 876.93C128.128 876.408 135.183 875.744 142.262 875.268Q195.317 871.514 248.49 870.227Z"/>
	<path fill="#1C1C1F" d="M779.265 383.905C781.166 386.121 783.557 403.552 787.392 409.285C792.499 416.92 811.152 418.665 819.898 420.496C812.428 421.757 795.643 423.572 789.619 427.578C782.856 432.075 781.213 448.771 779.883 456.548C777.459 448.532 777.414 438.408 772.615 431.327C767.554 423.86 748.149 422.03 739.498 420.323C748.061 418.197 760.715 417.41 768.128 412.885C775.306 408.503 777.233 391.935 779.265 383.905Z"/>
	<path fill="#1C1C1F" d="M248.198 386.785C249.948 388.309 254.987 413.698 257.45 419.333C267.272 423.66 278.434 423.66 288.364 427.348C281.976 428.488 264.198 430.741 259.405 433.646C253.424 437.271 251.365 454.88 249.56 461.805L249.418 462.38L248.912 462.555C245.038 454.791 245.902 444.082 241.357 436.627C238.07 431.238 217.503 428.573 211.065 427.094C217.956 425.534 233.387 423.17 238.553 419.698C240.065 418.682 241.172 417.311 241.931 415.661C244.608 409.84 246.65 394.076 248.198 386.785Z"/>
	<path fill="#1C1C1F" d="M495.546 219.808C499.224 228.639 498.403 239.575 503.497 248.02C508.714 256.669 525.567 257.204 534.635 259.326C523.956 262.002 513.646 262.279 503.881 268.084C499.109 276.135 497.149 289.416 495.208 298.676C491.953 295.604 491.542 275.586 487.735 269.624C483.88 263.584 463.603 261.228 456.34 259.525C466.025 256.956 479.109 256.126 487.371 250.342C492.141 241.198 493.077 229.743 495.546 219.808Z"/>
	<path fill="#1C1C1F" d="M497.48 396.786C501.009 405.248 499.647 416.298 505.001 424.06C509.996 431.302 528.336 433.523 536.916 434.999C525.981 438.66 514.299 438.539 504.412 445.324C500.658 454.419 499.286 464.546 497.199 474.125C495.181 472.116 492.821 451.002 489.576 445.724C488.49 443.958 486.97 442.683 485.114 441.774C479.053 438.806 464.721 436.587 457.461 434.993C467.968 431.792 479.305 431.706 489.098 426.324C493.314 417.389 494.704 406.324 497.48 396.786Z"/>
	<path fill="#1C1C1F" d="M577.328 299.41C580.517 309.949 579.912 321.481 585.879 331.214C594.59 336.697 607.1 338.407 617.053 340.568C608.884 341.901 594.772 343.232 588.126 347.704C580.794 352.639 578.797 374.044 576.898 382.71C574.78 372.368 572.307 357.567 567.616 348.252C558.087 344.119 547.108 342.045 537.002 339.713C547.312 337.512 558.522 335.941 568.278 331.916C573.378 323.727 575.007 308.967 577.328 299.41Z"/>
	<path fill="#1C1C1F" d="M240.948 585.56L241.486 586.258C249.277 596.409 253.663 610.439 251.704 623.274C250.481 631.288 243.976 643.917 237.251 648.606C236.349 649.234 236.281 649.376 235.174 649.14C234.635 646.47 236.102 642.333 236.539 639.51C237.663 632.236 240.024 614.672 237.802 608.231L237.293 608.478C235.582 622.798 233.773 637.192 230.208 651.19C229.123 648.07 227.311 645.1 225.867 642.12C221.599 633.31 219.955 624.657 221.851 614.949C224.078 603.543 231.267 592.066 240.948 585.56Z"/>
	<path fill="#1C1C1F" d="M186.644 552.859C188.389 553.815 190.129 554.851 191.77 555.977C202.577 563.394 211.942 574.938 214.127 588.127C215.738 597.85 213.214 606.353 207.554 614.24C201.274 601.028 197.042 587.198 192.182 573.439L191.849 573.834C191.736 583.92 199.827 607.911 203.141 618.532Q202.423 618.2 201.718 617.842C191.632 612.847 184.692 604.555 181.142 593.836C176.489 579.786 180.143 565.688 186.644 552.859Z"/>
	<path fill="#1C1C1F" d="M448.61 587.183C454.278 586.567 459.913 587.387 465.41 588.733Q465.22 591.091 464.926 593.438Q464.798 594.524 464.616 595.602Q464.434 596.679 464.198 597.747Q463.962 598.814 463.672 599.869Q463.383 600.923 463.042 601.961Q462.7 603 462.306 604.019Q461.913 605.039 461.469 606.038Q461.025 607.037 460.531 608.013Q460.038 608.988 459.496 609.938Q458.954 610.887 458.365 611.808Q457.777 612.729 457.142 613.62Q456.508 614.51 455.83 615.368Q455.152 616.225 454.432 617.047Q453.712 617.87 452.951 618.655Q452.19 619.44 451.391 620.186Q450.592 620.932 449.757 621.638Q448.922 622.343 448.052 623.005C436.438 631.876 422.212 631.439 408.476 629.591C417.216 624.308 425.463 618.58 433.737 612.593C438.525 609.312 443.194 605.938 447.456 601.987C432.493 609.204 421.504 617.581 407.797 626.207C410.252 617.954 414.362 609.748 419.765 603.03C427.109 593.899 436.939 588.451 448.61 587.183Z"/>
	<path fill="#1C1C1F" d="M464.927 516.685C465.399 517.163 465.359 517.379 465.508 518.044C468.565 531.718 467.061 547.338 459.391 559.301C451.778 571.176 440.483 575.86 427.273 578.688C431 568.196 436.996 557.346 442.908 547.92C445.311 544.088 448.102 540.47 450.346 536.547L450.567 536.153C438.57 545.41 429.407 561.409 424.916 575.673C423.64 572.646 422.72 569.263 422.104 566.038C420.216 556.158 421.678 545.741 427.415 537.339C435.957 524.831 450.672 519.474 464.927 516.685Z"/>
	<path fill="#1C1C1F" d="M358.086 568.175C371.6 576.658 384.392 584.463 391.851 599.285C399.792 615.067 398.611 632.648 393.15 649.12Q381.95 619.986 368.05 592.039L367.825 591.819C366.986 597.249 385.959 642.363 389.486 649.84C375.351 642.864 361.948 632.84 355.752 617.898C349.003 601.625 351.481 584.054 358.086 568.175Z"/>
	<path fill="#1C1C1F" d="M372.746 276.361C375.271 278.841 380.475 316.725 385.148 324.985C386.116 326.696 387.36 328.354 389.031 329.434C398.901 335.81 427.628 339.557 440.398 343.047C428.871 345.211 396.713 350.04 388.522 355.518C386.031 357.184 384.344 359.545 383.164 362.269C379.066 371.734 375.441 397.271 373.443 408.394L373.124 409.393C370.706 407.108 365.766 368.109 361.689 360.432C356.366 350.409 318.924 345.507 307.32 341.893C318.633 339.141 348.314 335.762 356.705 330.309C359.228 328.669 360.96 326.474 362.167 323.734C364.39 318.691 365.126 312.351 366.275 306.951L372.746 276.361Z"/>
	<path fill="#1C1C1F" d="M772.674 680.74C787.879 680.677 803.049 680.908 818.251 681.077C827.239 681.177 836.229 680.968 845.209 681.449C843.991 702.782 843.973 724.206 842.434 745.511C838.359 744.118 834.349 742.527 830.328 740.986C802.453 730.118 775.488 712.975 753.017 693.299C753.034 689.215 752.871 685.123 752.773 681.04L772.674 680.74Z"/>
	<path fill="#1C1C1F" d="M301.782 514.26C314.138 514.116 326.64 513.798 338.983 514.39C338.333 531.966 338.812 549.665 338.827 567.258L338.752 656.256C384.183 658.206 426.532 667.325 470.27 678.9Q466.953 691.405 463.267 703.807C460.658 705.734 457.956 707.261 455.101 708.792C431.322 697.846 402.64 689.691 377.04 684.155C325.425 671.984 272.048 669.297 219.237 671.71C209.731 672.144 200.114 672.151 190.651 673.138C188.719 669.67 187.401 666.067 186.081 662.336C211.805 658.072 237.22 656.461 263.237 655.635C263.722 608.597 263.324 561.477 263.023 514.437Q282.403 514.454 301.782 514.26Z"/>
	<path fill="#1C1C1F" d="M192.322 676.082C201.52 676.015 210.879 676.919 220.056 677.586C285.989 682.382 369.954 701.046 427.628 734.415C405.542 757.876 395.368 777.101 362.685 789.168C346.23 794.25 329.316 793.068 312.485 791.042C315.959 806.145 324.044 820.413 334.019 832.161C327.134 828.011 320.051 824.01 313.373 819.547Q309.524 816.975 305.747 814.298Q301.97 811.621 298.269 808.841Q294.567 806.061 290.943 803.18Q287.319 800.299 283.776 797.32Q280.233 794.341 276.773 791.265Q273.313 788.189 269.94 785.019Q266.566 781.849 263.28 778.588Q259.995 775.327 256.801 771.976Q253.606 768.625 250.506 765.188Q247.405 761.751 244.4 758.229Q241.394 754.708 238.487 751.105Q235.58 747.503 232.773 743.821Q229.967 740.14 227.262 736.383Q224.558 732.625 221.958 728.795Q219.358 724.965 216.864 721.065Q214.37 717.164 211.985 713.197C204.778 701.308 197.619 688.961 192.322 676.082Z"/>
	<path fill="#1C1C1F" d="M757.075 205.878C803.042 237.095 842.735 286.113 869.569 334.414C915.335 416.795 930.32 516.014 914.275 608.628C910.932 627.923 905.404 646.692 900.045 665.493C899.752 666.375 899.442 667.105 898.967 667.904C898.176 665.386 898.816 661.868 898.898 659.225C899.151 651.09 900.545 632.133 897.527 625.328C895.922 621.709 893.792 619.971 890.167 618.564C886.066 605.15 880.644 595.937 874.154 583.755C875.104 574.519 876.455 565.344 877.148 556.078Q878.16 541.586 877.981 527.06Q877.803 512.534 876.436 498.071Q876.014 493.544 875.48 489.029Q874.946 484.514 874.301 480.014Q873.656 475.513 872.899 471.03Q872.143 466.547 871.276 462.084Q870.409 457.621 869.432 453.181Q868.454 448.74 867.368 444.326Q866.281 439.911 865.085 435.524Q863.89 431.138 862.586 426.782Q861.283 422.427 859.872 418.105Q858.461 413.783 856.943 409.497Q855.426 405.211 853.803 400.964Q852.18 396.717 850.452 392.512Q848.725 388.306 846.894 384.145Q845.063 379.983 843.129 375.868Q841.196 371.753 839.162 367.687Q837.127 363.622 834.993 359.607Q832.858 355.593 830.625 351.633Q828.392 347.672 826.062 343.768Q823.731 339.865 821.305 336.02Q818.879 332.174 816.359 328.391Q813.838 324.607 811.225 320.886Q808.611 317.166 805.907 313.511Q803.202 309.857 800.408 306.27Q797.614 302.684 794.732 299.167Q791.85 295.651 788.882 292.207Q785.914 288.763 782.862 285.393Q779.81 282.024 776.675 278.73Q773.54 275.437 770.325 272.223Q767.11 269.008 763.816 265.874Q760.523 262.74 757.152 259.689Q753.782 256.637 750.338 253.67Q746.893 250.702 743.376 247.821C745.464 242.356 746.916 236.508 748.653 230.914Q752.535 218.285 757.075 205.878Z"/>
	<path fill="#1C1C1F" d="M745.197 522.201C765.065 519.377 791.073 526.202 808.772 535.428C845.233 554.433 868.151 588.942 880.123 627.346C882.143 627.546 883.775 627.355 885.766 627.993C886.265 628.474 886.926 628.866 887.076 629.567C887.329 630.74 887.1 667.555 886.698 669.1C886.591 669.509 886.241 669.812 886.012 670.168C882.323 672.418 875.861 671.56 871.627 671.546C868.766 697.911 869.017 724.608 865.819 750.924L856.219 748.791L861.966 671.967C850.043 670.423 831.8 671.354 819.39 671.255Q771.284 670.686 723.183 671.549C727.73 678.931 735.554 685.475 742.012 691.247C766.572 713.195 793.407 732.665 824.183 745.016C836.085 749.792 864.881 760.179 876.636 754.686C878.198 753.957 879.489 752.758 880.038 751.092C881.244 747.434 879.284 743.395 877.722 740.149C878.528 734.339 879.069 728.579 879.492 722.732C884.377 730.09 890.075 741.535 889.577 750.584C889.364 754.456 887.828 758.278 884.787 760.788C879.285 765.331 869.602 765.741 862.752 765.202C819.588 761.81 765.131 725.875 734.203 697.085C725.728 689.196 718.167 680.474 710.702 671.643Q693.765 671.977 676.824 671.991C677.981 679.318 678.161 686.888 678.71 694.288L681.595 729.788Q687.763 803.544 692.909 877.378L694.086 891.53C712.281 893.753 733.178 893.691 751.651 894.05C751.731 874.033 750.822 853.945 750.276 833.931Q748.679 774.987 747.742 716.03C774.752 739.854 807.871 756.848 842.049 767.647C841.787 797.601 840.185 827.636 839.587 857.602C839.4 866.962 838.169 881.48 839.033 890.108C841.105 890.907 843.36 889.765 845.332 888.999C847.196 870.101 848.105 851.032 849.371 832.078C850.716 811.93 852.389 791.789 853.547 771.63L863.574 773.2C863.341 784.752 861.848 796.496 861.129 808.056L855.15 896.243C845.615 901.183 833.3 901.109 822.76 901.71C791.549 903.492 760.519 903.516 729.268 902.891C718.702 902.68 704.659 903.351 694.529 901.549C691.913 901.083 689.553 900.414 687.581 898.556C685.797 896.875 684.654 895.103 684.185 892.682C682.778 885.42 682.849 877.362 682.23 869.956Q680.031 845.069 678.179 820.155L673.573 763.124C670.853 732.621 667.823 702.104 666.272 671.511C662.467 671.371 657.645 671.761 654.176 670.043C653.545 669.193 653.46 668.479 653.312 667.451C652.545 662.126 651.871 631.544 654.495 628.132C658.326 626.825 663.68 627.659 667.704 627.81C666.732 600.578 671.63 572.694 689.573 551.22C704.202 533.712 722.502 524.299 745.197 522.201Z"/>
	<path fill="#FEFEFF" d="M662.556 638.134C670.956 638.07 679.374 638.257 687.775 638.326C690.049 641.817 702.984 658.839 702.814 661.412C689.289 661.689 675.727 661.52 662.198 661.551L662.556 638.134Z"/>
	<path fill="#FEFEFF" d="M699.874 638.47L821.828 638.578L864.49 638.618C867.938 638.63 871.495 638.151 874.895 638.251C876.328 638.294 876.854 638.608 877.919 639.526C878.353 640.867 878.393 641.623 878.186 643.015C875.278 644.451 767.692 643.957 753.111 644.002C753.174 647.535 752.709 651.493 753.827 654.852C755.044 656.059 755.704 655.758 757.375 655.815L843.683 655.728C850.238 655.709 871.88 654.7 877.089 656.048C878.107 657.009 878.154 657.112 878.455 658.481C878.18 659.265 878.122 659.825 877.478 660.399C876.689 661.103 875.939 661.425 874.898 661.51C869.39 661.96 863.447 661.507 857.9 661.516L821.738 661.548L716.119 661.327C710.153 654.305 704.553 646.406 699.874 638.47Z"/>
	<path fill="#FEFEFF" d="M747.331 531.692C763.643 529.713 779.571 533.253 794.591 539.422C824.534 551.722 847.139 575.506 861.316 604.333C865.051 611.928 867.728 619.939 870.978 627.74C844.714 628.534 818.306 627.994 792.028 627.976L696.894 628.018C695.351 625.127 693.445 621.146 690.672 619.278C689.298 618.353 687.716 618.018 686.084 618.367C681.934 619.255 681.286 625.13 679.375 628.263L677.986 628.124C677.501 627.571 677.382 627.288 677.274 626.541C676.825 623.433 677.296 619.583 677.376 616.411C677.888 596.06 683.196 574.933 696.055 558.726C708.982 542.434 726.932 534.094 747.331 531.692Z"/>
	<path fill="#1C1C1F" d="M495.266 123.718C545.284 122.169 598.028 129.424 645.327 146.02C665.888 153.234 685.501 162.37 704.916 172.191C703.4 178.561 701.041 184.766 699.086 191.019C696.68 198.713 694.518 206.5 692.245 214.235C681.617 209.467 671.482 203.586 660.777 198.868Q653.894 195.797 646.894 193.004Q639.894 190.211 632.788 187.699Q625.683 185.187 618.482 182.961Q611.282 180.735 603.998 178.798Q596.715 176.861 589.359 175.216Q582.004 173.572 574.589 172.222Q567.175 170.872 559.712 169.82Q552.249 168.767 544.75 168.013Q540.339 167.6 535.92 167.294Q531.501 166.989 527.075 166.791Q522.65 166.594 518.221 166.504Q513.792 166.414 509.362 166.432Q504.932 166.45 500.504 166.576Q496.076 166.702 491.652 166.936Q487.228 167.17 482.812 167.511Q478.395 167.853 473.988 168.301Q469.581 168.75 465.186 169.307Q460.791 169.863 456.411 170.526Q452.031 171.189 447.669 171.959Q443.306 172.728 438.964 173.604Q434.621 174.48 430.302 175.461Q425.982 176.442 421.687 177.528Q417.392 178.614 413.125 179.805Q408.858 180.995 404.622 182.289Q400.385 183.583 396.181 184.98Q391.977 186.377 387.809 187.876Q383.64 189.375 379.509 190.975Q375.378 192.575 371.288 194.275Q367.197 195.975 363.149 197.774Q359.101 199.573 355.098 201.471Q351.095 203.368 347.139 205.362Q343.184 207.356 339.278 209.447Q335.372 211.537 331.518 213.721Q327.665 215.906 323.865 218.184Q320.066 220.461 316.323 222.831Q312.58 225.201 308.896 227.661Q305.212 230.121 301.589 232.67Q297.966 235.219 294.407 237.856Q290.847 240.493 287.353 243.215Q283.858 245.938 280.431 248.745Q276.887 251.648 273.415 254.638Q269.944 257.628 266.548 260.703Q263.152 263.779 259.833 266.937Q256.514 270.096 253.274 273.336Q250.035 276.575 246.877 279.895Q243.719 283.214 240.644 286.61Q237.569 290.007 234.579 293.478Q231.59 296.95 228.687 300.495Q225.784 304.04 222.97 307.655Q220.156 311.271 217.433 314.955Q214.71 318.64 212.079 322.39Q209.447 326.141 206.91 329.956Q204.373 333.771 201.931 337.647Q199.489 341.524 197.144 345.46Q194.799 349.396 192.552 353.389Q190.305 357.382 188.158 361.429Q186.011 365.476 183.965 369.576Q181.919 373.675 179.976 377.824Q178.032 381.973 176.192 386.169Q174.352 390.364 172.616 394.604Q170.88 398.845 169.251 403.126Q167.621 407.408 166.097 411.729Q164.574 416.05 163.159 420.408Q161.743 424.765 160.436 429.156Q159.129 433.547 157.931 437.97Q156.733 442.392 155.645 446.842Q154.558 451.293 153.58 455.769Q152.603 460.245 151.738 464.744Q150.872 469.243 150.118 473.762Q149.364 478.282 148.722 482.818Q148.081 487.354 147.552 491.905Q147.023 496.456 146.607 501.019C137.435 598.379 168.265 691.265 230.511 766.096Q233.461 769.59 236.497 773.01Q239.533 776.429 242.653 779.773Q245.772 783.116 248.974 786.382Q252.175 789.647 255.457 792.832Q258.738 796.017 262.097 799.12Q265.456 802.223 268.891 805.241Q272.326 808.26 275.834 811.193Q279.343 814.126 282.923 816.971Q286.503 819.816 290.152 822.571Q293.802 825.327 297.518 827.991Q301.235 830.656 305.016 833.227Q308.797 835.799 312.641 838.276Q316.485 840.753 320.389 843.135Q324.293 845.516 328.255 847.8Q332.216 850.084 336.233 852.269Q340.25 854.454 344.32 856.539C354.973 861.942 366.521 865.56 376.864 870.803C384.196 874.52 390.948 879.509 398.239 883.381C421.593 895.783 448.547 905.945 474.38 911.495C510.827 919.326 547.929 917.923 584.947 918.096L710.878 918.535Q778.145 918.671 845.333 921.95Q912.52 925.23 979.481 931.647C963.005 933.066 946.29 932.648 929.759 932.84Q886.135 933.634 842.504 933.526Q724.908 934.592 607.307 934.2Q412.128 935.123 216.949 933.805L99.4758 932.964C80.7052 932.748 61.8504 932.956 43.101 932.113C67.3277 928.436 91.7678 926.86 116.211 925.515Q164.694 922.876 213.241 921.981L373.581 918.115Q365.435 915.301 357.42 912.133C351.736 909.825 345.686 905.997 339.643 905.142C331.175 903.943 321.472 905.039 312.929 905.249Q285.085 906.083 257.23 906.425Q160.911 906.9 64.607 905.151C72.8484 903.33 81.7852 903.039 90.187 902.295Q124.125 899.395 158.168 898.273Q204.376 896.279 250.618 895.385C273.85 894.837 297.057 894.02 320.293 894.918C286.939 875.522 259.967 858.003 231.159 831.78C215.911 817.899 202.546 802.719 189.721 786.616C134.719 717.553 107.036 638.554 103.029 550.596Q102.833 545.986 102.741 541.373Q102.648 536.76 102.659 532.146Q102.669 527.532 102.783 522.92Q102.897 518.307 103.113 513.699Q103.33 509.09 103.649 504.487Q103.968 499.884 104.39 495.29Q104.813 490.695 105.337 486.111Q105.862 481.527 106.488 476.956Q107.115 472.385 107.844 467.829Q108.573 463.273 109.403 458.734Q110.233 454.196 111.165 449.677Q112.096 445.158 113.128 440.661Q114.16 436.164 115.293 431.691Q116.425 427.219 117.657 422.772Q118.889 418.326 120.219 413.908Q121.55 409.49 122.979 405.103Q124.409 400.716 125.935 396.362Q127.462 392.008 129.086 387.69Q130.709 383.371 132.429 379.089Q134.149 374.808 135.964 370.566Q137.778 366.324 139.688 362.123Q141.597 357.923 143.599 353.766Q145.601 349.61 147.696 345.499Q149.791 341.388 151.977 337.325Q154.163 333.261 156.439 329.248Q158.715 325.235 161.081 321.273Q163.446 317.312 165.899 313.404Q168.352 309.496 170.892 305.644Q173.432 301.792 176.057 297.998Q178.682 294.204 181.391 290.469Q184.101 286.735 186.893 283.061Q189.685 279.388 192.558 275.778C199.329 267.187 207.101 259.102 214.487 251.027C223.821 240.822 234.071 231.625 244.479 222.544Q247.72 219.726 251.019 216.978Q254.319 214.229 257.677 211.552Q261.034 208.874 264.448 206.269Q267.861 203.663 271.33 201.131Q274.798 198.598 278.32 196.14Q281.841 193.682 285.414 191.3Q288.987 188.917 292.61 186.611Q296.232 184.305 299.903 182.077Q303.574 179.849 307.292 177.699Q311.01 175.549 314.772 173.479Q318.534 171.409 322.34 169.419Q326.146 167.429 329.993 165.521Q333.84 163.612 337.727 161.786Q341.614 159.96 345.539 158.217Q349.463 156.474 353.424 154.815Q357.385 153.156 361.381 151.582Q365.376 150.007 369.404 148.518Q373.432 147.029 377.491 145.626Q381.55 144.223 385.637 142.907Q389.725 141.59 393.84 140.361Q397.955 139.132 402.095 137.991Q406.234 136.849 410.398 135.796Q414.561 134.743 418.746 133.779Q422.931 132.815 427.135 131.94Q431.339 131.065 435.561 130.279Q439.783 129.494 444.021 128.799Q448.259 128.103 452.51 127.498Q456.762 126.893 461.026 126.379Q465.289 125.864 469.562 125.44Q473.836 125.017 478.117 124.684Q482.399 124.351 486.687 124.11Q490.974 123.868 495.266 123.718Z"/>
	<path fill="#1C1C1F" d="M753.962 90.0886C756.292 89.897 758.62 89.9226 760.896 90.5186C765.398 91.6979 769.304 94.4072 771.566 98.526C773.61 102.248 773.958 106.475 773.026 110.564C769.897 124.285 764.464 137.851 760.28 151.307L725.288 260.471L656.312 480.857Q633.635 550.505 612.058 620.501C613.233 622.132 614.38 623.758 615.296 625.555C616.462 627.839 617.172 630.201 616.982 632.784C616.386 640.843 606.464 666.732 603.348 676.148C609.369 678.491 662.082 695.065 662.654 696.115C663.794 698.206 662.764 702.755 661.941 704.879C659.696 710.672 654.357 714.31 651.81 719.89C649.201 725.606 647.752 732.022 646.033 738.046Q642.901 748.859 639.595 759.62C641.101 762.755 642.138 766.187 643.297 769.464Q644.704 773.373 645.904 777.35Q647.104 781.327 648.093 785.361Q649.083 789.396 649.86 793.476Q650.637 797.557 651.199 801.673Q651.762 805.789 652.107 809.929Q652.453 814.069 652.581 818.221Q652.709 822.373 652.62 826.526Q652.53 830.679 652.223 834.822C651.134 849.433 643.517 879.319 648.689 891.621C651.563 898.457 656.957 902.283 663.613 904.936C637.72 905.639 611.723 905.151 585.814 905.403C586.97 896.196 588.437 886.407 588.483 877.135C584.171 887.792 579.193 896.58 571.484 905.165C542.836 904.74 514.702 904.843 486.354 899.897C432.68 890.533 370.556 861.055 338.518 815.528C336.474 812.26 334.537 809.046 332.904 805.551C350.883 805.98 366.7 802.89 382.536 794.102C411.81 777.856 428.274 749.016 452.799 727.45C462.079 719.29 472.744 713.396 483.518 707.495C482.113 706.662 480.945 705.897 479.78 704.746C478.772 700.689 484.205 683.478 485.42 678.699C502.545 681.787 519.312 688.877 535.819 694.334L606.962 717.579C618.648 721.355 630.273 725.469 642.069 728.878C643.083 726.795 643.885 724.592 644.752 722.443C628.603 716.433 611.943 711.422 595.559 706.068L530.987 684.734L504.979 676.42C499.108 674.549 492.547 672.965 487.16 669.959C486.263 665.722 491.694 646.94 492.874 641.665C512.711 647.702 532.552 654.601 552.554 659.983C556.658 648.75 560.349 636.905 565.18 625.987C568.048 619.506 572.571 615.234 579.153 612.722L704.984 217.197C714.673 186.53 723.259 155.516 733.005 124.871C735.434 117.235 738.283 104.412 742.196 97.9955C744.882 93.5905 749.062 91.223 753.962 90.0886Z"/>
	<path fill="#FEFEFF" d="M461.432 810.518L461.633 810.655L461.576 811.234C441.814 827.689 419.67 835.665 394.136 837.308L393.96 837.254L393.97 836.859C419.445 831.733 439.424 824.713 461.432 810.518Z"/>
	<path fill="#FEFEFF" d="M543.225 820.401C543.267 820.918 543.299 820.948 543.192 821.517C542.483 825.267 540.095 829.414 538.366 832.828C529.416 850.508 514.082 873.17 498.011 885.095C497.786 883.848 501.335 880.418 502.172 879.457C518.692 860.479 531.031 842.377 543.225 820.401Z"/>
	<path fill="#FEFEFF" d="M578.393 620.015C583.631 621.583 606.782 627.386 609.235 630.737C609.354 632.06 609.408 632.908 609.025 634.208L607.894 634.456C604.989 633.898 602.059 633.617 599.172 632.928C591.282 631.044 583.626 628.214 575.819 626.008C576.565 623.968 577.505 621.996 578.393 620.015Z"/>
	<path fill="#FEFEFF" d="M573.536 631.782C576.539 632.452 579.385 633.814 582.222 634.986C578.386 644.919 573.026 654.823 568.215 664.339L567.387 665.157C565.14 665.071 562.859 664.044 560.743 663.315C562.742 655.066 568.606 638.415 573.536 631.782Z"/>
	<path fill="#FEFEFF" d="M614.421 750.742C615.865 751.54 616.499 753.272 617.078 754.738C618.766 759.011 619.778 763.611 620.997 768.036C630.764 803.488 633.775 851.383 619.251 885.644L615.894 892.565C616.638 873.364 620.08 854.38 621.195 835.163C622.837 806.837 618.999 778.61 614.421 750.742Z"/>
	<path fill="#FEFEFF" d="M599.581 746.857C599.767 747.023 599.988 747.156 600.138 747.355C602.627 750.663 603.761 776.887 603.821 782.906C604.204 821.492 592.952 861.58 565.591 889.684L564.258 890.955L563.826 890.759C565.464 885.529 569.519 880.304 572.093 875.384C576.087 867.75 579.654 859.764 582.923 851.794C593.798 825.279 597.796 796.108 599.347 767.676C599.714 760.936 599.075 754.162 599.537 747.434L599.581 746.857Z"/>
	<path fill="#FEFEFF" d="M557.816 732.801C557.892 732.867 557.981 732.92 558.043 732.999C559.341 734.666 558.462 737.924 558.073 739.904Q557.539 742.619 556.939 745.32Q556.339 748.021 555.673 750.706Q555.008 753.392 554.277 756.06Q553.547 758.729 552.751 761.379Q551.956 764.029 551.096 766.659Q550.237 769.288 549.313 771.897Q548.39 774.505 547.404 777.09Q546.417 779.675 545.368 782.235Q544.319 784.795 543.208 787.329Q542.097 789.863 540.925 792.369Q539.753 794.875 538.52 797.352Q537.287 799.829 535.994 802.275Q534.701 804.721 533.349 807.135Q531.998 809.549 530.587 811.93Q529.177 814.31 527.71 816.656Q526.242 819.001 524.718 821.31Q523.193 823.619 521.613 825.89Q520.033 828.162 518.398 830.394Q516.764 832.626 515.075 834.818Q513.386 837.009 511.645 839.159Q509.904 841.309 508.111 843.416Q506.317 845.523 504.473 847.586Q502.63 849.649 500.736 851.666Q498.842 853.683 496.9 855.654Q494.958 857.625 492.969 859.548Q490.98 861.471 488.944 863.344Q486.908 865.218 484.828 867.042Q482.747 868.866 480.623 870.639Q478.499 872.411 476.332 874.132Q474.165 875.852 471.957 877.52Q469.749 879.187 467.501 880.8Q465.253 882.413 462.967 883.971L462.838 883.856C462.868 883.64 462.823 883.4 462.927 883.209C463.754 881.681 473.697 873.24 475.828 871.168Q482.386 864.88 488.373 858.045Q494.36 851.21 499.73 843.881Q504.475 837.601 508.957 831.13Q513.438 824.659 517.649 818.009Q521.859 811.358 525.792 804.54Q529.724 797.721 533.372 790.746Q537.019 783.771 540.375 776.651Q543.732 769.531 546.791 762.279Q549.851 755.026 552.608 747.654Q555.365 740.281 557.816 732.801Z"/>
	<path fill="#FEFEFF" d="M484.714 695.946C495.871 698.798 507.075 703.348 518.087 706.849C547.072 716.065 576.015 725.752 604.851 735.436C615.634 739.057 626.264 743.097 637.11 746.534Q636.224 749.692 635.271 752.83C605.509 743.434 575.984 733.202 546.29 723.575L509.41 711.326C500.623 708.43 491.484 705.854 482.999 702.156C483.426 699.995 483.926 698.005 484.714 695.946Z"/>
	<path fill="#FEFEFF" d="M498.101 652.229C502.277 652.769 506.788 654.651 510.821 655.941L533.623 663.189L653.473 701.457L651.59 707.901C651.45 707.921 651.311 707.955 651.17 707.96C644.426 708.235 566.454 680.753 553.6 676.51C546.047 674.016 499.441 660.293 496.897 657.838C496.651 655.909 497.503 654.037 498.101 652.229Z"/>
	<path fill="#FEFEFF" d="M574.299 738.201C574.536 738.424 574.823 738.603 575.009 738.869C577.564 742.513 578.847 764.439 578.955 769.411C579.168 779.147 578.321 789.472 576.315 799.005C570.212 828.014 552.1 865.873 531.613 887.183L530.095 888.554C529.481 887.545 535.646 876.451 536.53 874.595C541.14 864.915 545.91 855.349 549.891 845.381C563.673 810.865 570.504 774.998 574.299 738.201Z"/>
	<path fill="#FEFEFF" d="M507.198 715.821C507.888 715.934 508.11 716.101 508.677 716.482C508.423 718.423 507.109 720.177 506.077 721.806Q505.006 723.525 503.899 725.222Q502.791 726.918 501.648 728.59Q500.505 730.262 499.326 731.909Q498.147 733.557 496.934 735.179Q495.72 736.801 494.472 738.396Q493.224 739.992 491.942 741.56Q490.661 743.129 489.346 744.67Q488.031 746.211 486.683 747.723Q485.336 749.236 483.957 750.719Q482.577 752.202 481.166 753.656Q479.755 755.11 478.314 756.533Q476.872 757.956 475.401 759.348Q473.929 760.74 472.428 762.1Q470.927 763.461 469.398 764.789Q467.868 766.117 466.311 767.412Q464.753 768.707 463.168 769.968Q461.583 771.23 459.972 772.457Q458.36 773.685 456.723 774.877Q455.086 776.07 453.423 777.228Q451.761 778.385 450.074 779.507Q448.388 780.629 446.677 781.714Q444.967 782.8 443.234 783.849Q441.501 784.897 439.746 785.909Q437.991 786.921 436.215 787.894Q434.439 788.868 432.642 789.804Q430.846 790.74 429.03 791.637Q427.213 792.534 425.379 793.392Q423.544 794.251 421.691 795.069Q419.838 795.888 417.968 796.667Q416.099 797.447 414.213 798.186Q412.327 798.925 410.425 799.623Q408.524 800.322 406.608 800.98C396.211 804.537 385.376 806.865 374.671 809.292L373.19 809.299C374.207 808.483 392.467 801.888 395.894 800.216C406.387 795.096 416.472 788.752 426.176 782.282Q441.217 772.038 455.551 760.824Q469.884 749.61 483.446 737.475C491.484 730.35 498.705 722.448 507.198 715.821Z"/>
	<path fill="#FEFEFF" d="M542.784 728.393C543.114 728.772 543.221 728.818 543.369 729.343C544.576 733.642 534.758 758.464 532.649 763.814C511.468 817.563 474.565 848.439 422.706 871.054L422.428 870.886C422.643 869.658 428.224 866.589 429.488 865.776C465.741 842.451 496.075 812.898 518.105 775.604C527.176 760.249 534.675 744.237 542.784 728.393Z"/>
	<path fill="#FEFEFF" d="M524.516 721.27L525.116 721.53L525.435 722.469C524.356 726.826 521.339 731.552 519.223 735.547C507.069 758.495 490.971 780.447 470.55 796.662C439.362 821.427 398.785 830.511 359.597 826.024L357.8 825.665C360.973 824.102 371.429 824.284 375.476 823.911Q383.625 823.085 391.644 821.418Q399.663 819.752 407.466 817.264C448.434 804.237 478.679 776.768 506.185 744.769C512.49 737.434 517.409 728.567 524.126 721.66C524.254 721.528 524.386 721.4 524.516 721.27Z"/>
	<path fill="#FEFEFF" d="M754.22 97.8409C755.083 98.3746 755.542 98.8346 756.224 99.5681C756.586 101.004 756.374 101.986 756.005 103.408C754.418 109.536 752.13 115.635 750.191 121.669L739.151 156.069L712.98 239.219L626.13 514.219L602.908 586.842C599.905 596.033 597.702 606.583 593.555 615.258C593.009 616.399 592.934 616.603 591.801 617.027C590.659 616.602 589.571 616.123 588.465 615.614C587.857 614.406 588.212 613.676 588.559 612.389C590.826 603.981 594.161 595.586 596.858 587.28L613.495 535.246L662.497 380.271L726.528 177.137L742.296 126.663C744.757 118.672 746.87 110.347 749.763 102.513C750.67 100.056 752.01 99.128 754.22 97.8409Z"/>
</svg>
