<?xml version="1.0" encoding="utf-8" ?>
<svg xmlns="http://www.w3.org/2000/svg" xmlns:xlink="http://www.w3.org/1999/xlink" width="1024" height="1024">
	<path fill="#FEFEFE" d="M0 0L1024 0L1024 1024L0 1024L0 0Z"/>
	<path d="M555.039 448.601C555.181 448.649 555.323 448.694 555.463 448.745C559.78 450.288 582.386 468.282 584.379 472.65C585.458 475.016 585.419 477.644 584.481 480.049C583.375 482.889 581.826 484.174 579.087 485.376C575.228 485.571 554.609 486.76 551.886 485.041C550.775 484.34 550.014 482.307 549.658 481.125C548.249 476.447 547.815 455.39 550.31 451.528C551.552 449.605 552.952 449.203 555.039 448.601Z"/>
	<path d="M633.16 426.065C637.175 426.248 644.687 430.3 647.598 433.12C648.827 434.311 649.17 435.554 649.379 437.2C650.056 442.549 649.552 448.446 649.519 453.849L649.27 485.572C639.336 486.077 629.322 485.844 619.375 485.846C615.941 485.888 610.98 486.64 607.821 485.347C605.078 484.225 604.265 481.726 603.283 479.164Q610.971 463.966 618.002 448.452C620.588 442.871 622.926 436.77 626.224 431.579C628.194 428.478 629.537 426.903 633.16 426.065Z"/>
	<path d="M713.07 396.308C714.44 400.346 713.548 414.098 713.569 419.27C713.657 441.445 713.388 463.638 713.648 485.808C707.149 485.909 671.134 486.847 667.795 485.376C667.104 474.316 667.678 462.809 667.595 451.694C673.227 453.977 678.77 454.383 684.496 451.988C688.443 450.338 691.683 447.493 694.03 443.936C698.225 437.58 700.45 429.087 703.102 421.946Q707.909 409.058 713.07 396.308Z"/>
	<path d="M705.516 500.239C743.592 499.935 781.708 500.492 819.788 500.561C830.826 500.581 841.872 500.844 852.907 500.707C861.087 500.606 869.769 499.877 877.902 500.591C880.777 500.844 883.797 501.644 885.918 503.713C887.356 505.117 888.021 506.944 887.991 508.941C887.959 511.088 887.127 513.539 885.463 514.98C883.511 516.671 880.795 516.839 878.315 517.005C869.92 517.569 861.201 517.047 852.777 517.012L807.88 517.02C765.637 516.999 723.443 517.506 681.191 517.034C636.386 516.263 591.523 517.336 546.706 516.799Q532.458 516.665 518.21 516.736C513.524 516.74 508.602 517.036 503.937 516.566C502.393 516.41 501.255 516.061 500.039 515.05C498.531 513.796 497.685 511.943 497.511 510.013C497.301 507.69 497.376 504.405 499.121 502.619C500.753 500.95 504.583 500.71 506.842 500.568C513.701 500.138 520.765 500.452 527.646 500.451L567.002 500.45Q636.26 500.711 705.516 500.239Z"/>
	<path d="M743.679 318.87C745.224 320.715 746.301 323.475 747.357 325.668C751.176 333.598 755.704 347.148 761.482 353.303C765.791 357.891 771.173 359.515 777.282 359.593C777.681 376.008 777.352 392.449 777.325 408.866L777.196 485.92L765.625 486.033C754.266 486.23 742.822 485.664 731.486 486.422C730.819 475.006 731.244 463.367 731.26 451.921L731.404 389.669Q731.448 377.648 731.242 365.628C731.17 360.208 730.576 354.235 731.532 348.905C732.757 342.069 740.588 326.203 743.679 318.87Z"/>
	<path d="M844.326 255.333C845.556 258.908 844.939 300.629 844.962 307.975L844.966 425.746C844.933 445.69 845.348 465.686 844.825 485.622C828.629 486.733 812.21 485.01 796.047 486.404C795.229 476.062 795.702 465.337 795.67 454.959Q795.528 424.69 795.722 394.422C795.757 386.233 794.614 361.054 796.426 354.763C797.865 349.765 801.204 344.471 803.456 339.733Q813.384 318.766 823.851 298.064C830.899 283.948 836.935 269.266 844.326 255.333Z"/>
	<path d="M840.447 195.608C842.958 195.857 845.207 196.201 846.819 198.334C848.398 200.422 848.619 203.319 848.156 205.816C846.747 213.408 835.759 232.335 831.918 240.473L807.296 292.032C800.509 306.564 794.072 321.483 786.694 335.707C785.776 337.477 784.782 339.436 783.054 340.542Q782.693 340.774 782.311 340.969Q781.928 341.163 781.528 341.318Q781.128 341.472 780.714 341.585Q780.3 341.699 779.877 341.769Q779.454 341.84 779.026 341.868Q778.598 341.895 778.169 341.879Q777.74 341.863 777.316 341.804Q776.891 341.744 776.474 341.642C774.755 341.221 773.077 340.248 772.074 338.762C767.677 332.243 765.106 323.662 761.876 316.471C755.956 303.291 749.64 289.977 742.565 277.381C732.996 298.805 725.012 320.966 716.466 342.813C711.013 356.753 704.876 370.401 699.567 384.402C693.948 399.217 688.967 414.565 682.784 429.119C682.105 430.716 681.09 432.228 679.778 433.375C678.14 434.806 676.219 435.347 674.069 435.04C672.149 434.766 670.289 432.439 669.16 431.018C665.663 426.619 662.746 421.5 659.658 416.787C651.673 404.603 643.828 391.865 634.578 380.613L615.66 419.883C611.48 428.746 605.398 444.115 599.791 451.334C598.46 453.047 596.785 453.732 594.657 453.963C593.315 454.108 591.78 454.129 590.535 453.537C583.405 450.14 570.79 438.058 564.012 432.373L537.005 410.142C533.258 407.24 526.346 403.057 525.061 398.34C524.551 396.467 525.038 394.447 526.016 392.809C527.193 390.836 529.136 389.326 531.414 388.893C532.954 388.599 534.482 388.877 535.86 389.609C541.444 392.573 546.724 397.961 551.633 402.016C558.068 407.329 564.735 412.353 571.145 417.695C577.712 423.166 584.092 429.06 591.038 434.042C595.193 425.438 627.293 359.115 629.41 357.617C631.182 356.362 633.519 355.932 635.639 356.366C637.281 356.703 638.291 357.514 639.363 358.752C644.405 364.568 648.513 371.879 652.846 378.266C659.535 388.126 666.529 397.774 673.216 407.641C687.83 372.252 701.538 336.485 716.325 301.164L727.404 275.103C729.803 269.471 732.008 263.512 735.038 258.192C736.139 256.258 737.162 254.72 739.31 253.87C741.209 253.119 745.01 252.762 746.803 253.894C751.731 257.004 775.653 308.381 778.677 315.934C788.424 294.249 799.362 273.092 809.561 251.622C817.226 235.488 824.175 218.706 832.585 202.963C834.635 199.127 836.116 196.901 840.447 195.608Z"/>
	<path d="M556.351 147.044C569.35 146.47 582.604 147.007 595.622 147.163C595.594 153.197 594.93 159.295 594.461 165.313C601.873 167.555 608.491 169.876 615.144 173.903C618.803 169.395 622.638 165.183 626.98 161.319C635.482 168.123 647.909 180.699 655.434 188.929Q649.211 196.002 642.835 202.937C645.411 208.57 648.068 214.044 650.204 219.874Q658.704 220.662 667.23 221.066C668.272 234.283 668.907 247.316 666.79 260.479C661.152 260.592 655.481 261.175 649.855 261.579C647.924 267.81 645.074 273.731 642.503 279.719C646.582 283.955 650.854 287.958 655.152 291.969C646.567 302.305 635.908 312.54 625.609 321.163Q619.804 314.828 613.89 308.595C607.901 311.86 601.763 314.237 595.353 316.504C594.974 320.327 595.76 325.525 594.256 329.077C593.86 330.012 593.278 329.927 592.374 330.264C579.581 333.252 567.823 332.113 555.018 330.232C554.984 325.206 554.922 320.202 554.644 315.181C548.918 312.574 543.11 310.382 537.467 307.547C532.57 311.333 528.204 315.967 523.573 320.085C513.17 311.259 504.104 302.219 496.906 290.516Q503.299 285.11 509.519 279.504C506.564 273.192 503.721 267.014 501.69 260.33C495.7 259.744 489.694 259.631 483.681 259.522C482.123 246.664 481.617 234.44 483.422 221.534C489.316 221.669 495.215 221.956 501.108 222.171C503.129 215.268 505.564 208.88 508.599 202.376Q502.169 196.02 495.62 189.786C504.433 179.756 514.091 170.554 523.658 161.255L535.637 173.963Q540.802 171.218 546.214 169Q551.626 166.781 557.232 165.112Q556.598 156.087 556.351 147.044Z"/>
	<path fill="#FEFEFE" d="M572.904 189.71C584.379 189.263 595.512 192.319 604.798 199.164Q605.836 199.935 606.835 200.756Q607.833 201.577 608.791 202.446Q609.748 203.315 610.662 204.23Q611.576 205.145 612.443 206.103Q613.311 207.061 614.131 208.061Q614.951 209.061 615.721 210.099Q616.491 211.138 617.209 212.213Q617.927 213.288 618.592 214.397Q619.257 215.506 619.866 216.647Q620.476 217.787 621.029 218.956Q621.582 220.124 622.077 221.319Q622.572 222.513 623.008 223.73Q623.444 224.947 623.82 226.184Q624.196 227.421 624.511 228.675Q624.826 229.929 625.079 231.197Q625.332 232.465 625.523 233.744C627.316 246.552 624.364 259.647 616.49 269.983C606.899 282.574 595.237 288.774 579.746 290.97C566.677 291.388 554.144 288.06 543.976 279.542Q543.009 278.748 542.084 277.907Q541.159 277.065 540.278 276.178Q539.396 275.291 538.561 274.36Q537.726 273.43 536.938 272.458Q536.151 271.486 535.414 270.476Q534.677 269.466 533.992 268.42Q533.307 267.374 532.676 266.294Q532.044 265.214 531.468 264.104Q530.892 262.994 530.373 261.857Q529.854 260.719 529.394 259.556Q528.933 258.394 528.531 257.209Q528.13 256.025 527.789 254.822Q527.448 253.619 527.168 252.4Q526.888 251.181 526.67 249.949Q526.453 248.718 526.297 247.477Q526.142 246.236 526.05 244.989Q525.957 243.681 525.928 242.369Q525.899 241.058 525.934 239.747Q525.97 238.436 526.069 237.128Q526.169 235.82 526.332 234.518Q526.496 233.217 526.723 231.925Q526.95 230.633 527.24 229.354Q527.53 228.075 527.882 226.811Q528.234 225.548 528.648 224.303Q529.062 223.058 529.536 221.835Q530.01 220.613 530.543 219.414Q531.077 218.216 531.668 217.045Q532.26 215.875 532.908 214.734Q533.556 213.594 534.26 212.487Q534.963 211.379 535.719 210.308Q536.476 209.237 537.284 208.203Q538.092 207.17 538.95 206.178C547.492 196.42 560.038 190.628 572.904 189.71Z"/>
	<path d="M868.036 203.217C868.159 203.281 868.288 203.336 868.404 203.411C872.273 205.92 885.008 222.919 888.389 227.333Q892.166 232.213 895.811 237.191Q899.457 242.17 902.968 247.244Q906.48 252.318 909.855 257.483Q913.23 262.649 916.467 267.903Q919.703 273.156 922.798 278.494Q925.894 283.832 928.846 289.251Q931.798 294.67 934.604 300.165Q937.411 305.66 940.071 311.228Q942.73 316.796 945.24 322.433Q947.75 328.07 950.109 333.772Q952.468 339.474 954.674 345.236Q956.881 350.999 958.933 356.818Q960.985 362.638 962.881 368.51Q964.778 374.382 966.517 380.302Q968.256 386.222 969.837 392.187Q971.418 398.151 972.84 404.156Q974 409.138 975.052 414.145Q976.104 419.151 977.046 424.179Q977.989 429.207 978.823 434.255Q979.656 439.302 980.38 444.366Q981.103 449.431 981.717 454.509Q982.33 459.588 982.833 464.679Q983.337 469.77 983.729 474.871Q984.122 479.971 984.403 485.079Q984.685 490.187 984.855 495.3Q985.026 500.413 985.086 505.528Q985.145 510.644 985.094 515.759Q985.042 520.875 984.88 525.988Q984.717 531.101 984.444 536.209Q984.17 541.317 983.786 546.419Q983.401 551.52 982.906 556.612Q982.411 561.703 981.806 566.783Q981.201 571.863 980.485 576.928Q979.769 581.994 978.944 587.042Q978.119 592.091 977.184 597.121Q976.249 602.15 975.205 607.158Q974.161 612.166 973.009 617.151Q971.857 622.135 970.597 627.093Q969.336 632.051 967.969 636.98Q966.601 641.91 965.127 646.809Q963.653 651.707 962.072 656.573Q960.492 661.438 958.807 666.268Q957.121 671.098 955.331 675.891Q953.541 680.683 951.647 685.435Q949.754 690.188 947.757 694.898Q945.761 699.608 943.663 704.273Q941.565 708.939 939.366 713.558Q937.167 718.177 934.868 722.747C927.835 736.702 919.703 750.138 911.447 763.396Q908.381 768.286 905.197 773.1Q902.013 777.914 898.712 782.65Q895.412 787.385 891.997 792.039Q888.583 796.692 885.056 801.262Q881.53 805.831 877.893 810.313Q874.256 814.795 870.512 819.187Q866.767 823.58 862.917 827.88Q859.066 832.18 855.112 836.385Q851.159 840.59 847.104 844.697Q843.049 848.805 838.895 852.813Q834.742 856.82 830.492 860.726Q826.242 864.632 821.898 868.433Q817.555 872.234 813.12 875.928Q808.685 879.622 804.162 883.208Q799.638 886.793 795.029 890.267Q790.42 893.742 785.728 897.103Q781.036 900.464 776.263 903.71Q771.49 906.956 766.64 910.085Q761.79 913.214 756.865 916.224Q751.94 919.234 746.944 922.124Q741.947 925.013 736.882 927.781Q731.816 930.548 726.685 933.191Q721.554 935.834 716.36 938.351Q711.166 940.869 705.912 943.259Q700.659 945.65 695.348 947.912Q690.038 950.173 684.674 952.306Q679.311 954.438 673.897 956.439Q668.483 958.44 663.022 960.309Q657.561 962.177 652.056 963.913Q646.551 965.648 641.006 967.249Q635.46 968.85 629.877 970.316Q624.295 971.782 618.678 973.111Q613.056 974.407 607.404 975.566Q601.752 976.724 596.073 977.744Q590.395 978.764 584.693 979.644Q578.991 980.525 573.269 981.266Q567.547 982.006 561.809 982.607Q556.071 983.207 550.32 983.667Q544.569 984.127 538.808 984.446Q533.047 984.765 527.281 984.943Q521.514 985.121 515.745 985.158Q509.975 985.195 504.207 985.091Q498.438 984.986 492.674 984.741Q486.909 984.496 481.153 984.109Q475.396 983.723 469.651 983.196Q463.906 982.669 458.175 982.001Q452.444 981.333 446.731 980.526Q441.019 979.718 435.328 978.771Q429.636 977.824 423.97 976.738Q418.304 975.652 412.665 974.428Q407.027 973.203 401.421 971.841Q395.815 970.479 390.243 968.981Q384.672 967.482 379.139 965.847Q373.605 964.212 368.114 962.443Q362.623 960.673 357.176 958.77Q351.73 956.867 346.331 954.831Q340.933 952.795 335.586 950.627Q330.239 948.459 324.947 946.162Q319.655 943.864 314.42 941.438Q309.186 939.011 304.013 936.457Q298.839 933.903 293.73 931.224Q288.62 928.544 283.578 925.74Q278.536 922.936 273.563 920.01Q268.591 917.083 263.692 914.036C245.131 902.027 227.674 889.522 210.516 875.55Q249.471 875.983 288.428 875.666C298.1 882.359 308.585 887.661 319.093 892.897C355.65 911.115 393.307 923.549 433.284 931.725C523.002 950.074 620.12 934.826 701.72 894.052C717.454 886.189 732.787 876.903 747.434 867.178C761.049 858.138 773.934 847.787 786.386 837.216Q789.823 834.354 793.199 831.421Q796.575 828.489 799.889 825.486Q803.203 822.483 806.453 819.412Q809.704 816.341 812.89 813.202Q816.076 810.064 819.195 806.86Q822.315 803.655 825.367 800.387Q828.419 797.118 831.402 793.786Q834.385 790.455 837.298 787.062Q840.211 783.668 843.053 780.215Q845.894 776.762 848.663 773.25Q851.432 769.738 854.127 766.169Q856.822 762.601 859.442 758.976Q862.061 755.352 864.605 751.674Q867.148 747.995 869.615 744.265Q872.081 740.534 874.469 736.753Q876.857 732.972 879.165 729.142Q881.473 725.312 883.701 721.434Q885.929 717.557 888.076 713.633Q890.222 709.71 892.286 705.743Q894.351 701.776 896.331 697.766Q898.312 693.757 900.209 689.707Q902.106 685.657 903.918 681.569Q905.73 677.48 907.456 673.355Q909.182 669.229 910.821 665.068Q912.461 660.908 914.013 656.714Q915.566 652.52 917.03 648.294Q918.495 644.069 919.87 639.814Q921.246 635.559 922.533 631.276Q923.82 626.993 925.017 622.684Q926.214 618.375 927.321 614.042Q928.428 609.709 929.445 605.354Q930.461 600.999 931.386 596.624C954.355 483.014 932.029 375.356 868.032 278.904C867.451 254.215 867.528 227.908 868.036 203.217Z"/>
	<path d="M492.719 39.713C508.127 38.5368 524.297 39.337 539.715 40.216Q546.928 40.6192 554.126 41.2447Q561.323 41.8702 568.498 42.7175Q575.672 43.5647 582.818 44.6329Q589.963 45.7011 597.072 46.9892Q604.18 48.2774 611.246 49.7841Q618.312 51.2909 625.328 53.015Q632.343 54.7391 639.303 56.6787Q646.262 58.6184 653.158 60.7718Q660.054 62.9253 666.881 65.2904Q673.707 67.6556 680.457 70.2302Q687.207 72.8048 693.875 75.5865Q700.543 78.3681 707.121 81.3541Q713.7 84.3401 720.183 87.5277Q726.666 90.7152 733.048 94.1012Q739.43 97.4873 745.705 101.069Q751.979 104.65 758.14 108.423C766.612 113.619 774.79 119.473 782.951 125.144C803.086 139.135 826.575 157.661 842.816 175.855C840.636 176.255 838.362 176.488 836.216 177.028C821.614 180.702 818.452 197.15 811.566 208.416L811.204 209.002C799.618 198.447 788.746 187.549 776.468 177.693Q772.004 174.166 767.447 170.758Q762.891 167.35 758.247 164.064Q753.602 160.778 748.872 157.616Q744.142 154.454 739.33 151.418Q734.518 148.382 729.628 145.474Q724.737 142.566 719.771 139.789Q714.806 137.012 709.768 134.367Q704.731 131.722 699.625 129.211Q694.52 126.7 689.349 124.325Q684.179 121.95 678.948 119.713Q673.717 117.475 668.428 115.377Q663.139 113.279 657.797 111.321Q652.455 109.363 647.063 107.547Q641.671 105.732 636.233 104.059Q630.794 102.387 625.314 100.858Q619.833 99.3304 614.314 97.9477Q609.26 96.6876 604.177 95.5521Q599.094 94.4166 593.985 93.4064Q588.875 92.3962 583.743 91.5118Q578.61 90.6275 573.457 89.8696Q568.304 89.1117 563.134 88.4807Q557.964 87.8497 552.78 87.3459Q547.596 86.8421 542.402 86.4659Q537.207 86.0897 532.004 85.8413Q526.802 85.5929 521.595 85.4725Q516.388 85.352 511.18 85.3596Q505.971 85.3671 500.765 85.5027Q495.558 85.6383 490.357 85.9018Q485.155 86.1653 479.961 86.5566Q474.768 86.9478 469.585 87.4666Q464.403 87.9855 459.234 88.6315Q454.066 89.2775 448.916 90.0504Q443.765 90.8232 438.635 91.7225Q433.505 92.6217 428.398 93.6467Q423.292 94.6718 418.212 95.822Q413.132 96.9723 408.082 98.247Q403.032 99.5218 398.015 100.92Q392.998 102.319 388.017 103.84Q383.036 105.362 378.093 107.005Q373.151 108.648 368.251 110.413Q363.35 112.177 358.495 114.061Q353.639 115.945 348.831 117.948Q344.024 119.951 339.267 122.072Q334.509 124.193 329.806 126.429Q325.102 128.666 320.455 131.018Q315.808 133.37 311.22 135.835Q306.632 138.301 302.106 140.878Q297.58 143.455 293.119 146.143Q288.496 148.942 283.944 151.856Q279.393 154.769 274.915 157.795Q270.437 160.821 266.035 163.957Q261.634 167.093 257.312 170.338Q252.99 173.582 248.75 176.933Q244.51 180.284 240.355 183.74Q236.199 187.195 232.131 190.753Q228.063 194.311 224.085 197.969Q220.106 201.626 216.22 205.382Q212.333 209.137 208.542 212.988Q204.75 216.839 201.055 220.783Q197.361 224.728 193.765 228.762Q190.169 232.797 186.675 236.92Q183.181 241.043 179.791 245.251Q176.4 249.46 173.115 253.751Q169.83 258.043 166.653 262.415Q163.476 266.786 160.409 271.236Q157.341 275.685 154.385 280.21Q151.429 284.734 148.587 289.331Q145.744 293.927 143.017 298.593Q140.29 303.258 137.679 307.991Q135.069 312.723 132.577 317.518Q130.085 322.314 127.713 327.17Q125.341 332.026 123.09 336.939Q120.84 341.853 118.712 346.821Q116.584 351.789 114.581 356.808Q112.577 361.827 110.699 366.895Q108.821 371.962 107.07 377.075Q105.318 382.188 103.694 387.342Q102.071 392.497 100.575 397.69Q99.0803 402.884 97.7147 408.113Q96.3491 413.342 95.114 418.603Q93.9701 423.611 92.9481 428.646Q91.9261 433.68 91.0265 438.738Q90.127 443.796 89.3504 448.874Q88.5738 453.952 87.9207 459.047Q87.2675 464.143 86.7382 469.252Q86.2088 474.362 85.8036 479.483Q85.3984 484.604 85.1176 489.734Q84.8368 494.863 84.6805 499.998Q84.5242 505.133 84.4925 510.27Q84.4609 515.407 84.5538 520.543Q84.6468 525.679 84.8644 530.812Q85.082 535.944 85.424 541.07Q85.766 546.196 86.2323 551.312Q86.6986 556.428 87.2889 561.531Q87.8792 566.634 88.5931 571.721Q89.3071 576.808 90.1442 581.877Q90.9814 586.945 91.9412 591.992Q92.9011 597.039 93.9832 602.061Q95.0652 607.083 96.2688 612.077Q97.4723 617.071 98.7967 622.034Q100.121 626.998 101.565 631.928Q103.01 636.858 104.573 641.751Q106.137 646.644 107.819 651.498Q109.501 656.352 111.3 661.164Q113.099 665.976 115.014 670.742Q116.93 675.509 118.96 680.228Q120.991 684.947 123.135 689.615Q125.279 694.283 127.536 698.898Q129.793 703.513 132.162 708.071Q134.53 712.63 137.008 717.13Q139.486 721.63 142.073 726.068Q144.659 730.507 147.353 734.881C151.972 713.113 156.398 691.354 169.599 672.819C200.093 630.004 258.874 620.477 307.17 612.532C307.921 603.78 308.32 594.946 309.507 586.243C295.1 571.531 286.267 554.027 279.118 534.986Q277.56 534.618 276.017 534.189C267.109 531.682 259.663 525.375 255.231 517.324C248.336 504.8 245.656 486.484 247.225 472.392C247.909 466.243 249.531 460.409 251.277 454.5C247.523 454.493 241.349 455.279 238.447 452.455C235.813 449.891 235.027 444.881 234.911 441.39C234.718 435.563 233.378 420.848 237.807 416.575C240.891 413.599 246.574 414.047 250.493 414.027Q252.646 404.011 256.448 394.498C266.275 369.805 286.573 342.064 311.681 331.295C312.254 329.848 312.903 328.285 313.752 326.974C318.124 320.222 328.999 317.099 336.459 315.614C337.597 313.146 338.853 310.192 341.188 308.635C344.879 306.173 381.201 306.092 386.476 307.414C390.684 308.469 392.746 312.259 394.771 315.7C400.71 317.195 411.662 320.109 415.776 325.012C417.017 326.492 417.21 328.874 418.586 330.167C420.294 331.771 422.807 333.074 424.778 334.409C429.418 337.549 434.072 340.703 438.297 344.395C458.085 361.683 474.824 387.181 476.604 414.025C480.671 413.958 487.442 413.137 490.634 416.144C492.651 418.044 493.43 421.638 493.723 424.266C494.432 430.609 495.205 447.819 490.869 452.618C488.238 455.529 481.828 455.235 478.089 455.577C483.271 472.338 485.844 488.025 480.09 505.119C474.514 521.683 465.742 530.825 450.352 538.551C448.002 542.938 446.128 547.607 443.855 552.042Q442.654 554.424 441.347 556.749Q440.04 559.074 438.63 561.338Q437.22 563.602 435.709 565.801Q434.198 567.999 432.59 570.127Q430.982 572.255 429.279 574.308Q427.576 576.361 425.783 578.336Q423.99 580.31 422.109 582.202Q420.229 584.094 418.265 585.899C418.774 594.722 420.03 603.558 421.028 612.34Q431.164 613.233 441.215 614.811Q451.267 616.39 461.188 618.647Q471.11 620.905 480.855 623.83Q490.6 626.756 500.124 630.337C540.031 647.343 558.991 665.476 575.202 705.373C582.88 703.351 589.814 700.15 596.944 696.751C595.538 685.94 595.389 675.59 595.663 664.723C590.737 662.533 577.141 659.087 574.298 655.148C573.118 653.513 574.07 649.751 574.51 647.891C576.623 638.955 589.558 604.114 596.041 600.734C598.86 599.264 613.713 608.064 617.404 609.526L618.145 609.815C624.639 601.223 631.331 593.797 639.142 586.385L638.886 585.739C637.573 582.343 629.229 569.225 630.221 566.538C631.751 562.393 639.603 558.833 643.421 556.712C650.691 552.672 683.094 537.709 688.95 540.795C691.941 542.372 696.062 557.664 697.365 561.538C707.714 561.3 717.844 560.068 728.212 561.047L728.342 560.616C729.827 555.804 730.984 543.749 732.905 540.567C733.586 539.438 734.455 539.191 735.705 539.081C738.598 538.826 742.689 540.351 745.535 541.111C765.094 546.336 780.712 555.294 796.683 567.499C792.813 573.83 788.662 579.906 785.14 586.45C788.71 590.175 792.725 593.527 796.404 597.158C800.531 601.23 804.327 605.646 808.156 609.996C815.495 606.9 822.335 602.703 829.859 600.028C840.569 616.937 850.248 638.345 853.005 658.202C845.629 660.943 837.669 662.276 830.169 664.809C831.462 675.589 831.043 687.103 829.265 697.777C836.828 701.276 844.478 705.352 851.669 709.564C847.362 728.328 839.317 748.112 828.193 763.879C820.433 760.569 813.424 755.185 805.679 751.626C799.015 760.105 791.614 767.586 783.883 775.081C786.28 783.091 790.772 790.406 793.148 798.447C776.654 811.382 754.528 819.679 733.708 821.912C730.904 814.419 730.585 806.17 727.414 798.816C717.356 799.087 707.532 798.742 697.543 797.49C694.334 805.052 692.196 813.107 689.455 820.857C668.125 819.14 645.555 806.861 628.571 794.54C632.528 787.03 636.796 779.549 640.234 771.789C632.648 764.801 626.092 757.546 619.525 749.612C612.077 753.508 604.464 758.113 596.568 760.998C590.441 753.951 585.999 743.137 582.458 734.479C589.442 764.413 590.362 796.137 591.636 826.757C591.976 834.926 593.223 844.15 592.163 852.2C591.683 855.84 589.797 857.353 586.976 859.502C578.323 860.107 569.27 859.551 560.576 859.524L508.107 859.381L347.682 859.385L202.42 859.32L168.356 859.366C160.348 859.391 151.723 860.106 143.854 858.535C143.15 857.951 142.475 857.368 141.85 856.698C139.889 854.594 139.107 852.402 138.571 849.605C137.559 844.323 138.013 838.388 137.995 833.018Q137.863 818.025 138.189 803.035C127.373 787.519 116.388 772.353 106.646 756.104Q102.987 750.066 99.5144 743.919Q96.0415 737.772 92.7577 731.522Q89.4739 725.272 86.3821 718.925Q83.2904 712.578 80.3937 706.14Q77.4969 699.701 74.7979 693.177Q72.0988 686.653 69.5999 680.05Q67.101 673.447 64.8046 666.771Q62.5083 660.095 60.4165 653.352Q58.3248 646.609 56.4396 639.805Q54.5545 633.001 52.8777 626.143Q51.2009 619.285 49.734 612.379Q48.2671 605.473 47.0115 598.525Q45.7558 591.578 44.7127 584.595Q43.6695 577.612 42.8397 570.601Q42.0099 563.59 41.3943 556.557Q40.7787 549.524 40.3778 542.475Q39.9904 536.553 39.7514 530.623Q39.5124 524.694 39.4219 518.76Q39.3314 512.826 39.3895 506.892Q39.4476 500.958 39.6543 495.027Q39.861 489.096 40.216 483.172Q40.5711 477.248 41.0744 471.335Q41.5777 465.422 42.2289 459.523Q42.8801 453.624 43.6787 447.744Q44.4774 441.863 45.423 436.005Q46.3686 430.146 47.4607 424.313Q48.5527 418.48 49.7904 412.676Q51.0281 406.872 52.4107 401.1Q53.7934 395.329 55.3201 389.594Q56.8468 383.86 58.5166 378.165Q60.1864 372.47 61.9982 366.819Q63.8101 361.168 65.7628 355.564Q67.7156 349.96 69.808 344.406Q71.9005 338.853 74.1313 333.354Q76.3622 327.855 78.73 322.413Q81.0978 316.971 83.6011 311.591Q86.1044 306.21 88.7417 300.894Q91.3789 295.577 94.1485 290.329Q96.918 285.08 99.8181 279.902Q102.718 274.725 105.747 269.621Q108.776 264.518 111.931 259.492Q115.087 254.466 118.367 249.52Q121.648 244.575 125.051 239.713Q128.454 234.852 131.978 230.077Q135.502 225.302 139.144 220.616Q142.787 215.931 146.545 211.338Q150.304 206.746 154.176 202.249Q158.048 197.752 162.032 193.353C226.761 120.994 320.676 68.8471 415.421 49.0806C441.073 43.7289 466.598 41.1848 492.719 39.713Z"/>
	<path fill="#FEFEFE" d="M354.898 323.932L375.629 324.021C375.07 342.157 372.585 360.515 370.674 378.556C370.556 380.568 370.204 382.576 369.919 384.57L359.802 384.734C358.661 364.413 356.414 344.22 354.898 323.932Z"/>
	<path fill="#FEFEFE" d="M364.79 669.855C366.788 674.732 369.056 691.043 370.249 697.149C373.219 712.338 376.895 727.385 379.375 742.669C373.74 749.449 369.377 757.491 364.323 764.736L363.772 764.857C361.163 762.912 352.307 747.15 350.075 743.447C352.335 731.537 355.155 719.752 357.388 707.831C359.735 695.301 361.518 682.146 364.79 669.855Z"/>
	<path fill="#FEFEFE" d="M252.178 431.471C262.221 431.036 272.409 431.334 282.467 431.304L346.467 431.339Q411.907 431.031 477.345 431.545L477.362 438.101L252.234 437.967L252.178 431.471Z"/>
	<path fill="#FEFEFE" d="M326.154 595.788C354.986 604.215 373.515 606.597 402.384 596.001C402.744 603.598 404.379 611.196 405.816 618.65L398.694 623.883C390.369 629.665 379.743 634.737 369.5 635.472C352.987 636.658 335.786 628.805 323.51 618.251C324.884 610.844 325.33 603.27 326.154 595.788Z"/>
	<path fill="#FEFEFE" d="M307.874 630.146C309.152 629.892 310.391 629.807 311.54 630.428C316.282 632.988 320.848 636.824 325.38 639.822C333.364 645.104 341.686 648.323 350.713 651.295C345.553 674.765 342.545 698.642 336.678 722Q334.11 718.003 331.407 714.095C325.667 705.95 320.837 697.094 315.358 688.758C303.72 671.055 291.663 653.596 280.396 635.653C289.213 632.98 298.803 631.779 307.874 630.146Z"/>
	<path fill="#FEFEFE" d="M418.345 629.877C428.107 629.703 440.673 631.963 450.319 633.896L400.339 710.205C397.942 714.088 395.357 717.864 392.834 721.667C391.707 710.945 388.585 700.005 386.184 689.497C383.315 676.941 380.757 664.327 378.073 651.731C392.589 646.716 407.178 640.724 418.345 629.877Z"/>
	<path fill="#FEFEFE" d="M744.241 624.489C745.612 624.429 747.451 624.176 748.732 624.73C749.787 625.187 750.416 626.178 750.845 627.188C752.875 631.971 753.788 637.735 755.102 642.777Q759.676 660.03 763.835 677.389C772.237 676.821 792.084 676.129 799.696 677.508C801.292 677.797 802.609 678.27 803.44 679.805C804.035 680.904 804.132 682.312 803.738 683.494C803.322 684.739 802.453 685.7 801.242 686.201C800.398 686.55 767.276 686.649 763.564 686.462C762.012 686.384 760.161 686.23 758.771 685.461C754.446 683.069 748.265 653.851 746.425 647.419C742.658 664.079 737.436 680.514 732.927 696.998L725.993 722.047C725.088 725.341 724.535 728.826 723.406 732.04C722.983 733.246 722.37 734.504 721.509 735.462C720.299 736.809 719.182 737.001 717.498 737.153L717.659 736.811L716.824 736.918C715.44 735.488 714.606 733.217 713.994 731.354C711.823 724.741 710.424 717.659 708.668 710.912L698.92 674.518C696.529 665.448 694.413 656.23 691.459 647.326L688.92 654.795Q686.192 662.748 683.626 670.754C682.397 674.643 681.4 679.172 679.525 682.794C678.664 684.455 677.402 684.999 675.665 685.453C670.722 686.744 629.863 686.823 623.001 686.032C621.932 685.909 620.79 685.674 619.895 685.039C618.949 684.367 618.277 683.272 618.275 682.09C618.273 680.81 618.828 679.871 619.756 679.038C621.183 677.757 623.709 677.242 625.543 677.026C631.023 676.383 636.977 676.836 642.503 676.856Q657.337 676.929 672.17 676.742C677.034 661.254 681.238 643.963 687.485 629.087C688.116 627.585 688.936 625.736 690.726 625.392C691.944 625.159 692.903 625.46 693.876 626.218C694.927 627.038 695.444 628.468 695.865 629.679C699.785 640.965 702.346 653.12 705.529 664.65C709.929 680.59 714.958 696.417 718.475 712.584L733.818 659.288C735.959 651.677 740.136 629.841 744.241 624.489Z"/>
	<path fill="#FEFEFE" d="M391.991 332.229C395.116 333.236 398.088 334.625 401.085 335.956C400.174 349.466 400.536 363.087 400.538 376.62C400.539 383.486 399.87 391.035 400.575 397.828C400.717 399.194 401.163 400.523 401.973 401.64C403.2 403.332 405.401 404.536 407.465 404.774C409.862 405.049 412.631 404.3 414.423 402.651C415.354 401.795 415.922 400.717 416.167 399.475C417.283 393.803 416.649 387.168 416.644 381.398Q416.563 365.203 416.758 349.009C418.595 350.183 420.356 351.538 422.036 352.927C440.178 367.914 457.247 390.382 459.658 414.477Q405.22 414.783 350.781 414.43Q309.972 414.643 269.164 414.309C268.686 412.763 269.193 411.09 269.576 409.557C275.17 387.179 292.721 363.001 312.436 351.016C312.649 358.439 311.969 397.979 314.608 401.665C315.878 403.438 318.257 404.961 320.441 405.217C322.668 405.477 324.886 404.547 326.556 403.12C327.994 401.892 329.039 400.325 329.429 398.461C330.563 393.04 329.766 386.535 329.707 381.009C329.55 366.295 328.711 350.876 329.96 336.227L330.042 335.311L337.899 332.855C338.849 344.319 340.332 355.724 341.497 367.165C342.233 374.393 342.458 382.03 343.827 389.154C344.243 391.32 344.9 393.91 346.181 395.743C348.528 399.105 352.78 400.787 356.704 401.287C363.371 402.138 376.529 402.617 381.881 398.288C384.189 396.42 385.223 393.426 385.917 390.63C387.297 385.07 387.532 378.798 388.164 373.096Q390.391 352.692 391.991 332.229Z"/>
	<path fill="#FEFEFE" d="M307.482 454.754C332.544 454.412 357.68 454.877 382.75 454.891C407.763 454.905 432.935 454.447 457.933 455.313C465.086 466.17 467.445 478.442 465.889 491.273C464.449 503.156 458.899 512.646 449.519 520.019C447.922 518.469 445.976 516.681 443.574 516.753C441.23 516.824 439.237 518.277 437.973 520.181C434.98 524.688 433.886 531.354 431.935 536.416C426.843 549.632 418.492 560.622 408.876 570.804C405.929 573.661 402.909 576.162 399.365 578.258C383.318 587.751 361.283 588.473 343.581 583.83C321.031 577.917 307.975 560.563 299.284 539.997C296.823 534.173 295.134 527.271 291.791 521.95C289.721 518.655 285.765 518.604 282.32 517.903C277.028 516.827 273.883 514.758 270.958 510.186C264.629 500.294 261.359 483.041 263.986 471.528C265.535 464.738 268.65 458.813 274.677 455.018C285.414 454.207 296.688 454.782 307.482 454.754Z"/>
	<path fill="#FEFEFE" d="M469.059 637.464C491.556 642.744 517.061 654.375 533.636 670.434Q536.742 673.45 539.578 676.72Q542.414 679.99 544.96 683.491Q547.507 686.992 549.744 690.698Q551.981 694.404 553.893 698.288C573.07 737.838 574.133 798.441 574.793 842.014L515.312 841.957C514.414 817.775 515.113 793.289 515.038 769.073C515.012 760.536 515.714 751.633 515.009 743.146C514.845 741.165 514.633 738.842 513.333 737.248C511.936 735.537 509.691 734.248 507.471 734.068C505.204 733.883 502.866 734.591 501.249 736.22C496.405 741.099 498.363 753.942 498.428 760.535C489.459 761.224 431.343 759.683 428.118 762.127C427.147 762.863 426.949 765.393 426.873 766.512C426.677 769.394 426.568 783.567 427 785.74C427.258 787.036 427.748 787.802 428.601 788.786C432.565 790.313 490.445 789.89 498.443 790.038L498.35 841.979L326.61 841.985C294.87 841.997 263.101 842.389 231.365 842.027C230.687 825.647 231.123 809.035 231.016 792.625C230.872 776.869 231.877 760.937 231.162 745.212C230.983 741.274 230.615 737.77 227.432 735.094C225.723 733.658 223.732 733.09 221.528 733.438C218.248 733.955 216.357 736.686 214.539 739.186C213.711 750.93 214.317 763.063 214.35 774.856Q214.545 808.595 214.401 842.335L155.487 842.138C155.295 800.378 158.848 723.66 180.663 687.586C198.344 658.35 230.992 646.891 262.423 639.09C276.598 659.772 289.723 681.294 303.118 702.49L335.469 752.772C340.335 760.456 352.904 784.141 358.436 788.796C359.944 790.065 362.633 790.596 364.552 790.339C367.345 789.965 369.337 788.17 371.095 786.101C377.871 778.127 386.112 763.166 392.207 753.831Q417.409 715.979 442.122 677.806L458.758 652.405C461.936 647.575 464.985 642.394 468.66 637.937C468.791 637.778 468.926 637.622 469.059 637.464Z"/>
</svg>
