<?xml version="1.0" encoding="utf-8" ?>
<svg xmlns="http://www.w3.org/2000/svg" xmlns:xlink="http://www.w3.org/1999/xlink" width="1024" height="1024">
	<path fill="#FEFEFE" d="M0 0L1024 0L1024 1024L0 1024L0 0Z"/>
	<path d="M591.633 93.1198C628.737 99.4981 678.821 113.658 711.594 132.242C708.11 134.344 704.541 136.084 700.852 137.794C693.993 141.121 687.68 144.714 681.446 149.117C675.37 147.32 669.407 144.555 663.395 142.464C646.676 136.65 629.15 130.903 611.778 127.357Q605.817 116.839 599.47 106.549C596.79 102.182 593.693 97.8173 591.633 93.1198Z"/>
	<path d="M475.354 88.7307C475.814 88.6393 476.225 88.7503 476.684 88.8177C475.921 91.7135 472.308 95.0794 470.544 97.6822C465.683 104.852 461.229 112.373 456.623 119.713C445.866 122.753 433.017 123.063 421.753 125.506C390.711 132.239 361.055 142.355 332.022 155.178C329.391 152.568 327.238 149.453 325.012 146.496C321.243 141.867 317.78 136.939 314.228 132.14Q318.927 129.8 323.683 127.577Q328.438 125.354 333.248 123.25Q338.057 121.146 342.918 119.162Q347.778 117.179 352.686 115.316Q357.594 113.454 362.547 111.714Q367.5 109.975 372.495 108.359Q377.489 106.743 382.523 105.252Q387.556 103.761 392.625 102.395Q397.694 101.029 402.795 99.7902Q407.896 98.5511 413.027 97.4392Q418.157 96.3273 423.313 95.3433Q428.47 94.3593 433.649 93.5038Q438.829 92.6483 444.028 91.9219Q449.227 91.1955 454.442 90.5986Q459.658 90.0017 464.887 89.5346Q470.115 89.0676 475.354 88.7307Z"/>
	<path d="M137.466 287.701C148.599 287.344 159.904 287.909 171.058 288.017C159.894 303.723 150.168 319.848 141.099 336.825C130.005 357.592 121.456 379.058 114.393 401.495C92.488 471.082 89.5092 545.138 110.773 615.304C107.294 618.6 104.014 622.128 100.678 625.568C96.4466 630.27 92.5018 635.217 88.509 640.121C86.9529 634.406 84.8861 628.843 83.374 623.108Q78.9168 606.033 75.7038 588.68Q72.4908 571.328 70.5388 553.789Q70.1961 550.141 69.9181 546.488Q69.6402 542.835 69.427 539.178Q69.2138 535.52 69.0655 531.859Q68.9172 528.199 68.8338 524.536Q68.7504 520.873 68.732 517.21Q68.7135 513.546 68.76 509.883Q68.8065 506.219 68.918 502.557Q69.0294 498.895 69.2057 495.236Q69.3821 491.576 69.6233 487.92Q69.8644 484.265 70.1704 480.614Q70.4763 476.963 70.847 473.318Q71.2176 469.673 71.6527 466.035Q72.0879 462.398 72.5875 458.768Q73.0871 455.139 73.651 451.519Q74.2148 447.899 74.8428 444.289Q75.4707 440.68 76.1625 437.082Q76.8543 433.484 77.6098 429.899Q78.3653 426.314 79.1842 422.743Q80.0032 419.172 80.8853 415.616Q81.7674 412.06 82.7124 408.521Q83.6573 404.981 84.6649 401.458Q85.6725 397.936 86.7424 394.432Q87.8123 390.928 88.9441 387.444Q90.076 383.959 91.2694 380.495Q92.4628 377.031 93.7174 373.589Q94.9721 370.147 96.2875 366.728Q97.603 363.308 98.9788 359.913Q100.355 356.517 101.791 353.146Q103.226 349.776 104.722 346.431Q106.217 343.087 107.772 339.769Q109.326 336.451 110.939 333.162Q112.552 329.872 114.223 326.612C120.981 313.472 128.117 299.195 137.466 287.701Z"/>
	<path d="M779.656 270.167Q783.743 269.772 787.84 270.043C798.845 270.708 809.803 276.539 816.977 284.837C822.253 290.939 825.281 297.704 826.478 305.645C827.871 314.885 827.31 324.655 827.268 333.989Q827.124 353.618 827.258 373.247L827.471 458.571C827.496 475.111 828.22 492.054 827.115 508.548C819.112 501.352 809.192 495.277 802.163 487.154C801.229 481.328 801.521 475.087 801.452 469.191Q801.279 453.167 801.403 437.142L801.521 346.775C801.518 336.685 802.62 318.72 800.807 309.217C800.161 305.828 798.801 302.956 796.373 300.47Q795.787 299.88 795.148 299.349Q794.508 298.818 793.82 298.352Q793.131 297.885 792.401 297.487Q791.671 297.09 790.906 296.764Q790.141 296.439 789.348 296.189Q788.555 295.939 787.742 295.767Q786.929 295.595 786.103 295.503Q785.276 295.41 784.445 295.398C779.788 295.338 775.193 297.127 771.983 300.533C764.444 308.532 766.887 328.612 766.974 339.222C772.788 339.436 778.659 339.315 784.48 339.346C784.485 342.546 785.634 350.677 783.7 353.056L781.924 353.235L767.104 353.28Q767.134 359.868 767.266 366.454L784.246 366.461C783.906 370.983 783.984 375.569 783.922 380.104C778.288 380.251 772.64 380.243 767.004 380.31L767.041 393.187L783.966 393.35L783.904 406.907C778.475 407.163 772.947 406.997 767.508 407.014L767.511 421.503L784.366 421.501L784.203 435.94C778.626 435.636 773.01 435.71 767.424 435.665L767.427 444.994C770.783 444.977 774.108 445.091 777.459 445.272L777.441 457.57L767.527 457.673L767.48 468.512L783.506 468.479L783.496 477.16C778.97 478.496 774.835 482.909 770.042 482.387C769.149 482.29 768.601 482.193 767.718 482.458L767.484 487.384C758.559 495.564 749.392 503.507 741.416 512.642L741.371 374.167L741.12 334.744C741.044 326.112 740.522 317.114 741.613 308.545C742.616 300.664 745.017 293.867 749.791 287.458C757.408 277.236 767.206 271.983 779.656 270.167Z"/>
	<path d="M532.137 64.4243C540.292 73.4517 547.476 83.5967 554.806 93.2988C576.596 122.143 607.199 162.526 607.849 199.879C608.146 216.943 600.713 233.544 588.915 245.699C574.744 260.298 553.707 268.288 533.585 268.623C514.319 268.517 494.977 262.462 480.057 249.934C467.095 239.05 459.065 222.336 457.762 205.541C454.747 166.674 485.828 124.078 508.338 94.5584C516.095 84.3861 523.784 74.1196 532.137 64.4243Z"/>
	<path fill="#FEFEFE" d="M531.931 89.7276C532.393 89.9129 532.493 89.9216 532.938 90.2824C536.63 93.2771 542.606 102.904 545.655 107.003C563.637 131.176 590.048 165.289 592.021 196.154C592.899 209.888 588.992 222.659 579.741 232.944C567.815 246.202 551.166 251.939 533.688 252.766C518.674 252.475 504.14 249.942 492.18 240.184C480.749 230.858 474.667 219.052 473.283 204.436C472.46 195.746 473.635 187.333 476.188 179.009C485.039 150.153 512.526 113.241 531.931 89.7276Z"/>
	<path d="M493.126 180.056C494.823 180.194 496.449 180.373 498.055 180.975C500.52 181.898 502.73 183.757 503.796 186.197C504.837 188.579 504.751 191.188 503.665 193.535C502.16 196.788 499.618 198.02 496.435 199.284C494.458 199.497 492.274 199.284 490.478 198.383C488.135 197.207 486.442 195.131 485.633 192.653Q485.482 192.194 485.378 191.722Q485.273 191.25 485.217 190.77Q485.16 190.29 485.152 189.807Q485.144 189.324 485.184 188.842Q485.225 188.361 485.313 187.886Q485.401 187.41 485.537 186.946Q485.672 186.483 485.854 186.035Q486.035 185.587 486.26 185.159C487.734 182.316 490.167 180.954 493.126 180.056Z"/>
	<path d="M518.566 199.536C520.146 199.647 521.876 200.145 523.322 200.776C526.388 202.113 528.762 204.44 529.848 207.645C530.803 210.466 530.694 213.559 529.268 216.202C527.253 219.936 523.99 221.332 520.093 222.438C518.088 222.508 515.82 221.999 514.024 221.114Q513.52 220.872 513.045 220.577Q512.57 220.283 512.129 219.939Q511.688 219.596 511.286 219.208Q510.884 218.82 510.526 218.391Q510.167 217.963 509.856 217.498Q509.545 217.034 509.285 216.539Q509.025 216.044 508.819 215.525Q508.613 215.005 508.463 214.467Q508.297 213.874 508.195 213.267Q508.093 212.66 508.055 212.046Q508.017 211.431 508.044 210.816Q508.07 210.201 508.162 209.592Q508.253 208.984 508.408 208.388Q508.563 207.792 508.78 207.216Q508.996 206.64 509.272 206.089Q509.549 205.539 509.881 205.021C512.045 201.611 514.771 200.427 518.566 199.536Z"/>
	<path d="M245.297 130.701C255.951 129.46 267.491 131.981 276.969 136.856C293.655 145.439 304.267 160.616 309.796 178.167C312.003 177.816 314.25 177.516 316.486 177.444Q317.656 177.406 318.826 177.426Q319.997 177.446 321.165 177.524Q322.333 177.601 323.495 177.735Q324.658 177.87 325.813 178.061Q326.968 178.252 328.112 178.5Q329.256 178.748 330.386 179.051Q331.517 179.355 332.631 179.714Q333.745 180.072 334.84 180.485Q335.936 180.898 337.009 181.364Q338.083 181.83 339.133 182.348Q340.182 182.866 341.205 183.435Q342.228 184.004 343.222 184.623Q344.216 185.241 345.178 185.907Q346.14 186.574 347.069 187.287Q347.997 188 348.89 188.757Q349.782 189.515 350.636 190.315C360.111 199.219 365.637 211.063 366.029 224.07C366.427 237.295 360.732 250.338 351.673 259.9C318.833 259.58 285.967 259.9 253.125 259.994L140.844 259.854C134.007 247.268 129.067 233.909 131.095 219.392C132.928 206.26 139.384 194.361 150.076 186.382C161.668 177.73 174.426 175.185 188.572 177.228C191.217 168.729 195.242 160.354 200.957 153.485C212.494 139.619 227.521 132.395 245.297 130.701Z"/>
	<path fill="#FEFEFE" d="M242.899 146.65C246.726 146.174 250.837 146.152 254.665 146.635Q255.798 146.775 256.923 146.97Q258.048 147.166 259.162 147.416Q260.276 147.667 261.376 147.972Q262.476 148.278 263.56 148.637Q264.644 148.996 265.709 149.408Q266.773 149.821 267.817 150.285Q268.86 150.749 269.879 151.265Q270.898 151.78 271.89 152.345Q272.882 152.909 273.845 153.523Q274.809 154.136 275.74 154.796Q276.672 155.456 277.57 156.161Q278.468 156.866 279.331 157.614Q280.193 158.363 281.017 159.153Q281.841 159.943 282.625 160.773Q283.41 161.603 284.152 162.47Q284.894 163.338 285.593 164.241C294.114 175.272 296.703 187.247 294.908 200.91C299.543 197.201 304.35 194.539 310.204 193.277C319.313 191.312 329.002 193.59 336.697 198.726C343.755 203.438 348.335 210.917 349.899 219.203C351.718 228.841 348.816 236.72 343.462 244.606L255.125 244.685Q203.3 244.353 151.478 245.039C149.423 241.288 147.836 237.084 146.957 232.896C145.082 223.965 146.659 215.011 151.783 207.418C156.971 199.731 165.78 194.119 174.862 192.365C184.866 190.434 194.51 193.66 202.799 199.202C201.149 187.567 203.511 176.618 210.256 166.922C218.151 155.574 229.431 149.124 242.899 146.65Z"/>
	<path d="M796.602 113.722Q798.632 113.703 800.659 113.819Q802.686 113.936 804.701 114.187Q806.716 114.438 808.71 114.822Q810.703 115.207 812.667 115.723Q814.63 116.24 816.555 116.885Q818.48 117.531 820.358 118.304Q822.235 119.077 824.058 119.973Q825.88 120.869 827.638 121.884C843.281 130.849 851.321 143.799 855.998 160.814C873.015 159.336 882.715 159.794 897.411 169.734Q898.468 170.461 899.489 171.238Q900.51 172.015 901.492 172.841Q902.474 173.666 903.414 174.539Q904.354 175.412 905.251 176.329Q906.148 177.246 907 178.206Q907.851 179.166 908.655 180.166Q909.458 181.166 910.212 182.204Q910.966 183.242 911.669 184.315Q912.371 185.389 913.021 186.495Q913.671 187.601 914.266 188.738Q914.861 189.875 915.4 191.039Q915.939 192.203 916.421 193.392Q916.903 194.581 917.326 195.792Q917.75 197.003 918.114 198.233Q918.478 199.463 918.781 200.71Q919.085 201.956 919.328 203.216C922.004 217.751 918.159 232.308 909.874 244.412C896.436 245.587 882.291 244.624 868.779 244.597L797.421 244.753L688.634 244.538Q686.402 242.009 684.378 239.31C676.532 228.839 672.652 216.429 674.634 203.351C676.586 190.464 684.658 178.34 695.073 170.667C707.5 161.511 721.019 159.469 735.951 161.743C740.011 151.588 743.389 142.682 750.947 134.46C763.659 120.63 777.999 114.544 796.602 113.722Z"/>
	<path fill="#FEFEFE" d="M794.819 129.196C798.271 128.732 802.145 129.056 805.568 129.638C817.315 131.636 827.926 139.343 834.626 149.047C842.217 160.04 843.992 172.554 841.691 185.508C847.188 181.355 853.046 177.812 859.828 176.244C869.204 174.076 879.382 176.198 887.456 181.314Q888.269 181.827 889.056 182.38Q889.843 182.933 890.601 183.525Q891.359 184.117 892.087 184.746Q892.814 185.375 893.51 186.039Q894.205 186.704 894.866 187.402Q895.527 188.101 896.153 188.831Q896.778 189.562 897.366 190.323Q897.954 191.084 898.504 191.873Q899.053 192.663 899.562 193.479Q900.071 194.294 900.539 195.135Q901.007 195.975 901.432 196.838Q901.857 197.701 902.238 198.583Q902.62 199.466 902.957 200.367Q903.294 201.268 903.585 202.184Q903.876 203.101 904.121 204.031Q904.367 204.961 904.565 205.902C906.42 214.569 904.739 221.706 900.009 229.111C866.815 228.349 833.461 229.028 800.25 229.03L695.548 228.931C693.313 224.473 690.378 219.78 689.694 214.78C688.544 206.376 691.014 197.622 696.118 190.897Q696.672 190.176 697.261 189.483Q697.85 188.79 698.472 188.126Q699.094 187.463 699.749 186.832Q700.403 186.2 701.088 185.601Q701.773 185.003 702.486 184.438Q703.199 183.874 703.94 183.346Q704.68 182.818 705.446 182.327Q706.211 181.836 707 181.383Q707.789 180.93 708.599 180.517Q709.409 180.104 710.239 179.731Q711.068 179.358 711.915 179.027Q712.762 178.696 713.624 178.406Q714.487 178.117 715.362 177.871Q716.238 177.625 717.124 177.422Q718.011 177.219 718.906 177.06Q719.802 176.901 720.704 176.787C732.765 175.252 742.526 179.316 751.966 186.559C751.408 184.498 750.914 182.316 750.706 180.186C749.545 168.29 753.703 155.827 761.287 146.659C769.836 136.325 781.605 130.507 794.819 129.196Z"/>
	<path d="M241.069 363.69L268.177 363.329C271.804 363.298 277.878 363.071 280.402 366.154C282.681 368.938 281.599 380.413 281.592 384.333C284.56 384.304 287.197 384.132 289.786 385.8C291.682 387.021 293.24 388.632 293.611 390.938C293.914 392.818 293.236 394.663 292.081 396.132C289.111 399.904 285.403 399.966 281.008 400.352C281.256 406.728 282.245 413.191 282.873 419.546Q284.227 434.087 285.349 448.648C288.099 448.548 290.886 448.368 293.637 448.403C296.014 448.434 298.491 449.02 300.138 450.851C301.411 452.266 301.381 454.208 301.506 456.015C302.812 474.835 301.775 494.34 301.715 513.222C301.634 538.443 302.186 563.686 301.754 588.901C267.43 573.507 232.43 569.24 195.317 574.863Q187.992 576.269 180.795 578.226Q173.598 580.183 166.57 582.681Q159.541 585.178 152.723 588.201Q145.905 591.224 139.335 594.756C139.676 583.357 139.257 571.87 139.232 560.458Q139.089 523.759 139.352 487.063C139.44 477.109 138.673 466.795 139.382 456.905C139.524 454.913 139.703 451.627 141.035 450.06C141.331 449.711 141.356 449.762 141.794 449.662C149.614 447.875 163.875 448.969 172.23 448.975L233.392 448.972L237.691 400.644C233.917 400.85 230.881 400.953 227.87 398.244C226.138 396.685 225.06 394.566 225.023 392.211Q225.014 391.849 225.042 391.487Q225.069 391.126 225.133 390.77Q225.197 390.413 225.297 390.064Q225.396 389.716 225.53 389.38Q225.665 389.043 225.832 388.722Q226 388.4 226.199 388.098Q226.398 387.795 226.627 387.514Q226.855 387.233 227.111 386.976C229.711 384.316 232.431 384.371 235.883 384.363C235.975 379.242 234.478 371.333 236.837 366.673C237.783 364.806 239.155 364.244 241.069 363.69Z"/>
	<path fill="#FEFEFE" d="M253.673 377.746L266.765 377.652C266.85 379.773 267.122 381.948 266.519 384.006L265.528 384.361C262.202 384.438 258.75 384.687 255.432 384.433C253.844 384.311 252.897 384.067 251.865 382.846C251.797 381.191 251.54 379.593 252.346 378.082L253.673 377.746Z"/>
	<path fill="#FEFEFE" d="M259.944 499.455C262.019 499.676 263.725 499.878 265.146 501.555C266.312 505.04 266.51 553.495 265.421 556.619C264.856 558.242 263.446 558.958 262.061 559.808C260.206 559.576 258.416 559.226 257.273 557.58C255.179 554.565 255.65 509.051 256.668 502.139C257.409 500.745 258.627 500.21 259.944 499.455Z"/>
	<path fill="#FEFEFE" d="M217.882 499.913C218.625 499.845 218.678 499.825 219.507 499.825C221.022 499.824 222.978 500.225 223.86 501.595C225.6 504.3 225.535 549.361 224.817 554.63C224.515 556.853 223.552 557.773 221.834 559.027C221.106 559.106 220.375 559.186 219.642 559.203C218.315 559.233 217.422 558.916 216.52 557.931C214.007 555.188 214.687 511.048 215.048 505.314C215.224 502.515 215.844 501.716 217.882 499.913Z"/>
	<path fill="#FEFEFE" d="M176.476 499.517C178.759 499.455 180.324 499.351 182.15 500.966C184.304 505.303 183.74 548.045 182.926 554.677C182.64 557.005 182.14 558.129 180.289 559.595C179.118 559.617 177.91 559.67 176.744 559.555C175.367 559.42 174.587 558.644 173.705 557.649C172.473 554.303 172.237 505.798 173.247 502.609C173.737 501.062 175.181 500.338 176.476 499.517Z"/>
	<path fill="#FEFEFE" d="M253.199 400Q259.213 399.929 265.225 400.109C266.19 416.239 269.138 432.267 269.928 448.37C269.031 449.112 266.676 448.878 265.447 448.918L248.441 448.891Q251.208 424.483 253.199 400Z"/>
	<path fill="#FEFEFE" d="M156.313 464.257C180.241 463.856 204.213 464 228.145 463.951C247.472 463.911 266.922 463.512 286.228 464.391C286.2 467.82 287.439 476.894 285.532 479.583C285.114 480.173 283.819 480.054 283.125 480.118L201.131 480.441C185.331 480.441 169.307 480.9 153.54 479.918C153.427 476.386 152.25 468.024 153.992 465.001C154.416 464.264 155.538 464.385 156.313 464.257Z"/>
	<path d="M431.657 302.107C442.434 301.559 453.415 301.955 464.215 301.96L522.717 301.961L590.868 301.958C601.575 301.98 612.42 301.594 623.11 302.056C625.214 302.147 630.563 302.242 632.072 303.616C637.229 308.313 635.742 318.735 635.74 325.173C645.28 325.636 654.949 325.205 664.499 325.063C670.032 324.981 676.262 324.365 681.666 325.628C684.777 326.355 685.872 328.414 687.43 330.919C688.015 339.191 687.641 347.742 687.673 356.045L687.645 413.97L687.582 532.11C687.566 553.433 688.151 574.83 687.772 596.141C687.628 604.249 684.808 612.472 683.734 620.553C681.647 636.259 682.402 651.744 683.649 667.475L622.525 667.346L462.986 667.54L412.166 667.711C403.853 667.717 394.848 668.345 386.616 667.31C382.42 666.782 377.858 664.307 374.596 661.696C369.51 657.627 366.025 652.367 365.33 645.813C364.665 639.545 365.151 632.894 365.184 626.57L365.108 596.692Q364.812 541.279 365.13 485.869Q365.451 435.63 365.164 385.391L365.109 353.249C365.099 347.483 364.8 341.573 365.185 335.828C365.362 333.193 366.229 329.84 368.168 327.913C369.969 326.123 373.097 325.356 375.519 324.996C380.813 324.207 386.753 324.762 392.129 324.728Q409.363 324.736 426.592 324.288C426.602 319.08 425.764 313.022 427.038 307.985C427.758 305.142 429.197 303.593 431.657 302.107Z"/>
	<path fill="#FEFEFE" d="M534.756 317.244C562.988 317.014 591.266 317.311 619.502 317.433L619.515 356.149L526.75 356.157L441.784 355.975Q441.538 336.726 441.581 317.476C472.628 316.975 503.703 317.614 534.756 317.244Z"/>
	<path fill="#FEFEFE" d="M381.739 340.245C396.511 340.172 411.368 339.773 426.129 340.254C426.195 347.882 425.545 356.054 426.363 363.601C426.589 365.687 427.23 369.406 429.281 370.539C431.447 371.735 435.539 371.909 438.005 371.994C450.325 372.42 462.787 372.033 475.123 372.071L561.704 372.166L606.382 372.364C613.249 372.391 624.083 373.357 630.519 371.774C632.752 371.224 634.289 368.561 635.405 366.774C636.023 358.216 635.903 349.501 636.04 340.918C648.082 340.439 660.34 340.519 672.393 340.756L672.543 622.231L672.57 652.387L458.787 652.564L415.235 652.657C408.025 652.707 392.69 654.099 386.429 652.218C383.575 651.36 381.967 648.182 380.573 645.783L380.303 428.66L379.953 365.882C379.927 359.354 378.956 346.266 380.326 340.67L381.739 340.245Z"/>
	<path d="M538.355 575.821C542.31 578.938 546.035 582.928 549.728 586.381C539.743 597.108 530.479 608.683 521.103 619.958C515.847 626.277 510.739 633.278 504.445 638.582Q497.728 632.231 491.484 625.413C487.658 621.271 483.942 617.086 480.343 612.745C483.17 608.8 486.489 605.234 489.783 601.683C494.6 606.462 499.215 611.485 503.908 616.388C515.667 603.128 526.82 589.285 538.355 575.821Z"/>
	<path d="M538.531 491.302C542.155 493.051 546.309 498.956 549.066 502.023C541.252 512.145 532.71 521.84 524.432 531.584C517.939 539.226 511.655 547.115 504.933 554.551Q498.409 547.085 491.671 539.812C488.234 535.834 484.474 532.101 480.988 528.153C483.559 523.668 487.28 519.902 490.461 515.835C495.522 520.498 500.019 525.977 504.581 531.122C510.075 525.616 514.892 518.932 519.904 512.958C526.026 505.662 532.499 498.672 538.531 491.302Z"/>
	<path d="M558.558 520.582C589.37 521.538 620.355 521.017 651.187 520.819C651.233 525.914 651.519 531.447 650.829 536.488C638.035 535.773 625.094 536.104 612.283 536.104Q585.706 535.962 559.13 536.326Q558.914 528.451 558.558 520.582Z"/>
	<path d="M558.675 609.035C589.451 609.346 620.555 608.296 651.266 609.365C651.481 614.369 651.347 619.43 651.367 624.441L558.83 624.487L558.675 609.035Z"/>
	<path d="M539.349 401.323C543.362 404.306 547.253 408.672 550.732 412.289L525.53 441.79C518.666 449.987 511.976 458.474 504.588 466.203C500.573 461.97 496.368 457.924 492.371 453.665C488.443 449.654 484.077 445.473 480.875 440.856C483.694 436.703 486.95 432.86 490.113 428.967C494.781 433.586 499.148 438.372 503.471 443.308C516.015 429.937 527.296 415.159 539.349 401.323Z"/>
	<path d="M558.864 431.612Q605.205 432.247 651.546 431.667L651.574 447.426C643.476 448.57 632.128 447.507 623.638 447.513L559.043 447.731L558.864 431.612Z"/>
	<path d="M409.366 399.117C418.537 398.702 427.837 399.023 437.022 399.028C443.196 399.031 449.856 398.488 455.963 399.322C458.258 399.635 460.339 400.179 462.342 401.374C465.638 403.342 468.519 406.579 469.32 410.411C470.62 416.634 470.859 452.485 469.852 459.631C469.517 462.004 468.813 463.996 467.482 466.01C464.852 469.99 461.131 472.002 456.575 472.956C447.06 473.222 411.035 474.499 404.45 471.121C400.687 469.19 397.239 464.944 396.218 460.826C394.863 455.362 395.047 418.653 395.889 412.107C396.171 409.916 396.6 408.259 397.8 406.371C400.499 402.126 404.61 400.176 409.366 399.117Z"/>
	<path fill="#FEFEFE" d="M410.347 414.508C425.323 414.531 440.486 414.064 455.435 414.809C455.848 421.64 455.618 428.599 455.633 435.446C455.649 442.998 456.101 451.005 454.964 458.484L427.162 458.556C421.882 458.571 416.479 458.85 411.22 458.383C408.965 454.229 410.285 421.617 410.347 414.508Z"/>
	<path d="M443.416 422.961C445.978 422.85 448.617 423.404 450.583 425.201C451.657 426.182 452.116 427.472 452.156 428.887C452.366 436.194 437.973 451.014 432.709 456.537C429.773 454.289 427.223 451.452 424.624 448.821C421.131 445.187 415.942 440.68 415.788 435.236C415.746 433.777 416.061 432.125 417.223 431.129C418.253 430.246 419.623 430.141 420.909 430.259C425.091 430.641 427.912 434.356 430.377 437.303C434.532 432.568 438.092 426.457 443.416 422.961Z"/>
	<path d="M411.238 566.668C419.527 566.47 427.873 566.644 436.168 566.616C441.961 566.596 448.195 566.122 453.941 566.836C456.546 567.159 459.29 567.804 461.594 569.105C465.014 571.036 468.254 575.131 469.095 578.996C470.501 585.463 470.525 621.482 469.653 628.479C469.404 630.482 468.922 631.991 467.834 633.683C464.638 638.655 459.843 641.172 454.193 642.309C446.901 642.678 439.442 642.377 432.133 642.361C425.293 642.346 418.037 642.839 411.28 641.855C408.588 641.463 405.665 640.643 403.332 639.207C399.876 637.079 397.092 633.082 396.279 629.106C394.696 621.354 395.081 589.704 396.247 581.499C396.663 578.564 397.353 575.325 399.075 572.872C401.987 568.723 406.475 567.367 411.238 566.668Z"/>
	<path fill="#FEFEFE" d="M412.63 581.585Q426.474 581.662 440.317 581.567C444.27 581.558 448.635 581.158 452.54 581.664C453.26 581.757 453.753 582.04 454.324 582.462C456.322 586.914 456.446 622.691 454.996 626.997L454.019 627.416L427.144 627.26C422.971 627.241 418.465 627.634 414.329 627.174C413.015 627.028 412.069 626.723 410.948 625.991C409.638 623.502 409.593 588.341 410.44 584.235C410.76 582.684 411.344 582.413 412.63 581.585Z"/>
	<path d="M443.673 592.331C445.84 592.486 448.464 593.611 450.021 595.163C451.015 596.154 451.468 597.458 451.478 598.845C451.528 605.619 438.13 619.833 433.053 624.725C430.442 622.929 428.136 620.591 425.797 618.452C422.374 615.182 417.222 610.948 416.784 605.937C416.653 604.436 416.919 602.818 418.092 601.758C419.106 600.841 420.468 600.604 421.788 600.663C426.025 600.854 428.112 603.433 430.706 606.36C434.757 601.396 438.329 596.019 443.673 592.331Z"/>
	<path d="M415.234 482.244C425.567 482.242 449.201 480.908 458.036 482.918C460.435 483.464 462.318 484.334 464.134 486.004C468.593 490.104 469.788 495.375 469.898 501.202C470.059 509.794 470.956 537.006 469.344 543.948C468.567 547.293 467.023 550.456 464.571 552.891C460.777 556.66 456.226 557.423 451.125 557.49C440.499 557.481 418.551 558.635 409.316 557.038C406.219 556.503 403.491 555.447 401.072 553.407C397.114 550.068 395.944 546.147 395.606 541.144C395.216 535.363 395.64 529.435 395.616 523.633C395.577 514.582 394.398 503.984 396.067 495.125C396.65 492.033 397.389 489.82 399.516 487.48C403.913 482.642 409.144 482.416 415.234 482.244Z"/>
	<path fill="#FEFEFE" d="M410.331 497.041C425.172 496.418 440.56 496.586 455.405 497.088C455.859 502.769 455.544 508.623 455.598 514.333C455.688 523.799 455.979 533.294 455.674 542.757Q432.917 542.534 410.159 542.562C409.689 534.843 410.026 526.914 410.012 519.173C409.999 511.888 409.516 504.272 410.331 497.041Z"/>
	<path d="M444.617 508.456C446.598 508.449 448.6 509.095 450.153 510.344Q450.351 510.502 450.531 510.68Q450.712 510.858 450.872 511.055Q451.032 511.251 451.17 511.463Q451.309 511.676 451.424 511.902Q451.539 512.128 451.629 512.365Q451.719 512.601 451.783 512.846Q451.847 513.092 451.885 513.342Q451.923 513.593 451.934 513.846C452.316 521.427 438.092 535.433 432.994 540.751C430.277 538.596 427.851 536.044 425.38 533.614C421.882 530.19 417.858 526.413 417.471 521.221C417.347 519.544 417.624 517.437 418.893 516.212C419.84 515.297 421.211 515.024 422.485 515.179C426.717 515.694 428.758 518.489 431.297 521.53C435.917 517.05 438.663 511.499 444.617 508.456Z"/>
	<path d="M842.454 272.363L876.384 272.473Q885.489 285.312 893.722 298.726Q901.955 312.141 909.28 326.072C925.988 358.563 939.157 397.902 946.296 433.627Q947.316 438.861 948.207 444.119Q949.098 449.376 949.859 454.654Q950.62 459.932 951.251 465.227Q951.882 470.522 952.383 475.831Q952.883 481.14 953.253 486.459Q953.622 491.779 953.861 497.106Q954.1 502.433 954.207 507.765Q954.314 513.096 954.29 518.428Q954.267 523.761 954.111 529.091Q953.956 534.421 953.67 539.746Q953.384 545.071 952.966 550.387Q952.549 555.703 952.001 561.007Q951.453 566.311 950.774 571.6Q950.096 576.89 949.287 582.16Q948.479 587.431 947.541 592.681Q946.603 597.93 945.536 603.154Q944.469 608.379 943.274 613.576Q942.079 618.773 940.756 623.939Q939.433 629.104 937.984 634.236Q936.534 639.368 934.959 644.462Q933.383 649.557 931.683 654.611Q929.983 659.665 928.158 664.676Q926.334 669.686 924.387 674.651Q922.44 679.615 920.371 684.53Q918.303 689.444 916.114 694.307Q913.924 699.169 911.616 703.976Q909.308 708.784 906.883 713.532Q904.457 718.281 901.915 722.969Q899.373 727.656 896.717 732.28Q894.06 736.904 891.291 741.461Q888.521 746.017 885.64 750.505Q882.759 754.992 879.769 759.407C815.412 855.849 710.515 927.447 596.604 949.998Q591.907 950.905 587.192 951.71Q582.477 952.514 577.745 953.217Q573.013 953.92 568.268 954.52Q563.522 955.12 558.764 955.617Q554.006 956.114 549.239 956.508Q544.472 956.902 539.697 957.193Q534.923 957.483 530.143 957.671Q525.363 957.858 520.58 957.942Q515.797 958.025 511.014 958.006Q506.23 957.986 501.448 957.863Q496.666 957.739 491.888 957.513Q487.11 957.286 482.338 956.955Q477.566 956.625 472.802 956.192Q468.038 955.759 463.285 955.222Q458.531 954.686 453.791 954.046Q449.05 953.407 444.324 952.666Q439.599 951.924 434.89 951.08Q430.182 950.236 425.492 949.291Q420.803 948.345 416.136 947.299Q411.468 946.252 406.824 945.104Q402.18 943.957 397.563 942.709Q392.945 941.461 388.355 940.113Q383.765 938.766 379.205 937.319Q374.646 935.873 370.119 934.328Q365.591 932.783 361.099 931.14Q356.606 929.498 352.15 927.758Q347.694 926.019 343.277 924.184Q338.859 922.348 334.483 920.417Q330.106 918.487 325.772 916.462Q321.438 914.437 317.149 912.319Q312.86 910.2 308.618 907.99Q304.376 905.779 300.183 903.477C287.682 896.55 275.938 888.118 264.074 880.168C238.818 888.117 209.53 886.843 184.365 879.015Q182.649 878.494 180.946 877.931Q179.244 877.368 177.555 876.763Q175.867 876.158 174.195 875.511Q172.522 874.865 170.866 874.177Q169.21 873.489 167.571 872.76Q165.932 872.031 164.312 871.262Q162.692 870.493 161.092 869.684Q159.491 868.875 157.911 868.026Q156.332 867.178 154.773 866.291Q153.215 865.404 151.679 864.478Q150.143 863.552 148.63 862.589Q147.118 861.625 145.629 860.625Q144.141 859.624 142.678 858.587Q141.215 857.55 139.778 856.477Q138.341 855.404 136.931 854.295Q135.522 853.187 134.14 852.044Q132.758 850.901 131.405 849.724Q130.051 848.548 128.728 847.338Q127.404 846.128 126.111 844.885Q124.818 843.643 123.556 842.369Q122.293 841.095 121.063 839.79Q119.833 838.485 118.636 837.15Q117.438 835.815 116.274 834.451Q115.11 833.086 113.981 831.694Q112.851 830.301 111.756 828.881Q110.661 827.46 109.601 826.014Q108.542 824.567 107.519 823.094Q106.495 821.621 105.509 820.124Q104.522 818.626 103.573 817.104Q102.624 815.583 101.713 814.038Q100.802 812.493 99.9293 810.927Q99.0568 809.36 98.2233 807.772Q97.4113 806.195 96.6379 804.599Q95.8645 803.003 95.1301 801.389Q94.3958 799.774 93.701 798.142Q93.0061 796.511 92.3512 794.863Q91.6963 793.214 91.0817 791.551Q90.4671 789.887 89.8931 788.209Q89.3192 786.531 88.7862 784.839Q88.2533 783.148 87.7617 781.443Q87.2701 779.739 86.8201 778.024Q86.3701 776.308 85.9619 774.582Q85.5538 772.856 85.1878 771.121Q84.8218 769.386 84.4982 767.642Q84.1745 765.898 83.8934 764.147Q83.6122 762.396 83.3738 760.638Q83.1354 758.881 82.9398 757.118Q82.7442 755.355 82.5915 753.588Q82.4389 751.821 82.3293 750.051Q82.2197 748.281 82.1532 746.509Q82.0867 744.736 82.0634 742.963Q82.04 741.19 82.0598 739.416Q82.0797 737.643 82.1426 735.87Q82.2056 734.098 82.3117 732.328Q82.4178 730.557 82.5669 728.79Q82.7161 727.023 82.9082 725.259Q83.1003 723.496 83.3352 721.738Q83.5702 719.98 83.8478 718.229Q84.1255 716.477 84.4457 714.733Q84.7659 712.988 85.1285 711.252Q85.491 709.516 85.8957 707.789Q86.3004 706.063 86.747 704.346Q87.1936 702.63 87.6819 700.925Q88.1701 699.22 88.6997 697.527Q89.234 695.83 89.8099 694.147Q90.3858 692.464 91.0028 690.796Q91.6199 689.127 92.2777 687.475Q92.9356 685.822 93.6338 684.186Q94.3321 682.55 95.0703 680.932Q95.8086 679.313 96.5863 677.713Q97.3641 676.114 98.1809 674.534Q98.9978 672.953 99.8532 671.394Q100.709 669.834 101.602 668.296Q102.496 666.758 103.427 665.242Q104.358 663.726 105.326 662.234Q106.293 660.742 107.298 659.273Q108.302 657.805 109.342 656.362Q110.382 654.919 111.458 653.502Q112.533 652.085 113.642 650.695Q114.752 649.305 115.896 647.942Q117.039 646.58 118.216 645.245Q119.393 643.911 120.602 642.607Q121.811 641.302 123.052 640.027Q124.292 638.753 125.564 637.509Q126.836 636.265 128.138 635.053Q129.44 633.841 130.771 632.661Q132.102 631.481 133.462 630.335Q134.822 629.188 136.209 628.075Q137.597 626.962 139.012 625.884Q140.426 624.805 141.867 623.762Q143.307 622.718 144.773 621.71Q146.239 620.703 147.729 619.731Q149.219 618.76 150.733 617.825Q152.246 616.891 153.782 615.994Q155.318 615.097 156.876 614.237Q158.434 613.378 160.012 612.558Q161.612 611.738 163.231 610.958Q164.851 610.178 166.489 609.438Q168.127 608.698 169.782 607.998Q171.438 607.298 173.11 606.638Q174.782 605.979 176.47 605.361Q178.158 604.743 179.86 604.166Q181.563 603.59 183.279 603.055Q184.995 602.52 186.724 602.027Q188.452 601.535 190.193 601.084Q191.933 600.634 193.684 600.227Q195.434 599.819 197.194 599.455Q198.954 599.09 200.723 598.769Q202.492 598.447 204.267 598.169Q206.043 597.891 207.825 597.657Q209.608 597.422 211.395 597.231Q213.182 597.04 214.974 596.893Q216.765 596.746 218.56 596.643Q220.354 596.54 222.151 596.481Q223.947 596.422 225.745 596.406Q227.542 596.391 229.339 596.42Q231.137 596.449 232.933 596.521Q234.729 596.594 236.522 596.711Q238.316 596.827 240.106 596.988Q241.897 597.148 243.683 597.352Q245.469 597.557 247.249 597.805Q249.029 598.052 250.803 598.344Q252.577 598.635 254.343 598.97Q256.109 599.305 257.866 599.682Q259.623 600.06 261.371 600.481Q263.119 600.901 264.855 601.365Q266.592 601.828 268.317 602.334Q270.042 602.839 271.754 603.387Q273.483 603.926 275.198 604.508Q276.913 605.089 278.613 605.713Q280.313 606.337 281.997 607.003Q283.681 607.669 285.348 608.376Q287.015 609.083 288.664 609.832Q290.313 610.58 291.942 611.369Q293.572 612.158 295.182 612.988Q296.792 613.817 298.381 614.686Q299.97 615.555 301.536 616.463Q303.103 617.371 304.647 618.317Q306.191 619.264 307.711 620.249Q309.23 621.233 310.725 622.255Q312.22 623.277 313.689 624.336Q315.159 625.394 316.601 626.489Q318.044 627.584 319.459 628.714Q320.873 629.844 322.26 631.009Q323.646 632.174 325.004 633.373Q326.361 634.572 327.688 635.804Q329.015 637.036 330.311 638.3Q331.607 639.565 332.871 640.862Q334.136 642.158 335.368 643.485Q336.599 644.813 337.798 646.17Q338.997 647.527 340.161 648.914Q341.326 650.301 342.455 651.716Q343.585 653.131 344.68 654.574Q345.774 656.017 346.832 657.486Q347.891 658.956 348.912 660.451Q349.934 661.946 350.918 663.466Q351.902 664.986 352.849 666.53Q353.795 668.074 354.702 669.641Q355.61 671.208 356.479 672.797Q357.347 674.386 358.176 675.996C376.278 711.704 378.439 751.241 365.944 789.103C389.151 796.676 423.946 819.911 440.247 838.405C445.04 843.842 448.725 849.868 452.314 856.126C452.602 855.835 464.389 827.319 465.971 823.92Q477.969 798.708 492.337 774.768C496.442 767.849 501.04 761.203 504.98 754.196C510.059 763.667 516.666 772.657 522.177 781.927C536.127 805.393 548.867 830.543 557.343 856.549C563.094 841.054 570.583 826.531 578.213 811.905C586.239 796.519 594.38 781.355 603.783 766.746C622.895 795.034 638.56 825.813 653.313 856.538Q668.803 821.308 687.33 787.575C691.392 780.295 695.293 772.904 699.963 765.989C704.333 773.499 709.186 780.714 713.514 788.259Q718.254 796.344 722.557 804.67Q726.861 812.996 730.714 821.54Q734.568 830.083 737.962 838.819Q741.355 847.555 744.279 856.46C755.961 849.689 766.769 840.05 776.935 831.226C776.864 811.568 777.198 791.887 776.466 772.241C757.199 765.901 735.522 742.945 723.442 726.66Q722.38 725.217 721.353 723.749Q720.327 722.28 719.337 720.787Q718.348 719.293 717.396 717.776Q716.443 716.258 715.529 714.717Q714.614 713.177 713.738 711.614Q712.862 710.051 712.025 708.467Q711.187 706.883 710.39 705.279Q709.592 703.675 708.834 702.051Q708.076 700.428 707.359 698.786Q706.642 697.144 705.965 695.485Q705.289 693.826 704.653 692.151Q704.018 690.476 703.425 688.786Q702.831 687.095 702.279 685.391Q701.728 683.686 701.219 681.968Q700.709 680.25 700.243 678.521Q699.776 676.791 699.353 675.05Q698.929 673.309 698.548 671.558Q698.168 669.808 697.831 668.048Q697.494 666.288 697.201 664.521Q696.908 662.753 696.658 660.979Q696.409 659.205 696.203 657.425Q695.998 655.646 695.836 653.861Q695.675 652.077 695.558 650.289Q695.44 648.501 695.368 646.711Q695.295 644.921 695.266 643.13Q695.237 641.338 695.253 639.547Q695.269 637.755 695.329 635.964Q695.389 634.174 695.494 632.385Q695.598 630.597 695.747 628.811Q695.895 627.026 696.088 625.245Q696.281 623.463 696.517 621.687Q696.754 619.911 697.035 618.142C705.049 565.295 743.128 521.333 784.819 490.674C817.238 513.488 850.08 550.555 865.125 587.427C878.786 620.909 880.171 657.153 866.062 690.773C855.731 715.388 835.378 745.563 813.259 761.224C806.581 765.952 799.044 769.381 791.496 772.461Q791.379 795.463 792.118 818.453C800.698 811.598 808.473 802.708 815.965 794.704Q820.52 789.794 824.916 784.742Q829.312 779.689 833.543 774.498Q837.775 769.307 841.839 763.983Q845.902 758.66 849.793 753.209Q853.684 747.758 857.399 742.185Q861.114 736.612 864.648 730.924Q868.183 725.235 871.533 719.436Q874.884 713.637 878.047 707.734Q881.211 701.831 884.184 695.83Q887.157 689.828 889.936 683.735Q892.715 677.641 895.298 671.462Q897.881 665.283 900.265 659.024Q902.649 652.766 904.831 646.434Q907.014 640.102 908.992 633.704Q910.971 627.306 912.744 620.847Q914.517 614.389 916.082 607.877Q917.063 603.637 917.951 599.376Q918.839 595.115 919.633 590.836Q920.428 586.556 921.13 582.261Q921.831 577.965 922.439 573.656Q923.047 569.346 923.56 565.024Q924.074 560.702 924.493 556.37Q924.913 552.038 925.237 547.697Q925.562 543.357 925.792 539.011Q926.022 534.665 926.158 530.314Q926.293 525.964 926.334 521.612Q926.374 517.26 926.32 512.907Q926.266 508.555 926.117 504.206Q925.968 499.856 925.724 495.51Q925.48 491.165 925.141 486.825Q924.803 482.486 924.37 478.155Q923.937 473.825 923.41 469.504Q922.882 465.184 922.261 460.876Q921.64 456.568 920.925 452.275Q920.21 447.982 919.401 443.705Q918.593 439.428 917.692 435.17Q916.79 430.912 915.796 426.675Q914.802 422.438 913.716 418.223Q912.63 414.008 911.452 409.818Q910.275 405.628 909.006 401.465Q907.737 397.301 906.378 393.166Q905.019 389.032 903.57 384.928Q902.121 380.823 900.583 376.752Q899.045 372.68 897.419 368.643Q895.792 364.606 894.078 360.605Q892.365 356.604 890.564 352.642Q888.763 348.68 886.876 344.757Q884.99 340.835 883.018 336.955Q871.143 314.191 856.89 292.835C852.369 286.129 847.048 279.872 842.83 272.983L842.454 272.363Z"/>
	<path fill="#FEFEFE" d="M697.053 800.491C698.662 800.476 700.64 800.309 701.911 801.45C703.372 802.762 702.691 830.988 702.693 834.876C704.842 831.235 709.462 823.109 712.627 820.81C713.173 820.413 713.761 820.384 714.402 820.639C714.953 820.859 715.651 821.326 715.785 821.936C716.618 825.731 705.895 840.737 703.39 844.66L703.356 867.506C707.029 862.22 715.876 846.356 721.047 843.552C722.207 842.923 722.746 842.972 723.94 843.402C726.437 848.586 705.822 870.345 703.726 876.923C703.346 878.117 703.472 879.633 703.5 880.877C701.538 882.601 699.306 883.744 697.028 884.989C697.02 882.944 697.237 880.299 696.618 878.352C694.108 870.448 682.296 857.801 678.282 848.915C677.642 847.499 676.962 845.81 677.515 844.281L678.435 843.938C684.171 845.78 692.938 861.216 696.5 866.462C696.446 860.317 697.696 851.407 696.249 845.624C694.403 838.241 684.207 829.368 684.353 822.237C685.023 821.075 684.966 821.126 686.249 820.734C690.621 822.072 694.076 829.599 696.382 833.45C696.363 825.534 695.279 807.235 697.053 800.491Z"/>
	<path fill="#FEFEFE" d="M601.071 801.27C603.02 801.267 604.429 801.264 605.977 802.568C608.269 806.313 606.726 833.558 606.623 839.67C609.915 834.86 613.508 824.882 618.613 822.299C620.096 822.341 620.156 822.498 621.335 823.435C622.037 827.392 610.116 844.494 607.423 848.821L607.535 872.451C611.635 866.458 620.944 851.146 625.514 846.81C626.693 845.692 627.735 844.898 629.419 844.965L630.074 845.845C630.116 847.842 629.643 849.325 628.748 851.112C626.538 855.527 623.104 859.568 620.352 863.672C616.036 870.107 611.986 876.75 607.778 883.26L607.823 893.479L607.768 898.325L601.067 898.217L601.124 883.155C597.733 876.799 578.465 850.653 578.526 846.336C579.296 845.23 579.77 844.892 581.008 844.367C584.47 845.469 597.849 866.493 600.885 870.7L600.59 847.455C597.773 843.1 587.231 827.257 587.689 822.974C588.701 821.877 588.689 821.749 590.145 821.535C594.256 823.285 598.046 831.68 600.444 835.619C600.247 826.609 599.544 809.494 601.071 801.27Z"/>
	<path fill="#FEFEFE" d="M503.221 792.224C504.852 792.467 506.153 792.511 507.36 793.764C509.292 799.115 508.433 829.521 508.153 836.68C511.139 832.368 516.735 820.509 521.901 819.145C523.248 818.789 523.784 819.252 524.89 819.891C526.136 823.942 511.307 843.434 509.061 849.065C507.246 853.615 508.416 870.804 508.455 876.344C511.493 871.869 529.41 845.288 532.064 844.519C533.439 844.908 533.945 845.512 534.911 846.505C535.213 848.314 534.458 849.758 533.657 851.335C531.093 856.385 527.348 861.155 524.16 865.84L507.953 889.798C507.875 895.587 509.46 908.891 507.555 913.631L506.102 914.098C504.775 914.03 502.65 914.208 501.632 913.398C500.847 905.929 501.368 897.99 501.376 890.464C496.266 881.981 490.739 873.857 485.104 865.72C481.708 860.816 477.321 855.551 474.884 850.11C474.089 848.334 473.934 847.232 474.659 845.423C475.774 844.749 475.786 844.687 477.067 844.85C484.786 851.541 495.074 868.044 501.506 877.127Q501.225 863.776 501.395 850.423C498.156 845.417 495.418 840.177 492.271 835.158C490.086 831.674 486.138 827.602 484.901 823.752C484.438 822.312 484.705 822.085 485.341 820.793C486.548 819.955 486.715 819.822 488.168 819.759C492.429 822.352 498.062 832.404 501.265 836.921C501.158 828.568 500.476 801.593 501.789 795.03C502.011 793.917 502.571 793.131 503.221 792.224Z"/>
	<path fill="#FEFEFE" d="M783.198 528.217L785.714 528.566C785.943 528.828 786.26 529.033 786.401 529.35C787.384 531.56 786.829 573.806 787.037 580.346C792.099 573.937 798.029 568.108 803.608 562.15C808.821 556.583 813.907 550.557 819.719 545.607C815.438 553.841 809.545 561.05 804.093 568.518C798.574 576.078 793.252 583.794 787.415 591.114L787.423 626.392C794.479 617.748 802.802 609.937 810.633 602.003C818.361 594.173 825.909 585.594 834.755 579.007C829.823 586.392 824.012 593.433 818.533 600.434Q803.245 619.914 787.5 639.027L787.591 682.907Q805.019 661.647 823.005 640.857C831.929 630.443 840.621 619.662 850.573 610.2C843.175 624.008 833.102 636.9 823.828 649.498Q806.117 673.786 787.857 697.665C787.364 712.403 788.37 727.367 788.709 742.125C788.829 746.521 790.794 756.117 787.817 759.639C787.027 760.574 785.728 760.959 784.544 760.886C783.29 760.808 781.916 759.987 781.066 759.075C780.183 758.129 779.523 756.75 779.347 755.468C778.754 751.15 779.704 742.841 779.832 738.081Q780.515 717.647 780.529 697.202C775.437 689.36 769.53 681.96 763.897 674.497C749.35 655.229 731.918 633.415 719.746 612.726C728.041 619.292 738.491 632.812 745.785 641.181C757.66 654.806 770.006 667.957 781.06 682.273Q780.519 660.463 780.544 638.646C775.009 630.733 768.524 623.477 762.505 615.929C752.948 603.946 743.448 591.475 734.595 578.958C748.889 589.718 769.445 613.155 781.366 626.868Q781.206 609.232 781.263 591.594C773.893 579.118 764.599 568.023 757.763 555.184Q770.378 567.701 782.347 580.836C782.412 571.776 781.111 533.86 783.198 528.217Z"/>
	<path fill="#FEFEFE" d="M345.216 827.346C349.092 828.691 424.79 906.783 431.268 914.665L431.078 914.955L432.012 915.732C430.887 919.546 413.849 936.293 410.218 938.94C408.083 938.191 406.703 937.048 405.054 935.538C393.542 924.989 383.168 913.01 372.149 901.93L341.273 870.385C334.995 863.968 328.248 857.663 322.492 850.789C329.514 842.669 337.773 835.153 345.216 827.346Z"/>
	<path fill="#FEFEFE" d="M219.072 619.703C249.489 616.926 281.84 627.806 305.628 646.78Q306.79 647.706 307.93 648.66Q309.069 649.615 310.184 650.597Q311.3 651.579 312.391 652.588Q313.482 653.598 314.547 654.633Q315.613 655.669 316.653 656.731Q317.693 657.793 318.707 658.88Q319.72 659.966 320.707 661.078Q321.693 662.19 322.652 663.325Q323.611 664.461 324.541 665.619Q325.472 666.778 326.374 667.959Q327.275 669.141 328.148 670.344Q329.02 671.547 329.863 672.771Q330.706 673.995 331.518 675.24Q332.33 676.485 333.111 677.749Q333.893 679.013 334.643 680.296Q335.393 681.579 336.111 682.88Q336.829 684.181 337.515 685.5Q338.201 686.818 338.855 688.153Q339.508 689.488 340.128 690.838Q340.749 692.189 341.335 693.554Q341.922 694.92 342.476 696.299Q343.029 697.678 343.548 699.071Q344.067 700.464 344.551 701.869Q345.036 703.274 345.486 704.69Q345.936 706.106 346.351 707.533Q346.765 708.961 347.145 710.397Q347.525 711.834 347.869 713.28Q348.213 714.726 348.522 716.18Q348.83 717.633 349.103 719.094Q349.376 720.555 349.612 722.023Q349.849 723.49 350.049 724.962Q350.25 726.435 350.414 727.912Q350.577 729.357 350.704 730.806Q350.831 732.255 350.922 733.706Q351.013 735.158 351.068 736.611Q351.124 738.064 351.144 739.518Q351.163 740.972 351.147 742.427Q351.131 743.881 351.079 745.334Q351.027 746.788 350.939 748.239Q350.851 749.691 350.728 751.14Q350.604 752.589 350.445 754.035Q350.286 755.48 350.091 756.922Q349.896 758.363 349.666 759.799Q349.436 761.235 349.17 762.664Q348.905 764.094 348.604 765.517Q348.303 766.94 347.968 768.355Q347.632 769.77 347.262 771.177Q346.891 772.583 346.487 773.98Q346.082 775.377 345.642 776.763Q345.203 778.149 344.73 779.525Q344.257 780.9 343.75 782.263Q343.243 783.626 342.702 784.976Q342.162 786.326 341.589 787.663Q341.015 788.999 340.409 790.321Q339.803 791.643 339.164 792.95Q338.525 794.256 337.855 795.547Q337.184 796.837 336.482 798.111Q335.78 799.384 335.047 800.64Q334.313 801.896 333.549 803.134Q332.785 804.371 331.991 805.589Q331.196 806.807 330.372 808.006Q329.548 809.204 328.695 810.382Q327.841 811.559 326.959 812.716Q326.077 813.872 325.167 815.006C302.986 842.637 271.522 858.122 236.62 861.912C205.992 863.868 173.475 854.207 149.601 834.668Q148.424 833.703 147.271 832.71Q146.118 831.716 144.99 830.695Q143.862 829.673 142.759 828.623Q141.657 827.574 140.58 826.498Q139.504 825.422 138.455 824.319Q137.406 823.217 136.384 822.089Q135.362 820.96 134.369 819.807Q133.375 818.654 132.411 817.477Q131.446 816.3 130.511 815.099Q129.575 813.898 128.67 812.675Q127.765 811.451 126.89 810.206Q126.015 808.96 125.172 807.694Q124.328 806.427 123.516 805.14Q122.704 803.852 121.923 802.546Q121.143 801.239 120.396 799.913Q119.648 798.587 118.934 797.243Q118.219 795.899 117.538 794.538Q116.857 793.177 116.21 791.8Q115.563 790.422 114.95 789.029Q114.337 787.636 113.758 786.228Q113.18 784.82 112.637 783.398Q112.093 781.977 111.585 780.542Q111.077 779.107 110.605 777.661Q110.132 776.214 109.696 774.756Q109.259 773.297 108.859 771.829Q108.459 770.361 108.095 768.883Q107.731 767.405 107.404 765.919Q107.076 764.432 106.786 762.938Q106.495 761.444 106.242 759.943Q105.989 758.442 105.772 756.936Q105.556 755.429 105.377 753.918Q105.198 752.406 105.057 750.891C101.963 719.552 112.998 687.285 132.961 663.206C154.355 637.4 186.046 622.748 219.072 619.703Z"/>
	<path d="M218.351 636.704C218.698 636.657 219.043 636.606 219.391 636.573C246.251 634.016 275.62 644.058 296.303 660.995C317.284 678.176 331.334 702.651 333.942 729.745Q334.079 731.035 334.183 732.328Q334.288 733.62 334.36 734.915Q334.432 736.21 334.472 737.506Q334.512 738.803 334.519 740.1Q334.526 741.397 334.5 742.693Q334.475 743.99 334.417 745.286Q334.359 746.582 334.269 747.875Q334.179 749.169 334.056 750.46Q333.933 751.751 333.778 753.039Q333.623 754.327 333.436 755.61Q333.249 756.894 333.029 758.172Q332.81 759.45 332.559 760.722Q332.307 761.995 332.024 763.261Q331.741 764.526 331.426 765.784Q331.111 767.043 330.765 768.292Q330.419 769.542 330.041 770.783Q329.664 772.024 329.256 773.255Q328.847 774.486 328.408 775.706Q327.969 776.927 327.499 778.136Q327.03 779.345 326.53 780.541Q326.03 781.738 325.5 782.922Q324.971 784.106 324.412 785.276Q323.853 786.447 323.264 787.602Q322.676 788.758 322.059 789.899Q321.442 791.04 320.797 792.165Q320.151 793.29 319.478 794.398Q318.804 795.507 318.103 796.598Q317.402 797.689 316.674 798.762Q315.946 799.836 315.191 800.89Q314.436 801.945 313.655 802.98Q312.874 804.016 312.068 805.031Q311.261 806.047 310.429 807.042C292.934 828.089 266.465 842.501 239.12 844.92Q238.208 845.04 237.293 845.138C209.048 848.17 181.522 838.797 159.659 820.994Q158.684 820.209 157.729 819.399Q156.774 818.59 155.839 817.758Q154.905 816.925 153.991 816.07Q153.077 815.214 152.184 814.337Q151.292 813.459 150.421 812.56Q149.551 811.66 148.702 810.74Q147.854 809.819 147.029 808.878Q146.204 807.936 145.403 806.975Q144.601 806.014 143.823 805.033Q143.046 804.052 142.292 803.052Q141.539 802.052 140.811 801.034Q140.083 800.016 139.38 798.98Q138.677 797.944 138 796.891Q137.323 795.839 136.672 794.77Q136.021 793.7 135.397 792.615Q134.772 791.53 134.175 790.43Q133.578 789.33 133.008 788.216Q132.438 787.101 131.896 785.973Q131.353 784.845 130.839 783.704Q130.325 782.562 129.839 781.409Q129.353 780.255 128.896 779.09Q128.439 777.925 128.01 776.748Q127.582 775.572 127.183 774.386Q126.783 773.199 126.414 772.004Q126.044 770.808 125.704 769.603Q125.364 768.398 125.053 767.186Q124.743 765.973 124.463 764.753Q124.183 763.533 123.933 762.306Q123.683 761.08 123.463 759.848Q123.243 758.615 123.054 757.378Q122.865 756.141 122.706 754.899Q122.548 753.657 122.42 752.412C119.735 725.506 126.29 698.054 143.688 676.954C163.067 653.452 188.098 639.712 218.351 636.704Z"/>
	<path fill="#FEFEFE" d="M292.788 736.205C295.608 736.083 298.685 736.263 300.957 738.156C303.336 740.14 304.247 743.851 304.435 746.803C305.212 758.941 299.175 776.075 290.855 785.026C280.129 796.566 264.901 799.718 249.768 800.163C246.633 800.014 243.323 799.81 240.778 797.73C238.901 796.196 237.913 793.901 237.678 791.524C237.351 788.224 238.027 784.878 238.582 781.637C240.363 771.232 242.941 761.52 250.001 753.368C260.655 741.065 277.186 737.228 292.788 736.205Z"/>
	<path d="M287.088 753.183C287.517 753.266 287.223 753.175 287.807 753.76C287.74 760.3 285.023 766.233 281.219 771.453C274.478 780.703 265.523 783.133 254.802 784.809C254.375 784.794 254.672 784.841 254.063 784.291C254.6 778.466 257.331 770.664 260.626 765.864C266.824 756.838 277.043 754.882 287.088 753.183Z"/>
	<path fill="#FEFEFE" d="M250.909 664.7C254.342 664.235 259.472 663.764 262.38 665.985C265.014 667.997 266.124 671.626 266.423 674.785C267.709 688.352 262.879 705.059 254.285 715.677C243.879 728.532 229.281 732.666 213.445 734.433C209.422 734.53 203.329 734.919 200.01 732.351C198.323 731.046 197.596 728.833 197.321 726.793C195.692 714.719 202.042 692.91 209.611 683.429C219.677 670.82 235.494 666.354 250.909 664.7Z"/>
	<path d="M248.856 681.13C249.434 681.016 249.765 681.099 250.336 681.205C250.387 681.358 250.458 681.505 250.491 681.663C251.434 686.171 245.284 699.869 242.487 704.126C235.891 714.168 226.319 717.119 215.136 719.357C214.273 719.459 214.754 719.505 213.737 718.985C212.855 713.18 218.006 700.249 221.265 695.472C227.847 685.823 237.972 683.229 248.856 681.13Z"/>
	<path fill="#FEFEFE" d="M159.098 737.576C170.689 736.542 184.249 740.158 194.654 745.119C207.396 751.195 216.487 761.688 221.111 774.984C223.877 782.938 226.547 798.204 222.517 805.872C221.277 808.231 219.885 809.185 217.377 809.944C208.978 810.551 200.649 810.168 192.539 807.742C178.458 803.529 166.569 795.365 159.603 782.243C154.276 772.208 150.085 754.061 153.733 743.016C154.736 739.981 156.319 738.962 159.098 737.576Z"/>
	<path d="M164.135 748.126C178.044 749.73 192.147 753.308 202.126 763.783C210.866 772.958 213.513 786.328 213.302 798.645C210.96 799 208.614 798.95 206.255 798.831C194.648 798.246 183.343 794.285 175.425 785.477C166.287 775.313 163.444 761.447 164.135 748.126Z"/>
</svg>
