<?xml version="1.0" standalone="no"?>
<!DOCTYPE svg PUBLIC "-//W3C//DTD SVG 20010904//EN"
 "http://www.w3.org/TR/2001/REC-SVG-20010904/DTD/svg10.dtd">
<svg version="1.0" xmlns="http://www.w3.org/2000/svg"
 width="512.000000pt" height="512.000000pt" viewBox="0 0 512.000000 512.000000"
 preserveAspectRatio="xMidYMid meet">

<g transform="translate(0.000000,512.000000) scale(0.100000,-0.100000)"
fill="#000000" stroke="none">
<path d="M2042 5025 c-58 -18 -115 -58 -147 -105 -28 -40 -54 -103 -55 -131 0
-15 -4 -15 -37 -3 -101 36 -221 8 -299 -70 -87 -88 -84 -55 -84 -795 0 -677
-10 -1005 -36 -1181 -16 -110 -50 -210 -73 -218 -20 -7 -118 102 -199 220 -72
106 -112 149 -182 193 -145 91 -365 88 -573 -8 -145 -67 -149 -91 -42 -254
106 -160 218 -307 486 -635 451 -549 607 -783 690 -1028 28 -83 33 -112 37
-230 5 -131 5 -135 33 -162 l27 -28 276 0 276 0 0 -55 c0 -193 161 -387 367
-440 87 -23 1920 -22 2008 0 171 45 299 172 350 349 23 78 16 209 -13 286 -12
30 -228 413 -481 850 -366 636 -470 808 -516 858 -134 145 -361 190 -542 107
l-52 -24 -3 647 c-3 645 -3 647 -25 688 -37 69 -74 105 -138 135 -69 33 -161
39 -220 15 l-34 -14 -3 271 c-3 263 -4 273 -27 317 -74 142 -226 201 -374 145
-14 -6 -17 -1 -17 27 0 74 -29 138 -89 199 -83 83 -181 108 -289 74z m147
-163 c19 -10 43 -34 53 -53 17 -32 18 -81 18 -922 l0 -888 25 -24 c29 -30 74
-32 106 -6 l24 19 5 760 5 761 29 30 c57 59 135 59 192 0 l29 -30 5 -857 c3
-471 9 -864 13 -874 11 -22 61 -41 87 -33 11 4 30 16 40 28 19 20 20 37 20
499 0 529 0 530 62 568 62 38 141 19 178 -43 19 -31 20 -55 20 -731 l0 -700
-466 -808 -467 -808 -238 0 -239 0 0 54 c0 192 -95 427 -291 720 -100 150
-244 336 -582 750 -160 196 -264 331 -332 434 -56 84 -57 80 44 112 41 13 91
20 145 20 68 0 90 -4 141 -28 69 -33 106 -71 194 -200 118 -173 215 -251 309
-252 133 0 201 129 239 458 12 108 17 306 22 944 l6 808 32 31 c63 63 169 46
206 -34 15 -32 17 -103 17 -746 l0 -712 25 -24 c38 -39 102 -27 124 22 8 17
11 266 11 851 0 812 0 828 20 860 35 58 108 77 169 44z m1457 -2468 c29 -14
69 -42 90 -64 52 -53 949 -1605 970 -1679 33 -112 -1 -235 -90 -319 -98 -93
-18 -87 -1112 -87 l-961 0 -69 35 c-76 39 -133 103 -159 179 -19 56 -19 156
-1 208 18 52 910 1597 951 1648 85 106 251 140 381 79z"/>
<path d="M3405 1988 c-32 -17 -76 -61 -91 -90 -17 -33 -18 -126 -4 -533 6
-165 15 -318 21 -339 15 -55 46 -93 94 -116 72 -35 153 -24 208 28 59 55 59
59 74 437 8 193 13 387 11 432 -3 73 -6 85 -34 120 -46 57 -85 73 -179 73 -44
0 -89 -6 -100 -12z m148 -155 c3 -5 -1 -179 -9 -388 -13 -329 -21 -414 -37
-394 -5 4 -27 626 -27 727 l0 62 34 0 c19 0 37 -3 39 -7z"/>
<path d="M3448 796 c-81 -29 -129 -81 -148 -158 -36 -141 98 -287 238 -262
113 20 184 103 184 214 0 115 -75 199 -192 214 -28 4 -59 1 -82 -8z m96 -172
c32 -32 8 -84 -39 -84 -18 0 -25 7 -30 29 -12 57 32 92 69 55z"/>
</g>
</svg>
