<?xml version="1.0" standalone="no"?>
<!DOCTYPE svg PUBLIC "-//W3C//DTD SVG 20010904//EN"
 "http://www.w3.org/TR/2001/REC-SVG-20010904/DTD/svg10.dtd">
<svg version="1.0" xmlns="http://www.w3.org/2000/svg"
 width="512.000000pt" height="512.000000pt" viewBox="0 0 512.000000 512.000000"
 preserveAspectRatio="xMidYMid meet">

<g transform="translate(0.000000,512.000000) scale(0.100000,-0.100000)"
fill="#000000" stroke="none">
<path d="M1589 4237 c-108 -68 -619 -442 -769 -562 -386 -311 -698 -797 -791
-1237 -18 -83 -22 -136 -23 -278 0 -193 20 -322 71 -450 76 -191 254 -369 488
-485 167 -83 236 -99 435 -99 184 0 215 6 375 76 50 22 121 50 159 64 68 23
141 32 148 17 4 -11 76 -56 137 -87 59 -30 187 -66 235 -66 17 0 54 -12 81
-27 119 -63 201 -85 356 -93 196 -12 216 -17 306 -86 24 -19 51 -34 60 -34 8
0 27 -13 43 -29 16 -16 32 -26 35 -23 22 23 -28 100 -99 153 l-40 29 71 0 c90
0 109 -7 177 -70 53 -47 59 -50 111 -50 44 0 56 -4 65 -20 6 -11 15 -18 21
-15 20 13 7 42 -43 94 -30 30 -38 43 -20 28 18 -15 51 -31 72 -37 22 -6 45
-20 51 -31 7 -14 14 -18 21 -11 18 18 3 56 -30 79 -18 12 -47 39 -64 60 l-30
38 29 6 c15 4 78 7 138 8 61 1 170 10 244 20 l134 17 39 -37 c27 -27 59 -44
111 -60 61 -19 80 -30 124 -76 63 -66 83 -69 77 -13 -2 23 -8 49 -14 60 -17
33 -13 40 20 28 19 -6 40 -26 56 -54 29 -49 28 -48 55 -34 25 14 24 34 -2 77
l-22 35 49 -37 c27 -21 54 -47 61 -59 10 -19 12 -19 18 -3 12 29 -5 69 -46
110 -21 22 -39 41 -39 43 0 12 32 1 37 -12 4 -12 8 -13 14 -3 13 21 -9 47 -59
73 -58 30 -51 33 98 40 138 7 155 3 325 -77 125 -59 133 -62 210 -62 70 0 84
3 113 25 22 17 43 24 65 22 42 -4 77 32 84 85 4 36 -57 345 -108 548 -55 217
-146 389 -297 564 -35 40 -67 83 -72 96 -6 15 -2 47 11 95 24 94 24 136 -2
206 -24 63 -82 128 -135 150 -48 20 -150 18 -199 -5 -73 -34 -119 -103 -134
-201 -6 -40 -9 -45 -31 -43 -55 6 -115 39 -213 115 -171 135 -331 198 -560
218 -300 27 -727 -64 -1066 -226 -330 -158 -557 -370 -695 -649 -83 -166 -107
-249 -114 -380 -5 -123 -24 -175 -84 -232 -71 -68 -222 -120 -378 -130 -329
-20 -631 174 -761 489 -40 97 -49 133 -58 246 -15 169 10 343 80 556 56 170
121 299 234 466 197 290 304 403 635 665 515 409 602 489 567 524 -22 22 -66
10 -148 -42z"/>
</g>
</svg>
