<?xml version="1.0" standalone="no"?>
<!DOCTYPE svg PUBLIC "-//W3C//DTD SVG 20010904//EN"
 "http://www.w3.org/TR/2001/REC-SVG-20010904/DTD/svg10.dtd">
<svg version="1.0" xmlns="http://www.w3.org/2000/svg"
 width="980.000000pt" height="980.000000pt" viewBox="0 0 980.000000 980.000000"
 preserveAspectRatio="xMidYMid meet">

<g transform="translate(0.000000,980.000000) scale(0.100000,-0.100000)"
fill="#000000" stroke="none">
<path d="M4727 8718 c-14 -13 -143 -153 -288 -312 -145 -160 -396 -434 -557
-610 -162 -177 -300 -336 -308 -354 -28 -63 6 -440 61 -699 130 -604 416
-1126 859 -1569 278 -277 567 -479 916 -639 161 -73 319 -127 355 -121 59 12
348 136 482 208 130 69 333 198 425 270 651 506 1069 1197 1202 1988 41 240
58 529 34 573 -6 12 -37 49 -68 82 -46 49 -126 136 -175 191 -141 157 -835
915 -876 957 l-56 57 -991 0 -991 0 -24 -22z m2238 -510 c171 -188 413 -453
538 -590 l228 -250 -6 -101 c-41 -658 -259 -1228 -659 -1727 -93 -115 -299
-323 -420 -422 -228 -187 -566 -385 -818 -479 l-88 -32 -97 38 c-195 76 -435
204 -608 323 -214 148 -471 387 -626 582 -304 382 -514 839 -604 1315 -23 124
-45 331 -45 426 l0 86 187 204 c102 112 209 229 237 260 28 30 185 202 349
382 l299 327 911 -1 912 0 310 -341z"/>
<path d="M4974 8259 c-20 -6 -58 -38 -105 -91 -41 -46 -126 -139 -189 -208
-685 -748 -630 -683 -630 -739 0 -69 18 -200 46 -341 156 -780 656 -1456 1352
-1828 130 -70 271 -132 298 -132 27 0 252 106 359 169 219 129 390 262 562
437 138 141 220 242 330 407 233 351 377 747 427 1176 12 100 13 138 4 155
-14 27 -209 245 -547 611 -25 28 -111 122 -191 209 -87 96 -157 164 -177 172
-26 11 -169 14 -770 13 -406 0 -752 -5 -769 -10z m1596 -327 c69 -76 238 -261
375 -412 138 -150 261 -286 274 -302 l23 -29 -17 -122 c-112 -802 -626 -1518
-1349 -1882 l-134 -67 -133 67 c-386 194 -712 482 -953 845 -232 350 -352 678
-410 1125 -5 39 -3 43 87 140 51 56 231 252 400 438 l309 337 701 0 702 0 125
-138z"/>
<path d="M6133 7316 c-79 -26 -137 -74 -387 -325 l-249 -249 -51 33 c-155 102
-344 79 -473 -58 -71 -74 -96 -145 -91 -257 5 -137 27 -173 226 -371 181 -181
225 -211 332 -228 75 -12 153 0 225 36 38 19 150 125 462 436 383 383 414 417
445 482 29 62 33 79 32 150 -1 101 -27 171 -89 242 -67 76 -152 116 -258 120
-51 2 -98 -2 -124 -11z m183 -195 c74 -34 112 -117 92 -200 -10 -42 -43 -78
-402 -439 -215 -217 -408 -402 -428 -413 -53 -27 -126 -25 -170 5 -50 34 -306
294 -325 330 -20 39 -13 128 14 164 28 39 77 69 122 77 54 9 126 -24 187 -86
43 -44 53 -49 93 -49 l45 0 303 303 c194 194 314 306 335 314 47 17 87 15 134
-6z"/>
<path d="M3456 5089 c-138 -18 -343 -82 -477 -150 -31 -15 -271 -152 -535
-304 -766 -443 -867 -501 -1099 -635 -121 -70 -350 -203 -510 -295 -159 -91
-298 -176 -307 -187 -39 -45 -28 -74 151 -382 93 -160 213 -367 266 -461 191
-330 313 -542 410 -710 54 -93 115 -198 134 -232 43 -74 87 -103 133 -85 15 5
101 53 190 104 90 52 306 177 481 278 l318 183 24 -19 c13 -10 79 -66 147
-123 469 -398 992 -704 1487 -873 363 -123 703 -176 1061 -165 210 7 337 24
524 71 204 52 311 100 609 273 150 86 355 205 457 264 645 371 1253 722 1365
787 72 42 249 144 394 227 311 180 371 221 444 310 115 139 166 275 174 460 7
145 -14 243 -76 370 -94 189 -277 339 -478 391 l-70 18 -6 80 c-12 164 -91
338 -209 458 -153 155 -329 228 -551 228 -204 0 -389 -78 -553 -235 -99 -94
-1290 -1129 -1298 -1128 -6 1 -45 14 -86 28 -41 14 -132 42 -201 60 -525 143
-920 350 -1170 611 -36 38 -121 143 -190 234 -274 362 -483 517 -740 550 -94
11 -115 11 -213 -1z m222 -195 c194 -40 356 -175 606 -507 122 -161 300 -341
424 -427 258 -180 578 -327 928 -425 235 -66 348 -105 439 -151 275 -140 414
-322 415 -545 0 -170 -67 -306 -211 -422 -102 -82 -234 -123 -394 -120 -128 1
-109 -3 -625 158 -959 299 -964 300 -1000 285 -72 -30 -79 -133 -10 -170 16
-8 296 -96 680 -213 63 -19 241 -75 395 -123 374 -116 403 -124 522 -131 390
-23 726 209 819 567 20 76 23 245 6 305 -10 35 -10 42 6 53 9 7 244 144 522
304 278 161 559 323 625 361 532 309 546 316 688 325 375 23 669 -327 582
-696 -28 -119 -105 -239 -198 -310 -45 -34 -344 -209 -1097 -642 -102 -58
-259 -149 -350 -202 -246 -142 -1057 -610 -1200 -693 -144 -83 -192 -106 -310
-146 -205 -71 -448 -109 -695 -109 -778 0 -1630 378 -2445 1087 l-95 82 -184
318 c-101 175 -205 354 -231 398 -26 44 -102 177 -170 295 -68 118 -160 278
-205 355 -116 199 -151 263 -145 268 3 2 214 125 470 272 256 148 524 302 595
344 296 171 445 233 633 260 88 13 127 12 210 -5z m4371 -129 c142 -34 293
-149 360 -275 33 -62 71 -192 71 -244 0 -31 -1 -32 -78 -48 -43 -9 -105 -27
-138 -40 -49 -20 -464 -255 -1064 -604 -69 -40 -235 -136 -370 -214 l-245
-142 -25 34 c-53 71 -158 173 -232 225 l-77 54 122 107 c67 59 325 285 572
502 248 217 491 431 541 475 146 130 268 183 419 184 44 0 109 -6 144 -14z
m-6127 -1405 c176 -305 373 -647 438 -760 66 -113 122 -212 125 -221 4 -11
-17 -27 -80 -63 -47 -26 -239 -137 -428 -246 -188 -110 -345 -196 -348 -192
-7 7 -546 940 -756 1307 -63 110 -119 204 -124 209 -5 6 -9 15 -9 22 0 7 80
59 178 115 273 158 468 271 572 332 52 30 99 54 103 53 5 -1 152 -251 329
-556z"/>
<path d="M1735 2767 c-68 -23 -101 -44 -148 -97 -54 -60 -77 -121 -77 -204 0
-90 25 -151 90 -217 104 -107 239 -128 369 -59 72 39 104 73 140 150 68 149
-2 338 -153 409 -60 28 -165 36 -221 18z m139 -192 c71 -34 89 -129 36 -189
-36 -40 -76 -52 -123 -36 -106 34 -115 181 -14 225 42 18 62 18 101 0z"/>
</g>
</svg>
