<?xml version="1.0" standalone="no"?>
<!DOCTYPE svg PUBLIC "-//W3C//DTD SVG 20010904//EN"
 "http://www.w3.org/TR/2001/REC-SVG-20010904/DTD/svg10.dtd">
<svg version="1.0" xmlns="http://www.w3.org/2000/svg"
 width="600.000000pt" height="600.000000pt" viewBox="0 0 600.000000 600.000000"
 preserveAspectRatio="xMidYMid meet">

<g transform="translate(0.000000,600.000000) scale(0.100000,-0.100000)"
fill="#000000" stroke="none">
<path d="M2250 4840 l0 -389 133 -3 132 -3 3 -112 3 -113 479 0 479 0 3 113 3
112 133 3 132 3 0 389 0 390 -750 0 -750 0 0 -390z"/>
<path d="M777 5133 c-4 -3 -7 -136 -7 -295 l0 -288 710 0 710 0 -2 293 -3 292
-701 3 c-385 1 -704 -1 -707 -5z m1277 -119 c22 -21 20 -50 -4 -74 -20 -20
-33 -20 -575 -20 -542 0 -555 0 -575 20 -24 24 -25 47 -3 72 15 17 46 18 579
18 498 0 564 -2 578 -16z"/>
<path d="M3817 5133 c-4 -3 -7 -136 -7 -295 l0 -288 710 0 710 0 -2 293 -3
292 -701 3 c-385 1 -704 -1 -707 -5z m1277 -119 c23 -22 20 -60 -6 -78 -20
-14 -91 -16 -575 -16 -540 0 -553 0 -573 20 -24 24 -25 38 -4 68 l15 22 564 0
c499 0 565 -2 579 -16z"/>
<path d="M2617 4183 c-4 -3 -7 -15 -7 -25 0 -17 -11 -18 -159 -18 -180 0 -201
-7 -221 -78 -7 -25 -10 -203 -8 -536 l3 -500 250 -196 c266 -209 295 -240 295
-320 l1 -35 18 23 c26 30 106 32 116 2 3 -11 10 -20 15 -20 5 0 14 9 20 20 8
16 21 20 60 20 40 0 50 -4 55 -20 3 -11 10 -20 15 -20 5 0 14 9 20 20 16 29
106 29 115 0 10 -31 25 -23 25 13 0 77 30 110 293 315 l247 194 2 291 c1 161
2 387 3 502 3 331 7 325 -226 325 -156 0 -158 0 -161 23 l-3 22 -381 3 c-209
1 -383 -1 -387 -5z m961 -730 l-3 -317 -160 -127 -160 -128 -253 0 -253 -1
-164 128 -164 127 0 318 -1 317 580 0 580 0 -2 -317z"/>
<path d="M2877 3734 c-4 -4 -7 -187 -7 -406 l0 -398 130 0 130 0 -2 403 -3
402 -121 3 c-66 1 -123 -1 -127 -4z m101 -284 c2 -152 -1 -205 -10 -211 -7 -4
-16 -5 -20 -3 -10 6 -11 408 -1 418 23 23 28 -12 31 -204z"/>
<path d="M2257 2493 c-4 -3 -7 -44 -7 -90 l0 -83 750 0 750 0 0 84 c0 93 -9
110 -44 77 -28 -26 -48 -27 -71 -1 -21 23 -60 22 -82 -2 -20 -22 -41 -23 -64
-2 -25 23 -66 24 -85 3 -22 -24 -46 -24 -69 1 -10 11 -28 20 -40 20 -12 0 -30
-9 -40 -20 -10 -11 -26 -20 -35 -20 -9 0 -25 9 -35 20 -10 11 -28 20 -40 20
-12 0 -30 -9 -40 -20 -10 -11 -26 -20 -35 -20 -9 0 -25 9 -35 20 -10 11 -26
20 -35 20 -9 0 -27 -9 -40 -20 -13 -11 -31 -20 -41 -20 -10 0 -23 9 -29 20 -6
12 -21 20 -35 20 -14 0 -33 -9 -42 -20 -10 -11 -25 -20 -35 -20 -10 0 -26 9
-35 20 -10 11 -30 20 -45 20 -17 0 -31 -7 -38 -20 -13 -25 -43 -26 -66 -3 -26
26 -64 28 -81 4 -18 -27 -48 -27 -70 -1 -10 11 -27 20 -39 20 -11 0 -29 -9
-39 -20 -10 -11 -26 -20 -35 -20 -9 0 -25 9 -35 20 -19 21 -28 24 -38 13z"/>
<path d="M2582 2128 c-31 -31 -4 -88 42 -88 20 0 46 28 46 50 0 40 -60 66 -88
38z"/>
<path d="M3346 2124 c-31 -30 -9 -84 34 -84 40 0 66 60 38 88 -17 17 -54 15
-72 -4z"/>
<path d="M2328 2004 c-51 -27 -46 -101 7 -126 58 -26 119 33 95 91 -6 16 -23
33 -36 40 -31 14 -33 14 -66 -5z"/>
<path d="M3603 2008 c-81 -39 -20 -167 62 -130 55 25 58 100 5 127 -33 17 -37
17 -67 3z"/>
<path d="M2746 1964 c-19 -18 -20 -38 -6 -65 21 -38 90 -14 90 31 0 24 -26 50
-50 50 -10 0 -26 -7 -34 -16z"/>
<path d="M3186 1964 c-19 -18 -21 -55 -4 -72 28 -28 88 -2 88 38 0 24 -26 50
-50 50 -10 0 -26 -7 -34 -16z"/>
<path d="M2962 1908 c-28 -28 -2 -88 38 -88 40 0 66 60 38 88 -7 7 -24 12 -38
12 -14 0 -31 -5 -38 -12z"/>
<path d="M2009 1847 c-45 -34 -50 -92 -13 -136 21 -26 33 -31 68 -31 51 0 84
29 92 82 5 27 1 40 -21 66 -22 27 -34 32 -68 32 -23 0 -49 -6 -58 -13z"/>
<path d="M3866 1829 c-15 -17 -26 -43 -26 -59 0 -16 11 -42 26 -59 21 -26 33
-31 69 -31 36 0 48 5 69 31 15 17 26 43 26 59 0 16 -11 42 -26 59 -21 26 -33
31 -69 31 -36 0 -48 -5 -69 -31z"/>
<path d="M2585 1725 c-14 -13 -25 -36 -25 -50 0 -28 40 -75 64 -75 76 0 106
91 44 134 -32 22 -55 20 -83 -9z"/>
<path d="M3333 1738 c-35 -17 -48 -60 -29 -96 35 -68 136 -41 136 36 0 47 -63
82 -107 60z"/>
<path d="M1684 1676 c-26 -26 -34 -42 -34 -70 0 -49 23 -92 60 -111 37 -19 64
-19 106 1 59 28 80 95 49 154 -21 42 -53 60 -103 60 -37 0 -50 -6 -78 -34z"/>
<path d="M4160 1683 c-59 -53 -48 -153 20 -188 86 -45 180 22 167 119 -8 58
-52 96 -112 96 -35 0 -52 -6 -75 -27z"/>
<path d="M2956 1629 c-36 -29 -36 -80 1 -109 47 -37 113 -4 113 56 0 35 -37
74 -70 74 -10 0 -29 -9 -44 -21z"/>
<path d="M2401 1444 c-26 -21 -31 -33 -31 -69 0 -36 5 -48 31 -69 17 -15 43
-26 59 -26 16 0 42 11 59 26 43 36 44 93 2 135 -37 37 -79 38 -120 3z"/>
<path d="M3481 1444 c-26 -21 -31 -33 -31 -69 0 -36 5 -48 31 -69 17 -15 43
-26 59 -26 16 0 42 11 59 26 26 21 31 33 31 69 0 36 -5 48 -31 69 -17 15 -43
26 -59 26 -16 0 -42 -11 -59 -26z"/>
<path d="M2935 1295 c-19 -18 -25 -35 -25 -65 0 -56 34 -90 90 -90 56 0 90 34
90 90 0 56 -34 90 -90 90 -30 0 -47 -6 -65 -25z"/>
<path d="M2228 1174 c-15 -8 -35 -28 -43 -44 -45 -86 22 -180 119 -167 109 15
134 161 36 212 -36 19 -77 19 -112 -1z"/>
<path d="M3664 1180 c-66 -26 -86 -125 -36 -180 52 -59 152 -48 187 20 51 99
-47 202 -151 160z"/>
<path d="M2954 991 c-12 -5 -31 -21 -42 -36 -62 -78 -11 -185 88 -185 109 0
155 130 72 203 -24 22 -87 31 -118 18z"/>
</g>
</svg>
