<?xml version="1.0" standalone="no"?>
<!DOCTYPE svg PUBLIC "-//W3C//DTD SVG 20010904//EN"
 "http://www.w3.org/TR/2001/REC-SVG-20010904/DTD/svg10.dtd">
<svg version="1.0" xmlns="http://www.w3.org/2000/svg"
 width="1208.000000pt" height="980.000000pt" viewBox="0 0 1208.000000 980.000000"
 preserveAspectRatio="xMidYMid meet">

<g transform="translate(0.000000,980.000000) scale(0.100000,-0.100000)"
fill="#000000" stroke="none">
<path d="M5665 9790 c-973 -49 -1796 -225 -2453 -524 -553 -251 -942 -595
-1071 -948 -59 -159 -56 -109 -56 -1028 0 -775 1 -851 18 -920 89 -378 418
-718 965 -996 61 -32 114 -55 116 -53 2 2 -9 47 -26 99 -16 52 -81 289 -144
525 -128 483 -134 521 -90 626 83 204 434 501 816 694 112 56 390 169 505 205
408 127 767 196 1250 242 188 18 901 18 1090 0 962 -90 1726 -346 2218 -741
155 -126 307 -294 350 -391 12 -27 22 -75 25 -120 4 -71 -2 -99 -122 -545 -69
-258 -137 -504 -150 -545 -13 -41 -23 -77 -21 -78 2 -2 60 23 129 57 552 263
912 620 1009 998 22 88 22 90 22 938 l0 850 -23 85 c-146 549 -799 1015 -1832
1308 -442 126 -931 206 -1500 248 -252 18 -796 26 -1025 14z"/>
<path d="M5685 7493 c-268 -14 -640 -63 -900 -118 -689 -146 -1203 -393 -1527
-734 -134 -141 -143 -166 -113 -310 12 -59 104 -391 109 -398 1 -1 33 20 72
48 167 123 324 217 544 329 817 412 1853 581 2815 459 795 -101 1489 -376
2013 -799 69 -55 114 -86 117 -78 32 102 135 517 135 547 0 17 -10 51 -21 74
-30 59 -246 269 -359 349 -496 350 -1239 569 -2135 628 -136 9 -603 11 -750 3z"/>
<path d="M5700 6519 c-756 -60 -1483 -290 -2038 -644 -158 -100 -321 -224
-322 -244 0 -13 51 -193 86 -303 9 -27 19 -48 24 -48 5 0 41 22 82 48 149 99
387 229 571 313 904 412 1874 528 2817 335 570 -116 1097 -340 1583 -672 59
-41 111 -74 115 -74 7 0 102 314 102 340 1 22 -126 137 -275 250 -526 398
-1217 638 -2014 700 -155 12 -577 11 -731 -1z"/>
<path d="M1315 5831 c-148 -67 -401 -256 -576 -431 -492 -492 -756 -1155 -736
-1855 6 -208 23 -337 67 -520 98 -405 288 -773 558 -1081 96 -109 144 -137
236 -138 139 -1 243 93 254 230 7 86 -14 138 -93 228 -457 526 -618 1193 -449
1861 121 475 428 903 843 1174 201 132 221 151 240 239 41 195 -168 373 -344
293z"/>
<path d="M10561 5824 c-143 -71 -190 -283 -88 -392 12 -13 85 -65 162 -116
322 -212 556 -469 715 -786 245 -492 286 -1043 115 -1556 -89 -268 -215 -484
-410 -708 -78 -90 -95 -126 -95 -206 0 -102 44 -177 132 -225 44 -24 65 -29
118 -28 111 1 163 38 306 214 465 574 653 1307 524 2041 -94 534 -390 1070
-787 1424 -147 131 -333 264 -460 331 -84 43 -154 45 -232 7z"/>
<path d="M5631 5765 c-566 -58 -1035 -193 -1536 -440 -188 -93 -420 -227 -545
-315 l-21 -15 51 -150 c28 -82 53 -152 56 -154 2 -3 26 6 52 19 432 213 1007
393 1512 474 320 52 431 60 820 61 358 0 452 -5 710 -40 548 -74 1131 -261
1606 -516 80 -43 92 -47 97 -32 3 10 26 78 52 152 27 76 44 136 39 140 -6 3
-34 24 -64 47 -535 400 -1192 661 -1900 755 -213 28 -721 36 -929 14z"/>
<path d="M1666 5270 c-518 -265 -888 -784 -982 -1378 -26 -163 -24 -442 5
-597 28 -155 51 -237 106 -380 82 -210 224 -428 393 -602 39 -39 85 -79 103
-89 44 -22 139 -30 193 -14 101 28 176 133 176 245 0 82 -22 124 -120 230
-184 200 -299 429 -347 689 -23 123 -22 360 1 480 83 428 311 735 726 977 102
60 135 112 135 213 0 154 -105 265 -250 266 -51 0 -73 -6 -139 -40z"/>
<path d="M10182 5295 c-125 -54 -194 -208 -147 -330 26 -68 57 -99 158 -156
416 -234 655 -599 707 -1079 40 -363 -97 -761 -359 -1043 -98 -106 -121 -147
-121 -223 0 -87 18 -133 75 -189 78 -79 181 -97 280 -51 81 37 220 188 338
366 602 911 272 2180 -698 2679 -68 35 -89 41 -140 41 -33 -1 -75 -7 -93 -15z"/>
<path d="M5730 4979 c-518 -35 -1067 -162 -1570 -364 -180 -72 -420 -184 -420
-196 0 -14 91 -208 138 -294 101 -183 236 -303 477 -420 271 -132 649 -224
1115 -272 241 -24 841 -24 1080 0 846 88 1399 301 1607 620 46 70 163 303 163
324 0 17 -414 221 -591 290 -642 252 -1318 357 -1999 312z"/>
<path d="M9815 4761 c-154 -39 -240 -227 -170 -368 32 -63 60 -85 197 -151
175 -85 294 -215 359 -392 26 -71 32 -104 37 -201 10 -248 -74 -434 -270 -592
-64 -52 -98 -122 -98 -201 0 -210 223 -327 398 -210 118 78 264 245 345 394
148 271 180 650 81 949 -72 219 -210 421 -379 557 -184 148 -399 241 -500 215z"/>
<path d="M2106 4749 c-70 -17 -181 -77 -272 -147 -436 -338 -599 -828 -449
-1347 33 -114 108 -273 175 -370 64 -91 187 -210 259 -249 172 -92 369 3 388
188 11 106 -18 168 -118 250 -108 88 -197 230 -234 371 -23 87 -21 251 4 346
58 227 214 392 459 489 47 18 117 100 132 155 7 26 10 68 7 99 -17 168 -165
258 -351 215z"/>
<path d="M5905 3321 c-58 -15 -106 -44 -150 -93 -91 -101 -88 -215 9 -342 46
-60 100 -175 116 -246 18 -77 14 -205 -9 -303 -11 -45 -49 -163 -86 -262 -100
-270 -120 -359 -119 -530 1 -160 17 -237 80 -376 40 -89 144 -256 197 -316
112 -128 329 -104 410 45 58 106 46 184 -48 326 -103 155 -135 274 -115 431
12 97 30 157 112 385 95 260 111 330 112 495 1 117 -3 154 -22 225 -44 162
-188 421 -280 501 -58 51 -143 76 -207 60z"/>
<path d="M4649 2573 c-44 -7 -131 -65 -165 -110 -69 -90 -64 -196 12 -304 111
-156 149 -274 141 -434 -7 -114 -24 -179 -108 -408 -88 -236 -110 -328 -116
-478 -8 -192 34 -356 138 -532 124 -212 192 -274 311 -284 146 -14 268 100
268 250 0 70 -13 103 -83 210 -68 104 -94 166 -109 262 -17 110 0 232 56 393
24 70 65 186 90 257 60 174 78 265 78 405 -1 228 -92 458 -269 677 -61 76
-154 112 -244 96z"/>
<path d="M7112 2540 c-97 -44 -158 -122 -168 -217 -7 -62 11 -112 75 -206 113
-166 148 -305 120 -477 -10 -63 -30 -128 -143 -455 -73 -212 -94 -347 -76
-490 21 -177 84 -334 203 -508 72 -105 124 -152 191 -172 66 -20 95 -19 159 5
97 36 166 135 167 238 0 65 -14 99 -80 197 -81 117 -112 208 -118 335 -5 133
12 208 106 466 89 242 112 332 119 471 9 171 -19 304 -97 468 -45 95 -163 268
-210 308 -69 59 -168 74 -248 37z"/>
</g>
</svg>
