<?xml version="1.0" standalone="no"?>
<!DOCTYPE svg PUBLIC "-//W3C//DTD SVG 20010904//EN"
 "http://www.w3.org/TR/2001/REC-SVG-20010904/DTD/svg10.dtd">
<svg version="1.0" xmlns="http://www.w3.org/2000/svg"
 width="360.000000pt" height="360.000000pt" viewBox="0 0 360.000000 360.000000"
 preserveAspectRatio="xMidYMid meet">

<g transform="translate(0.000000,360.000000) scale(0.100000,-0.100000)"
fill="#000000" stroke="none">
<path d="M1862 3185 c-53 -60 -115 -157 -144 -225 -81 -194 -52 -358 89 -496
l63 -63 0 -89 0 -89 -57 -7 c-249 -29 -481 -212 -580 -456 -64 -160 -69 -337
-14 -495 17 -50 26 -91 21 -93 -5 -2 -49 -23 -98 -46 -87 -43 -88 -43 -111
-25 -21 17 -42 19 -195 19 -187 0 -203 -4 -225 -58 -8 -20 -11 -114 -9 -326
l3 -298 33 -29 32 -29 161 0 c168 0 188 4 224 46 26 30 114 54 225 61 65 4
120 -1 233 -21 82 -14 181 -26 221 -26 209 0 471 85 846 276 252 128 360 193
386 231 46 68 39 154 -18 219 -42 47 -77 64 -136 64 -42 0 -64 -9 -167 -70
-65 -39 -119 -69 -121 -67 -2 2 12 32 31 68 107 203 107 463 -1 669 -72 137
-194 256 -331 321 -67 32 -198 69 -245 69 l-28 0 0 90 0 90 65 64 c145 142
172 314 80 513 -54 117 -150 243 -185 243 -10 0 -32 -16 -48 -35z m76 -105
c69 -93 116 -201 127 -295 8 -59 7 -60 -12 -42 -27 23 -42 22 -75 -10 l-28
-27 0 42 c0 31 7 49 29 74 48 56 55 77 35 99 -12 13 -26 18 -40 15 -17 -5 -23
-1 -28 18 -7 29 -31 40 -57 26 -16 -9 -19 -22 -19 -91 l0 -80 -29 20 c-33 24
-52 26 -69 9 -17 -17 -15 -7 13 68 24 64 109 204 124 204 4 0 17 -13 29 -30z
m-68 -472 c0 -49 -4 -88 -9 -88 -13 0 -54 55 -80 108 -12 24 -25 73 -28 109
l-6 67 61 -54 62 -54 0 -88z m171 28 c-22 -51 -69 -116 -82 -116 -5 0 -9 14
-9 31 0 22 14 46 52 90 29 33 54 55 56 50 2 -6 -6 -30 -17 -55z m23 -516 c76
-19 189 -72 234 -110 l24 -20 -38 -46 -38 -46 24 -67 c22 -64 22 -72 10 -130
-11 -51 -11 -72 0 -116 16 -67 8 -80 -58 -89 -43 -6 -53 -13 -119 -85 -40 -44
-73 -88 -73 -98 0 -10 10 -51 22 -92 22 -73 22 -74 75 -98 l53 -25 80 27 c77
26 81 29 103 73 20 41 28 48 85 69 76 28 78 22 25 -81 -53 -101 -165 -212
-263 -259 -41 -19 -87 -38 -101 -41 -26 -6 -26 -5 -22 37 5 47 -19 95 -59 121
-13 8 -77 32 -143 52 -66 21 -121 39 -123 40 -2 1 8 13 21 26 13 13 32 48 42
77 15 45 15 57 4 80 -7 14 -14 29 -16 33 -2 4 17 27 42 51 37 37 45 51 45 82
0 44 -24 98 -54 123 -11 10 -28 31 -36 47 -12 23 -29 35 -77 51 -64 21 -96 41
-88 54 2 4 31 13 64 20 114 24 173 76 175 154 1 53 -23 92 -75 119 -27 15 -48
17 -106 12 -120 -10 -99 18 42 55 95 25 221 25 319 0z m-454 -130 c25 -4 68
-6 96 -3 67 7 94 -7 94 -50 0 -28 -6 -36 -34 -50 -19 -9 -63 -23 -98 -32 -74
-20 -108 -47 -108 -88 0 -62 56 -118 132 -131 28 -5 42 -14 53 -36 8 -16 24
-34 34 -39 10 -6 24 -24 31 -41 12 -29 11 -32 -28 -68 -46 -43 -59 -78 -43
-123 13 -37 14 -69 3 -69 -4 0 -17 26 -30 58 -35 90 -76 149 -119 169 l-38 18
3 67 c4 73 11 63 -93 131 -27 17 -64 52 -82 75 -33 44 -33 44 -16 75 10 17 46
60 80 95 56 58 66 63 90 57 16 -4 48 -11 73 -15z m813 -107 c82 -113 127 -250
127 -387 0 -100 -7 -126 -31 -126 -27 0 -180 -59 -198 -76 -8 -7 -20 -28 -25
-46 -9 -26 -20 -36 -60 -51 -43 -16 -51 -16 -71 -3 -13 8 -30 37 -39 63 l-17
48 58 56 c51 49 64 57 111 63 51 6 53 8 78 58 26 52 26 52 10 104 -15 48 -15
59 -1 118 14 63 14 69 -6 121 -20 53 -20 55 -2 79 10 14 21 26 25 26 3 0 22
-21 41 -47z m-1068 -194 c22 -22 59 -52 82 -65 42 -25 42 -26 36 -73 -7 -61
15 -104 65 -130 21 -11 44 -26 50 -34 12 -14 103 -219 99 -223 -1 -1 -40 9
-87 22 -67 20 -105 25 -180 23 l-95 -2 -30 84 c-27 76 -30 96 -29 204 0 87 5
136 18 178 9 31 21 57 25 57 4 0 25 -18 46 -41z m1524 -565 c18 -15 33 -39 37
-58 11 -61 -11 -84 -163 -168 -412 -227 -696 -340 -928 -368 -97 -12 -136 -10
-320 22 -135 23 -289 21 -382 -6 l-53 -14 0 235 0 234 103 48 c226 106 258
106 587 2 132 -42 230 -78 238 -88 18 -25 15 -60 -9 -84 -20 -20 -29 -21 -99
-15 -104 8 -208 36 -327 86 -126 54 -148 58 -162 31 -18 -33 18 -60 141 -109
316 -126 521 -121 799 19 42 21 145 79 230 130 248 148 253 150 308 103z
m-1891 -354 c1 -146 0 -275 -3 -288 -5 -22 -7 -23 -153 -20 l-147 3 -3 288 -2
288 152 -3 153 -3 3 -265z"/>
<path d="M767 970 c-59 -47 -56 -143 7 -181 91 -55 199 26 166 126 -16 48 -53
75 -105 75 -27 0 -51 -7 -68 -20z m96 -72 c6 -18 -11 -48 -27 -48 -20 0 -37
25 -30 44 7 19 50 22 57 4z"/>
</g>
</svg>
