<?xml version="1.0" encoding="utf-8" ?>
<svg xmlns="http://www.w3.org/2000/svg" xmlns:xlink="http://www.w3.org/1999/xlink" width="560" height="87">
	<path fill="#3989A9" d="M427.589 25.8537L428.303 25.8268Q442.374 25.3938 456.418 26.3565C484.407 28.0027 510.294 32.8976 535.173 46.4854C541.296 49.8296 547.975 53.8236 553.083 58.6154C553.944 59.4228 555.269 60.4764 555.308 61.7453C555.286 61.7202 555.265 61.6949 555.242 61.6708Q554.946 61.3519 554.626 61.0575C550.018 56.8767 537.549 51.2841 531.61 48.9989C489.758 32.8969 440.865 35.4071 397.06 39.7933Q358.844 43.67 320.975 50.1153C314.796 51.147 308.66 52.3953 302.489 53.4686L216.869 68.201Q195.473 71.9066 173.895 74.3474Q152.318 76.7882 130.635 77.9558Q120.832 78.4422 111.017 78.4132C98.9895 78.2739 86.8672 77.7358 74.9526 76.0182C53.5894 72.9384 29.2234 65.3619 11.6014 52.5937C8.65501 50.4589 5.12385 48.1956 2.58832 45.5996C4.61857 45.7045 13.0247 51.1626 15.418 52.3424C21.8863 55.531 28.8614 58.1334 35.7022 60.4168C39.6106 61.7213 43.6481 62.5892 47.6613 63.5015C63.1 67.0114 78.3647 68.4932 94.1847 68.7057C102.544 68.8179 110.959 68.775 119.305 68.2471C133.472 67.351 147.524 65.4265 161.602 63.6814C169.15 62.7459 176.743 62.0311 184.268 60.9373C192.099 59.7991 199.858 58.2484 207.664 56.9584Q255.016 49.028 302.227 40.2964Q333.288 34.5687 364.664 30.9539Q396.04 27.3391 427.589 25.8537Z"/>
</svg>
