<?xml version="1.0" standalone="no"?>
<!DOCTYPE svg PUBLIC "-//W3C//DTD SVG 20010904//EN"
 "http://www.w3.org/TR/2001/REC-SVG-20010904/DTD/svg10.dtd">
<svg version="1.0" xmlns="http://www.w3.org/2000/svg"
 width="512.000000pt" height="512.000000pt" viewBox="0 0 512.000000 512.000000"
 preserveAspectRatio="xMidYMid meet">

<g transform="translate(0.000000,512.000000) scale(0.100000,-0.100000)"
fill="#000000" stroke="none">
<path d="M2492 5109 c-47 -14 -109 -80 -122 -129 -7 -27 -10 -127 -8 -284 l3
-243 27 -40 c41 -62 90 -88 168 -88 78 0 127 26 168 88 l27 41 0 265 c0 263 0
266 -24 304 -47 76 -151 113 -239 86z"/>
<path d="M835 4456 c-5 -3 -22 -7 -37 -10 -35 -8 -94 -59 -115 -100 -24 -45
-22 -132 4 -181 26 -49 325 -346 373 -370 68 -35 182 -14 231 41 52 60 67 159
34 224 -23 47 -320 347 -367 371 -36 18 -103 32 -123 25z"/>
<path d="M4195 4445 c-22 -8 -42 -15 -44 -15 -15 0 -337 -333 -353 -365 -37
-70 -23 -167 31 -229 49 -55 163 -76 231 -41 46 23 347 320 370 365 29 57 33
95 16 152 -19 66 -66 114 -131 134 -59 17 -69 17 -120 -1z"/>
<path d="M2341 3949 c-682 -77 -1454 -482 -2172 -1141 -128 -118 -155 -153
-165 -216 -13 -84 8 -127 118 -234 271 -264 686 -577 1022 -769 400 -228 805
-370 1182 -414 629 -74 1321 155 2069 684 253 179 646 517 696 598 31 49 33
140 5 197 -21 42 -214 224 -391 369 -626 512 -1231 815 -1825 912 -115 19
-424 27 -539 14z m454 -418 c465 -115 786 -544 762 -1016 -14 -254 -115 -484
-292 -660 -367 -368 -946 -393 -1349 -58 -160 132 -284 336 -332 548 -27 116
-26 330 3 445 86 341 332 609 660 719 162 54 383 63 548 22z m-1521 -418 c-33
-78 -65 -181 -86 -278 -18 -81 -22 -133 -22 -275 0 -142 4 -194 22 -275 21
-97 53 -200 87 -278 11 -28 12 -37 3 -31 -256 155 -559 378 -738 543 l-45 41
50 46 c145 133 425 344 622 469 65 41 119 75 121 75 1 0 -5 -17 -14 -37z
m2745 -81 c220 -144 596 -442 596 -472 0 -41 -493 -416 -748 -569 l-38 -23 16
38 c34 79 66 182 87 279 18 81 22 133 22 275 0 142 -4 194 -22 275 -21 97 -53
200 -87 279 l-16 38 38 -23 c21 -12 89 -56 152 -97z"/>
<path d="M2412 3140 c-109 -29 -187 -74 -272 -160 -87 -86 -131 -163 -160
-276 -36 -141 -18 -294 52 -427 42 -81 164 -203 245 -245 133 -70 286 -88 427
-52 113 29 190 73 276 160 87 86 131 163 160 276 36 141 18 294 -52 427 -42
81 -164 203 -245 245 -132 69 -291 88 -431 52z m258 -414 c59 -39 85 -89 85
-166 0 -78 -26 -127 -88 -168 -56 -37 -153 -39 -210 -3 -76 47 -111 140 -88
229 14 51 75 117 123 131 53 16 135 6 178 -23z"/>
<path d="M1105 1341 c-58 -14 -92 -41 -247 -198 -196 -198 -214 -232 -184
-337 20 -67 72 -118 141 -135 52 -13 92 -8 145 19 45 23 342 324 365 370 35
68 14 182 -41 231 -47 41 -125 63 -179 50z"/>
<path d="M3935 1341 c-40 -10 -87 -35 -106 -57 -52 -60 -67 -159 -34 -224 23
-46 320 -347 365 -370 53 -27 93 -32 145 -19 69 17 121 68 141 135 17 59 13
97 -16 154 -22 43 -323 342 -365 362 -40 20 -93 28 -130 19z"/>
<path d="M2492 789 c-47 -14 -109 -80 -122 -129 -7 -27 -10 -127 -8 -284 l3
-243 27 -40 c41 -62 90 -88 168 -88 78 0 127 26 168 88 l27 41 0 265 c0 263 0
266 -24 304 -47 76 -151 113 -239 86z"/>
</g>
</svg>
