<?xml version="1.0" encoding="utf-8" ?>
<svg xmlns="http://www.w3.org/2000/svg" xmlns:xlink="http://www.w3.org/1999/xlink" width="667" height="288">
	<path fill="#4B9CBF" d="M220.105 218.665C220.96 218.978 221.199 219.028 221.749 219.797C221.621 220.493 221.607 220.858 221.008 221.314C220.767 221.497 220.461 221.63 220.189 221.76C219.513 220.419 219.668 220.009 220.105 218.665Z"/>
	<path fill="#4B9CBF" d="M230.19 213.837C230.515 212.443 231.249 211.537 232.107 210.435C232.483 211.463 232.538 212.141 232.405 213.225C231.9 213.913 231.918 213.949 231.09 214.116L230.19 213.837Z"/>
	<path fill="#4B9CBF" d="M257.817 193.009C257.813 194.111 257.989 195.162 257.44 196.132L256.382 196.456C255.748 195.79 254.614 195.139 253.707 194.992C253.29 194.924 253.011 194.833 252.637 194.636L252.692 194.254C254.524 194.185 256.104 193.605 257.817 193.009Z"/>
	<path fill="#4B9CBF" d="M162.942 181.71C163.366 182.775 163.805 184.139 163.296 185.255C163.062 185.768 162.745 186.089 162.314 186.443C161.446 186.6 161.392 186.574 160.604 186.171C160.272 185.696 159.995 185.333 159.896 184.755C161.687 184.749 160.963 183.946 161.692 182.826C161.929 182.462 162.6 182.016 162.942 181.71Z"/>
	<path fill="#4B9CBF" d="M434.995 194.172C435.523 193.224 435.915 192.385 436.898 191.85C437.405 191.844 437.57 191.747 437.946 192.127C438.827 193.02 438.661 194.393 438.643 195.551C438.631 196.005 438.6 196.28 438.387 196.684L437.815 196.806L437.896 195.761C437.257 194.911 435.923 195.064 434.995 194.172Z"/>
	<path fill="#4B9CBF" d="M341.802 185.053C342.957 185.016 343.289 184.892 344.281 185.536C344.736 186.38 344.842 186.869 344.554 187.808C344.409 188.282 344.232 188.596 343.873 188.931L343.783 189.345L343.266 189.616C342.517 189.38 342.113 188.827 341.608 188.26L341.076 187.881L341.166 187.387C341.559 187.029 341.843 186.722 342.119 186.267L341.802 185.053Z"/>
	<path fill="#4B9CBF" d="M327.566 204.432C327.61 204.43 327.655 204.427 327.7 204.426C328.565 204.415 329.508 204.383 330.156 205.049C330.734 205.642 330.766 206.091 330.77 206.879C330.242 207.758 329.986 207.905 329.06 208.346C328.683 208.468 328.209 208.423 327.809 208.426C327.213 207.991 327.031 207.803 326.887 207.05C326.706 206.104 327.04 205.198 327.566 204.432Z"/>
	<path fill="#4B9CBF" d="M484.246 183.353C483.947 182.995 483.62 182.421 483.473 181.973C483.226 181.214 483.37 180.842 483.724 180.168C484.356 179.699 484.986 179.425 485.789 179.511C486.621 179.6 486.943 179.841 487.481 180.455C487.47 181.328 487.31 181.493 486.825 182.18L486.776 182.989C485.874 183.549 485.292 183.382 484.246 183.353Z"/>
	<path fill="#4B9CBF" d="M235.635 204.546C236.275 204.52 236.979 204.459 237.613 204.546C238.428 204.658 238.741 205.033 239.185 205.665C239.298 206.718 238.98 207.387 238.539 208.325C237.825 208.532 237.149 208.55 236.413 208.571C235.586 208.155 235.504 208.099 235.064 207.289C235 206.183 235.16 205.543 235.635 204.546Z"/>
	<path fill="#4B9CBF" d="M440.125 179.674C441.176 179.522 442.339 179.258 443.335 179.751C444.148 180.154 444.314 180.493 444.576 181.337C444.299 182.221 444.127 182.821 443.368 183.409C442.487 183.702 441.748 183.73 440.898 183.347C440.135 182.248 440.24 180.962 440.125 179.674Z"/>
	<path fill="#4B9CBF" d="M214.412 179.128C215.29 179.315 215.882 179.43 216.554 180.068C216.871 180.802 217.159 181.275 216.862 182.103C216.537 183.011 215.816 183.457 214.996 183.857C214.245 183.702 213.295 183.54 212.844 182.849C212.476 182.284 212.239 181.668 212.453 180.987C212.779 179.952 213.546 179.64 214.412 179.128Z"/>
	<path fill="#4B9CBF" d="M249.05 203.575C249.593 203.763 250.289 204.161 250.569 204.675C250.791 205.083 250.611 205.337 250.491 205.764C249.319 207.044 247.587 207.768 246.071 208.568L245.598 208.683C244.907 208.314 244.94 208.294 244.69 207.544C245.328 205.565 247.357 204.609 249.05 203.575Z"/>
	<path fill="#4B9CBF" d="M169.92 210.469L170.208 210.465C172.081 210.431 174.238 209.277 175.764 210.548C176.104 211.371 176.218 212.215 175.858 213.062C175.57 213.74 175.4 213.952 174.735 214.255C173.477 213.984 172.589 212.99 171.297 213.118L171.156 212.485C170.471 211.822 170.159 211.405 169.92 210.469Z"/>
	<path fill="#4B9CBF" d="M135.998 164.464C137.231 162.981 136.716 160.683 136.607 158.882C137.314 160.385 138.025 161.882 138.636 163.428C139.274 165.417 139.45 167.535 140.082 169.478L138.74 169.874C138.368 168.905 137.969 167.807 137.18 167.1C136.836 166.791 136.679 166.604 136.49 166.183L135.998 164.464Z"/>
	<path fill="#4B9CBF" d="M540.29 187.603C540.252 187.516 540.216 187.429 540.177 187.343C539.804 186.537 539.184 186.536 539.327 185.572C540.829 184.578 543.941 185.038 545.687 185.129C545.684 185.47 545.649 185.86 545.489 186.169C545.069 186.979 544.399 187.637 543.985 188.486C543.292 189.909 542.407 193.328 541.378 194.38C541.223 194.539 541.059 194.668 540.875 194.79C540.998 194.312 541.108 193.828 541.163 193.337C541.366 191.514 541.422 189.048 540.29 187.603Z"/>
	<path fill="#D6CE37" d="M616.542 220.847C622.246 221.952 639.294 231.398 643.112 235.959C643.171 236.029 643.232 236.098 643.29 236.169C643.325 236.212 643.357 236.257 643.391 236.301C640.724 235.282 638.232 233.254 635.753 231.817C630.213 228.608 618.96 222.923 612.911 221.737L613.394 221.038C614.996 221.875 617.112 222.3 618.837 222.982C620.778 223.75 622.662 224.84 624.637 225.482L624.757 225.203C622.271 223.373 618.996 223.094 616.654 220.952L616.542 220.847Z"/>
	<path fill="#398BAB" d="M438.643 195.551C439.542 195.217 440.028 195.196 440.456 194.26C441.934 191.032 438.845 186.673 439.133 185.452C439.144 185.408 439.684 185.155 439.732 185.134C440.749 184.705 442.642 184.766 443.743 184.759C445.001 187.516 443.783 190.959 444.173 193.847C444.327 194.989 445.754 195.371 445.72 196.56C444.262 197.567 440.689 197.143 438.988 196.817Q438.686 196.759 438.387 196.684C438.6 196.28 438.631 196.005 438.643 195.551Z"/>
	<path fill="#398BAB" d="M483.844 184.887L487.12 184.885C488.138 187.318 486.885 192.685 487.734 194.27C488.08 194.916 488.966 195.216 489.253 196.009C489.389 196.384 489.228 196.526 489.064 196.869C487.758 197.417 485.94 197.173 484.536 197.153C484.408 197.155 484.279 197.159 484.152 197.151C483.347 197.106 482.872 197.062 482.34 196.447C482.762 195.34 483.38 194.336 483.843 193.249C484.463 191.789 484.128 189.591 483.561 188.156C483.323 187.058 482.026 186.863 481.694 185.781C482.295 185.253 483.092 185.098 483.844 184.887Z"/>
	<path fill="#4B9CBF" d="M234.038 209.882C235.671 209.729 237.323 209.805 238.961 209.829C239.198 212.58 238.625 215.458 239.04 218.161C239.218 219.315 239.507 219.892 240.476 220.578L240.694 220.73L240.785 221.262C240.006 221.937 239.547 221.882 238.542 222.022C237.081 222.077 235.604 222.203 234.165 221.889C233.66 220.955 235.057 218.625 235.253 217.522C235.488 216.197 235.318 214.635 235.257 213.289C234.884 212.795 234.471 212.29 234.163 211.754C233.741 211.021 233.854 210.654 234.038 209.882Z"/>
	<path fill="#398BAB" d="M325.741 209.973C326.74 209.905 328.278 209.591 329.232 209.878C332.834 210.963 329.731 217.016 330.806 219.505C330.965 219.874 332.145 220.486 332.487 221.077L332.273 221.708C331.39 222.283 330.347 222.081 329.347 222.014C328.029 222.046 326.304 222.103 325.137 221.425C324.918 221.298 324.92 221.012 324.861 220.774C325.314 220.355 325.793 220.096 326.334 219.813C327.729 217.789 327.093 215.048 326.901 212.727Q325.966 212.011 325.018 211.312C325.054 210.53 325.171 210.531 325.741 209.973Z"/>
	<path fill="#398BAB" d="M211.384 184.8C213.072 184.741 214.841 184.55 216.488 184.997C218.042 186.56 216.46 190.976 216.968 193.096C217.207 194.091 218.064 195.241 218.579 196.143L218.374 196.833L217.623 197.179C215.928 197.174 213.16 197.526 211.645 196.85C210.984 195.114 213.276 194.279 213.181 192.306C213.079 190.187 211.173 185.882 211.384 184.8Z"/>
	<path fill="#398BAB" d="M230.19 213.837C229.801 213.271 229.407 213.018 228.809 212.692C228.438 212.66 228.038 212.621 227.681 212.749C226.946 213.012 226.441 213.381 226.156 214.139C225.802 215.082 225.742 216.869 226.225 217.777C227.443 220.066 231.029 219.13 233.113 219.756C232.508 220.918 232.059 221.302 230.811 221.736C228.973 222.375 226.796 222.446 225.022 221.565C223.727 220.923 222.814 219.793 222.372 218.425C221.816 216.705 222.049 214.265 222.914 212.677C223.637 211.349 225.139 210.45 226.561 210.061C227.965 209.677 230.813 209.678 232.107 210.435C231.249 211.537 230.515 212.443 230.19 213.837Z"/>
	<path fill="#4B9CBF" d="M120.786 144.463C120.773 144.139 120.775 143.779 120.7 143.464C120.332 141.935 115.402 140.189 113.948 139.448C113.444 139.19 113.431 139.25 113.251 138.696L113.951 138.43C122.208 140.7 130.846 148.518 135.013 155.868Q135.592 156.893 136.082 157.964C135.368 157.448 134.157 157.247 133.301 156.998C133.025 156.304 133.012 156.266 132.367 155.894Q131.399 156.223 130.419 156.518L129.902 156.189L129.934 155.068C129.184 154.477 128.205 154.785 127.322 154.11C127.44 152.783 128.643 152.42 128.796 151.034L128.289 150.522L127.841 150.734C126.227 148.166 122.555 146.914 120.786 144.463Z"/>
	<path fill="#398BAB" d="M301.323 181.949C301.843 181.881 302.378 181.798 302.902 181.786C303.604 181.77 303.952 181.808 304.454 182.292Q304.416 182.682 304.383 183.073C304.128 186.164 305.88 184.39 307.28 186.03C307.324 186.853 307.337 186.972 306.92 187.673C306.429 187.732 305.819 187.757 305.378 187.993C304.879 188.261 304.69 188.692 304.52 189.213C304.162 190.312 304.011 192.658 304.613 193.692C305.383 195.017 306.847 194.649 308.123 195.009L308.072 195.557L307.079 196.286C306.784 196.6 306.481 196.8 306.066 196.932C304.875 197.309 303.264 197.412 302.135 196.822C300.099 194.989 301.57 191.709 300.802 189.337C300.48 188.342 299.903 187.942 298.993 187.5C298.623 187.321 298.626 187.138 298.463 186.778C298.896 185.92 299.461 185.781 300.29 185.325C301.034 184.474 301.121 183.034 301.323 181.949Z"/>
	<path fill="#398BAB" d="M220.189 221.76C218.586 222.052 216.629 222.442 215.011 222.112Q214.572 222.026 214.159 221.854Q213.747 221.683 213.376 221.432Q213.005 221.182 212.692 220.863Q212.378 220.545 212.134 220.17C211.032 218.504 210.761 216.336 211.149 214.401C211.434 212.979 212.095 211.682 213.333 210.87C214.844 209.88 217.519 209.437 219.266 209.888C219.952 210.065 220.632 210.745 220.984 211.352C221.403 212.077 221.53 212.729 221.294 213.544C221.185 213.644 220.71 214.147 220.612 214.166C219.812 214.323 217.78 212.501 215.827 212.996C215.591 213.22 215.213 213.481 215.104 213.786C214.656 215.032 214.921 217.23 215.514 218.403C215.794 218.958 216.207 219.278 216.79 219.463C218.001 219.847 219.055 219.205 220.105 218.665C219.668 220.009 219.513 220.419 220.189 221.76Z"/>
	<path fill="#398BAB" d="M362.743 207.039C363.648 206.953 364.223 206.756 365.041 207.179C365.198 207.953 365.313 208.724 365.42 209.505C366.179 210.355 366.522 210.196 367.628 210.292C368.3 210.91 368.279 211.163 368.44 212.028C367.764 213.313 366.043 213.042 365.141 214.179C365.235 215.529 365.053 218.839 365.854 219.749L367.998 219.596C368.686 219.935 368.767 219.906 369.047 220.607C368.556 221.278 367.885 221.447 367.134 221.702C366.664 222.026 364.963 222.51 364.367 222.512C363.799 222.514 363.278 222.259 362.908 221.821C361.751 220.451 361.988 217.517 361.972 215.825C361.964 214.921 362.108 213.648 361.465 213.017C360.755 213.111 360.074 213.278 359.38 213.449L358.987 213.021C359.217 210.299 360.542 211.523 361.748 209.906C362.23 209.259 362.15 207.914 362.743 207.039Z"/>
	<path fill="#398BAB" d="M191.392 207.162C192.392 206.933 193.306 206.629 194.303 207.011C194.44 207.838 194.536 208.657 194.607 209.492C195.736 210.236 197.166 210.506 198.068 211.557C198.093 211.771 198.194 211.998 198.043 212.176C197.361 212.984 195.488 213.034 194.492 213.121C194.462 215.054 194.18 217.45 194.7 219.303C195.929 220.205 197.27 218.842 198.388 220.031C198.146 220.846 197.76 221.199 196.997 221.6C195.951 222.151 194.153 222.725 192.988 222.269C192.205 221.963 191.712 221.418 191.404 220.64C190.601 218.609 190.93 215.471 191.076 213.293Q190.891 213.266 190.707 213.232C189.788 213.063 189.172 212.868 188.641 212.099C188.986 210.821 190.722 210.028 190.909 208.807C191 208.211 191.182 207.725 191.392 207.162Z"/>
	<path fill="#398BAB" d="M540.875 194.79C540.89 194.834 540.907 194.876 540.92 194.92C541.214 195.955 540.382 198.357 539.851 199.28C539.155 200.49 537.798 201.331 536.481 201.696C535.054 202.092 533.487 202.13 532.169 201.394C532.96 199.616 535.281 200.157 536.374 198.61C538.418 195.715 532.914 188.817 532.663 186.659C532.583 185.976 532.766 185.883 533.168 185.363C534.826 184.68 536.424 184.973 538.115 185.385C538.362 186.265 537.528 187.637 537.511 188.638C537.477 190.675 538.811 191.395 538.115 193.758L538.076 193.886C538.233 193.702 538.386 193.518 538.53 193.324C539.455 192.074 540.513 189.167 540.29 187.603C541.422 189.048 541.366 191.514 541.163 193.337C541.108 193.828 540.998 194.312 540.875 194.79Z"/>
	<path fill="#398BAB" d="M204.531 184.814C205.634 184.733 208.289 184.566 209.196 185.128C209.905 185.568 210.53 186.58 210.609 187.412C210.686 188.226 210.406 188.508 209.896 189.057C208.75 188.657 207.537 188.168 206.348 187.938C205.517 187.777 204.838 187.882 204.145 188.387C203.85 188.783 203.683 189.156 203.648 189.648C203.552 190.989 203.904 192.655 204.796 193.684C206.631 194.89 208.443 194.126 210.456 193.891C210.645 194.245 210.768 194.531 210.814 194.935C210.865 195.385 210.66 195.689 210.369 196.027C209.554 196.971 207.645 197.483 206.45 197.567C204.858 197.68 203.15 197.228 201.95 196.145C199.766 194.174 199.787 191.464 199.695 188.757C201.1 186.534 202.048 185.7 204.531 184.814Z"/>
	<path fill="#4B9CBF" d="M177.417 179.971C179.347 179.685 181.3 179.789 183.245 179.827C183.254 184.208 182.997 188.765 183.311 193.125C183.436 194.854 184.071 194.516 185.186 195.523C185.384 195.702 185.328 196.191 185.344 196.462C184.822 197.062 184.527 196.992 183.767 197.098C182.199 197.143 178.794 197.604 177.588 196.599C177.243 196.312 177.311 196.023 177.269 195.602C177.801 195.103 178.346 194.732 178.961 194.35C179.495 190.693 179.166 186.716 179.197 183.013C178.18 181.979 177.584 181.445 177.417 179.971Z"/>
	<path fill="#398BAB" d="M437.815 196.806C436.543 197.576 429.245 197.207 427.563 196.824L427.468 196.435C427.189 195.285 428.667 191.946 428.752 190.382C428.825 189.047 428.86 187.576 428.573 186.269C428.274 184.906 427.266 183.335 427.387 181.954C428.535 181.049 432.614 181.417 434.117 181.406C434.12 182.668 433.459 183.713 433.137 184.911C432.481 187.348 432.187 190.641 432.463 193.167C432.554 194.002 432.593 194.22 433.255 194.74C433.888 194.606 434.418 194.481 434.995 194.172C435.923 195.064 437.257 194.911 437.896 195.761L437.815 196.806Z"/>
	<path fill="#398BAB" d="M502.402 185.212C504.461 184.826 510.225 184.43 512.054 185.299C513.492 188.116 507.474 191.738 507.217 194.618L507.697 195.003C509.098 194.79 510.138 193.155 511.475 192.571C511.727 192.461 511.963 192.645 512.209 192.748C512.345 193.024 512.453 193.312 512.491 193.619C512.62 194.657 512.643 195.748 512.001 196.616L511.429 197.038C508.646 197.129 505.241 197.507 502.587 196.616C501.521 193.441 507.218 190.59 507.62 187.588C505.98 187 504.873 189.093 503.399 189.075C502.657 188.056 502.597 186.439 502.402 185.212Z"/>
	<path fill="#398BAB" d="M381.767 184.887C383.235 184.748 385.645 184.63 386.949 185.423C387.192 185.57 387.243 185.94 387.307 186.203C387.54 187.167 387.018 188.173 386.526 188.962C385.839 189.3 385.826 189.346 385.094 189.148C384.639 188.557 384.313 187.978 383.984 187.313L383.34 187.104C382.59 187.322 382.408 187.303 381.959 187.983C382.183 189.905 385.322 189.944 386.696 191.08C387.324 191.6 387.803 192.226 387.859 193.069C387.925 194.054 387.402 194.996 386.76 195.706C385.691 196.888 384.461 197.018 382.945 197.117C381.724 197.203 380.18 197.44 379.031 196.949C378.181 196.586 377.953 196.168 377.601 195.348C377.676 194.658 377.868 194.114 378.431 193.666C379.04 193.181 379.574 193.211 380.296 193.313C380.78 193.812 381.425 194.503 382.116 194.675C382.904 194.871 383.17 194.833 383.874 194.441C384.075 192.87 378.504 191.459 377.818 188.734C377.66 188.106 377.739 187.562 378.08 187.017C378.908 185.695 380.351 185.24 381.767 184.887Z"/>
	<path fill="#398BAB" d="M262.695 184.811C264.281 184.656 266.35 184.641 267.857 185.187C268.145 185.584 268.376 185.949 268.416 186.451C268.471 187.132 268.313 188.003 267.829 188.511C266.409 190.003 265.131 187.304 263.61 187.268C263.17 187.786 263.12 187.779 263.146 188.45C264.093 189.601 266.076 189.898 267.331 190.676C268.049 191.121 268.553 191.693 268.719 192.536C268.923 193.578 268.818 194.832 268.144 195.696C267.251 196.841 265.291 197.034 263.95 197.241Q262.758 197.274 261.566 197.262C260.345 197.238 259.859 196.99 259.03 196.122C258.776 195.33 258.645 194.57 259.093 193.809C259.545 193.04 260.056 192.924 260.847 192.709C262.013 193.056 262.007 193.463 262.598 194.484C263.387 194.761 264.244 194.702 265.069 194.702L265.304 194.462C265.265 194.376 265.234 194.285 265.187 194.203C264.239 192.536 261.203 191.628 259.514 191.038L259.415 190.561C259.131 189.165 258.715 187.52 259.597 186.25C260.355 185.16 261.482 185.056 262.695 184.811Z"/>
	<path fill="#398BAB" d="M256.382 196.456C254.843 197.002 253.015 197.469 251.374 197.257C249.986 197.078 248.774 196.493 247.948 195.346C246.875 193.855 246.322 191.148 246.656 189.322C246.915 187.907 247.776 186.694 248.966 185.903C250.465 184.907 252.409 184.499 254.178 184.861C255.542 185.139 256.702 185.852 257.452 187.041C258.197 188.221 258.389 189.802 258.093 191.15C257.711 192.888 252.208 191.561 250.972 192.348L251.079 193.006C251.589 193.483 252.116 193.866 252.692 194.254L252.637 194.636C253.011 194.833 253.29 194.924 253.707 194.992C254.614 195.139 255.748 195.79 256.382 196.456Z"/>
	<path fill="#398BAB" d="M494.911 184.887C495.252 184.85 495.593 184.832 495.936 184.846C497.655 184.915 498.98 185.271 500.153 186.589Q500.292 186.743 500.414 186.91Q500.536 187.077 500.64 187.256Q500.743 187.435 500.828 187.624Q500.913 187.813 500.978 188.01Q501.042 188.207 501.086 188.409Q501.13 188.611 501.153 188.817Q501.176 189.023 501.177 189.23Q501.178 189.437 501.158 189.643C500.704 194.342 495.971 190.442 493.577 192.372L493.547 193.352C495.777 195.929 498.203 193.459 499.978 194.228L500.501 195.232C500.485 195.272 500.472 195.312 500.454 195.351C500.111 196.082 499.225 196.466 498.499 196.712C496.619 197.348 494.089 197.59 492.272 196.626C491.188 196.05 490.497 195.064 490.15 193.902C489.626 192.14 489.701 188.931 490.631 187.301C491.522 185.741 493.307 185.322 494.911 184.887ZM494.415 187.818C494.099 188.518 493.805 188.808 494.031 189.573Q495.225 189.705 496.424 189.774L497.266 189.503L497.477 188.942C497.04 188.187 496.622 187.983 495.86 187.655C495.38 187.688 494.881 187.696 494.415 187.818Z"/>
	<path fill="#398BAB" d="M413.164 184.886C413.832 184.802 414.515 184.723 415.188 184.787C416.686 184.929 418.099 185.534 419.041 186.746C419.919 187.876 420.063 189.364 419.858 190.739C419.481 193.277 414.219 191.113 412.54 192.334C412.476 192.735 412.322 193.026 412.584 193.368C414.28 195.578 416.508 193.568 418.345 193.968C418.395 193.979 418.443 193.995 418.492 194.008C418.733 194.307 418.91 194.679 419.102 195.012C418.827 195.819 418.615 196.106 417.827 196.479C416.07 197.311 413.517 197.545 411.694 196.809C410.492 196.324 409.677 195.482 409.177 194.289C408.47 192.602 408.399 189.433 409.109 187.742C409.771 186.164 411.712 185.523 413.164 184.886ZM413.459 187.818L412.47 189.196L412.63 189.522Q413.541 189.656 414.455 189.774C415.303 189.753 415.605 189.888 416.216 189.251C416.05 188.57 415.802 188.164 415.14 187.835C414.6 187.568 414.017 187.685 413.459 187.818Z"/>
	<path fill="#398BAB" d="M337.446 209.972C338.787 209.797 340.303 209.72 341.6 210.155C342.682 210.517 343.341 211.139 343.844 212.157C344.376 213.233 344.86 214.781 344.406 215.955C343.809 217.5 339.005 216.549 337.426 217.264L337.221 217.813C337.427 218.169 337.65 218.555 337.955 218.838C339.479 220.255 341.374 219.044 343.16 218.987L343.389 218.982C343.782 219.216 343.985 219.557 344.24 219.923C344.077 220.565 344.075 220.725 343.475 221.074C341.757 222.074 338.68 222.5 336.812 221.93C335.417 221.505 334.355 220.622 333.71 219.311C332.875 217.611 332.959 215.567 333.589 213.816C334.359 211.678 335.483 210.899 337.446 209.972ZM338.235 212.902L337.203 214.261L337.442 214.645L338.955 214.77C339.916 214.722 340.242 214.872 340.93 214.165C340.741 213.375 340.434 213.29 339.799 212.83C339.213 212.714 338.812 212.76 338.235 212.902Z"/>
	<path fill="#398BAB" d="M517.967 184.887C519.323 184.768 521.563 184.744 522.688 185.579C524.582 186.985 523.205 191.513 523.602 193.671C523.811 194.805 524.637 195.092 525.534 195.715L525.635 196.304C525.39 196.508 525.199 196.647 524.884 196.724C523.637 197.03 516.708 197.197 515.404 196.975C514.829 196.878 514.171 196.4 513.683 196.087C513.671 194.661 513.525 193.193 514.324 191.941C516.022 189.28 517.935 190.143 520.494 189.569C520.483 189.299 520.436 189.068 520.319 188.821C520.052 188.259 519.469 187.59 518.882 187.369C517.586 186.879 516.458 188.884 515.344 189.409C514.652 188.982 514.382 188.47 514.169 187.662C513.942 186.804 514.162 186.403 514.608 185.691C515.631 184.991 516.773 184.982 517.967 184.887ZM518.768 192.054C517.785 192.352 517.513 192.362 516.834 193.169C516.957 193.996 517.147 194.233 517.764 194.788C517.801 194.821 517.843 194.846 517.883 194.875C519.051 194.579 519.538 194.236 520.309 193.313L520.463 192.567C519.806 192.011 519.594 192.076 518.768 192.054Z"/>
	<path fill="#398BAB" d="M203.422 209.855Q203.718 209.838 204.014 209.828C205.442 209.779 207.231 209.837 208.321 210.902C209.431 211.986 210.639 213.767 210.659 215.363C209.093 218.585 204.81 215.895 202.478 217.324L202.54 217.895C202.858 218.298 203.176 218.647 203.618 218.915C205.705 220.178 207.414 218.952 209.572 218.435C209.744 218.974 209.804 219.462 209.849 220.025C209.603 220.62 209.356 221.053 208.811 221.423C207.11 222.577 204.559 222.357 202.646 221.925C200.627 221.468 199.809 220.333 198.788 218.669C198.667 216.703 198.332 214.297 199.288 212.506C200.139 210.912 201.816 210.37 203.422 209.855Z"/>
	<path fill="#398BAB" d="M312.786 184.885C314.067 184.752 315.338 184.605 316.566 185.101C318.016 185.686 319.754 186.97 320.348 188.465C320.658 189.245 320.597 190.157 320.231 190.911C319.062 193.317 314.958 191.432 312.758 192.222L312.533 192.858C312.593 193.016 312.659 193.169 312.756 193.309C313.319 194.118 314.484 194.332 315.38 194.503C316.344 194.191 317.284 194.036 318.286 193.898C318.45 193.943 318.603 193.984 318.752 194.069C319.393 194.438 319.552 194.569 319.754 195.244C319.422 195.773 319.198 195.963 318.635 196.248C316.683 197.239 314.056 197.577 311.976 196.879C310.635 196.43 309.621 195.466 309.038 194.185C308.194 192.333 308.32 190.1 309.027 188.226C309.754 186.3 311.007 185.66 312.786 184.885Z"/>
	<path fill="#398BAB" d="M370.052 184.886C371.454 184.69 372.88 184.577 374.197 185.214C375.55 185.869 376.779 187.33 377.258 188.748C377.498 189.46 377.65 190.302 377.264 190.99C376.255 192.783 371.621 191.856 369.703 192.43L369.711 193.217C371.475 195.569 373.867 193.256 375.898 193.874C376.287 194.309 376.424 194.63 376.55 195.198C376.253 195.834 376.159 196.052 375.555 196.42C373.889 197.436 371.251 197.64 369.391 197.123C368.121 196.77 367.039 195.986 366.416 194.809C365.477 193.034 365.526 189.892 366.177 188.02C366.787 186.266 368.501 185.601 370.052 184.886Z"/>
	<path fill="#4B9CBF" d="M130.988 202.593L132.425 203.629C123.272 213.445 114.616 219.384 100.765 219.836C95.1253 220.02 88.8532 219.426 83.6614 217.083C81.3054 216.02 78.7948 214.537 76.2747 213.96C72.2405 213.036 67.9339 213.618 63.8253 213.375C66.9898 212.853 73.3966 213.852 75.9148 212.809C76.621 212.516 76.6515 212.18 76.9363 211.536C79.3275 212.969 81.7663 214.563 84.3397 215.637C90.4653 218.194 98.622 218.55 105.129 217.67Q106.081 217.543 107.025 217.369Q107.97 217.196 108.905 216.975Q109.839 216.755 110.762 216.489Q111.685 216.223 112.593 215.911Q113.502 215.6 114.394 215.244Q115.286 214.888 116.159 214.489Q117.033 214.089 117.885 213.647Q118.738 213.205 119.567 212.721Q120.397 212.238 121.202 211.713Q122.007 211.189 122.785 210.626Q123.563 210.063 124.312 209.462Q125.061 208.861 125.78 208.223Q126.498 207.586 127.184 206.914Q127.871 206.242 128.523 205.537Q129.175 204.832 129.792 204.095Q130.408 203.359 130.988 202.593Z"/>
	<path fill="#398BAB" d="M187.211 184.789L190.947 184.712C190.889 187.106 190.537 189.782 190.759 192.151C190.829 192.889 190.815 193.363 191.398 193.853C192.35 193.849 192.828 193.953 193.652 193.452C194.328 191.957 193.972 189.686 193.982 188.026C193.191 187.203 192.603 186.893 192.414 185.735L192.874 185.182C194.408 184.581 196.329 184.751 197.96 184.722C198.055 186.665 197.998 188.637 198.008 190.584C198.005 191.492 197.9 192.741 198.155 193.606C198.461 194.64 199.584 195.198 199.601 196.357C199.453 196.486 199.363 196.566 199.178 196.637C196.982 197.484 189.983 197.41 187.836 196.5C186.549 194.938 187.092 190.32 187.109 188.309C186.437 187.617 185.709 186.978 185.39 186.043C185.882 185.175 186.306 185.161 187.211 184.789Z"/>
	<path fill="#398BAB" d="M245.675 209.84C246.988 209.756 248.399 209.675 249.66 210.122C251.003 210.599 252.166 211.744 252.771 213.023Q252.911 213.32 253.02 213.63Q253.13 213.94 253.208 214.259Q253.286 214.578 253.332 214.904Q253.378 215.229 253.392 215.557Q253.406 215.886 253.387 216.214Q253.368 216.542 253.317 216.867Q253.266 217.191 253.182 217.509Q253.099 217.827 252.985 218.135C252.246 220.115 251.192 221.095 249.312 221.978C247.885 222.117 246.245 222.395 244.866 221.914C243.495 221.435 242.342 220.281 241.748 218.968C240.983 217.28 240.967 215.262 241.656 213.549C242.513 211.418 243.662 210.689 245.675 209.84ZM246.848 212.291C245.594 213.22 245.244 213.976 245.032 215.509C244.869 216.69 245.116 217.927 245.846 218.889C246.345 219.547 247.03 219.599 247.793 219.683L248.069 219.712C249.178 218.627 249.591 217.437 249.596 215.883C249.6 214.716 249.164 213.857 248.446 212.972C247.924 212.714 247.416 212.434 246.848 212.291Z"/>
	<path fill="#398BAB" d="M159.896 184.755C159.647 184.444 159.268 184.256 158.934 184.048C158.516 184.061 158.039 184.058 157.648 184.218C156.982 184.489 156.802 184.637 156.542 185.3C157.763 187.442 161.753 188.16 163.439 190.354C164.034 191.127 164.396 192.027 164.245 193.012C164.044 194.323 162.949 195.537 161.893 196.263C160.021 197.552 156.815 197.794 154.605 197.333C153.676 197.139 152.71 196.72 152.222 195.856C151.91 195.303 151.854 194.629 152 194.018C152.168 193.314 152.612 192.522 153.247 192.146C153.899 191.762 154.05 191.838 154.755 192.007C155.147 192.623 155.494 193.245 155.831 193.892C156.57 194.363 156.943 194.452 157.803 194.436C158.548 194.021 158.616 194.029 158.916 193.242C158.16 190.723 154.642 190.413 153.088 188.205C152.355 187.164 151.926 185.815 152.157 184.541C152.335 183.558 152.987 182.724 153.806 182.178C156.571 180.335 159.933 181.092 162.942 181.71C162.6 182.016 161.929 182.462 161.692 182.826C160.963 183.946 161.687 184.749 159.896 184.755Z"/>
	<path fill="#398BAB" d="M180.824 209.842C182.27 209.745 183.889 209.725 185.234 210.33C186.611 210.948 187.672 212.248 188.146 213.665Q188.253 213.988 188.327 214.32Q188.4 214.652 188.441 214.99Q188.481 215.328 188.487 215.668Q188.493 216.008 188.465 216.347Q188.436 216.686 188.374 217.02Q188.312 217.355 188.217 217.681Q188.122 218.008 187.994 218.323Q187.867 218.638 187.708 218.939C186.728 220.78 185.493 221.55 183.544 222.138C182.136 222.228 180.571 222.45 179.247 221.87C177.939 221.297 176.888 220.086 176.377 218.767Q176.253 218.438 176.163 218.099Q176.072 217.759 176.016 217.412Q175.959 217.065 175.937 216.715Q175.916 216.364 175.929 216.013Q175.942 215.661 175.989 215.313Q176.037 214.965 176.119 214.623Q176.201 214.282 176.317 213.95Q176.432 213.618 176.58 213.299C177.472 211.33 178.905 210.585 180.824 209.842ZM180.855 212.659C180.377 214.073 179.847 216.787 180.506 218.198C180.78 218.785 181.201 219.349 181.857 219.511C182.404 219.645 183.179 219.483 183.739 219.414C184.359 218.097 184.953 216.048 184.442 214.617C184.193 213.92 183.71 213.236 183.031 212.912C182.451 212.634 181.496 212.679 180.855 212.659Z"/>
	<path fill="#398BAB" d="M223.665 184.783C225.069 184.705 226.334 184.676 227.681 185.175C229.063 185.686 230.287 186.873 230.874 188.223Q231.007 188.533 231.109 188.854Q231.21 189.175 231.279 189.505Q231.348 189.835 231.384 190.17Q231.42 190.505 231.422 190.842Q231.424 191.179 231.393 191.514Q231.361 191.85 231.296 192.18Q231.231 192.511 231.134 192.833Q231.036 193.156 230.907 193.467C230.033 195.548 228.881 196.343 226.854 197.155C225.413 197.382 223.627 197.569 222.261 196.967Q222.012 196.855 221.776 196.719Q221.54 196.583 221.318 196.425Q221.096 196.267 220.891 196.087Q220.686 195.907 220.5 195.709Q220.313 195.51 220.147 195.293Q219.981 195.077 219.838 194.845Q219.694 194.614 219.574 194.369Q219.454 194.124 219.358 193.869C218.666 192.064 218.801 189.964 219.588 188.214C220.495 186.196 221.692 185.539 223.665 184.783ZM224.98 187.337C223.923 187.932 223.43 188.443 223.092 189.625Q223.022 189.877 222.978 190.135Q222.934 190.393 222.916 190.654Q222.898 190.915 222.906 191.176Q222.914 191.438 222.948 191.697Q222.982 191.956 223.041 192.211Q223.101 192.466 223.185 192.713Q223.27 192.961 223.379 193.198Q223.488 193.436 223.62 193.662C223.995 194.291 224.671 194.69 225.289 195.048C226.562 193.881 227.109 192.692 227.202 190.956C227.251 190.044 227.024 188.845 226.384 188.149C226.025 187.758 225.486 187.48 224.98 187.337Z"/>
	<path fill="#398BAB" d="M169.675 184.768C171.708 184.552 173.399 185.118 175.29 185.76C175.937 186.424 176.554 187.082 176.944 187.934C177.69 189.565 177.742 191.627 177.076 193.29C176.268 195.309 174.915 196.369 172.973 197.216C171.652 197.368 170.145 197.633 168.845 197.282C166.918 196.762 166.108 195.311 165.167 193.712C165.079 192.018 164.77 189.753 165.41 188.157C166.182 186.234 167.894 185.512 169.675 184.768ZM170.348 187.469C169.372 188.66 168.648 190.106 168.784 191.694C168.861 192.576 169.246 193.446 169.935 194.016C170.295 194.313 170.734 194.51 171.16 194.694C172.32 193.21 173.293 191.799 172.995 189.794C172.867 188.935 172.411 188.406 171.808 187.82C171.306 187.634 170.888 187.473 170.348 187.469Z"/>
	<path fill="#398BAB" d="M255.404 209.907C256.526 209.956 257.601 210.256 258.712 210.325C260.712 210.449 262.817 210.304 264.829 210.315C268.284 212.419 265.589 218.329 266.88 219.656C267.354 220.143 268.089 220.344 268.615 220.936L268.403 221.553C267.292 222.206 265.734 222.059 264.475 222.088C264.08 222.121 263.672 222.142 263.301 221.985C261.252 221.115 259.643 221.748 257.527 222.058C256.599 222.195 255.472 222.19 254.688 221.611C254.541 220.216 255.909 218.937 256.243 217.528C256.635 215.872 255.472 212.604 254.562 211.197C254.438 211.006 254.548 210.654 254.575 210.425L255.404 209.907ZM261.419 212.561C260.05 213.557 259.735 213.885 259.464 215.614C259.229 217.107 259.399 218.572 260.091 219.929C260.539 220.257 260.985 220.628 261.484 220.874C262.92 219.733 263.12 219.151 263.33 217.305C263.491 215.886 263.389 214.29 262.625 213.053C262.226 212.84 261.873 212.632 261.419 212.561Z"/>
	<path fill="#398BAB" d="M345.983 209.972C347.884 209.832 349.095 210.488 350.83 210.55C352.367 210.605 353.879 210.009 355.433 210.201C359.988 210.764 356.802 217.097 357.801 219.474C357.926 219.773 359.221 220.443 359.56 220.868L359.292 221.599C358.398 222.142 357.228 222.004 356.216 221.994C355.102 222.075 346.624 221.923 345.827 221.685C345.318 221.534 345.194 221.501 344.938 221.016L345.385 220.316C345.801 220.209 346.316 220.118 346.669 219.866C347.127 219.539 347.09 219.169 347.14 218.657C347.312 216.865 346.812 213.013 345.619 211.635C345.367 211.344 345.424 211.036 345.395 210.658L345.983 209.972ZM351.575 212.903C350.866 213.501 350.744 213.749 350.646 214.679C350.501 216.051 350.36 219.109 351.303 220.149C351.48 220.343 351.988 220.398 352.249 220.467L352.497 220.4C353.138 220.187 353.729 220.134 354.027 219.44C354.851 217.52 354.363 215.105 353.742 213.238L353.246 212.781C352.689 212.81 352.127 212.823 351.575 212.903Z"/>
	<path fill="#398BAB" d="M233.243 184.773C234.824 184.806 236.523 185.548 238.007 185.448C239.099 185.374 240.144 184.803 241.233 184.686C241.954 184.608 242.718 184.858 243.272 185.32C245.312 187.025 244.621 191.638 245.312 194.071C245.564 194.959 246.299 195.398 246.398 196.348C245.596 196.952 245.313 196.95 244.344 197.072C242.009 197.179 233.705 197.387 231.908 196.332L231.94 195.665C232.494 195.265 233.034 194.984 233.651 194.701C235.034 190.984 232.281 187.638 232.373 185.835C232.396 185.388 232.92 185.07 233.243 184.773ZM239.543 187.541C238.678 187.991 238.097 188.15 237.751 189.139C237.136 190.899 237.171 193.204 237.818 194.944L238.528 195.573C239.376 195.127 240.062 194.965 240.362 193.96C240.878 192.23 240.965 189.591 240.173 187.941L239.543 187.541Z"/>
	<path fill="#398BAB" d="M311.321 205.084C312.832 204.747 314.434 204.837 315.975 204.831C317.033 206.424 316.53 208.799 316.337 210.593C317.458 210.275 318.673 209.902 319.851 209.972C321.156 210.049 322.541 210.749 323.403 211.728C324.19 212.621 324.635 213.921 324.556 215.109C324.444 216.792 323.833 219.162 322.552 220.326L322.421 220.768C320.22 222.793 315.331 222.15 312.481 222.071C313.671 219.793 313.134 210.884 312.757 208.095C312.701 207.205 311.558 206.183 311.321 205.084ZM316.781 212.903C316.49 214.892 316.18 217.385 316.754 219.334L317.191 219.797C317.898 219.796 318.293 219.655 318.904 219.304C319.981 218.597 320.365 217.968 320.619 216.647C320.837 215.516 320.651 214.51 319.99 213.562C319.705 213.153 319.361 212.947 318.905 212.758C318.195 212.789 317.485 212.804 316.781 212.903Z"/>
	<path fill="#398BAB" d="M400.787 180C402.357 179.656 404.005 179.781 405.603 179.809C405.631 179.864 405.657 179.921 405.686 179.975C407.31 183.033 405.77 188.663 406.063 192.136C406.192 193.667 407.498 195.057 407.545 196.479C405.648 197.659 402.414 196.46 400.134 197.026L399.99 197.063C399.206 197.167 398.087 197.224 397.337 196.96C396.453 196.649 395.923 195.945 395.519 195.133C394.51 193.099 394.345 190.444 395.133 188.308C396.574 184.399 399.58 185.947 402.491 184.563C402.41 182.735 400.479 181.862 400.787 180ZM399.603 187.818Q399.43 188.094 399.285 188.386Q399.139 188.677 399.022 188.982Q398.905 189.286 398.817 189.6Q398.729 189.914 398.672 190.234Q398.615 190.555 398.588 190.88Q398.562 191.205 398.567 191.531Q398.571 191.857 398.607 192.181Q398.643 192.505 398.709 192.824C398.891 193.666 399.137 193.947 399.84 194.408C400.264 194.427 400.634 194.489 401.036 194.336C401.523 194.124 402.041 194.039 402.25 193.525C402.868 192.006 402.726 189.852 402.057 188.391C401.795 187.819 401.72 187.789 401.141 187.557L399.603 187.818Z"/>
	<path fill="#398BAB" d="M467.882 185.212C469.087 185.04 470.411 184.874 471.624 185.046C472.421 185.16 473.124 185.665 473.956 185.586C475.36 185.451 477.256 184.647 478.604 185.243C479.518 185.647 479.965 186.416 480.268 187.327C480.918 189.287 481.609 192.249 480.629 194.165C479.175 197.007 476.117 196.286 473.753 197.22C473.092 197.481 473.036 197.957 472.76 198.57C473.312 200.056 474.369 199.922 475.395 201.032L475.318 201.632C474.975 201.823 474.664 201.934 474.272 201.959C472.579 202.07 469.155 202.425 467.925 201.324L467.957 200.662C468.456 200.316 468.853 199.98 469.253 199.521C469.595 197.897 470.022 189.465 469.419 187.934C469.055 187.008 468.021 186.949 467.559 185.948L467.882 185.212ZM473.516 187.819C473.092 189.305 472.678 193.137 473.507 194.488C473.627 194.684 473.751 194.854 473.981 194.896C474.614 195.012 475.197 194.841 475.738 194.499C475.815 194.451 475.882 194.39 475.955 194.335C476.855 193.64 477.082 193.089 477.234 191.955C477.414 190.614 477.26 189.428 476.39 188.339C476.131 188.016 475.754 187.829 475.382 187.667C474.756 187.695 474.134 187.708 473.516 187.819Z"/>
	<path fill="#398BAB" d="M446.716 185.212C449.305 184.829 453.279 185.005 455.909 185.411C456.847 185.556 457.952 186.012 458.867 186.054C460.294 186.121 461.723 184.588 463.454 184.903C467.21 185.586 465.341 191.455 466.063 193.984C466.282 194.749 466.823 195.492 467.259 196.151C467.011 196.562 466.988 196.692 466.526 196.884C465.432 197.337 463.338 197.341 462.25 196.907C460.54 194.644 463.177 191.596 462.712 189.03C462.59 188.351 462.332 188.27 461.794 187.924C461.234 187.889 460.638 187.827 460.093 187.987C458.241 188.533 459.116 190.563 458.28 192.055C458.854 192.887 458.673 193.568 459.029 194.418C459.271 195 459.812 195.345 460.048 195.967C460.201 196.37 460.114 196.396 459.932 196.79C458.885 197.145 457.823 197.209 456.725 197.188C455.808 197.17 454.767 197.102 454.096 196.407C454.139 195.244 455.232 194.993 455.368 193.842C455.55 192.31 455.833 189.448 454.806 188.231C454.075 187.921 454 187.887 453.231 188.058C449.504 190.825 453.527 194.301 452.892 196.823C451.915 197.406 449.439 197.238 448.297 197.124C447.44 197.039 447.131 196.756 446.587 196.129C446.875 195.049 448.011 195.278 448.346 194.333C448.617 193.565 448.601 187.974 448.041 187.417C447.587 186.966 446.906 186.977 446.563 186.313C446.367 185.933 446.592 185.599 446.716 185.212Z"/>
	<path fill="#398BAB" d="M382.523 205.086C384.109 204.768 385.758 204.896 387.367 204.933C389.028 207.558 386.797 218.052 388.077 219.597C388.597 220.225 389.579 220.175 390.096 221.082C389.867 221.508 389.891 221.61 389.405 221.763C388.452 222.063 375.391 222.065 373.611 221.924C372.706 221.852 371.747 221.692 370.944 221.248C370.33 220.909 369.803 220.36 369.665 219.651C369.467 218.629 369.989 217.441 370.603 216.648C371.677 215.262 373.527 215.1 375.138 214.859C375.541 214.894 376.007 214.983 376.372 214.768C376.69 214.58 376.672 214.176 376.75 213.829C376.43 213.02 376.197 212.762 375.453 212.334C374.101 212.476 373.338 213.594 372.123 214.134C371.519 214.402 371.43 214.379 370.846 214.14C370.783 214.006 370.721 213.872 370.669 213.734C370.39 213.007 370.355 212.08 370.745 211.382C371.203 210.566 372.135 210.157 373.002 209.945C375.006 209.457 377.433 209.643 379.22 210.71C380.963 212.646 380.133 216.07 380.414 218.499C380.526 219.464 380.842 219.844 381.57 220.438C382.495 220.621 383.106 220.375 383.962 220.055C384.908 217.762 384.591 210.229 383.974 207.796C383.821 207.164 383.048 206.9 382.651 206.371C382.274 205.87 382.416 205.673 382.523 205.086ZM374.183 217.139C373.465 217.769 373.454 217.817 373.281 218.759C373.58 219.435 373.558 219.492 374.218 219.799L374.954 219.518C375.862 219.107 376.221 219.012 376.823 218.194L376.642 217.521C375.694 216.99 375.252 217.105 374.183 217.139Z"/>
	<path fill="#398BAB" d="M277.354 181.258C279.161 181.161 280.978 181.201 282.787 181.204C283.191 182.2 282.497 183.901 282.279 184.991C281.659 188.082 281.617 191.223 281.461 194.363C282.215 194.846 283.074 195.452 283.994 195.518C284.883 195.581 285.26 195.248 285.865 194.662C287.026 191.761 285.511 188.158 284.517 185.407L284.712 185.151C286.651 184.527 288.999 185.282 291.01 185.286C291.901 185.288 292.762 184.98 293.645 184.945C294.458 184.913 295.299 185.075 295.878 185.694C297.024 186.919 296.627 189.621 296.577 191.187C296.435 195.548 296.295 193.428 298.36 195.634L298.158 196.369C298.02 196.617 298.076 196.582 297.896 196.725C297.096 197.364 294.168 197.168 293.068 197.088C292.387 197.039 292.415 197.009 291.988 196.514C292.171 194.639 292.943 192.911 293.08 190.981C293.157 189.904 293.202 188.765 292.452 187.909C291.549 187.69 291.288 187.835 290.441 188.136C287.832 190.636 291.003 194.212 290.405 197.021C288.458 197.969 286.275 196.661 284.308 196.516C281.729 196.327 279.507 197.678 276.825 196.893C276.762 196.817 276.326 196.338 276.324 196.292C276.3 195.6 278.09 193.579 278.079 191.919C278.065 189.826 278.288 187.407 277.834 185.37C277.507 183.905 276.383 183.398 276.398 181.745L277.354 181.258Z"/>
	<path fill="#398BAB" d="M358.731 179.674C360.028 179.593 361.362 179.663 362.663 179.671C364.336 183.08 362.46 188.643 363.042 192.421C363.309 194.15 364.984 195.183 365.192 196.701C362.489 197.525 349.753 197.095 346.378 196.78C345.733 196.257 345.465 195.85 345.278 195.023C345.044 193.989 345.105 192.38 345.706 191.47C346.636 190.06 348.865 189.938 350.384 189.67C351.251 189.586 351.5 189.614 352.183 189.023C351.97 188.151 351.654 188.078 350.951 187.552C350.131 187.559 350.009 187.592 349.306 188.016C348.283 188.631 347.516 189.202 346.295 188.9C346.19 188.751 346.091 188.599 346.025 188.428C345.758 187.746 345.829 186.737 346.106 186.069C346.311 185.573 346.524 185.368 347.039 185.18C349.537 184.265 352.474 184.772 354.795 185.916C356.472 186.742 355.22 192.702 355.814 194.462C356.432 194.975 356.788 195.218 357.628 195.273C358.255 194.956 358.502 194.796 358.864 194.187C359.922 192.409 359.832 184.465 359.014 182.507C358.665 181.674 357.592 181.94 357.266 180.648C357.68 179.977 358.017 179.95 358.731 179.674Z"/>
	<path fill="#398BAB" d="M151.867 206.454Q153.814 206.278 155.763 206.135C158.005 205.975 162.649 205.701 163.952 207.959C164.398 208.733 164.574 209.738 165.288 210.314C165.814 210.739 167.052 210.052 167.763 209.995C168.516 209.935 169.325 209.951 169.92 210.469C170.159 211.405 170.471 211.822 171.156 212.485L171.297 213.118C171.274 213.977 170.919 219.257 171.501 219.71C172.185 220.242 172.763 219.992 173.462 220.79L173.308 221.546C172.347 222.275 168.624 222.25 167.358 222.124C166.504 222.039 166.03 221.937 165.483 221.282C165.655 220.563 166.674 219.897 167.234 219.416C167.642 217.466 167.209 215.211 167.009 213.234L165.675 211.523L163.631 215.372C161.849 216.346 159.804 216.682 157.842 217.121C156.878 219.023 158.869 219.839 159.145 221.634C157.86 222.506 154.64 222.178 153.016 222.094C152.152 221.59 152.094 221.351 152.494 220.363C154.296 215.914 153.581 210.819 151.867 206.454ZM157.515 209.068C157.555 210.293 157.27 212.69 157.914 213.644C158.739 213.871 159.079 213.654 159.882 213.398C160.155 212.427 160.446 211.555 160.31 210.536C159.75 209.696 159.4 209.419 158.403 209.218Q157.961 209.133 157.515 209.068Z"/>
	<path fill="#398BAB" d="M339.934 194.782C340.825 195.199 341.451 195.343 341.901 196.239C341.748 196.43 341.584 196.719 341.361 196.821C339.945 197.473 336.488 197.267 335.028 196.746C334.427 196.531 334.359 196.469 334.094 195.902C334.439 195.27 334.781 195.065 335.409 194.779C335.723 194.636 335.795 194.4 335.972 194.113C336.055 191.92 336.467 189.242 335.327 187.269C334.558 186.712 334.384 186.671 333.481 186.636C332.226 187.371 332.042 189.911 331.407 191.195C330.329 193.373 327.98 193.509 325.907 194.211L325.882 194.492Q327.352 194.694 328.814 194.944C330.524 195.247 332.27 195.567 333.328 197.072C333.55 197.833 333.564 198.365 333.271 199.108C332.712 200.529 331.918 201.4 330.52 201.97C328.513 202.789 324.581 203.216 322.553 202.283C321.787 201.931 321.319 201.368 321.081 200.563C320.434 198.373 322.415 195.735 322.379 193.492C322.345 191.337 320.485 189.174 321.691 187.014C323.874 183.106 330.137 185.405 333.537 185.444C334.855 185.459 336.104 184.727 337.431 184.781C339.6 184.868 338.894 185.858 341.802 185.053L342.119 186.267C341.843 186.722 341.559 187.029 341.166 187.387L341.076 187.881C340.565 187.969 340.383 188.13 340.025 188.496C339.361 190.298 339.812 192.881 339.934 194.782ZM324.944 197.591C324.613 198.418 324.433 198.617 324.716 199.498C325.481 200.165 326.711 200.066 327.669 199.997Q328.03 199.971 328.387 199.916C329.085 199.657 329.451 199.608 329.902 198.991C329.554 198.255 329.022 197.973 328.257 197.693C327.16 197.292 326.073 197.391 324.944 197.591ZM326.51 187.165C325.76 187.803 325.423 188.185 325.161 189.15C325.28 189.779 325.293 190.442 325.88 190.841C326.121 191.004 326.467 191.09 326.744 191.174C327.511 190.89 327.834 190.891 328.2 190.088C328.442 189.557 328.494 189.021 328.278 188.472C328.012 187.795 327.826 187.622 327.224 187.221L326.51 187.165Z"/>
	<path fill="#398BAB" d="M280.806 206.244C281.728 206.181 282.606 206.21 283.527 206.278C285.628 207.589 287.061 215.931 288.486 218.603C289.011 219.587 289.522 220.313 290.631 220.632C291.142 220.505 291.482 220.519 291.82 220.088C293.055 218.51 292.499 215.054 292.223 213.171C292.197 212.665 291.266 211.467 290.971 210.941L291.188 210.351C293.18 209.155 294.437 210.748 296.384 210.773C297.639 210.789 298.925 209.911 300.235 209.889C301.387 209.869 301.748 210.387 302.532 211.129C303.921 211.378 305.123 209.864 306.492 209.741C307.263 209.672 308.126 210.034 308.719 210.521C311.047 212.432 309.549 216.861 310.111 219.353C310.349 220.406 311.486 220.466 311.562 221.75C309.989 222.653 305.664 222.05 303.809 221.964C304.694 221.347 305.857 220.267 306.215 219.226C306.564 218.213 306.343 217.416 305.879 216.495C306.217 215.936 306.496 215.179 306.518 214.516C306.545 213.704 306.256 213.434 305.722 212.913C304.786 212.777 304.642 212.829 303.841 213.239C301.784 215.944 304.249 219.066 303.914 221.868C303.908 221.918 303.898 221.967 303.891 222.017C301.079 222.133 283.743 222.238 282.803 221.397C282.906 220.333 284.016 219.571 284.698 218.729L284.363 218.362C282.721 218.188 280.973 217.839 279.423 218.558C279.322 219.464 280.489 220.313 280.937 221.19C280.468 221.826 280.158 221.869 279.379 221.996C277.922 222.233 274.79 222.402 273.618 221.53C273.868 219.934 275.892 218.674 276.594 217.175C278.182 213.784 278.402 209.174 280.806 206.244ZM296.503 213.223C295.725 214.628 295.839 217.723 296.252 219.268C296.361 219.678 296.527 220 296.826 220.303C297.286 220.427 297.655 220.563 298.13 220.423C298.901 219.998 299.146 219.892 299.409 219.025C300.019 217.013 300.028 215.251 299.059 213.382C298.135 212.848 297.546 213.101 296.503 213.223Z"/>
	<path fill="#A1BA26" d="M500.887 204.617Q521.216 203.083 541.567 204.286C564.605 205.455 583.156 207.706 604.964 215.906C607.428 216.833 614.472 219.008 616.291 220.558C616.375 220.63 616.478 220.769 616.542 220.847L616.654 220.952C618.996 223.094 622.271 223.373 624.757 225.203L624.637 225.482C622.662 224.84 620.778 223.75 618.837 222.982C617.112 222.3 614.996 221.875 613.394 221.038L612.911 221.737C609.203 219.931 604.332 219.049 600.315 217.905C566.606 208.305 531.33 207.065 496.522 207.211C493.862 207.726 490.794 207.5 488.059 207.588Q480.345 207.846 472.637 208.253Q464.753 208.718 456.882 209.365C452.964 209.701 448.987 210.358 445.057 210.019Q462.291 207.567 479.63 206.031C486.659 205.402 493.827 204.671 500.887 204.617Z"/>
	<path fill="#A1BA26" d="M8.57996 233.961C11.815 234.689 17.404 238.056 20.7181 239.478C28.7447 242.923 37.4458 245.87 45.9605 247.844C52.645 249.394 59.4402 250.243 66.2321 251.162C100.655 255.824 135.059 254.833 169.582 252.042Q184.339 250.945 199.056 249.397C210.108 248.132 221.251 246.912 232.251 245.27C239.612 244.171 246.994 242.865 254.346 241.662C256.933 241.239 259.706 240.172 262.313 240.463C261.111 241.243 259.409 241.48 258.026 241.825Q231.469 247.915 204.545 252.089Q177.621 256.263 150.467 258.499C130.572 260.034 110.349 260.959 90.4171 259.372C75.2506 258.165 59.3996 255.245 44.8272 250.919C38.7365 249.111 10.9224 238.284 8.57996 233.961Z"/>
	<path fill="#829C2D" d="M521.693 58.656C518.967 50.4103 519.224 39.0504 523.18 31.1967C527.772 22.0803 538.588 14.9961 548.032 11.9067C553.973 9.96322 560.045 9.22763 566.22 8.51511C568.589 8.24172 571.15 8.14355 573.463 7.62547C574.033 9.93138 567.498 34.1223 566.215 37.7397C564.812 41.6959 563.183 45.538 561.004 49.1367C554.718 59.5169 543.652 64.8194 532.215 67.6029C530.881 67.9274 528.3 68.635 527.096 67.8423C526.834 67.6694 526.612 67.1274 526.556 66.8166C526.203 64.873 527.484 62.4725 525.843 60.9354C526.429 53.4893 528.912 47.839 533.016 41.6807C534.285 39.7762 535.811 37.8435 536.759 35.7694L536.867 35.5267C532.062 40.4713 528.416 46.6827 525.66 52.9768C524.92 54.6667 524.537 56.6606 523.689 58.2593C523.361 58.8776 523.268 58.9984 522.606 59.2122L521.693 58.656Z"/>
	<path fill="#FEF9F8" d="M521.693 58.656C521.911 58.4618 522.408 58.141 522.45 57.8643C522.804 55.5333 523.996 53.2895 525.011 51.1773C529.251 42.3525 535.022 33.9966 543.02 28.2006C545.155 26.6534 548.173 25.1382 549.925 23.2186C549.857 23.5546 549.816 24.0842 549.686 24.3898C549.408 25.0426 542.363 31.3132 541.312 32.5249C538.421 35.86 535.774 39.5981 533.524 43.3982C530.401 48.6749 528.289 55.2299 527.117 61.1992C526.644 61.1663 526.285 61.1102 525.843 60.9354C526.429 53.4893 528.912 47.839 533.016 41.6807C534.285 39.7762 535.811 37.8435 536.759 35.7694L536.867 35.5267C532.062 40.4713 528.416 46.6827 525.66 52.9768C524.92 54.6667 524.537 56.6606 523.689 58.2593C523.361 58.8776 523.268 58.9984 522.606 59.2122L521.693 58.656Z"/>
	<path fill="#829C2D" d="M539.355 72.6612C542.941 71.9014 546.315 70.2292 549.851 69.2337C560.253 66.3057 571.895 67.4303 581.331 72.7374C593.522 79.5944 602.038 92.9415 605.74 106.213C607.408 112.192 610.692 129.641 607.972 134.467C606.846 133.013 604.318 132.05 602.697 131.196C589.325 124.151 582.249 123.577 568.014 119.992C549.967 115.447 543.138 104.853 536.758 88.5385C535.426 85.132 534.362 80.7744 532.477 77.7223C532.437 77.6574 532.396 77.5934 532.355 77.529C537.258 77.5277 553.585 78.8491 557.475 80.7614C562.506 81.3864 573.228 86.9359 576.423 90.7744C576.582 90.9655 576.652 91.1378 576.747 91.3643C575.855 88.345 572.116 85.6416 569.525 84.1054C561.81 76.1476 549.834 74.3476 539.355 72.6612Z"/>
	<path fill="#FEF9F8" d="M557.475 80.7614C562.506 81.3864 573.228 86.9359 576.423 90.7744C576.582 90.9655 576.652 91.1378 576.747 91.3643C575.855 88.345 572.116 85.6416 569.525 84.1054L569.229 83.1827L569.583 83.0381C572.051 83.89 577.294 88.9913 579.123 90.9268C581.425 93.3625 584.887 96.9402 584.778 100.497C584.716 100.241 584.64 99.982 584.529 99.7422C584.003 98.6103 582.572 97.3808 581.7 96.4816C574.763 89.3327 566.008 84.2256 556.663 80.9312L557.475 80.7614Z"/>
	<path fill="#398BAB" d="M23.2013 120.744C23.7728 119.18 24.3306 117.571 25.0697 116.078C26.5154 113.156 28.5331 110.599 30.3547 107.913C33.1428 103.802 38.7778 94.1681 43.4513 92.5972C49.4233 90.5899 92.2088 89.7405 96.746 92.0989C103.072 95.387 109.238 106.161 111.412 112.761C114.591 110.898 118.018 108.226 121.359 106.822L121.667 107.233C121.654 109.18 109.165 128.444 106.988 131.934C106.555 133.13 105.709 134.747 106.079 136.009C106.578 136.892 107.606 137.068 108.509 137.361C107.804 137.392 107.048 137.476 106.346 137.447C104.573 137.442 103.234 137.569 101.66 138.489L101.056 138.343C98.7972 137.738 97.4106 138.809 95.5184 139.901C94.1579 140.687 93.3423 142.083 92.2583 142.677L92.133 143.514C91.6005 142.911 90.2358 142.882 89.4164 142.57C89.3229 141.61 90.6386 141.007 90.911 139.934C90.3999 139.347 90.1162 139.331 89.387 139.135C88.4436 139.594 89.1266 140.529 88.5624 141.426L87.7776 141.596C86.8411 141.306 86.7835 141.142 86.2567 140.367C85.2133 140.22 84.7045 140.54 83.7331 140.916L83.3053 140.612C83.6877 139.736 84.2018 139.516 84.9707 138.967L84.4411 138.54C86.4516 138.32 88.6262 137.497 90.5886 136.958C88.6562 136.859 86.6482 137.021 84.7515 136.605C81.2974 136.63 75.3457 137.371 72.6406 134.946C74.8149 132.795 78.606 130.354 81.5068 129.427C75.0253 117.981 69.2302 104.841 59.3742 95.9226C60.4945 97.8342 62.1122 99.5681 63.4284 101.366Q67.3004 106.574 70.423 112.264C69.1595 114.152 67.7049 115.881 66.4802 117.798C62.0954 124.66 58.1423 131.817 53.6429 138.598C49.1717 136.624 45.078 133.466 40.8536 130.991C34.9741 127.545 28.8409 124.603 23.2013 120.744Z"/>
	<path fill="#FEF9F8" d="M104.545 135.5C105.293 134.232 106.011 133.046 106.988 131.934C106.555 133.13 105.709 134.747 106.079 136.009C106.578 136.892 107.606 137.068 108.509 137.361C107.804 137.392 107.048 137.476 106.346 137.447C101.518 136.318 93.019 138.044 89.9437 137.041C88.1763 136.464 86.5802 136.533 84.7515 136.605C81.2974 136.63 75.3457 137.371 72.6406 134.946C75.6823 135.562 79.2712 135.199 82.3782 135.193C89.7286 135.178 97.2128 134.935 104.545 135.5Z"/>
	<path fill="#4B9CBF" d="M84.7515 136.605C86.5802 136.533 88.1763 136.464 89.9437 137.041C93.019 138.044 101.518 136.318 106.346 137.447C104.573 137.442 103.234 137.569 101.66 138.489L101.056 138.343C98.7972 137.738 97.4106 138.809 95.5184 139.901C94.1579 140.687 93.3423 142.083 92.2583 142.677L92.133 143.514C91.6005 142.911 90.2358 142.882 89.4164 142.57C89.3229 141.61 90.6386 141.007 90.911 139.934C90.3999 139.347 90.1162 139.331 89.387 139.135C88.4436 139.594 89.1266 140.529 88.5624 141.426L87.7776 141.596C86.8411 141.306 86.7835 141.142 86.2567 140.367C85.2133 140.22 84.7045 140.54 83.7331 140.916L83.3053 140.612C83.6877 139.736 84.2018 139.516 84.9707 138.967L84.4411 138.54C86.4516 138.32 88.6262 137.497 90.5886 136.958C88.6562 136.859 86.6482 137.021 84.7515 136.605Z"/>
	<path fill="#A1BA26" d="M232.185 77.623C248.065 78.2622 264.119 77.6929 280.015 77.5932C279.509 84.4129 279.693 91.4252 279.857 98.2577C277.73 98.2807 275.581 98.1507 273.454 98.0908C274.318 103.497 273.776 109.739 273.784 115.246L273.539 153.914C275.609 153.733 277.732 153.761 279.811 153.703Q279.863 163.8 279.718 173.896C278.037 174.866 237.89 174.136 232.136 174.414C231.937 167.517 231.994 160.604 231.902 153.703L238.383 153.803Q238.228 137.124 238.295 120.444C238.307 113.041 238.157 105.596 238.426 98.198C236.303 98.3429 234.145 98.3217 232.016 98.3735C231.964 93.5909 231.226 81.5402 232.185 77.623Z"/>
	<path fill="#398BAB" d="M2.74546 131.733C14.0347 130.897 25.4262 131.81 36.711 130.998C37.7224 133.46 39.2381 135.871 40.5144 138.212C44.8002 146.073 49.943 153.971 53.2416 162.281C49.8967 160.463 46.6346 158.606 43.4523 156.513C42.1702 159.136 32.4661 175.595 30.9411 176.643C30.6657 176.833 30.5413 176.9 30.4191 177.227C32.8042 178.357 52.783 177.705 56.9314 177.73C57.0563 175.949 57.1718 174.158 57.3804 172.384Q57.4993 171.427 57.6648 170.476Q57.8303 169.525 58.0422 168.584Q58.254 167.643 58.5117 166.713Q58.7693 165.783 59.0721 164.867Q59.375 163.951 59.7222 163.051Q60.0695 162.151 60.4604 161.269Q60.8513 160.387 61.2849 159.525Q61.7184 158.663 62.1936 157.823Q62.6689 156.984 63.1846 156.168Q63.7003 155.353 64.2553 154.564Q64.8103 153.775 65.4033 153.014Q65.9962 152.253 66.6257 151.522Q67.2551 150.791 67.9196 150.091Q68.584 149.392 69.2819 148.726Q69.9798 148.06 70.7094 147.429Q71.4391 146.798 72.1987 146.203C72.2204 146.171 72.2398 146.137 72.264 146.107C74.0863 143.833 81.7925 138.916 84.4411 138.54L84.9707 138.967C84.2018 139.516 83.6877 139.736 83.3053 140.612L83.7331 140.916C84.7045 140.54 85.2133 140.22 86.2567 140.367C86.7835 141.142 86.8411 141.306 87.7776 141.596L88.5624 141.426C89.1266 140.529 88.4436 139.594 89.387 139.135C90.1162 139.331 90.3999 139.347 90.911 139.934C90.6386 141.007 89.3229 141.61 89.4164 142.57C90.2358 142.882 91.6005 142.911 92.133 143.514C95.3661 145.812 97.931 146.671 101.034 149.611C100.296 150.879 99.5665 152.114 98.6878 153.291C100.539 155.016 103.546 157.495 103.664 160.234C103.685 160.708 103.494 161.137 103.287 161.553L102.677 162.045C101.989 161.896 101.38 161.711 100.724 161.458C100.415 162.455 100.312 162.755 99.3462 163.269C98.2467 163.855 97.0745 164.346 95.9411 164.865C94.2528 167.398 92.5442 169.686 92.1388 172.785L92.1313 173.264C92.8855 173.448 92.7165 173.242 93.3222 173.18C93.8816 173.122 96.5418 175.073 96.8339 175.576C96.9458 175.769 96.8589 175.861 96.8037 176.065C94.8375 176.942 92.2543 175.024 90.3234 174.95C90.6687 174.572 90.7984 174.347 90.9099 173.845L89.9408 173.018L90.5038 172.802C90.5119 172.124 90.486 171.749 90.0806 171.192C88.6708 170.69 86.6518 171.326 85.1818 171.572L84.7359 172.029C84.294 173.424 84.5875 174.982 84.7216 176.416C83.8729 175.865 82.8226 175.322 82.0905 174.636C80.2227 172.886 79.2465 170.483 76.6192 169.804C74.4396 166.92 73.8869 165.027 73.658 161.447C70.9786 159.229 69.6554 156.509 67.5259 153.867C61.3991 161.637 57.7383 171.706 58.9114 181.657C60.1607 192.254 65.304 202.57 73.7787 209.211Q75.3294 210.412 76.9363 211.536C76.6515 212.18 76.621 212.516 75.9148 212.809C73.3966 213.852 66.9898 212.853 63.8253 213.375C58.9972 213.94 41.3212 213.634 36.5996 213.014C34.2158 212.701 31.8442 212.128 29.6546 211.116C28.0032 210.352 26.4754 209.345 25.3513 207.891C21.6178 203.063 19.1519 196.557 16.2326 191.174C12.299 183.922 7.58571 177.542 4.73505 169.71C8.35904 172.786 11.5107 174.964 16.0599 176.488C11.3192 172.666 5.51864 171.676 3.52547 165.074C0.684791 155.665 8.63466 146.89 12.8079 139.19C9.25504 137.288 5.78145 134.376 2.74546 131.733ZM83.7331 140.916C82.8602 141.997 81.3902 141.517 80.6012 142.738L80.9523 143.819C81.0382 144.924 81.8495 146.188 82.6673 146.939C82.8386 147.096 82.9982 147.137 83.2143 147.205C83.7455 146.501 85.0695 146.024 85.8676 145.62C86.4542 146.956 87.2133 147.96 88.6101 148.513C89.1627 148.731 89.3556 148.813 89.9433 148.636L90.233 148.289L90.9209 147.744L91.3955 148.777C90.6411 150.682 85.1091 152.218 86.3864 154.773C87.1683 156.338 89.3753 156.347 90.5579 157.306C91.0633 157.716 91.6283 158.775 92.033 159.33L92.4703 159.31C92.8133 158.642 92.8693 158.197 92.8827 157.454C92.7468 155.88 92.6148 154.394 92.8363 152.818C94.2169 152.555 94.6891 152.731 95.8639 153.529C98.248 155.149 99.8142 156.466 101.834 158.531C100.712 160.028 98.0636 159.185 96.7071 160.453C97.1665 161.273 98.0544 160.819 98.2694 161.788C95.9426 164.721 93.3925 165.995 91.9157 169.66C91.5073 170.673 91.8834 171.769 92.1388 172.785C92.5442 169.686 94.2528 167.398 95.9411 164.865C97.0745 164.346 98.2467 163.855 99.3462 163.269C100.312 162.755 100.415 162.455 100.724 161.458C101.38 161.711 101.989 161.896 102.677 162.045L103.287 161.553C103.494 161.137 103.685 160.708 103.664 160.234C103.546 157.495 100.539 155.016 98.6878 153.291C99.5665 152.114 100.296 150.879 101.034 149.611C97.931 146.671 95.3661 145.812 92.133 143.514C91.6005 142.911 90.2358 142.882 89.4164 142.57C89.3229 141.61 90.6386 141.007 90.911 139.934C90.3999 139.347 90.1162 139.331 89.387 139.135C88.4436 139.594 89.1266 140.529 88.5624 141.426L87.7776 141.596C86.8411 141.306 86.7835 141.142 86.2567 140.367C85.2133 140.22 84.7045 140.54 83.7331 140.916Z"/>
	<path fill="#4B9CBF" d="M84.4411 138.54L84.9707 138.967C84.2018 139.516 83.6877 139.736 83.3053 140.612L83.7331 140.916C82.8602 141.997 81.3902 141.517 80.6012 142.738L80.9523 143.819C81.0382 144.924 81.8495 146.188 82.6673 146.939C82.8386 147.096 82.9982 147.137 83.2143 147.205C84.0091 147.508 85.1576 147.127 85.9965 146.977L86.3978 147.458C86.3417 147.592 86.2997 147.711 86.2098 147.83C85.6353 148.588 83.2081 149.37 82.3056 149.394C80.4311 149.445 74.4802 148.415 73.2121 147.122C72.8937 146.798 72.5377 146.506 72.1987 146.203C72.2204 146.171 72.2398 146.137 72.264 146.107C74.0863 143.833 81.7925 138.916 84.4411 138.54Z"/>
	<path fill="#E5E9EA" d="M83.7331 140.916C84.7045 140.54 85.2133 140.22 86.2567 140.367C86.7835 141.142 86.8411 141.306 87.7776 141.596L88.5624 141.426C89.1266 140.529 88.4436 139.594 89.387 139.135C90.1162 139.331 90.3999 139.347 90.911 139.934C90.6386 141.007 89.3229 141.61 89.4164 142.57C90.2358 142.882 91.6005 142.911 92.133 143.514C95.3661 145.812 97.931 146.671 101.034 149.611C100.296 150.879 99.5665 152.114 98.6878 153.291C100.539 155.016 103.546 157.495 103.664 160.234C103.685 160.708 103.494 161.137 103.287 161.553L102.677 162.045C101.989 161.896 101.38 161.711 100.724 161.458C100.415 162.455 100.312 162.755 99.3462 163.269C98.2467 163.855 97.0745 164.346 95.9411 164.865C94.2528 167.398 92.5442 169.686 92.1388 172.785C91.8834 171.769 91.5073 170.673 91.9157 169.66C93.3925 165.995 95.9426 164.721 98.2694 161.788C98.0544 160.819 97.1665 161.273 96.7071 160.453C98.0636 159.185 100.712 160.028 101.834 158.531C99.8142 156.466 98.248 155.149 95.8639 153.529C94.6891 152.731 94.2169 152.555 92.8363 152.818C92.6148 154.394 92.7468 155.88 92.8827 157.454C92.8693 158.197 92.8133 158.642 92.4703 159.31L92.033 159.33C91.6283 158.775 91.0633 157.716 90.5579 157.306C89.3753 156.347 87.1683 156.338 86.3864 154.773C85.1091 152.218 90.6411 150.682 91.3955 148.777L90.9209 147.744L90.233 148.289L89.9433 148.636C89.3556 148.813 89.1627 148.731 88.6101 148.513C87.2133 147.96 86.4542 146.956 85.8676 145.62C85.0695 146.024 83.7455 146.501 83.2143 147.205C82.9982 147.137 82.8386 147.096 82.6673 146.939C81.8495 146.188 81.0382 144.924 80.9523 143.819L80.6012 142.738C81.3902 141.517 82.8602 141.997 83.7331 140.916ZM92.8827 157.454C92.7468 155.88 92.6148 154.394 92.8363 152.818C91.4669 152.857 89.4702 152.656 88.2568 153.314L87.5481 154.247C87.6307 154.847 87.5669 155.018 88.0804 155.4C89.3482 156.341 91.3908 156.441 92.8827 157.454Z"/>
	<path fill="#FEF9F8" d="M80.9523 143.819C82.5441 143.81 84.6 143.546 86.0852 144.154C86.1961 144.677 86.166 145.017 86.0301 145.531L85.8676 145.62C85.0695 146.024 83.7455 146.501 83.2143 147.205C82.9982 147.137 82.8386 147.096 82.6673 146.939C81.8495 146.188 81.0382 144.924 80.9523 143.819Z"/>
	<path fill="#4B9CBF" d="M90.233 148.289L90.0272 147.535Q89.2525 147.209 88.4883 146.858C88.2886 146.289 88.1618 145.924 88.3484 145.331C88.4193 145.106 88.7961 144.991 89.0047 144.881C93.0168 144.898 95.393 148.064 98.7163 149.111C99.0774 149.225 99.261 149.31 99.5449 149.556C98.6981 149.828 97.6529 149.983 97.0959 150.675L98.1756 151.979L98.0782 152.309C97.3026 152.385 96.6945 152.14 95.9862 151.855C93.947 151.033 95.4078 149.982 94.6928 148.317C93.8431 147.657 92.9649 147.551 91.9389 147.387C91.3818 147.298 91.3623 147.422 90.9209 147.744L90.233 148.289Z"/>
	<path fill="#FEF9F8" d="M127.841 150.734L128.289 150.522L128.796 151.034C128.643 152.42 127.44 152.783 127.322 154.11C128.205 154.785 129.184 154.477 129.934 155.068L129.902 156.189L130.419 156.518Q131.399 156.223 132.367 155.894C133.012 156.266 133.025 156.304 133.301 156.998C130.526 157.906 126.043 157.482 124.442 160.711C124.306 160.985 124.221 161.278 124.148 161.574C124.346 162.049 124.531 162.536 124.766 162.994C123.826 163.584 123.094 163.461 122.03 163.214Q121.74 163.147 121.452 163.073C122.202 162.742 122.597 162.674 123.059 161.982C122.862 160.487 121.393 159.862 120.868 158.471C120.622 157.817 120.699 157.097 121.013 156.481C121.531 155.467 123.052 153.707 124.15 153.372C124.596 153.236 124.719 153.415 125.098 153.636C125.501 154.326 125.353 156.015 125.499 156.898C126.078 157.442 126.273 157.393 127.034 157.452L127.448 157.033C127.37 155.711 126.251 154.262 125.588 153.133L127.841 150.734Z"/>
	<path fill="#4B9CBF" d="M76.6192 169.804C79.2465 170.483 80.2227 172.886 82.0905 174.636C82.8226 175.322 83.8729 175.865 84.7216 176.416C84.5875 174.982 84.294 173.424 84.7359 172.029L85.1818 171.572C86.6518 171.326 88.6708 170.69 90.0806 171.192C90.486 171.749 90.5119 172.124 90.5038 172.802L89.9408 173.018L90.9099 173.845C90.7984 174.347 90.6687 174.572 90.3234 174.95C90.3306 176.429 90.8104 178.822 91.6642 180.033C92.0513 180.035 92.2024 180.012 92.5212 179.788L93.2995 179.994L93.4536 180.708L93.1117 181.155L92.8076 180.931L92.2186 180.619C91.7335 180.746 91.1089 180.935 90.6116 180.815C89.7761 180.613 89.0332 179.394 88.2162 178.946C82.3416 175.728 80.6431 175.807 76.6192 169.804ZM85.1818 171.572C85.3924 173.058 85.5046 174.51 85.5651 176.008C86.9943 174.958 88.4029 173.906 89.9408 173.018L90.5038 172.802C90.5119 172.124 90.486 171.749 90.0806 171.192C88.6708 170.69 86.6518 171.326 85.1818 171.572Z"/>
	<path fill="#FEF9F8" d="M133.301 156.998C134.157 157.247 135.368 157.448 136.082 157.964L136.607 158.882C136.716 160.683 137.231 162.981 135.998 164.464L136.49 166.183C136.679 166.604 136.836 166.791 137.18 167.1C137.969 167.807 138.368 168.905 138.74 169.874C136.147 170.055 135.095 168.705 132.714 170.218C130.308 169.715 130.282 168.627 128.716 167.116C126.666 166.416 123.439 167.957 121.42 168.644L121.35 167.069Q121.239 166.626 121.15 166.178C120.955 165.181 120.857 163.952 121.452 163.073Q121.74 163.147 122.03 163.214C123.094 163.461 123.826 163.584 124.766 162.994C124.531 162.536 124.346 162.049 124.148 161.574C124.221 161.278 124.306 160.985 124.442 160.711C126.043 157.482 130.526 157.906 133.301 156.998Z"/>
	<path fill="#4B9CBF" d="M124.766 162.994C125.432 163.414 125.86 163.601 126.664 163.675C125.759 164.935 124.613 166.705 122.956 166.982C122.433 167.07 121.88 167.067 121.35 167.069Q121.239 166.626 121.15 166.178C120.955 165.181 120.857 163.952 121.452 163.073Q121.74 163.147 122.03 163.214C123.094 163.461 123.826 163.584 124.766 162.994Z"/>
	<path fill="#398BAB" d="M133.301 156.998C134.157 157.247 135.368 157.448 136.082 157.964L136.607 158.882C136.716 160.683 137.231 162.981 135.998 164.464C135.243 165.109 134.771 165.829 133.747 165.75C133.069 165.037 132.725 164.153 132.098 163.425C131.614 162.864 131.053 162.425 130.324 162.345L130.105 162.754L131.453 164.715L131.267 164.942C130.292 164.625 129.881 163.949 129.06 163.442C128.34 162.997 127.397 163.469 126.664 163.675C125.86 163.601 125.432 163.414 124.766 162.994C124.531 162.536 124.346 162.049 124.148 161.574C124.221 161.278 124.306 160.985 124.442 160.711C126.043 157.482 130.526 157.906 133.301 156.998Z"/>
	<path fill="#398BAB" d="M108.509 137.361C110.317 137.569 112.194 137.952 113.951 138.43L113.251 138.696C113.431 139.25 113.444 139.19 113.948 139.448C115.402 140.189 120.332 141.935 120.7 143.464C120.775 143.779 120.773 144.139 120.786 144.463C120.046 144.1 119.695 143.753 118.878 143.944C118.039 145.138 117.138 146.823 116.095 147.806C114.59 149.224 112.147 149.442 110.463 150.58C109.097 151.503 108.364 153.424 106.831 154.09C105.847 154.057 105.115 153.604 104.27 153.147C101.681 151.592 102.661 147.306 100.269 145.104C98.6173 143.584 94.495 142.598 92.2583 142.677C93.3423 142.083 94.1579 140.687 95.5184 139.901C97.4106 138.809 98.7972 137.738 101.056 138.343L101.66 138.489C103.234 137.569 104.573 137.442 106.346 137.447C107.048 137.476 107.804 137.392 108.509 137.361Z"/>
	<path fill="#FEF9F8" d="M92.2583 142.677C93.3423 142.083 94.1579 140.687 95.5184 139.901C97.4106 138.809 98.7972 137.738 101.056 138.343C99.7689 139.141 97.2322 140.795 96.5463 142.103C96.8668 142.622 97.0452 143.149 97.7173 143.268C99.6172 143.602 100.276 142.429 101.836 144.366C102.528 145.225 103.143 146.162 103.763 147.072C103.67 148.94 103.533 151.149 104.609 152.782L104.27 153.147C101.681 151.592 102.661 147.306 100.269 145.104C98.6173 143.584 94.495 142.598 92.2583 142.677Z"/>
	<path fill="#398BAB" d="M92.5212 179.788C95.0718 179.008 97.5566 178.685 100.032 180.009C102.361 181.255 103.785 184.309 104.696 184.844C106.579 185.947 109.602 185.275 110.573 187.747C109.869 190.088 108.74 192.183 108.208 194.582C107.601 194.945 106.919 195.335 106.42 195.839C105.313 196.956 104.55 198.58 103.601 199.847C101.281 202.944 98.4275 205.496 96.8846 209.115C96.8855 210.285 97.5736 211.769 97.107 212.745C96.0618 212.546 95.0434 211.302 94.237 210.58C94.1163 204.772 95.5944 199.281 95.6272 193.507C93.2681 191.554 92.4248 189.19 91.3062 186.415C91.6933 184.523 92.1262 182.74 92.8076 180.931L93.1117 181.155L93.4536 180.708L93.2995 179.994L92.5212 179.788Z"/>
	<path fill="#398BAB" d="M121.42 168.644C123.439 167.957 126.666 166.416 128.716 167.116C130.282 168.627 130.308 169.715 132.714 170.218C135.095 168.705 136.147 170.055 138.74 169.874L140.082 169.478C142.017 181.997 140.328 192.872 132.672 203.299Q132.55 203.465 132.425 203.629L130.988 202.593C131.294 202.094 131.728 201.463 131.839 200.885C132.21 198.962 129.397 194.315 130.392 189.003C128.859 186.825 127.814 184.862 126.864 182.376C125.142 182.47 123.078 183.012 121.403 182.546C119.562 182.034 118.776 180.228 117.886 178.704C117.733 176.978 117.808 175.261 117.859 173.532C119.164 171.955 120.405 170.428 121.42 168.644Z"/>
	<path fill="#A1BA26" d="M283.959 77.5282C290.681 78.1287 297.8 77.779 304.564 77.7429Q320.408 77.6335 336.251 77.7413C336.402 77.971 336.547 78.2214 336.621 78.488C337.19 80.5506 337.095 96.6425 336.269 98.1919C332.611 98.6786 328.519 98.2317 324.834 98.0918C324.922 98.2555 325.006 98.4154 325.079 98.5865C325.603 99.8155 325.852 152.389 325.257 153.87C328.66 153.718 332.194 153.616 335.581 154.006C335.981 151.855 336.236 143.822 335.162 142.078L360.57 142.121C360.74 142.423 360.908 142.751 360.991 143.089C361.448 144.966 361.598 153.627 360.533 155.233C360.715 155.53 360.838 155.783 360.924 156.122C361.458 158.25 361.394 172.981 360.653 174.281C346.998 173.781 333.161 174.246 319.487 174.289C307.669 174.325 295.735 173.887 283.933 174.366L283.971 153.76L289.644 153.789C289.675 153.729 289.709 153.669 289.738 153.608C290.002 153.051 290.079 152.397 290.1 151.788C290.273 146.581 290.415 100.071 289.816 98.2031C287.891 98.3432 285.924 98.3116 283.993 98.3578Q284.048 87.9429 283.959 77.5282Z"/>
	<path fill="#A1BA26" d="M189.512 76.7198C200.54 76.5005 216.053 78.7797 225.241 85.0173C225.91 92.3338 225.341 99.9898 225.402 107.347C217.002 107.743 208.531 107.11 200.11 107.414C199.827 106.076 199.579 104.567 198.656 103.5C197.354 101.995 195.198 101.274 193.269 101.133C191.213 100.982 188.492 101.288 186.902 102.697C186.31 103.222 185.899 103.888 185.889 104.699C185.865 106.534 187.711 107.969 189.124 108.802C193.845 111.587 204.149 113.697 210.036 116.232C214.415 118.118 218.68 120.58 222.101 123.94C227.78 129.518 229.63 136.564 229.653 144.361C229.674 151.967 227.298 159.41 221.875 164.86C211.801 174.984 196.942 175.307 183.604 175.293Q179.188 175.233 174.793 174.803Q170.398 174.373 166.054 173.577Q161.71 172.781 157.448 171.625Q153.186 170.468 149.036 168.959C148.236 161.376 148.884 151.702 148.752 143.827C152.578 143.546 156.566 143.742 160.409 143.725C165.832 143.702 171.313 143.517 176.726 143.835C176.923 145.752 176.992 147.366 178.38 148.85C179.852 150.422 181.904 150.996 184.005 151.024C186.134 151.052 188.532 150.583 190.084 149.012C190.833 148.254 191.405 147.172 191.365 146.083C191.303 144.39 189.978 143.228 188.605 142.447C186.315 141.144 183.545 140.496 181.059 139.631C172.095 136.511 162.564 133.518 155.538 126.796C150.09 121.584 147.69 114.613 147.544 107.185C147.397 99.6969 148.853 92.7619 154.176 87.2349C163.285 77.7762 177.195 76.95 189.512 76.7198Z"/>
	<path fill="#A1BA26" d="M363.843 78.0256C365.801 77.3695 416.3 77.5257 422.525 77.7962C430.818 78.1565 440.034 80.307 445.822 86.6855C451.314 92.7383 452.481 101.674 452.06 109.537C451.662 116.99 449.673 124.026 443.942 129.134C434.416 137.624 417.455 136.668 405.392 135.977C405.532 136.283 405.656 136.599 405.73 136.928C406.218 139.117 406.573 145.934 405.436 147.744C405.514 147.865 405.55 147.914 405.621 148.052C406.34 149.448 406.157 152.465 405.643 153.918C409.488 153.609 413.444 153.753 417.305 153.733C417.489 154 417.646 154.288 417.712 154.608C418.251 157.211 418.343 172.612 417.304 174.38C410.507 173.917 403.489 174.233 396.671 174.242Q380.316 174.183 363.962 174.409C364.115 174.168 364.251 173.914 364.325 173.637C364.798 171.855 364.629 155.133 363.831 153.793Q366.969 153.723 370.105 153.867C370.192 153.708 370.274 153.55 370.344 153.382C370.562 152.861 370.715 104.455 370.572 99.8969C370.552 99.2463 370.402 98.669 370.158 98.0674C368.099 98.3196 365.978 98.1615 363.907 98.0952C364.117 97.7381 364.262 97.3947 364.328 96.9828C364.7 94.677 364.717 79.2335 363.843 78.0256ZM405.246 98.2254C406.097 99.8828 406.399 115.976 405.689 117.976C405.603 118.217 405.492 118.423 405.373 118.647C405.335 118.719 405.301 118.794 405.263 118.866C405.24 118.909 405.213 118.951 405.188 118.993C407.559 118.898 412.39 119.254 414.057 117.408C414.227 117.219 414.383 117.03 414.484 116.796C415.505 116.109 415.785 115.399 416.015 114.207C416.729 110.505 417.448 104.056 415.183 100.804C414.128 99.2894 412.376 98.4205 410.58 98.1467C408.903 97.891 406.933 98.0455 405.246 98.2254Z"/>
	<path fill="#A1BA26" d="M482.145 77.7013L510.486 77.6972C515.448 77.6809 520.841 77.1973 525.757 77.8249C526.003 78.0962 526.219 78.3892 526.373 78.722C527.389 80.9116 527.855 83.7769 528.482 86.1294L532.362 100.448C537.102 117.753 542.185 135.047 546.618 152.426C546.764 152.997 546.8 153.323 546.592 153.892C548.259 153.851 549.898 153.873 551.562 153.965C551.731 154.212 551.876 154.482 551.931 154.779C552.348 157.063 552.383 172.934 551.52 174.275C535.192 174.28 518.695 173.754 502.387 174.402C503.175 171.789 503.088 156.082 502.056 153.823L506.357 153.849C507.521 153.856 508.692 153.935 509.856 153.983C509.999 151.655 508.965 146.291 507.902 144.17C502.47 143.866 497.012 144.32 491.566 144C491.675 144.295 491.763 144.599 491.787 144.915C491.917 146.579 490.917 152.739 489.879 153.984Q493.522 153.794 497.169 153.703C497.369 153.996 497.504 154.288 497.589 154.635C498.078 156.62 497.994 172.992 497.142 174.422C492.343 173.99 487.312 174.287 482.477 174.288L454.063 174.351C454.156 174.202 454.243 174.048 454.301 173.882C454.957 172.015 454.733 155.663 453.922 153.926C455.75 153.857 457.527 153.792 459.349 154C459.754 153.585 459.915 153.163 460.073 152.621C461.365 148.174 462.298 143.585 463.522 139.109L476.571 91.6243C477.758 87.3413 478.376 82.5099 480.218 78.4615C480.932 77.8831 481.266 77.8498 482.145 77.7013ZM499.011 110.28C498.412 113.774 496.017 129.122 494.154 131.079C496.151 130.94 498.167 130.739 500.169 130.737C501.785 130.784 503.433 130.766 505.037 130.981C505.397 129.79 502.21 112.998 501.229 111.151C500.543 110.574 499.954 110.219 499.011 110.28Z"/>
	<path fill="#398BAB" d="M507.521 219.747Q526.263 219.011 544.977 220.263C554.275 220.852 563.627 221.545 572.846 222.943C597.419 226.668 622.608 234.786 643.873 247.775C647.74 250.138 660.589 258.206 661.587 262.347C661.367 262.033 661.132 261.735 660.854 261.47C656.491 257.292 640.371 249.982 634.339 247.624C580.304 226.494 515.429 231.309 458.9 237.909C447.401 239.252 435.846 240.465 424.386 242.106Q392.139 247.002 360.021 252.679L280.615 266.247C240.243 273.202 199.52 279.963 158.527 281.623Q141.008 282.59 123.471 282.01C86.7271 280.84 46.2135 273.52 15.5552 251.994C11.1474 248.899 6.29801 245.492 2.61006 241.558C7.68979 244.497 12.7094 247.674 17.9469 250.32C36.2067 259.544 56.664 265.313 76.9005 268.028C115.509 273.208 151.199 269.806 189.51 265.167Q204.553 263.495 219.543 261.395C255.715 256.102 291.665 249.102 327.639 242.649C387.31 231.945 446.856 222.33 507.521 219.747Z"/>
</svg>
