<?xml version="1.0" encoding="utf-8" ?>
<svg xmlns="http://www.w3.org/2000/svg" xmlns:xlink="http://www.w3.org/1999/xlink" width="1920" height="851">
	<path fill="#FEFEFE" d="M0 0L1918.36 0C1919.33 1.49027 1919.75 2.70567 1919.86 4.49745C1920.55 16.2226 1920 28.2373 1920 40.0015L1920.01 108.858L1920.02 319.555L1920 712.598L1920 810.925C1920 820.86 1921.5 839.593 1919.64 848.266C1919.43 849.266 1918.94 850.171 1918.36 851L0 851L0 0Z"/>
	<path fill="#1C2930" d="M1267.98 536.557C1268.89 536.442 1270.08 536.207 1270.99 536.404C1273.16 536.874 1273.76 537.566 1274.95 539.256C1274.15 541.544 1273.43 541.724 1271.45 542.975C1270.47 543.447 1269.72 543.138 1268.67 542.992C1267.26 540.854 1267.69 538.947 1267.98 536.557Z"/>
	<path fill="#1C2930" d="M1376.78 536.558C1377.69 536.456 1378.75 536.295 1379.66 536.444C1381.73 536.784 1382.49 537.781 1383.7 539.299C1382.98 541.675 1382.23 541.766 1380.19 542.999L1378.66 543.546L1377.06 542.616C1376.12 540.451 1376.44 538.798 1376.78 536.558Z"/>
	<path fill="#1C2930" d="M926.4 607.781C926.708 607.791 927.079 607.79 927.39 607.844C929.763 608.253 931.042 609.189 932.383 611.07C931.964 613.631 931.297 614.146 929.597 615.995C927.636 615.831 927.466 615.634 925.941 614.355C925.13 611.753 925.596 610.286 926.4 607.781Z"/>
	<path fill="#1C2930" d="M633.901 534.808C635.54 535.709 636.929 537.019 638.355 538.221C638.934 541.172 638.134 542.161 636.985 544.885C634.75 544.336 633.753 543.725 632.243 541.989C631.989 538.689 632.566 537.757 633.901 534.808Z"/>
	<path fill="#1C2930" d="M822.762 535.015C824.61 535.766 825.827 536.651 827.293 537.995C827.86 541.219 827.119 542.297 825.941 545.292C824.063 544.269 822.66 543.193 821.101 541.757C820.629 538.77 821.517 537.719 822.762 535.015Z"/>
	<path fill="#1C2930" d="M693.764 606.764C695.928 607.685 697.179 608.51 698.861 610.191C699.232 613.269 698.56 614.323 697.397 617.142C695.481 616.252 694.203 615.256 692.664 613.848C692.128 610.756 692.736 609.674 693.764 606.764Z"/>
	<path fill="#1C2930" d="M723.339 604.017C723.434 604.055 723.535 604.083 723.626 604.131C725.762 605.236 726.304 605.493 726.977 607.847C725.762 611.612 722.001 614.372 719.18 617.004C718.35 617.258 717.488 617.103 716.629 617.05L716.346 615.138C717.897 610.979 720.718 607.548 723.339 604.017Z"/>
	<path fill="#1C2930" d="M691.921 622.045C694.109 622.501 695.636 622.911 697.48 624.285C701.866 630.68 698.915 640.651 697.996 647.92C699.448 649.873 701.82 652.301 701.803 654.787C699.841 656.533 697.246 656.41 694.736 656.639C694.58 656.551 694.416 656.478 694.27 656.376C687.902 651.93 695.012 640.496 694.206 633.7C693.688 629.332 689.797 627.321 689.36 623.849L691.921 622.045Z"/>
	<path fill="#1C2930" d="M1263.75 551.555C1266.12 550.876 1267.9 550.713 1270.35 550.884C1279.61 556.33 1272.03 567.882 1273.92 576.02C1274.34 577.858 1276.57 580.516 1277.69 582.067L1277.08 583.104L1273.16 583.986C1271.04 584.209 1269.35 584.134 1267.25 583.784C1265.07 580.048 1269.35 569.906 1269.33 564.889C1269.29 559.195 1267.8 555.494 1263.75 551.555Z"/>
	<path fill="#1C2930" d="M1372.61 551.556C1375.79 551.081 1378.71 550.47 1381.85 551.406C1386.08 557.339 1381.35 569.256 1382.86 576.097C1383.38 578.456 1385.61 580.09 1386.25 582.589L1383.01 583.956C1380.04 583.955 1378.09 584.472 1375.63 582.739C1374.26 577.246 1377.93 570.197 1378.14 564.422C1378.34 558.8 1376.36 555.537 1372.61 551.556Z"/>
	<path fill="#1C2930" d="M629.803 550.14C632.369 550.337 634.742 550.322 636.857 551.957C641.984 555.922 637.311 569.577 638.155 575.375C638.566 578.191 641.567 579.851 641.765 582.034C641.859 583.07 640.896 583.724 640.237 584.482C637.313 584.456 634.761 584.413 631.965 583.48C628.628 578.031 633.719 569.306 633.823 563.191C633.909 558.12 628.99 554.616 629.803 550.14Z"/>
	<path fill="#1C2930" d="M921.25 623.714C924.254 623.174 928.631 622.393 931.438 623.765C933.281 631.983 930.698 640.983 932.267 649.279C932.707 651.61 935.162 651.866 935.187 654.774L932.109 655.978L927.01 655.924C920.601 651.581 927.687 638.297 926.242 631.315C926.207 631.149 926.168 630.985 926.134 630.819C925.429 627.428 923.833 625.936 921.25 623.714Z"/>
	<path fill="#1C2930" d="M816.629 551.071C820.067 550.621 822.969 550.164 826.008 552.107C831.4 558.429 825.915 568.001 827.231 575.399C827.855 578.905 830.461 580.254 830.427 584.077C827.674 584.32 825.153 584.647 822.457 583.86C817.575 578.198 822.796 568.581 822.03 561.533L821.968 561.005C821.484 556.713 819.303 554.248 816.629 551.071Z"/>
	<path fill="#1C2930" d="M1067.86 609.661C1070.52 609.095 1072.82 608.832 1075.54 608.948C1076.71 609.74 1077.63 610.119 1078.25 611.424C1082.36 620.17 1076.59 631.56 1078.42 641.001C1079.21 645.089 1082.19 651.705 1080.8 655.484L1077.25 656.017C1074.97 656.082 1072.56 656.409 1070.57 655.099C1070 654.727 1070.11 654.071 1070.01 653.438Q1070.64 652.78 1071.25 652.103C1075.41 647.486 1074.56 632.661 1074.21 626.412C1073.8 619.02 1073.59 614.802 1067.86 609.661Z"/>
	<path fill="#1C2930" d="M1025.43 537.493C1028.51 536.873 1032.92 536.23 1035.79 537.65C1036.85 539.899 1036.96 542.133 1037.01 544.578C1037.19 552.017 1035.34 559.587 1035.84 566.984C1036.19 572.334 1038.54 577.447 1038.82 582.775L1036.17 583.961C1033.25 584.274 1030.47 584.364 1028.04 582.755C1029.97 574.525 1031.68 567.093 1031.77 558.569C1031.86 550.234 1031.51 543.715 1025.43 537.493Z"/>
	<path fill="#1C2930" d="M538.417 537.02C541.797 536.812 545.541 536.201 548.71 537.609C552.314 545.416 547.669 558.341 548.676 566.991C549.159 571.141 552.517 581.033 552.005 584.064C548.526 584.138 544.282 584.705 541.038 583.324C541.575 579.37 543.179 575.728 543.661 571.788C544.802 562.46 543.869 552.326 543.648 542.93L538.417 537.02Z"/>
	<path fill="#1C2930" d="M1245.77 537.497Q1247.19 537.243 1248.61 537.038C1251.66 536.616 1252.84 536.723 1255.31 538.6C1259.91 547.675 1255.61 561.035 1255.91 571.058C1256.07 576.345 1256.47 577.83 1260.24 581.461C1259.42 583.005 1258.01 583.264 1256.46 583.953C1253.66 584.027 1250.71 584.378 1248.06 583.328C1249.71 576.398 1251.01 569.538 1251.35 562.406C1251.76 553.495 1252.02 544.379 1245.77 537.497Z"/>
	<path fill="#1C2930" d="M512.371 622.304C515.825 622.484 518.364 624.592 521.282 624.867C523.086 625.036 526.116 623.445 527.973 623.075C530.589 622.554 532.461 623.223 534.564 624.657L534.496 626.801C529.576 633.189 527.586 626.902 522.219 629.62C518.849 633.592 519.788 640.886 519.953 645.803C520.737 648.157 521.294 650.273 521.556 652.747C520.418 655.27 520.415 655.323 517.91 656.486C515.107 656.377 513.405 655.702 510.943 654.418C510.769 652.384 513.458 650.535 513.912 647.936C514.922 642.147 514.282 635.348 514.247 629.444C512.724 627.678 511.143 626.148 510.59 623.822L512.371 622.304Z"/>
	<path fill="#1C2930" d="M983.917 550.613C985.322 550.483 986.965 550.216 988.318 550.695C990.002 551.292 990.132 551.882 990.908 553.367C989.67 561.101 981.788 554.489 977.78 559.4C973.101 565.133 978.567 573.194 978.647 579.425C978.675 581.612 978.215 582.211 976.78 583.744C973.441 584.724 970.342 584.003 967 583.429C967.995 581.032 969.588 578.704 970.774 576.366C971.219 571.541 972.75 560.342 969.829 556.37Q968.393 554.401 966.882 552.488C968.477 548.651 976.327 553.254 979.617 552.752C980.739 552.58 982.815 551.161 983.917 550.613Z"/>
	<path fill="#1C2930" d="M576.536 614.285C579.8 616.814 578.487 618.492 580.36 621.698C580.703 622.286 587.189 623.451 588.382 623.729L589.365 625.368C587.308 628.058 582.462 627.031 579.427 630.587C578.047 635.179 578.943 646.06 580.733 650.531C583.663 652.477 587.64 651.668 591.165 651.712C590.084 653.541 589.005 655.208 586.922 656.03C584.294 657.066 580.208 657.027 577.681 655.69C569.892 651.571 576.507 637.683 574.259 631.252C573.689 629.622 571.739 628.343 571.243 626.518C570.688 624.48 575.368 616.639 576.536 614.285Z"/>
	<path fill="#1C2930" d="M1017.11 615.279C1018.8 615.232 1019.79 615.39 1021.29 616.2L1021.97 621.774C1024.82 623.973 1027.72 621.847 1030.8 623.805L1030.91 626.211C1028.12 628.246 1024.06 626.636 1021.93 628.861C1020.79 635.328 1020.47 642.665 1021.79 649.115C1024.25 651.697 1027.2 651.522 1030.63 651.838C1030.94 652.779 1030.93 653.536 1030.95 654.513C1029.43 656.034 1028.22 656.902 1026.08 657.212C1023.1 657.645 1020.97 656.662 1018.67 654.866C1014.13 647.773 1017.6 640.833 1016.57 633.299C1016.21 630.668 1013.38 628.778 1013.01 626.027C1013.01 625.987 1012.91 625.209 1012.94 625.075C1013.7 621.525 1017.08 619.661 1017.12 615.793C1017.12 615.622 1017.11 615.451 1017.11 615.279Z"/>
	<path fill="#1C2930" d="M879.501 543.06L882.235 543.158C884.288 545.048 883.887 545.97 884.096 548.683C886.645 551.807 890.431 549.913 893.612 552.343L893.436 554.027C890.778 556.016 887.852 555.21 884.639 555.95C884.479 556.295 884.229 556.786 884.117 557.173C882.775 561.778 882.771 574.041 884.896 578.257C886.935 579.979 890.425 579.471 892.982 579.433L894.028 580.591C893.951 581.668 893.59 582.207 893.089 583.132C892.028 583.783 890.865 584.499 889.631 584.748C887.007 585.276 884.29 584.587 882.104 583.089C874.654 577.984 879.646 564.036 878.212 556.357C876.88 555.5 875.551 554.865 874.093 554.25C876.901 550.975 879.826 548.306 879.545 543.692L879.501 543.06Z"/>
	<path fill="#1C2930" d="M607.562 550.207C611.383 549.968 616.047 550.235 619.565 551.852C621.854 552.904 623.541 554.162 624.404 556.5C619.967 559.303 612.256 554.638 606.954 555.174C604.947 556.266 604.136 556.704 603.197 558.858C601.48 562.796 601.882 572.061 603.598 575.975C604.394 577.791 605.732 579.178 607.616 579.871C610.229 580.832 613.273 580.239 615.716 579.135C617.623 577.857 619.139 576.655 621.54 576.645L622.741 577.922C622.68 578.32 622.662 578.493 622.547 578.91C621.886 581.287 619.469 583.135 617.364 584.22C614.248 585.826 610.802 586.179 607.476 584.981Q606.673 584.69 605.902 584.32Q605.132 583.951 604.402 583.507Q603.672 583.063 602.989 582.55Q602.307 582.036 601.678 581.457Q601.05 580.878 600.482 580.24Q599.914 579.602 599.412 578.911Q598.91 578.219 598.479 577.482Q598.048 576.745 597.692 575.968C595.448 571.182 595.542 565.311 597.414 560.421C599.511 554.945 602.295 552.525 607.562 550.207Z"/>
	<path fill="#1C2930" d="M667.547 622.307Q669.557 622.202 671.569 622.203C675.351 622.22 681.231 623.139 683.953 626.016C685.287 627.426 685.23 627.967 685.161 629.786C681.875 630.765 677.05 628.528 673.576 627.883C670.818 627.371 667.885 627.066 665.473 628.775C663.819 629.946 663.028 631.469 662.734 633.462C662.156 637.379 663.042 646.943 665.63 649.956C667.886 652.582 671.861 652.345 674.992 652.365C676.116 651.598 677.263 650.762 678.47 650.132C680.413 649.119 681.145 649.012 683.129 649.655L683.269 651.344C682.319 652.826 681.393 653.863 679.866 654.764C676.167 656.947 672.065 657.583 667.895 656.457C664.003 655.406 660.67 653.242 658.752 649.619C656.093 644.597 656.398 638.294 658.135 633.032C659.966 627.482 662.361 624.86 667.547 622.307Z"/>
	<path fill="#1C2930" d="M635.691 622.377C637.269 622.271 638.855 622.187 640.437 622.22C644.545 622.307 651.434 624.059 654.337 627.04C654.156 627.908 654.099 629.534 653.322 630.05C651.675 631.143 642.225 627.159 639.498 626.996C637.572 626.88 635.45 627.35 634.039 628.739C631.638 631.103 631.24 635.199 631.304 638.373C631.382 642.198 631.297 647.572 634.244 650.308C636.774 652.656 640.623 652.299 643.811 652.19C644.914 651.351 646.069 650.398 647.295 649.75C649.001 648.848 650.131 648.64 651.944 649.29L651.964 651.162C650.717 653.037 649.477 654.316 647.535 655.477C644.343 657.385 640.55 657.983 636.962 656.955C632.879 655.785 629.2 652.804 627.184 649.076C624.7 644.482 624.568 638.865 626.037 633.929C627.789 628.04 630.354 625.267 635.691 622.377Z"/>
	<path fill="#1C2930" d="M1083.26 550.617C1087.54 549.974 1093.79 549.615 1097.5 552.19C1099.17 553.347 1099.93 553.915 1100.3 555.97C1096.13 558.16 1088.44 555.281 1083.35 556.414L1082.81 557.379C1087.54 565.05 1099.06 566.213 1102.53 575.584C1102.46 576.967 1102.62 578.181 1101.84 579.371C1099.87 582.367 1095.7 583.436 1092.4 584.051C1092 584.207 1091.91 584.252 1091.45 584.378C1088.79 585.11 1083.68 584.669 1081.33 583.157C1079.33 581.868 1077.78 580.582 1077.31 578.255L1078.61 577.328C1082 576.764 1084.71 579.71 1087.88 580.349C1089.65 580.704 1092.39 580.043 1093.87 578.996C1095.68 577.713 1095.75 577.043 1096.16 575.004C1093.8 568.11 1082.86 569.094 1078.36 563.71C1077.35 562.5 1076.85 559.88 1077.07 558.354C1077.59 554.714 1080.48 552.623 1083.26 550.617Z"/>
	<path fill="#1C2930" d="M761.181 550.255C765.096 550.166 768.483 550.179 772.21 551.576C774.756 552.531 776.426 553.343 777.571 555.808L776.815 557.312C772.747 558.338 769.023 555.081 764.921 554.583C762.495 554.289 761.587 555.332 759.888 556.792C760.142 563.079 774.79 567.058 778.205 573.058C778.82 574.139 779.364 575.841 778.953 577.067C777.487 581.442 773.35 582.996 769.459 584.835C765.474 584.954 760.682 584.683 757.12 582.733C755.126 581.642 754.386 580.593 753.818 578.472C757.472 576.925 763.99 580.2 768.188 579.63C770.476 579.32 771.018 578.736 772.374 576.988C772.355 568.834 757.421 568.284 753.589 561.412C752.873 560.128 752.629 558.917 753.031 557.519C754.07 553.913 758.089 551.862 761.181 550.255Z"/>
	<path fill="#1C2930" d="M1427.14 550.619C1432.5 550.382 1447.27 548.276 1451.22 551.487C1451.3 552.338 1451.53 553.239 1451.23 554.049C1447.92 563.034 1435.15 576.106 1426.44 580.046C1433.12 579.698 1442.03 576.743 1448.36 577.998C1450.59 578.44 1451.15 578.722 1452.37 580.628L1451.59 582.293C1449.54 583.912 1447.89 584.002 1445.41 584.181C1439.65 584.679 1432.72 585.111 1427.05 584.084C1424.93 583.699 1424.62 583.291 1423.51 581.622C1424.17 572.308 1439.68 564.941 1443.55 556.31C1441.39 551.887 1428.73 558.993 1424.3 556.602C1423.48 554.192 1423.49 553.903 1424.18 551.451L1427.14 550.619Z"/>
	<path fill="#1C2930" d="M974.673 622.779C977.766 622.566 979.956 623.911 982.845 624.007C988.172 624.182 993.508 622.747 998.885 623.351C1000.94 623.581 1002.76 624.371 1004.01 626.036C1007.48 630.689 1005.1 641.741 1004.21 647.149C1005.75 648.737 1007.5 650.314 1008.39 652.372C1008.95 653.668 1008.62 653.857 1008.1 655.088Q1007.7 655.331 1007.27 655.534Q1006.84 655.737 1006.4 655.897Q1005.96 656.058 1005.5 656.175Q1005.04 656.292 1004.58 656.364Q1004.11 656.436 1003.64 656.462Q1003.17 656.489 1002.7 656.47Q1002.22 656.45 1001.76 656.386Q1001.29 656.321 1000.83 656.211C998.799 655.722 998.099 655.41 997.037 653.624C999.26 650.661 1000.54 647.904 1000.74 644.148C1000.93 640.374 1000.69 635.033 998.067 632.153L998.258 630.157C997.78 629.316 997.272 627.921 996.423 627.472C994.133 626.259 991.664 626.153 989.202 626.961C986.454 627.864 983.971 630.036 982.713 632.644C978.775 640.806 983.423 646.988 985.855 654.402L984.865 655.602C982.088 656.68 979.458 656.354 976.551 656.158C972.31 651.692 978.738 638.81 977.357 632.282C976.77 629.507 974.529 627.266 973.376 624.675L974.673 622.779Z"/>
	<path fill="#1C2930" d="M836.323 549.822C836.894 549.904 837.395 550.016 837.944 550.197C846.468 553.02 859.406 549.467 863.93 552.485C871.334 557.427 866.213 566.831 867.298 573.799C867.808 577.07 870.49 579.678 871.163 583.057C868.771 584.665 867.904 584.772 865.133 584.991C862.665 583.88 862.255 583.624 860.796 581.183C860.503 578.765 860.825 577.223 861.654 574.929C863.094 570.944 863.807 567.609 861.953 563.661C862.741 561.326 862.647 560.87 862.093 558.446C861.187 557.15 860.341 556.145 858.869 555.526C855.745 554.212 851.891 554.466 848.829 555.856C838.007 560.772 849.429 576.187 846.317 583.248C846.03 583.898 844.717 584.14 844.049 584.389C841.458 583.989 839.819 584.056 837.733 582.422C836.196 575.463 839.987 569.615 839.805 562.914C839.683 558.426 836.437 554.614 836.323 549.822Z"/>
	<path fill="#1C2930" d="M681.491 549.897C682.086 549.962 682.609 550.057 683.184 550.229C691.831 552.81 701.068 549.074 708.995 551.91C714.016 557.532 716.421 575.753 716.275 582.99C714.523 585.038 714.442 585.152 711.806 585.66C710.117 584.988 709.254 584.787 708.106 583.312C704.857 579.139 708.164 566.917 708.861 561.876C708.392 560.443 707.909 558.757 706.984 557.549C705.393 555.469 702.027 554.434 699.502 554.245C697.358 554.085 695.463 554.575 693.816 556.035C686.703 562.338 692.871 572.835 692.245 580.431C692.074 582.509 691.707 582.718 690.202 584.038C687.423 584.213 684.935 584.559 682.361 583.281C680.979 579.797 684.104 579.933 685.1 577.347C686.66 573.292 685.633 563.391 685.689 558.687C683.394 555.485 681.918 553.928 681.491 549.897Z"/>
	<path fill="#1C2930" d="M581.428 550.117C582.914 550.138 584.422 550.149 585.901 550.305C588.357 550.566 590.697 550.491 592.24 552.462C581.54 567.828 592.875 578.28 590.856 584.189C588.455 584.955 587.125 584.298 584.788 583.431C580.415 581.808 575.01 583.658 570.416 583.959C567.968 584.12 565.188 583.937 563.346 582.092C558.37 577.105 559.451 565.479 559.295 558.793C559.219 557.134 556.383 553.595 555.555 551.789C558.69 550.108 564.822 550.931 568.41 550.952C566.781 557.865 562.534 569.692 566.108 576.21C567.175 578.158 568.569 579.488 570.788 579.997C573.315 580.577 577.627 580.209 579.859 578.785C587.943 573.628 579.191 558.89 581.211 550.933C581.28 550.66 581.355 550.389 581.428 550.117Z"/>
	<path fill="#1C2930" d="M742.499 621.931C745.632 622.301 748.368 624.051 751.424 624.473C755.088 624.979 758.98 622.316 762.662 622.036C765.498 621.821 768.716 623.484 770.776 625.348C777.157 631.122 773.369 641.383 774.583 648.889C775.035 651.687 777.707 651.497 777.88 654.788C777.786 654.869 777.696 654.954 777.598 655.029C775.095 656.935 770.175 656.142 767.226 655.693C765.159 652.865 769.71 639.172 769.707 634.238C769.071 632.193 767.376 628.865 765.49 627.702C763.524 626.49 759.275 626.568 757.054 627.015C744.208 629.598 756.324 648.494 751.245 656.016C750.398 656.352 749.435 656.725 748.51 656.728C746.708 656.735 744.702 656.339 743.452 655.089C743.094 649.19 746.271 643.378 746.097 637.587C745.937 632.274 742.401 627.623 742.499 621.931Z"/>
	<path fill="#1C2930" d="M1527.31 550.619C1530.43 550.373 1533.82 550.071 1536.33 552.044C1535.77 554.135 1534.17 556.5 1533.84 558.48C1532.84 564.433 1541.38 571.139 1540.12 578.799C1543.61 574.716 1546.16 569.704 1548.05 564.686C1549.99 559.51 1549.73 557.888 1547.37 552.806L1547.99 551.36C1548.74 551.015 1549.51 550.714 1550.32 550.572C1552.63 550.168 1556.5 550.387 1558.48 551.715C1560.13 556.814 1550.55 568.732 1548.34 574.071C1548.5 574.555 1548.49 574.453 1548.57 575.066C1549.25 580.294 1543.46 589.198 1540.4 593.248C1537.68 596.842 1535.09 598.035 1530.62 598.519C1528.15 598.787 1526.5 598.432 1524.63 596.872L1524.8 594.575C1527.29 592.653 1531.27 593.254 1534.48 592.731C1536.41 591.131 1537.21 590.235 1537.61 587.7C1539.1 578.196 1531.23 565.067 1526.15 557.435C1524.79 555.401 1523.37 553.69 1523.85 551.278L1527.31 550.619Z"/>
	<path fill="#1C2930" d="M479.147 536.207Q481.104 536.112 483.064 536.082C489.729 535.993 495.126 538.253 499.943 542.948C495.454 544.332 488.131 541.917 483.204 541.821C480.206 541.762 477.999 542.257 475.777 544.366C471.754 556.393 495.758 554.9 501.577 568.834C502.372 570.737 502.42 572.73 501.607 574.638C499.523 579.529 493.947 582.854 489.301 584.797C486.343 584.743 483.273 584.748 480.348 584.282C476.067 583.599 472.977 582.06 470.461 578.502C473.057 575.932 484.869 579.309 489.208 578.519C492.093 577.993 493.176 576.726 494.775 574.402C496.925 559.23 473.613 562.542 468.54 550.097C467.865 548.442 467.875 546.461 468.609 544.85C470.363 540.996 475.358 537.627 479.147 536.207Z"/>
	<path fill="#1C2930" d="M731.319 550.202C734.56 550.125 737.803 550.056 740.825 551.4C744.392 552.986 748.832 556.417 750.142 560.25C751.048 562.899 750.335 564.955 749.117 567.299C747.986 569.476 733.568 567.76 730.075 568.971C728.324 569.578 726.807 570.92 726.056 572.622C725.3 574.337 725.679 574.689 726.369 576.311C728.171 577.667 729.938 578.567 732.091 579.267C736.649 580.75 738.962 579.894 743.143 577.798C743.859 576.948 744.998 576.716 746.017 576.363L747.382 577.455C747.314 577.916 747.294 578.118 747.172 578.601C746.613 580.827 744.706 582.76 742.72 583.841C739.259 585.726 734.79 585.615 731.113 584.463C727.03 583.185 723.738 580.389 721.883 576.526C719.423 571.4 719.493 565.197 721.539 559.948C723.58 554.712 726.274 552.437 731.319 550.202Z"/>
	<path fill="#FEFEFE" d="M732.125 554.021C734.778 554.316 737.115 554.638 739.387 556.136C741.52 557.542 743.616 559.134 744.118 561.767C742.834 564.246 742.061 564.103 739.517 564.929C736.818 564.977 733.053 565.127 730.457 564.385C728.292 563.766 727.846 563.142 726.862 561.234C727.314 558.072 729.931 556.109 732.125 554.021Z"/>
	<path fill="#1C2930" d="M906.417 550.612C909.254 550.218 911.99 549.956 914.823 550.531C918.673 551.313 922.811 553.648 924.957 557.019C927.168 560.492 926.813 564.047 926.012 567.892C922.577 569.717 914.661 567.994 910.425 568.259C907.718 568.428 905.939 569.092 904.15 571.18C903.691 573.391 903.223 574.867 904.778 576.834C906.17 578.595 908.577 579.789 910.761 580.173C913.405 580.638 915.009 579.943 917.056 578.4C919.753 577.17 920.796 576.407 923.791 576.712L924.487 578.37C923.772 579.806 922.984 580.747 921.679 581.661C917.981 584.253 913.38 585.579 908.892 584.715C905.161 583.996 901.731 581.959 899.592 578.782C896.551 574.266 896.392 568.387 897.529 563.228C898.843 557.268 901.337 553.866 906.417 550.612Z"/>
	<path fill="#FEFEFE" d="M908.104 554.357C909.47 554.284 910.914 554.2 912.267 554.444C914.788 554.897 918.379 557.008 919.76 559.164C920.821 560.821 920.674 561.105 920.316 562.923C917.789 564.682 916.38 564.511 913.354 564.759C911.574 564.804 909.655 564.932 907.897 564.641C905.649 564.269 905.013 564.067 903.658 562.23C904.351 558.557 905.78 557.191 908.104 554.357Z"/>
	<path fill="#1C2930" d="M602.869 622.279C605.629 622.235 608.618 622.102 611.326 622.676C615.483 623.557 618.039 625.601 620.306 629.161C621.874 631.622 622.867 633.757 622.242 636.704C617.337 642.721 608.308 640.017 601.512 641.847C599.478 642.395 598.779 642.862 597.738 644.644C597.899 645.268 598.093 645.84 598.362 646.429C599.25 648.378 602.31 651.479 604.428 652.04C607.273 652.793 609.872 652.331 612.432 651.005C613.579 650.276 614.733 649.493 616.04 649.082C617.69 648.562 617.806 648.578 619.344 649.374L619.304 651.271C618.114 652.965 616.951 654.152 615.168 655.222C611.741 657.276 607.797 658.154 603.891 657.081C599.846 655.97 596.324 652.721 594.384 649.066C591.865 644.319 591.722 638.518 593.33 633.457C595.171 627.661 597.568 625.109 602.869 622.279Z"/>
	<path fill="#FEFEFE" d="M603.696 626.212C604.692 626.228 605.665 626.316 606.65 626.467C610.506 627.06 613.876 629.22 616.114 632.401C616.956 633.598 616.717 633.749 616.471 635.094L614.112 636.436C610.507 636.587 605.507 637.245 602.056 636.167C600.124 635.564 599.984 635.193 599.085 633.484C599.386 630.424 601.733 628.391 603.696 626.212Z"/>
	<path fill="#1C2930" d="M1399.91 550.619C1402.65 550.256 1405.53 550.188 1408.26 550.584C1412.02 551.128 1414.73 552.994 1417 555.972C1419.27 558.955 1420.6 561.358 1420.05 565.107C1414.73 571.879 1402.85 566.476 1396.23 571.063C1395.57 571.52 1395.63 572.63 1395.51 573.403C1396.37 575.25 1397.49 576.72 1398.99 578.101C1400.82 579.792 1402.99 580.481 1405.47 580.364C1407.59 580.263 1408.04 580.163 1409.44 578.577C1410.14 578.144 1410.86 577.722 1411.61 577.388C1413.55 576.537 1414.49 576.369 1416.43 577.111L1416.75 578.832C1415.73 580.89 1414.66 582.115 1412.66 583.283C1409.22 585.299 1405.19 585.637 1401.39 584.566C1397.45 583.457 1393.99 581.087 1392.01 577.453C1389.31 572.518 1389.36 566.482 1390.91 561.192C1392.5 555.764 1395 553.234 1399.91 550.619Z"/>
	<path fill="#FEFEFE" d="M1399.35 555.304C1400.69 555.002 1402.07 554.69 1403.45 554.611C1406.27 554.45 1409.52 555.878 1411.56 557.773C1413.27 559.352 1413.42 559.95 1413.54 562.203C1411.54 564.059 1410.65 564.044 1408.05 564.473C1407.82 564.498 1407.58 564.527 1407.35 564.549C1404.66 564.81 1399.48 565.184 1397.38 563.437C1396.65 559.909 1397.65 558.323 1399.35 555.304Z"/>
	<path fill="#1C2930" d="M1053.33 550.617C1056.87 550.197 1060.19 549.887 1063.62 551.065C1067.08 552.251 1070.47 554.426 1071.98 557.882C1073.51 561.385 1073.13 565.448 1071.75 568.909C1066.91 568.436 1061.92 567.844 1057.04 568.216C1054.21 568.432 1051.95 569.024 1050.02 571.21C1049.75 573.473 1049.68 574.249 1051.07 576.16C1052.49 578.116 1055.54 579.927 1057.94 580.275C1060.58 580.659 1062.28 579.7 1064.29 578.174C1066.84 577.18 1067.9 576.455 1070.63 576.946L1070.95 578.64C1070.03 580.22 1069.08 581.39 1067.6 582.475C1064.69 584.605 1060.74 586.434 1057.05 585.731C1052.94 584.949 1048.63 581.658 1046.35 578.228C1043.44 573.863 1042.82 568.44 1043.97 563.394C1045.35 557.331 1048.14 553.864 1053.33 550.617Z"/>
	<path fill="#FEFEFE" d="M1054.94 554.367C1058.78 554.108 1061.61 554.893 1064.6 557.37C1066.57 559 1067.23 560.113 1067.45 562.616C1065.41 564.636 1064.27 564.353 1061.48 564.688C1059.19 564.979 1055.03 565.141 1052.96 564.197C1051.12 563.354 1051.12 562.891 1050.46 561.103C1050.86 558.166 1052.97 556.404 1054.94 554.367Z"/>
	<path fill="#1C2930" d="M947.649 622.78C952.704 622.085 958.444 621.64 962.729 624.957C965.949 627.449 969.583 632.204 970.074 636.311C966.839 645.459 950.491 637.129 944.412 642.863C944.386 644.161 944.225 644.805 944.906 645.952C946.15 648.045 949.222 651.904 951.737 652.311C954.297 652.724 956.489 652.28 958.603 650.91C961.069 649.575 962.753 648.711 965.632 648.774L966.601 649.917C966.265 650.893 965.84 651.811 965.088 652.543C962.212 655.343 957.193 657.393 953.162 657.142C949.121 656.891 944.834 655.164 942.204 652.008C939.026 648.195 938.616 642.903 939.165 638.167C939.969 631.227 942.19 627.077 947.649 622.78Z"/>
	<path fill="#FEFEFE" d="M949.515 626.53C950.155 626.476 950.793 626.428 951.435 626.417Q952.09 626.408 952.742 626.464Q953.394 626.521 954.037 626.643Q954.68 626.765 955.308 626.951Q955.936 627.137 956.542 627.385Q957.147 627.633 957.725 627.94Q958.303 628.248 958.847 628.612Q959.391 628.976 959.895 629.393Q960.4 629.81 960.86 630.276C962.466 631.89 962.62 632.43 962.634 634.649C960.245 636.528 958.995 636.276 956.015 636.507C954.622 636.561 953.22 636.616 951.827 636.587C949.122 636.53 947.642 636.312 945.781 634.357C945.471 631.157 947.697 628.931 949.515 626.53Z"/>
	<path fill="#1C2930" d="M1188.34 550.618C1192.02 550.104 1196.52 549.906 1199.92 551.623C1204.01 553.691 1208.44 558.282 1209.91 562.639C1209.82 563.446 1209.89 564.41 1209.38 565.052C1205.83 569.469 1196.46 568.893 1191.12 569.527C1188.4 569.851 1185.54 570.308 1183.75 572.581C1184.34 575.354 1186.03 577.108 1188.41 578.73C1190.33 580.037 1193.49 580.905 1195.78 580.34C1197.82 579.835 1197.85 579.509 1198.87 577.794C1199.09 577.667 1199.31 577.537 1199.53 577.415C1201.56 576.298 1203.31 575.972 1205.47 576.661L1205.97 578.14C1204.99 580.32 1203.61 581.516 1201.63 582.786C1198.34 584.895 1194.3 585.748 1190.47 584.837C1186.42 583.875 1182.78 581.305 1180.68 577.697C1177.98 573.055 1177.82 567.334 1179.19 562.243C1180.73 556.483 1183.21 553.512 1188.34 550.618Z"/>
	<path fill="#FEFEFE" d="M1187.64 555.304C1191.3 554.432 1194.21 554.327 1197.62 556.112C1200.16 557.444 1201.39 558.627 1202.28 561.323C1200.67 563.669 1199.86 563.644 1197.24 564.443C1194.73 564.537 1190.61 565.168 1188.28 564.374C1186.42 563.738 1186.42 563.148 1185.58 561.456C1185.78 558.994 1186.5 557.445 1187.64 555.304Z"/>
	<path fill="#1C2930" d="M807.28 622.367C809.973 622.237 812.697 622.115 815.381 622.431C833.67 624.582 820.578 642.609 827.342 650.749C828.244 651.835 829.01 653.031 829.827 654.183L829.027 655.573C820.442 655.488 808.806 657.795 801.27 654.156C799.571 651.84 797.94 648.88 797.579 645.991C796.257 635.431 816.422 637.663 821.111 631.937L820.313 629.653C815.19 625.702 806.834 628.795 800.753 628.345L800.236 627.356C801.849 624.487 804.384 623.638 807.28 622.367Z"/>
	<path fill="#FEFEFE" d="M808.754 640.29C812.094 639.916 816.199 639.048 819.151 641.068C820.48 641.978 820.324 642.624 820.641 644.13C819.642 647.594 817.382 649.736 814.96 652.268C811.887 652.338 808.704 652.481 806.194 650.405C804.245 648.792 804.163 647.858 803.895 645.488C804.842 642.707 806.379 641.801 808.754 640.29Z"/>
	<path fill="#1C2930" d="M1000.67 550.616Q1002.43 550.446 1004.19 550.349C1008.36 550.103 1013.59 550.142 1016.75 553.319C1022.36 558.958 1017.39 569.862 1019.92 576.464C1020.97 579.207 1023.26 579.962 1023.37 583.271L1021.1 584.867C1017.6 584.783 1015.84 582.198 1013.23 582.065C1005.31 581.663 1005.72 586.389 995.814 582.986C993.813 580.571 992.64 578.24 991.723 575.228C991.14 573.313 990.986 571.417 992.018 569.63C994.7 564.99 1004.36 564.729 1009.29 563.191C1011.61 562.469 1013.15 561.393 1014.32 559.206L1013.73 557.288C1008.63 553.753 1000.57 556.875 994.568 556.716L993.923 555.574C995.655 552.653 997.592 551.851 1000.67 550.616Z"/>
	<path fill="#FEFEFE" d="M1001.84 568.425C1007.12 567.707 1009.54 566.957 1013.88 570.217C1014.36 571.62 1014.88 572.291 1014.32 573.732C1013.11 576.848 1009.74 578.487 1006.83 579.679L1006.1 580.247C1003.97 580.52 1002.43 580.552 1000.58 579.259C998.562 577.85 998.207 575.93 997.863 573.68C998.838 570.869 999.658 570.348 1001.84 568.425Z"/>
	<path fill="#1C2930" d="M1464.56 550.619C1469.06 549.897 1475.41 549.754 1479.23 552.637C1487.2 558.663 1481.54 570.61 1484.49 578.222C1485.27 580.259 1487.2 579.975 1487.54 582.799L1485.12 584.748C1481.29 584.876 1479.18 582.012 1475.98 582.141C1469.57 582.398 1467.27 585.343 1460.38 583.423C1457.39 581.297 1456.17 578.381 1455.2 574.907C1454.63 572.875 1454.43 570.947 1455.65 569.093C1458.64 564.536 1468.03 564.318 1472.83 563.346C1475.35 562.838 1477.05 562.677 1478.48 560.509L1477.97 558.341C1472 553.695 1464.14 557.555 1457.72 555.153C1459.07 552.905 1462.26 551.767 1464.56 550.619Z"/>
	<path fill="#FEFEFE" d="M1472.28 567.489L1475.9 568.088C1478.02 569.767 1478.11 569.67 1478.47 572.324C1477.84 573.996 1477.11 575.195 1475.82 576.443C1472.45 579.702 1470.05 580.259 1465.44 580.139C1463.78 578.909 1462.86 577.523 1461.75 575.822C1461.59 573.905 1461.2 572.964 1462.42 571.352C1464.6 568.468 1468.97 568.058 1472.28 567.489Z"/>
	<path fill="#1C2930" d="M1042.14 622.783C1044.81 622.356 1047.43 622.179 1050.13 622.238C1068.04 622.63 1059.85 640.133 1063.54 650.389C1063.8 651.099 1065.83 652.78 1066.45 653.425L1066.4 655.075L1064.21 656.829C1060.61 656.817 1058.9 654.252 1056.14 654.097C1048.8 653.686 1047.71 657.87 1038.89 655.261C1036.74 652.808 1034.92 649.439 1034.08 646.279C1033.74 645.001 1033.69 643.216 1034.39 642.068C1037.39 637.132 1046.31 636.805 1051.6 635.302C1053.82 634.669 1055.92 633.641 1057.07 631.539C1053.12 622.794 1042.26 631.398 1036.71 627.954C1037.7 625.379 1039.94 624.23 1042.14 622.783Z"/>
	<path fill="#FEFEFE" d="M1049.36 639.654C1050.63 639.629 1052.07 639.529 1053.31 639.769C1055.55 640.197 1056.12 641.202 1057.19 642.99C1057.27 645.357 1056.51 646.858 1055.01 648.607C1052.72 651.27 1050.6 652.078 1047.17 652.353C1047.01 652.335 1046.84 652.332 1046.67 652.301C1044.09 651.802 1042.1 650.396 1040.69 648.231C1040.53 646.019 1040.48 645.07 1041.72 643.153C1043.37 640.606 1046.62 640.169 1049.36 639.654Z"/>
	<path fill="#1C2930" d="M869.357 621.826C871.359 621.735 873.8 622.243 875.405 623.506C883.799 630.113 876.416 644.59 879.627 650.287C880.753 652.285 882.294 651.418 882.566 654.389L881.107 655.947C878.906 656.202 877.188 656.294 875.028 655.708C868.611 653.968 876.778 635.5 873.064 629.535C871.786 627.482 869.925 626.582 867.607 626.104C866.623 626.522 865.47 626.787 864.796 627.628C861.865 631.285 859.287 641.199 860.906 645.856C861.946 648.85 864.06 651.164 864.464 654.395L862.836 655.69C859.784 656.143 857.37 656.22 854.334 655.644C852.589 653.247 854.268 650.521 853.912 647.508C853.892 647.342 853.866 647.178 853.843 647.012C854.277 646.497 854.698 646.02 855.043 645.44C856.507 642.98 856.869 636.824 856.165 634.068C855.472 631.352 853.6 628.274 851.026 626.969C848.874 625.879 847.656 626.239 845.521 627.032C838.396 635.01 847.595 645.581 844.243 654.215C842.569 655.811 842.219 656.3 839.84 656.643C832.593 652.275 839.21 638.478 838.115 631.27C837.668 628.329 835.083 627.053 834.097 624.232C837.125 620.453 857.179 625.271 862.77 624.502C864.887 624.211 867.452 622.762 869.357 621.826Z"/>
	<path fill="#1C2930" d="M1282.58 550.616C1286.79 549.771 1289.55 552.478 1293.41 552.19C1296.21 551.982 1298.2 549.051 1301.45 550.436C1304.08 551.551 1306.19 553.701 1309.19 553.503C1311.45 553.354 1314.16 550.474 1316.7 550.07C1319.1 549.689 1322.13 550.182 1324.07 551.706C1329.41 555.894 1327.25 567.823 1328.02 574.019C1328.28 576.114 1329.55 578.176 1329.65 580.184C1329.76 582.204 1328.97 582.785 1327.73 584.212C1325.25 584.889 1324.96 584.954 1322.55 584.11C1318.14 579.229 1322.39 569.499 1322.09 563.128C1321.93 559.787 1321.45 555.495 1318.77 553.169C1318.18 552.658 1317.04 553.029 1316.28 553.11C1310.01 557.944 1311.33 562.12 1307.88 568.424C1309.21 570.551 1309.49 571.915 1309.48 574.41C1309.47 576.918 1312.77 578.489 1312.6 581.671C1311.35 583.287 1310.96 584.098 1308.77 584.341C1306.24 584.622 1303.07 584.089 1301.1 582.526Q1303.12 577.048 1304.25 571.317C1305.07 566.916 1305.35 560.799 1302.51 556.998C1300.97 554.923 1299.48 554.654 1297.04 554.338C1284.01 558.886 1297.25 576.743 1292.27 584.452C1289.65 584.64 1288.73 584.697 1286.25 583.573C1281.51 577.507 1286.96 566.998 1286.57 559.935C1286.35 556.011 1282.67 554.961 1282.58 550.616Z"/>
	<path fill="#1C2930" d="M717.412 622.305C720.241 622.116 723.461 621.95 726.209 622.718C730.341 623.873 734.001 627.133 736.01 630.876Q736.442 631.693 736.79 632.549Q737.139 633.406 737.401 634.292Q737.662 635.179 737.835 636.087Q738.007 636.995 738.088 637.916Q738.169 638.837 738.159 639.761Q738.148 640.685 738.045 641.604Q737.943 642.523 737.75 643.427Q737.556 644.331 737.274 645.211C735.376 651.185 732.127 653.849 726.689 656.593C723.495 656.875 720.113 657.051 717.023 656.022C712.842 654.63 709.31 651.272 707.367 647.357Q706.965 646.537 706.647 645.68Q706.329 644.824 706.099 643.94Q705.869 643.057 705.728 642.154Q705.587 641.252 705.537 640.34Q705.487 639.428 705.529 638.515Q705.571 637.603 705.704 636.699Q705.836 635.796 706.059 634.91Q706.282 634.024 706.592 633.165C708.62 627.466 712.094 624.799 717.412 622.305Z"/>
	<path fill="#FEFEFE" d="M717.454 626.591C721.685 626.534 725.217 626.529 728.494 629.527C730.914 631.74 732.24 634.789 732.375 638.046C732.616 643.852 730.045 648.172 726.214 652.281C722.316 652.426 718.855 652.411 715.674 649.858Q715.218 649.487 714.803 649.071Q714.388 648.655 714.017 648.199Q713.647 647.742 713.325 647.251Q713.003 646.759 712.734 646.237Q712.464 645.715 712.249 645.168Q712.034 644.621 711.877 644.055Q711.719 643.489 711.62 642.91Q711.521 642.33 711.482 641.744C711.014 635.617 713.577 631.067 717.454 626.591Z"/>
	<path fill="#1C2930" d="M545.806 622.37C548.99 622.159 552.477 621.939 555.567 622.891C559.718 624.17 563.348 627.611 565.325 631.416C567.463 635.531 567.806 640.598 566.379 644.999C564.433 651.003 560.873 653.883 555.422 656.662C550.825 656.948 545.891 656.857 541.915 654.221C536.638 650.722 535.434 644.682 534.196 638.927Q534.708 636.578 535.36 634.263C537.156 628.052 540.341 625.449 545.806 622.37Z"/>
	<path fill="#FEFEFE" d="M547.638 626.187C551.92 626.55 555.196 626.966 558.224 630.267C560.574 632.829 561.636 636.143 561.424 639.595C561.076 645.245 558.5 648.843 554.425 652.53Q553.667 652.527 552.912 652.471L551.696 652.391C548.211 652.18 545.649 651.212 543.335 648.497C540.976 645.731 540.016 642.439 540.337 638.831C540.83 633.3 543.423 629.583 547.638 626.187Z"/>
	<path fill="#1C2930" d="M657.312 550.275C660.425 550.071 663.748 550.011 666.733 551.052C670.863 552.491 674.304 555.852 676.123 559.795C678.186 564.263 678.217 569.517 676.454 574.089C674.231 579.855 670.582 582.345 665.121 584.798C662.12 584.917 658.944 584.993 656.086 583.929C651.881 582.365 648.506 578.929 646.652 574.884Q646.277 574.056 645.985 573.194Q645.694 572.333 645.489 571.447Q645.284 570.561 645.167 569.659Q645.051 568.757 645.024 567.848Q644.997 566.939 645.06 566.032Q645.123 565.124 645.276 564.228Q645.428 563.331 645.668 562.454Q645.908 561.577 646.234 560.728C648.42 555.104 651.943 552.595 657.312 550.275Z"/>
	<path fill="#FEFEFE" d="M657.34 554.426C661.754 554.524 665.092 554.636 668.388 557.852C670.718 560.125 671.886 563.154 671.909 566.389C671.952 572.363 669.344 576.395 665.281 580.508C660.975 580.482 657.528 580.371 654.324 577.184C652.021 574.892 650.878 571.824 650.868 568.599C650.848 562.698 653.364 558.552 657.34 554.426Z"/>
	<path fill="#1C2930" d="M516.767 550.218C520.053 550.094 523.329 550.1 526.447 551.292C530.311 552.769 533.557 556.393 535.173 560.136Q535.541 560.999 535.822 561.893Q536.103 562.788 536.294 563.707Q536.485 564.625 536.584 565.558Q536.683 566.49 536.689 567.428Q536.695 568.366 536.608 569.3Q536.521 570.234 536.341 571.155Q536.162 572.075 535.892 572.974Q535.622 573.872 535.265 574.739C532.892 580.38 529.422 582.667 523.918 584.878C520.81 584.933 517.469 584.844 514.544 583.679C510.431 582.04 507.145 578.339 505.426 574.322C503.539 569.914 503.473 564.678 505.348 560.255C507.731 554.636 511.257 552.345 516.767 550.218Z"/>
	<path fill="#FEFEFE" d="M516.218 554.528C520.461 554.364 523.995 554.524 527.164 557.567C529.755 560.054 530.783 563.33 530.766 566.864C530.738 572.572 528.459 576.432 524.515 580.353C520.373 580.422 516.983 580.534 513.75 577.637C511.304 575.445 510.045 572.343 509.947 569.088C509.765 563.079 512.136 558.71 516.218 554.528Z"/>
	<path fill="#1C2930" d="M471.561 608.733Q474.313 608.539 477.069 608.403C485.635 607.993 497.839 608.48 504.39 614.708C506.564 616.775 507.744 619.301 507.721 622.311C507.583 640.877 486.391 632.735 480.35 638.586C479.793 648.294 482.049 646.294 484.131 654.198C482.316 655.763 481.129 655.984 478.739 656.192C476.585 656.379 473.29 656.169 471.602 654.696C471.251 654.389 474.664 641.93 475.122 640.049C476.908 632.719 474.777 622.326 474.105 614.765C472.244 613.091 470.737 612.208 469.955 609.802L471.561 608.733Z"/>
	<path fill="#FEFEFE" d="M481.111 613.341C485.829 613.242 490.998 613.086 495.434 614.897C497.606 615.783 499.754 617.281 500.554 619.593C501.776 623.118 499.86 627.024 498.447 630.178C492.683 632.027 486.694 632.181 480.702 632.277C480.635 626.008 480.283 619.561 481.111 613.341Z"/>
	<path fill="#1C2930" d="M884.201 608.709Q885.223 608.621 886.248 608.575C889.437 608.441 891.087 608.923 893.437 611.052C894.757 615.143 893.046 619.447 892.978 623.678C895.819 625.623 900.25 622.431 903.554 622.021Q904.136 621.948 904.723 621.934Q905.31 621.92 905.895 621.966Q906.479 622.012 907.057 622.117Q907.634 622.223 908.198 622.386Q908.761 622.549 909.306 622.768Q909.85 622.988 910.369 623.262Q910.888 623.535 911.376 623.86Q911.865 624.185 912.318 624.558C915.821 627.474 917.703 632.298 918.112 636.735C918.51 641.055 918.398 646.469 915.554 649.967L915.165 651.569C911.948 655.085 907.908 656.88 903.149 657.264Q902.489 657.32 901.826 657.308Q901.163 657.296 900.505 657.215Q899.848 657.135 899.202 656.987Q898.556 656.839 897.928 656.625Q897.301 656.411 896.699 656.134Q896.097 655.856 895.527 655.518Q894.957 655.181 894.425 654.786Q893.893 654.391 893.404 653.943C883.317 644.859 889.596 631.331 888.157 620.212C887.602 615.925 884.404 612.438 884.201 608.709Z"/>
	<path fill="#FEFEFE" d="M898.959 626.525C901.246 626.491 903.886 626.252 906.035 627.148C909.197 628.465 911.387 631.581 912.524 634.704C913.889 638.455 913.524 642.614 911.834 646.201C910.244 649.574 908.302 651.159 904.854 652.429C901.631 652.365 898.872 651.768 896.403 649.551C894.13 647.51 893.022 644.719 892.872 641.7C892.552 635.237 894.707 631.139 898.959 626.525Z"/>
	<path fill="#1C2930" d="M1350.98 550.619C1353.8 550.345 1356.88 550.036 1359.63 550.921C1363.18 552.069 1365.93 554.433 1367.58 557.789C1370.25 563.253 1370.16 570.332 1368.08 575.967C1362.68 590.595 1354.45 579.822 1345.05 584.098C1343.5 586.867 1344.19 590.653 1344.39 593.726L1347.06 595.429L1347.38 596.955C1345.82 598.179 1344.66 598.998 1342.51 598.711C1340.94 598.501 1338.91 597.333 1338.62 595.618C1337.03 586.203 1343.32 563.092 1335.95 553.739C1335.86 553.623 1335.76 553.512 1335.67 553.399L1335.97 551.645C1340.83 549.728 1345.32 553.354 1350.39 550.911C1350.58 550.816 1350.78 550.716 1350.98 550.619Z"/>
	<path fill="#FEFEFE" d="M1348.07 555.304C1350.8 554.818 1353.93 554 1356.59 555.073C1359.62 556.294 1362.05 559.214 1363.33 562.155C1364.88 565.7 1364.76 569.664 1363.3 573.217C1362.1 576.159 1360.71 577.791 1357.79 579.064C1357.52 579.257 1357.07 579.613 1356.74 579.77C1354.39 580.904 1351.15 581.113 1348.78 580.193C1347.36 578.771 1346.34 577.377 1345.7 575.453C1343.36 568.297 1344.67 561.774 1348.07 555.304Z"/>
	<path fill="#1C2930" d="M1160.5 537.497C1162.83 537.09 1166.14 536.178 1168.42 536.86C1174.03 538.534 1168.96 570.383 1171.22 576.878C1171.79 578.525 1173.77 580.866 1174.65 582.503L1173.87 584.102C1170.41 585.294 1167.93 582.841 1164.37 582.66C1158.82 582.379 1153.48 584.43 1147.65 583.984C1144.27 580.517 1141.47 576.646 1140.88 571.714C1140.25 566.545 1140.78 557.463 1144.3 553.368C1149.92 546.832 1157.28 553.322 1163.59 552.49C1165.27 552.267 1165.49 551.297 1166.31 549.975C1166.67 545.265 1163.27 540.953 1160.5 537.497Z"/>
	<path fill="#FEFEFE" d="M1150.05 555.303C1152.38 554.868 1155.24 554.127 1157.57 554.804C1160.89 555.767 1163.55 558.649 1165.06 561.654Q1165.37 562.267 1165.62 562.908Q1165.87 563.55 1166.06 564.213Q1166.24 564.877 1166.35 565.555Q1166.47 566.234 1166.51 566.921Q1166.56 567.608 1166.53 568.295Q1166.51 568.983 1166.41 569.665Q1166.32 570.347 1166.15 571.015Q1165.99 571.684 1165.76 572.332C1164.6 575.505 1163.12 577.364 1160.07 578.801C1159.87 578.962 1159.53 579.271 1159.28 579.407C1156.78 580.782 1153.24 580.925 1150.62 580.142C1149.23 578.799 1148.23 577.496 1147.66 575.629C1145.52 568.548 1146.75 561.717 1150.05 555.303Z"/>
	<path fill="#1C2930" d="M953.857 549.681C957.079 549.389 959.553 548.973 962.137 551.052L961.967 552.478C961.008 553.225 960.045 553.962 959.22 554.86C956.421 557.903 959.278 562.762 959.334 566.471C959.487 576.694 945.219 572.998 940.873 577.762C945.35 580.775 953.639 578.033 959.027 580.93C961.173 582.085 962.418 583.895 963.029 586.213C963.546 588.174 963.169 590.259 962.076 591.989C959.478 596.101 956.423 597.355 951.831 598.42C950.866 598.737 949.897 599.02 948.895 599.199C945.21 599.857 935.614 599.361 932.593 596.925C925.677 591.347 936.31 581.984 935.846 575.834C935.835 575.686 935.809 575.54 935.791 575.392C936.189 569.369 928.334 561.119 930.744 555.495C935.413 552.751 942.604 550.188 948.028 550.2C949.986 550.204 951.915 549.914 953.857 549.681Z"/>
	<path fill="#FEFEFE" d="M937.327 585.291C942.323 584.271 951.578 583.537 956.041 586.6C957.285 587.453 957.124 587.814 957.392 589.217C956.123 591.35 954.697 592.367 952.688 593.739C950.875 595.079 947.502 595.041 945.324 594.94C941.276 594.754 939.033 593.992 936.297 590.941C935.638 588.254 936.189 587.698 937.327 585.291Z"/>
	<path fill="#FEFEFE" d="M941.926 554.367C943.705 554.371 945.641 554.462 947.379 554.846C949.747 555.369 951.896 557.516 953.116 559.541C954.16 561.274 954.355 563.299 953.785 565.225C952.88 568.277 950.627 569.85 947.943 571.246C946.903 571.544 945.704 571.558 944.624 571.506C942.347 571.398 939.978 570.402 938.494 568.64C937.063 566.94 936.516 564.553 936.696 562.369C937.001 558.67 939.211 556.604 941.926 554.367Z"/>
	<path fill="#AAC461" d="M1463.75 606.853C1579.4 601.131 1701.41 614.293 1802.54 674.715C1809.92 679.123 1830.65 689.9 1832.7 698.011C1832.63 697.912 1832.56 697.81 1832.49 697.713C1829.75 694.148 1822.67 691.15 1818.75 688.855C1783.34 668.148 1724.1 644.383 1683.86 638.713C1577.56 613.919 1463.38 613.369 1354.88 619.461C1326.1 621.077 1297.49 624.913 1268.71 626.332C1281.73 622.566 1295.91 621.823 1309.35 619.981Q1358.96 613.064 1408.94 609.769C1427.2 608.536 1445.5 608.128 1463.75 606.853Z"/>
	<path fill="#AAC461" d="M72.9123 691.561C78.3887 691.535 115.95 709.045 125.994 712.627C160.964 725.098 195.696 732.96 232.466 738.016C330.72 751.523 430.605 747.306 529.122 739.073Q650.644 728.495 771.05 708.956L769.843 710.205L773.788 708.722L772.314 709.488L773.881 708.764L771.579 708.965L771.295 709.833L762.331 711.938C756.017 713.906 749.331 715.175 742.878 716.677Q683.905 730.07 624.215 739.788Q564.525 749.506 504.348 755.51C355.825 770.235 204.336 773.344 72.9123 691.561Z"/>
	<path fill="#357C50" d="M172.734 287.835C178.955 287.012 184.955 287.174 191.002 288.967C215.306 296.175 229.848 321.169 241.204 341.996L197.182 414.037L188.911 409.009C164.596 393.204 139.302 379.018 114.168 364.572C126.037 345.527 146.844 307.163 163.258 293.128C166.047 290.743 169.396 289.283 172.734 287.835Z"/>
	<path fill="#357C50" d="M127.321 395.977L149.903 395.653C166.097 422.247 179.984 450.685 194.536 478.225L168.96 464.225Q152.208 492.228 134.914 519.9C127.971 520.075 121.102 520.084 114.163 519.778C102.577 518.584 91.4662 516.434 81.0854 510.907C71.2943 505.694 62.7964 498.117 59.5514 487.152C53.126 465.438 74.6665 435.248 85.1 416.524Q72.2209 406.773 59.8379 396.399Q93.5821 396.603 127.321 395.977Z"/>
	<path fill="#357C50" d="M213.872 283.462C232.549 282.111 296.923 280.952 311.926 285.738C335.854 293.371 346.799 322.644 357.315 343.153L384.711 329.018C372.298 351.076 358.478 372.543 345.351 394.197L338.218 405.907Q294.412 405.728 250.612 404.972Q262.671 397.166 274.856 389.556C259.386 362.046 241.698 319.694 219.033 299.053C211.693 292.369 203.874 288.061 194.834 284.083L213.872 283.462Z"/>
	<path fill="#357C50" d="M1650.39 16.4004C1657.86 15.6526 1665.41 15.7061 1672.91 15.5766C1675.23 19.6389 1672.24 30.0828 1671.32 34.6282C1659.32 93.4207 1643.94 168.406 1590.72 203.385C1576.47 212.747 1525.22 235.912 1509.25 232.258C1507 231.742 1505.64 230.795 1504.54 228.733C1495.87 212.557 1524.97 145.401 1535.64 129.53C1541.23 121.213 1558.69 106.008 1561.14 97.8472C1561.18 97.6973 1561.21 97.544 1561.25 97.3925C1563.91 95.5593 1575.16 84.459 1576.4 81.5255C1545.91 102.282 1519.76 130.129 1503.5 163.55C1499.05 172.699 1493.78 195.924 1486.86 201.71C1487.3 193.55 1484.34 184.596 1482.94 176.533C1477.4 144.535 1484.25 108.779 1503.14 82.1096C1539.06 31.3874 1594.68 25.9188 1650.39 16.4004Z"/>
	<path fill="#134E6E" d="M693.038 258.076L823.187 257.936L823.172 314.044L806.183 314.035L806.23 467.722L823.139 467.665C823.159 486.357 823.882 505.377 822.944 524.033L692.994 524.054L692.985 467.546L710.28 467.66L710.34 314.027L692.962 314.07L693.038 258.076Z"/>
	<path fill="#134E6E" d="M836.443 257.939L979.814 257.948C980.306 258.739 980.722 259.557 980.971 260.458C982.592 266.327 982.196 309.971 979.834 314.049L948.128 314.134C948.733 315.112 949.238 316.166 949.445 317.308C951.288 327.482 949.731 354.358 949.739 366.256L949.745 429.495C949.74 440.588 950.233 451.92 949.584 462.978C949.477 464.788 949.047 466.114 948.089 467.659L978.976 467.655C979.401 466.982 979.84 466.225 980.046 465.452C981.535 459.874 981.499 441.149 978.613 436.393L1046.66 436.45C1047.35 437.563 1047.93 438.755 1048.17 440.054C1049.28 446.14 1049.45 475.059 1046.73 479.39C1047.15 479.992 1047.5 480.608 1047.74 481.304C1049.63 486.643 1049.4 518.864 1046.86 523.94L836.429 524.042L836.396 467.634L852.429 467.655C852.887 467.016 853.203 466.388 853.43 465.63C855.232 459.596 854.648 333.211 853.803 318.712C853.697 316.889 853.29 315.552 852.349 313.979L836.417 314.059L836.443 257.939Z"/>
	<path fill="#357C50" d="M1622.09 229.151C1644.69 227.54 1667.04 231.988 1687.81 240.899C1733.4 260.46 1766.33 300.446 1784.31 345.875Q1788.15 355.661 1791.22 365.711Q1794.3 375.762 1796.6 386.018C1800.72 404.419 1808.29 454.895 1800.93 471.878C1798.82 468.325 1790.15 464.47 1786.38 462.154C1754.83 442.764 1721.52 432.702 1685.6 424.658C1662.12 419.402 1638.45 414.945 1616.46 404.778C1598.38 396.421 1589.89 382.345 1574.85 371.132L1574.23 370.673C1574.21 370.458 1574.21 370.243 1574.19 370.029C1573.75 365.584 1559.63 347.13 1556.49 341.452C1552.8 334.775 1549.56 328.005 1546.92 320.849C1542.51 308.876 1534.05 272.963 1525.58 265.594C1595.71 264.62 1645.51 278.626 1698.88 326.343C1704.39 331.264 1712.68 338.429 1713.13 346.221C1713.42 344.996 1713.65 343.721 1713.77 342.469C1714.36 336.195 1707.75 329.026 1703.95 324.473C1668.35 281.814 1611.06 253.649 1555.89 248.636C1563.47 246.152 1570.8 241.487 1578.38 238.621C1592.41 233.313 1607.36 231.537 1622.09 229.151Z"/>
	<path fill="#134E6E" d="M1059.74 258.204C1075.9 257.135 1092.59 257.965 1108.8 257.96L1195.31 257.614C1224.61 257.474 1258.85 258.427 1280.9 280.451C1296.45 295.978 1300.9 318.073 1300.79 339.321C1300.69 360.315 1295.88 381.823 1280.41 396.998C1253.37 423.534 1206.26 419.078 1171.31 418.626C1173.73 421.42 1173.8 428.73 1173.75 432.389C1173.69 436.369 1173.62 442.809 1170.67 445.659C1171.59 447.425 1172.37 449.321 1172.75 451.282C1173.76 456.483 1173.8 463.259 1170.7 467.734L1203.52 467.581C1204.75 469.029 1205.21 470.48 1205.48 472.315C1206.86 481.513 1208.2 517.405 1203.39 523.95L1058.53 524.045C1059.18 522.979 1059.73 521.844 1059.95 520.603C1061.23 513.574 1061.38 472.143 1058.51 467.55L1075.53 467.658C1075.96 466.977 1076.32 466.286 1076.59 465.527C1078.48 460.098 1077.73 334.492 1077.07 319.367C1076.99 317.399 1076.62 315.819 1075.77 314.044L1058.48 314.159C1058.55 314.038 1058.62 313.92 1058.68 313.796C1058.78 313.591 1058.87 313.379 1058.97 313.173C1061.77 307.386 1060.85 266.261 1059.74 258.204Z"/>
	<path fill="#FEFEFE" d="M1173.18 314.438C1177.82 314.022 1182.89 313.308 1187.5 314.255Q1188.02 314.36 1188.53 314.491Q1189.05 314.621 1189.55 314.778Q1190.06 314.934 1190.56 315.116Q1191.06 315.298 1191.54 315.504Q1192.03 315.711 1192.51 315.941Q1192.99 316.172 1193.45 316.426Q1193.92 316.681 1194.37 316.958Q1194.82 317.236 1195.26 317.536Q1195.69 317.835 1196.12 318.157Q1196.54 318.478 1196.94 318.82Q1197.35 319.162 1197.73 319.524Q1198.12 319.886 1198.49 320.268Q1198.86 320.649 1199.21 321.048Q1199.55 321.447 1199.88 321.863Q1200.21 322.279 1200.52 322.711Q1200.83 323.143 1201.11 323.59C1206.12 331.56 1206.3 343.915 1204.15 352.907C1202.74 358.82 1200.84 363.135 1195.58 366.374L1194.55 367.814C1187.48 371.292 1178.45 370.183 1170.74 370.018C1178.29 360.639 1169.3 319.301 1173.18 314.438Z"/>
	<path fill="#134E6E" d="M556.63 253.45C564.136 252.348 572.834 252.939 580.422 253.243C612.929 254.542 642.296 260.699 671.801 274.964L671.891 336.308C662.147 336.389 612.272 338.687 606.183 335.118C602.109 332.73 599.303 326.503 595.655 323.207C591.516 319.47 586.03 318.41 580.598 318.717C575.515 319.004 568.331 321.019 564.955 325.08Q564.664 325.425 564.41 325.797Q564.155 326.169 563.939 326.565Q563.723 326.961 563.548 327.376Q563.373 327.792 563.24 328.223Q563.108 328.654 563.019 329.096Q562.93 329.538 562.886 329.987Q562.843 330.436 562.844 330.887Q562.845 331.338 562.892 331.786C563.18 334.558 564.897 337.247 567.008 339.009C580.141 349.973 612.458 356.39 629.42 363.556C639.834 367.956 649.924 373.585 658.532 380.967C674.112 394.328 681.707 412.485 683.212 432.722C684.903 455.477 680.116 479.185 664.893 496.814C643.316 521.801 609.375 526.257 578.365 528.451C537.775 529.538 499.48 524.801 461.417 510.174L461.329 442.347C486.469 442.901 511.673 442.461 536.82 442.357C537.423 448.742 538.581 453.777 543.482 458.296C547.838 462.311 553.426 463.729 559.255 463.512C565.184 463.292 571.4 461.365 575.466 456.845C577.62 454.452 578.993 451.28 578.684 448.023C577.329 433.778 533.824 424.297 521.999 419.303C509.466 414.01 497.041 407.592 486.409 399.023C469.489 385.384 461.191 367.342 458.968 345.924C456.724 324.301 461.031 300.997 475.122 283.879C494.999 259.732 527.577 256.31 556.63 253.45Z"/>
	<path fill="#134E6E" d="M1380.71 258.205C1394.63 256.559 1409.19 257.817 1423.21 257.868L1503.39 257.951C1504.42 258.799 1505.41 259.749 1506.07 260.923C1512.14 271.831 1519.85 309.475 1523.62 323.201C1536.05 368.378 1550.17 413.225 1561.01 458.815C1561.72 461.796 1562.72 464.644 1561.86 467.687L1574.79 467.644C1576.02 469.217 1576.56 470.792 1576.84 472.759C1578.23 482.685 1579.82 517.059 1574.6 524.045L1440.75 524.155C1448.87 512.871 1437.22 481.605 1443.68 469.295C1444.33 468.058 1445.07 468.092 1446.33 467.662C1451.44 467.722 1456.72 468.086 1461.76 467.143C1462.42 466.023 1462.83 464.916 1462.87 463.612C1463.04 457.514 1460.14 444.89 1455.8 440.481L1410.03 440.486C1410.07 440.653 1410.12 440.821 1410.16 440.989C1412.05 448.76 1408.87 460.95 1404.86 467.723L1424.87 467.59C1424.94 467.75 1425.02 467.911 1425.09 468.07C1425.71 469.325 1426.2 470.513 1426.46 471.898C1428.06 480.373 1428.52 517.442 1424.2 523.945C1385.5 523.993 1346.53 524.965 1307.86 523.821C1308.44 522.503 1308.95 521.145 1309.22 519.726C1311.06 509.864 1311.98 474.98 1306.78 467.634L1320.76 467.679C1327.32 461.418 1365.75 315.997 1371.57 294.126C1374.69 282.368 1376.73 269.66 1380.71 258.205Z"/>
	<path fill="#FEFEFE" d="M1431.48 336.929C1432.89 336.784 1434.34 336.956 1435.75 337.05C1436.24 337.844 1436.69 338.666 1436.99 339.554C1440.2 349.07 1451.39 396.845 1447.76 404.183L1434.14 404.163L1416.75 404.176C1417.4 403.59 1417.95 403.023 1418.41 402.272C1422.76 395.194 1433.23 344.812 1431.48 336.929Z"/>
	<path fill="#357C50" d="M284.376 416.706C316.953 406.913 347.158 407.552 377.603 423.853C402.237 437.043 420.603 458.739 430.842 484.607C432.365 489.25 434.299 494.047 434.966 498.898C441.485 517.473 438.685 543.384 432.623 561.709Q432.168 563.066 431.68 564.411Q431.191 565.756 430.67 567.089Q430.149 568.422 429.595 569.742Q429.041 571.062 428.455 572.367Q427.869 573.673 427.251 574.964Q426.633 576.255 425.984 577.53Q425.334 578.806 424.654 580.065Q423.973 581.323 423.262 582.565Q422.55 583.807 421.808 585.031Q421.067 586.255 420.295 587.461Q419.524 588.666 418.723 589.853Q417.922 591.039 417.092 592.205Q416.262 593.371 415.404 594.516Q414.545 595.662 413.659 596.786Q412.773 597.91 411.859 599.011Q410.946 600.113 410.006 601.192Q409.065 602.271 408.099 603.327Q407.132 604.383 406.14 605.414Q405.148 606.446 404.13 607.453Q403.113 608.46 402.071 609.441Q401.03 610.423 399.964 611.379Q398.899 612.334 397.81 613.264Q396.721 614.193 395.61 615.095Q394.499 615.997 393.366 616.872Q392.233 617.747 391.078 618.593Q389.924 619.44 388.75 620.258Q387.575 621.076 386.381 621.865Q385.186 622.654 383.973 623.413Q382.759 624.172 381.528 624.902Q380.296 625.631 379.047 626.33Q377.797 627.029 376.531 627.696Q375.265 628.364 373.983 629.001Q370.922 630.533 367.775 631.879Q364.628 633.225 361.406 634.381Q358.184 635.537 354.899 636.498Q351.614 637.459 348.277 638.223Q344.94 638.986 341.563 639.548Q338.187 640.111 334.783 640.471Q331.379 640.83 327.959 640.986Q324.54 641.142 321.117 641.093C307.021 640.924 292.213 637.487 279.335 631.802C273.043 629.025 264.741 623.655 257.838 623.016C224.709 619.95 166.699 628.034 138.166 618.395C132.118 616.352 126.155 613.348 121.799 608.59C109.635 595.305 102.218 576.261 93.7562 560.44C83.9804 542.164 73.7816 524.021 64.594 505.445C73.1737 513.059 82.3867 519.053 93.4659 522.328C113.519 528.256 136.863 525.791 157.61 525.702Q182.388 525.629 207.165 525.935Q207.183 523.778 207.311 521.624C209.255 488.294 222.664 460.044 247.67 437.887C258.905 428.366 270.818 422.202 284.376 416.706Z"/>
	<path fill="#FEFEFE" d="M286.671 419.897C290.014 422.79 290.94 422.682 295.262 423.223C296.051 423.322 295.986 423.089 296.006 423.86C296.031 424.822 295.709 425.358 295.308 426.206C297.632 427.302 298.926 427.089 301.377 426.237C310.968 422.902 319.988 414.747 329.63 410.473L329.401 410.828C326.371 415.443 316.299 421.771 316.638 426.715C319.676 429.246 324.333 428.365 327.987 428.058C330.696 431.439 333.605 434.777 335.962 438.414C335.895 442.447 334.921 450.498 337.682 453.623C339.344 455.505 340.793 456.086 343.196 456.528C347.329 454.765 347.877 449.253 351.24 446.684C355.195 443.663 363.609 443.884 366.559 439.965C367.164 437.239 365.406 433.437 367.029 432.077L370.744 431.884C371.962 430.132 371.736 428.273 371.748 426.224C374.035 425.4 375.845 426.554 377.994 427.569C384.994 430.873 403.093 442.581 405.338 450.316C405.413 450.573 405.468 450.836 405.532 451.096C403.574 453.54 402.217 454.683 401.712 457.811L402.842 459.751C404.339 459.903 405.683 459.895 407.179 459.736C408.017 460.904 409.552 463.811 410.894 464.062C412.253 464.317 413.773 463.566 415.02 463.084L416.694 464.161L416.737 466.464C414.98 468.152 414.937 468.141 412.499 468.27C411 467.402 409.155 466.576 407.849 465.457C403.325 469.854 394.951 472.912 391.743 477.585L393.8 482.308C392.856 483.623 392.91 484.003 391.256 484.267C388.558 484.697 386.864 484.187 384.696 486.049C384.352 488.592 384.46 489.105 385.436 491.487C387.635 493.265 387.666 493.28 390.491 493.183C395.463 490.675 399.806 486.595 404.103 483.071Q409.182 486.29 414.076 489.785C412.5 487.372 410.97 484.968 409.584 482.439L409.893 481.563C414.961 482.864 418.134 493.109 422.931 490.066C424.077 489.339 424.865 488.247 425.681 487.184C426.348 494.584 431.791 494.711 431.15 503.104C421.006 499.138 417.17 503.796 410.092 500.028C407.611 498.708 406.794 496.023 404.4 494.671C400.535 492.491 391.86 495.902 387.829 496.965C383.379 501.854 379.847 507.852 376.159 513.338L375.347 524.854C380.62 534.33 383.617 536.604 394.651 536.377C396.546 536.338 399.132 536.084 400.941 536.686C411.185 540.098 409.25 566.38 410.967 574.675C411.865 579.016 414.364 583.396 416.307 587.363C409.022 597.107 401.349 605.95 391.762 613.513Q390.684 614.372 389.586 615.204Q388.487 616.035 387.367 616.839Q386.248 617.643 385.109 618.418Q383.969 619.193 382.811 619.94Q381.652 620.686 380.476 621.403Q379.299 622.12 378.104 622.807Q376.91 623.495 375.699 624.152Q374.487 624.809 373.26 625.435Q372.032 626.062 370.789 626.657Q369.546 627.252 368.289 627.816Q367.031 628.38 365.76 628.912Q364.489 629.445 363.205 629.945Q361.92 630.445 360.624 630.912Q359.328 631.38 358.02 631.815Q356.712 632.25 355.394 632.652Q354.076 633.053 352.748 633.422Q351.42 633.791 350.083 634.126Q348.746 634.461 347.401 634.762Q346.057 635.064 344.705 635.331Q343.353 635.599 341.994 635.832Q340.636 636.066 339.272 636.265Q337.909 636.464 336.54 636.629Q335.172 636.794 333.8 636.925Q332.428 637.055 331.053 637.151Q329.678 637.247 328.302 637.308Q326.925 637.37 325.547 637.396Q324.169 637.423 322.791 637.415Q321.413 637.407 320.035 637.365Q318.658 637.323 317.281 637.245Q315.905 637.168 314.532 637.057Q313.158 636.945 311.788 636.799Q310.417 636.653 309.051 636.472Q307.681 636.303 306.315 636.1Q304.949 635.897 303.589 635.66Q302.229 635.424 300.875 635.154Q299.521 634.883 298.174 634.58Q296.827 634.277 295.487 633.94Q294.148 633.604 292.818 633.234Q291.488 632.865 290.167 632.463Q288.846 632.061 287.535 631.626Q286.225 631.192 284.925 630.725Q283.626 630.259 282.338 629.76Q281.051 629.261 279.776 628.731Q278.501 628.201 277.24 627.64Q275.978 627.078 274.731 626.486Q273.484 625.893 272.252 625.271Q271.02 624.648 269.804 623.994Q268.587 623.341 267.387 622.658Q266.187 621.975 265.005 621.263Q263.822 620.551 262.657 619.81Q261.492 619.068 260.346 618.299Q259.2 617.529 258.073 616.731Q256.947 615.933 255.84 615.108Q254.733 614.283 253.647 613.43Q252.561 612.578 251.496 611.699Q250.431 610.82 249.389 609.916Q248.346 609.011 247.326 608.081Q246.306 607.15 245.309 606.195Q244.312 605.24 243.339 604.261Q242.366 603.281 241.418 602.278Q240.469 601.275 239.546 600.249Q238.622 599.223 237.724 598.174Q236.827 597.125 235.955 596.055Q235.083 594.985 234.238 593.893Q233.405 592.819 232.598 591.724Q231.792 590.63 231.012 589.516Q230.232 588.402 229.48 587.27Q228.728 586.138 228.004 584.987Q227.279 583.837 226.584 582.669Q225.888 581.501 225.221 580.316Q224.553 579.132 223.915 577.931Q223.277 576.731 222.669 575.515Q222.061 574.299 221.482 573.069Q220.904 571.839 220.356 570.595Q219.807 569.351 219.29 568.094Q218.772 566.837 218.285 565.567Q217.799 564.298 217.343 563.017Q216.888 561.736 216.464 560.445Q216.04 559.153 215.647 557.852Q215.255 556.55 214.894 555.239Q214.534 553.928 214.206 552.609Q213.878 551.29 213.582 549.963Q213.286 548.636 213.023 547.303Q212.759 545.969 212.529 544.63Q212.298 543.29 212.1 541.945Q211.902 540.6 211.738 539.251Q211.573 537.901 211.441 536.548Q211.309 535.195 211.211 533.839Q211.112 532.484 211.046 531.126Q210.981 529.768 210.949 528.409Q210.917 527.05 210.918 525.691Q210.919 524.331 210.953 522.972Q210.987 521.613 211.055 520.256Q211.122 518.898 211.223 517.542Q211.323 516.187 211.457 514.834Q211.591 513.481 211.758 512.132C213.548 498.187 222.532 467.34 233.785 458.623C234.873 458.462 235.983 458.367 237.065 458.619C245.06 460.479 250.785 470.885 254.923 477.266C254.171 481.489 254.124 485.912 253.866 490.191C261.273 500.497 270.422 507.215 276.24 518.763C284.513 521.961 292.248 526.016 300.379 529.343L301.114 527.531C300.572 524.879 297.38 522.828 295.35 521.146L295.142 516.995C291.65 515.508 288.537 518.84 284.669 517.51C283.626 515.925 283.434 514.421 283.432 512.569C283.431 510.196 284.096 508.582 285.849 506.927C288.397 504.521 292.19 503.201 295.688 503.469C298.623 503.694 299.838 505.448 301.583 507.513L302.62 507.349C304.368 501.912 305.924 495.709 308.843 490.776C311.092 486.976 314.259 483.696 318.623 482.581C320.139 482.193 321.605 481.667 323.089 481.175C321.118 479.524 318.731 477.925 317.513 475.625C319.81 473.481 328.506 472.942 331.844 472.41C326.559 465.859 317.791 455.703 309.145 453.844C302.631 455.785 308.054 467.916 304.609 472.774C301.829 472.888 301.784 470.456 300.149 468.393C296.958 464.367 290.639 461.846 286.209 459.111C288.627 455.636 291.562 451.057 295.323 448.998Q298.011 450.643 300.747 452.208L301.968 451.618L301.856 450.421C300.436 449.588 299.057 448.989 298.37 447.402C299.835 446.693 300.971 445.972 302.185 444.887L301.765 442.435L300.496 441.63L297.164 443.624C294.271 443.424 290.837 439.426 288.139 437.837C285.458 438.69 285.105 440.364 283.674 442.72C273.429 446.204 261.337 441.552 251.25 439.34C254.097 437.653 256.71 435.986 260.026 435.406C262.533 437.139 265.257 438.534 268.018 439.816C270.648 441.038 274.205 442.635 277.086 441.591L277.641 439.823C276.93 437.68 276.486 436.069 274.621 434.617C274.052 434.813 273.493 435.001 272.913 435.16C269.317 436.148 266.097 434.685 263.018 432.893L262.737 431.286C265.209 429.618 268.973 430.27 272.006 429.998L272.825 428.755L269.626 428.261L269.535 427.34C273.841 423.185 281.041 421.501 286.671 419.897Z"/>
	<path fill="#357C50" d="M310.241 441.242C305.279 439.877 300.26 439.889 295.31 438.547C293.533 436.871 293.675 436.827 293.554 434.361L294.905 433.141C301.353 434.636 307.673 436.137 313.893 438.421C317.488 440.233 320.4 441.871 323.334 444.703L323.838 446.703L322.576 447.74L319.207 447.157L318.603 448.161L320.913 451.747L320.288 453.305C316.695 454.165 311.16 452.002 308.093 450.164C309.107 446.3 314.324 448.055 310.885 442.123C310.641 441.703 310.519 441.577 310.241 441.242Z"/>
	<path fill="#357C50" d="M314.818 528.751C316.68 528.442 318.725 528.297 320.522 528.983C324.537 530.516 334.613 535.324 336.316 539.454C335.697 541.26 335.093 542.586 335.606 544.51C338.866 546.886 345.643 546.358 349.661 546.47C350.89 547.255 351.876 547.654 352.574 548.981C355.134 553.846 349.717 565.406 348.016 570.398C336.71 577.907 333.186 592.966 320.511 598.067C317.981 604.728 317.958 610.618 312.91 616.333L311.401 615.901L313.007 616.14L311.023 614.684C308.045 600.26 312.733 581.997 314.983 567.501L307.468 561.476C303.51 551.725 304.416 542.73 304.507 532.395C306.285 530.294 312.029 529.528 314.818 528.751Z"/>
	<path fill="#3689A6" d="M1476.92 649.965C1605.72 648.588 1750.98 664.848 1857.55 744.032C1864.68 749.33 1883.65 761.994 1884.9 770.5C1884.64 770.103 1884.36 769.681 1884.04 769.338C1874.7 759.483 1829.18 737.656 1815.45 731.791C1760.82 708.456 1701.9 696.329 1642.95 690.643C1543.23 681.026 1441.39 688.234 1342.02 699.011C1173.69 717.268 1006.79 749.308 839.95 777.836C720.935 798.186 594.797 820.214 474.141 823.234Q470.783 823.395 467.424 823.514C330.133 828.437 163.994 811.793 58.6835 713.708C73.7577 720.611 88.0487 729.644 103.005 736.926Q110.572 740.659 118.264 744.129Q125.955 747.599 133.761 750.804Q141.567 754.008 149.478 756.942Q157.39 759.877 165.397 762.538Q173.405 765.198 181.499 767.583Q189.593 769.967 197.765 772.072Q205.936 774.177 214.175 776.001Q222.414 777.824 230.711 779.363C358.521 803.507 490.503 787.957 618.203 770.956C779.714 749.453 939.349 716.147 1099.94 688.971Q1161.43 678.636 1223.28 670.834Q1285.14 663.033 1347.27 657.778C1390.34 654.106 1433.69 650.739 1476.92 649.965Z"/>
</svg>
